%TF.GenerationSoftware,KiCad,Pcbnew,9.0.4*%
%TF.CreationDate,2025-12-09T12:16:09-05:00*%
%TF.ProjectId,TARS,54415253-2e6b-4696-9361-645f70636258,rev?*%
%TF.SameCoordinates,Original*%
%TF.FileFunction,Legend,Top*%
%TF.FilePolarity,Positive*%
%FSLAX46Y46*%
G04 Gerber Fmt 4.6, Leading zero omitted, Abs format (unit mm)*
G04 Created by KiCad (PCBNEW 9.0.4) date 2025-12-09 12:16:09*
%MOMM*%
%LPD*%
G01*
G04 APERTURE LIST*
%ADD10C,0.150000*%
%ADD11C,0.120000*%
G04 APERTURE END LIST*
D10*
X173876905Y-148791819D02*
X173876905Y-147791819D01*
X173876905Y-147791819D02*
X174115000Y-147791819D01*
X174115000Y-147791819D02*
X174257857Y-147839438D01*
X174257857Y-147839438D02*
X174353095Y-147934676D01*
X174353095Y-147934676D02*
X174400714Y-148029914D01*
X174400714Y-148029914D02*
X174448333Y-148220390D01*
X174448333Y-148220390D02*
X174448333Y-148363247D01*
X174448333Y-148363247D02*
X174400714Y-148553723D01*
X174400714Y-148553723D02*
X174353095Y-148648961D01*
X174353095Y-148648961D02*
X174257857Y-148744200D01*
X174257857Y-148744200D02*
X174115000Y-148791819D01*
X174115000Y-148791819D02*
X173876905Y-148791819D01*
X175400714Y-148791819D02*
X174829286Y-148791819D01*
X175115000Y-148791819D02*
X175115000Y-147791819D01*
X175115000Y-147791819D02*
X175019762Y-147934676D01*
X175019762Y-147934676D02*
X174924524Y-148029914D01*
X174924524Y-148029914D02*
X174829286Y-148077533D01*
X169696714Y-124692819D02*
X169696714Y-123692819D01*
X169696714Y-123692819D02*
X169934809Y-123692819D01*
X169934809Y-123692819D02*
X170077666Y-123740438D01*
X170077666Y-123740438D02*
X170172904Y-123835676D01*
X170172904Y-123835676D02*
X170220523Y-123930914D01*
X170220523Y-123930914D02*
X170268142Y-124121390D01*
X170268142Y-124121390D02*
X170268142Y-124264247D01*
X170268142Y-124264247D02*
X170220523Y-124454723D01*
X170220523Y-124454723D02*
X170172904Y-124549961D01*
X170172904Y-124549961D02*
X170077666Y-124645200D01*
X170077666Y-124645200D02*
X169934809Y-124692819D01*
X169934809Y-124692819D02*
X169696714Y-124692819D01*
X171220523Y-124692819D02*
X170649095Y-124692819D01*
X170934809Y-124692819D02*
X170934809Y-123692819D01*
X170934809Y-123692819D02*
X170839571Y-123835676D01*
X170839571Y-123835676D02*
X170744333Y-123930914D01*
X170744333Y-123930914D02*
X170649095Y-123978533D01*
X171839571Y-123692819D02*
X171934809Y-123692819D01*
X171934809Y-123692819D02*
X172030047Y-123740438D01*
X172030047Y-123740438D02*
X172077666Y-123788057D01*
X172077666Y-123788057D02*
X172125285Y-123883295D01*
X172125285Y-123883295D02*
X172172904Y-124073771D01*
X172172904Y-124073771D02*
X172172904Y-124311866D01*
X172172904Y-124311866D02*
X172125285Y-124502342D01*
X172125285Y-124502342D02*
X172077666Y-124597580D01*
X172077666Y-124597580D02*
X172030047Y-124645200D01*
X172030047Y-124645200D02*
X171934809Y-124692819D01*
X171934809Y-124692819D02*
X171839571Y-124692819D01*
X171839571Y-124692819D02*
X171744333Y-124645200D01*
X171744333Y-124645200D02*
X171696714Y-124597580D01*
X171696714Y-124597580D02*
X171649095Y-124502342D01*
X171649095Y-124502342D02*
X171601476Y-124311866D01*
X171601476Y-124311866D02*
X171601476Y-124073771D01*
X171601476Y-124073771D02*
X171649095Y-123883295D01*
X171649095Y-123883295D02*
X171696714Y-123788057D01*
X171696714Y-123788057D02*
X171744333Y-123740438D01*
X171744333Y-123740438D02*
X171839571Y-123692819D01*
X159690476Y-122834819D02*
X159690476Y-123549104D01*
X159690476Y-123549104D02*
X159642857Y-123691961D01*
X159642857Y-123691961D02*
X159547619Y-123787200D01*
X159547619Y-123787200D02*
X159404762Y-123834819D01*
X159404762Y-123834819D02*
X159309524Y-123834819D01*
X160690476Y-123834819D02*
X160119048Y-123834819D01*
X160404762Y-123834819D02*
X160404762Y-122834819D01*
X160404762Y-122834819D02*
X160309524Y-122977676D01*
X160309524Y-122977676D02*
X160214286Y-123072914D01*
X160214286Y-123072914D02*
X160119048Y-123120533D01*
X161642857Y-123834819D02*
X161071429Y-123834819D01*
X161357143Y-123834819D02*
X161357143Y-122834819D01*
X161357143Y-122834819D02*
X161261905Y-122977676D01*
X161261905Y-122977676D02*
X161166667Y-123072914D01*
X161166667Y-123072914D02*
X161071429Y-123120533D01*
X137440476Y-135874819D02*
X137440476Y-136589104D01*
X137440476Y-136589104D02*
X137392857Y-136731961D01*
X137392857Y-136731961D02*
X137297619Y-136827200D01*
X137297619Y-136827200D02*
X137154762Y-136874819D01*
X137154762Y-136874819D02*
X137059524Y-136874819D01*
X138440476Y-136874819D02*
X137869048Y-136874819D01*
X138154762Y-136874819D02*
X138154762Y-135874819D01*
X138154762Y-135874819D02*
X138059524Y-136017676D01*
X138059524Y-136017676D02*
X137964286Y-136112914D01*
X137964286Y-136112914D02*
X137869048Y-136160533D01*
X139345238Y-135874819D02*
X138869048Y-135874819D01*
X138869048Y-135874819D02*
X138821429Y-136351009D01*
X138821429Y-136351009D02*
X138869048Y-136303390D01*
X138869048Y-136303390D02*
X138964286Y-136255771D01*
X138964286Y-136255771D02*
X139202381Y-136255771D01*
X139202381Y-136255771D02*
X139297619Y-136303390D01*
X139297619Y-136303390D02*
X139345238Y-136351009D01*
X139345238Y-136351009D02*
X139392857Y-136446247D01*
X139392857Y-136446247D02*
X139392857Y-136684342D01*
X139392857Y-136684342D02*
X139345238Y-136779580D01*
X139345238Y-136779580D02*
X139297619Y-136827200D01*
X139297619Y-136827200D02*
X139202381Y-136874819D01*
X139202381Y-136874819D02*
X138964286Y-136874819D01*
X138964286Y-136874819D02*
X138869048Y-136827200D01*
X138869048Y-136827200D02*
X138821429Y-136779580D01*
X146440476Y-140954819D02*
X146440476Y-141669104D01*
X146440476Y-141669104D02*
X146392857Y-141811961D01*
X146392857Y-141811961D02*
X146297619Y-141907200D01*
X146297619Y-141907200D02*
X146154762Y-141954819D01*
X146154762Y-141954819D02*
X146059524Y-141954819D01*
X147440476Y-141954819D02*
X146869048Y-141954819D01*
X147154762Y-141954819D02*
X147154762Y-140954819D01*
X147154762Y-140954819D02*
X147059524Y-141097676D01*
X147059524Y-141097676D02*
X146964286Y-141192914D01*
X146964286Y-141192914D02*
X146869048Y-141240533D01*
X147773810Y-140954819D02*
X148440476Y-140954819D01*
X148440476Y-140954819D02*
X148011905Y-141954819D01*
X151823333Y-100409580D02*
X151775714Y-100457200D01*
X151775714Y-100457200D02*
X151632857Y-100504819D01*
X151632857Y-100504819D02*
X151537619Y-100504819D01*
X151537619Y-100504819D02*
X151394762Y-100457200D01*
X151394762Y-100457200D02*
X151299524Y-100361961D01*
X151299524Y-100361961D02*
X151251905Y-100266723D01*
X151251905Y-100266723D02*
X151204286Y-100076247D01*
X151204286Y-100076247D02*
X151204286Y-99933390D01*
X151204286Y-99933390D02*
X151251905Y-99742914D01*
X151251905Y-99742914D02*
X151299524Y-99647676D01*
X151299524Y-99647676D02*
X151394762Y-99552438D01*
X151394762Y-99552438D02*
X151537619Y-99504819D01*
X151537619Y-99504819D02*
X151632857Y-99504819D01*
X151632857Y-99504819D02*
X151775714Y-99552438D01*
X151775714Y-99552438D02*
X151823333Y-99600057D01*
X152156667Y-99504819D02*
X152823333Y-99504819D01*
X152823333Y-99504819D02*
X152394762Y-100504819D01*
X166944642Y-92804819D02*
X166611309Y-92328628D01*
X166373214Y-92804819D02*
X166373214Y-91804819D01*
X166373214Y-91804819D02*
X166754166Y-91804819D01*
X166754166Y-91804819D02*
X166849404Y-91852438D01*
X166849404Y-91852438D02*
X166897023Y-91900057D01*
X166897023Y-91900057D02*
X166944642Y-91995295D01*
X166944642Y-91995295D02*
X166944642Y-92138152D01*
X166944642Y-92138152D02*
X166897023Y-92233390D01*
X166897023Y-92233390D02*
X166849404Y-92281009D01*
X166849404Y-92281009D02*
X166754166Y-92328628D01*
X166754166Y-92328628D02*
X166373214Y-92328628D01*
X167897023Y-92804819D02*
X167325595Y-92804819D01*
X167611309Y-92804819D02*
X167611309Y-91804819D01*
X167611309Y-91804819D02*
X167516071Y-91947676D01*
X167516071Y-91947676D02*
X167420833Y-92042914D01*
X167420833Y-92042914D02*
X167325595Y-92090533D01*
X168801785Y-91804819D02*
X168325595Y-91804819D01*
X168325595Y-91804819D02*
X168277976Y-92281009D01*
X168277976Y-92281009D02*
X168325595Y-92233390D01*
X168325595Y-92233390D02*
X168420833Y-92185771D01*
X168420833Y-92185771D02*
X168658928Y-92185771D01*
X168658928Y-92185771D02*
X168754166Y-92233390D01*
X168754166Y-92233390D02*
X168801785Y-92281009D01*
X168801785Y-92281009D02*
X168849404Y-92376247D01*
X168849404Y-92376247D02*
X168849404Y-92614342D01*
X168849404Y-92614342D02*
X168801785Y-92709580D01*
X168801785Y-92709580D02*
X168754166Y-92757200D01*
X168754166Y-92757200D02*
X168658928Y-92804819D01*
X168658928Y-92804819D02*
X168420833Y-92804819D01*
X168420833Y-92804819D02*
X168325595Y-92757200D01*
X168325595Y-92757200D02*
X168277976Y-92709580D01*
X155161904Y-121140180D02*
X155161904Y-120330657D01*
X155161904Y-120330657D02*
X155114285Y-120235419D01*
X155114285Y-120235419D02*
X155066666Y-120187800D01*
X155066666Y-120187800D02*
X154971428Y-120140180D01*
X154971428Y-120140180D02*
X154780952Y-120140180D01*
X154780952Y-120140180D02*
X154685714Y-120187800D01*
X154685714Y-120187800D02*
X154638095Y-120235419D01*
X154638095Y-120235419D02*
X154590476Y-120330657D01*
X154590476Y-120330657D02*
X154590476Y-121140180D01*
X153590476Y-120140180D02*
X154161904Y-120140180D01*
X153876190Y-120140180D02*
X153876190Y-121140180D01*
X153876190Y-121140180D02*
X153971428Y-120997323D01*
X153971428Y-120997323D02*
X154066666Y-120902085D01*
X154066666Y-120902085D02*
X154161904Y-120854466D01*
X155833333Y-124679580D02*
X155785714Y-124727200D01*
X155785714Y-124727200D02*
X155642857Y-124774819D01*
X155642857Y-124774819D02*
X155547619Y-124774819D01*
X155547619Y-124774819D02*
X155404762Y-124727200D01*
X155404762Y-124727200D02*
X155309524Y-124631961D01*
X155309524Y-124631961D02*
X155261905Y-124536723D01*
X155261905Y-124536723D02*
X155214286Y-124346247D01*
X155214286Y-124346247D02*
X155214286Y-124203390D01*
X155214286Y-124203390D02*
X155261905Y-124012914D01*
X155261905Y-124012914D02*
X155309524Y-123917676D01*
X155309524Y-123917676D02*
X155404762Y-123822438D01*
X155404762Y-123822438D02*
X155547619Y-123774819D01*
X155547619Y-123774819D02*
X155642857Y-123774819D01*
X155642857Y-123774819D02*
X155785714Y-123822438D01*
X155785714Y-123822438D02*
X155833333Y-123870057D01*
X156166667Y-123774819D02*
X156785714Y-123774819D01*
X156785714Y-123774819D02*
X156452381Y-124155771D01*
X156452381Y-124155771D02*
X156595238Y-124155771D01*
X156595238Y-124155771D02*
X156690476Y-124203390D01*
X156690476Y-124203390D02*
X156738095Y-124251009D01*
X156738095Y-124251009D02*
X156785714Y-124346247D01*
X156785714Y-124346247D02*
X156785714Y-124584342D01*
X156785714Y-124584342D02*
X156738095Y-124679580D01*
X156738095Y-124679580D02*
X156690476Y-124727200D01*
X156690476Y-124727200D02*
X156595238Y-124774819D01*
X156595238Y-124774819D02*
X156309524Y-124774819D01*
X156309524Y-124774819D02*
X156214286Y-124727200D01*
X156214286Y-124727200D02*
X156166667Y-124679580D01*
X159857142Y-131454819D02*
X159380952Y-131454819D01*
X159380952Y-131454819D02*
X159380952Y-130454819D01*
X160142857Y-131407200D02*
X160285714Y-131454819D01*
X160285714Y-131454819D02*
X160523809Y-131454819D01*
X160523809Y-131454819D02*
X160619047Y-131407200D01*
X160619047Y-131407200D02*
X160666666Y-131359580D01*
X160666666Y-131359580D02*
X160714285Y-131264342D01*
X160714285Y-131264342D02*
X160714285Y-131169104D01*
X160714285Y-131169104D02*
X160666666Y-131073866D01*
X160666666Y-131073866D02*
X160619047Y-131026247D01*
X160619047Y-131026247D02*
X160523809Y-130978628D01*
X160523809Y-130978628D02*
X160333333Y-130931009D01*
X160333333Y-130931009D02*
X160238095Y-130883390D01*
X160238095Y-130883390D02*
X160190476Y-130835771D01*
X160190476Y-130835771D02*
X160142857Y-130740533D01*
X160142857Y-130740533D02*
X160142857Y-130645295D01*
X160142857Y-130645295D02*
X160190476Y-130550057D01*
X160190476Y-130550057D02*
X160238095Y-130502438D01*
X160238095Y-130502438D02*
X160333333Y-130454819D01*
X160333333Y-130454819D02*
X160571428Y-130454819D01*
X160571428Y-130454819D02*
X160714285Y-130502438D01*
X161666666Y-131454819D02*
X161095238Y-131454819D01*
X161380952Y-131454819D02*
X161380952Y-130454819D01*
X161380952Y-130454819D02*
X161285714Y-130597676D01*
X161285714Y-130597676D02*
X161190476Y-130692914D01*
X161190476Y-130692914D02*
X161095238Y-130740533D01*
X145823333Y-100409580D02*
X145775714Y-100457200D01*
X145775714Y-100457200D02*
X145632857Y-100504819D01*
X145632857Y-100504819D02*
X145537619Y-100504819D01*
X145537619Y-100504819D02*
X145394762Y-100457200D01*
X145394762Y-100457200D02*
X145299524Y-100361961D01*
X145299524Y-100361961D02*
X145251905Y-100266723D01*
X145251905Y-100266723D02*
X145204286Y-100076247D01*
X145204286Y-100076247D02*
X145204286Y-99933390D01*
X145204286Y-99933390D02*
X145251905Y-99742914D01*
X145251905Y-99742914D02*
X145299524Y-99647676D01*
X145299524Y-99647676D02*
X145394762Y-99552438D01*
X145394762Y-99552438D02*
X145537619Y-99504819D01*
X145537619Y-99504819D02*
X145632857Y-99504819D01*
X145632857Y-99504819D02*
X145775714Y-99552438D01*
X145775714Y-99552438D02*
X145823333Y-99600057D01*
X146728095Y-99504819D02*
X146251905Y-99504819D01*
X146251905Y-99504819D02*
X146204286Y-99981009D01*
X146204286Y-99981009D02*
X146251905Y-99933390D01*
X146251905Y-99933390D02*
X146347143Y-99885771D01*
X146347143Y-99885771D02*
X146585238Y-99885771D01*
X146585238Y-99885771D02*
X146680476Y-99933390D01*
X146680476Y-99933390D02*
X146728095Y-99981009D01*
X146728095Y-99981009D02*
X146775714Y-100076247D01*
X146775714Y-100076247D02*
X146775714Y-100314342D01*
X146775714Y-100314342D02*
X146728095Y-100409580D01*
X146728095Y-100409580D02*
X146680476Y-100457200D01*
X146680476Y-100457200D02*
X146585238Y-100504819D01*
X146585238Y-100504819D02*
X146347143Y-100504819D01*
X146347143Y-100504819D02*
X146251905Y-100457200D01*
X146251905Y-100457200D02*
X146204286Y-100409580D01*
X159690476Y-94574819D02*
X159690476Y-93574819D01*
X159690476Y-93574819D02*
X160023809Y-94289104D01*
X160023809Y-94289104D02*
X160357142Y-93574819D01*
X160357142Y-93574819D02*
X160357142Y-94574819D01*
X160785714Y-93670057D02*
X160833333Y-93622438D01*
X160833333Y-93622438D02*
X160928571Y-93574819D01*
X160928571Y-93574819D02*
X161166666Y-93574819D01*
X161166666Y-93574819D02*
X161261904Y-93622438D01*
X161261904Y-93622438D02*
X161309523Y-93670057D01*
X161309523Y-93670057D02*
X161357142Y-93765295D01*
X161357142Y-93765295D02*
X161357142Y-93860533D01*
X161357142Y-93860533D02*
X161309523Y-94003390D01*
X161309523Y-94003390D02*
X160738095Y-94574819D01*
X160738095Y-94574819D02*
X161357142Y-94574819D01*
X173875905Y-140405819D02*
X173875905Y-139405819D01*
X173875905Y-139405819D02*
X174114000Y-139405819D01*
X174114000Y-139405819D02*
X174256857Y-139453438D01*
X174256857Y-139453438D02*
X174352095Y-139548676D01*
X174352095Y-139548676D02*
X174399714Y-139643914D01*
X174399714Y-139643914D02*
X174447333Y-139834390D01*
X174447333Y-139834390D02*
X174447333Y-139977247D01*
X174447333Y-139977247D02*
X174399714Y-140167723D01*
X174399714Y-140167723D02*
X174352095Y-140262961D01*
X174352095Y-140262961D02*
X174256857Y-140358200D01*
X174256857Y-140358200D02*
X174114000Y-140405819D01*
X174114000Y-140405819D02*
X173875905Y-140405819D01*
X175352095Y-139405819D02*
X174875905Y-139405819D01*
X174875905Y-139405819D02*
X174828286Y-139882009D01*
X174828286Y-139882009D02*
X174875905Y-139834390D01*
X174875905Y-139834390D02*
X174971143Y-139786771D01*
X174971143Y-139786771D02*
X175209238Y-139786771D01*
X175209238Y-139786771D02*
X175304476Y-139834390D01*
X175304476Y-139834390D02*
X175352095Y-139882009D01*
X175352095Y-139882009D02*
X175399714Y-139977247D01*
X175399714Y-139977247D02*
X175399714Y-140215342D01*
X175399714Y-140215342D02*
X175352095Y-140310580D01*
X175352095Y-140310580D02*
X175304476Y-140358200D01*
X175304476Y-140358200D02*
X175209238Y-140405819D01*
X175209238Y-140405819D02*
X174971143Y-140405819D01*
X174971143Y-140405819D02*
X174875905Y-140358200D01*
X174875905Y-140358200D02*
X174828286Y-140310580D01*
X157190476Y-141954819D02*
X157190476Y-142669104D01*
X157190476Y-142669104D02*
X157142857Y-142811961D01*
X157142857Y-142811961D02*
X157047619Y-142907200D01*
X157047619Y-142907200D02*
X156904762Y-142954819D01*
X156904762Y-142954819D02*
X156809524Y-142954819D01*
X158190476Y-142954819D02*
X157619048Y-142954819D01*
X157904762Y-142954819D02*
X157904762Y-141954819D01*
X157904762Y-141954819D02*
X157809524Y-142097676D01*
X157809524Y-142097676D02*
X157714286Y-142192914D01*
X157714286Y-142192914D02*
X157619048Y-142240533D01*
X158523810Y-141954819D02*
X159142857Y-141954819D01*
X159142857Y-141954819D02*
X158809524Y-142335771D01*
X158809524Y-142335771D02*
X158952381Y-142335771D01*
X158952381Y-142335771D02*
X159047619Y-142383390D01*
X159047619Y-142383390D02*
X159095238Y-142431009D01*
X159095238Y-142431009D02*
X159142857Y-142526247D01*
X159142857Y-142526247D02*
X159142857Y-142764342D01*
X159142857Y-142764342D02*
X159095238Y-142859580D01*
X159095238Y-142859580D02*
X159047619Y-142907200D01*
X159047619Y-142907200D02*
X158952381Y-142954819D01*
X158952381Y-142954819D02*
X158666667Y-142954819D01*
X158666667Y-142954819D02*
X158571429Y-142907200D01*
X158571429Y-142907200D02*
X158523810Y-142859580D01*
X169651214Y-116060819D02*
X169651214Y-115060819D01*
X169651214Y-115060819D02*
X169889309Y-115060819D01*
X169889309Y-115060819D02*
X170032166Y-115108438D01*
X170032166Y-115108438D02*
X170127404Y-115203676D01*
X170127404Y-115203676D02*
X170175023Y-115298914D01*
X170175023Y-115298914D02*
X170222642Y-115489390D01*
X170222642Y-115489390D02*
X170222642Y-115632247D01*
X170222642Y-115632247D02*
X170175023Y-115822723D01*
X170175023Y-115822723D02*
X170127404Y-115917961D01*
X170127404Y-115917961D02*
X170032166Y-116013200D01*
X170032166Y-116013200D02*
X169889309Y-116060819D01*
X169889309Y-116060819D02*
X169651214Y-116060819D01*
X171175023Y-116060819D02*
X170603595Y-116060819D01*
X170889309Y-116060819D02*
X170889309Y-115060819D01*
X170889309Y-115060819D02*
X170794071Y-115203676D01*
X170794071Y-115203676D02*
X170698833Y-115298914D01*
X170698833Y-115298914D02*
X170603595Y-115346533D01*
X172127404Y-116060819D02*
X171555976Y-116060819D01*
X171841690Y-116060819D02*
X171841690Y-115060819D01*
X171841690Y-115060819D02*
X171746452Y-115203676D01*
X171746452Y-115203676D02*
X171651214Y-115298914D01*
X171651214Y-115298914D02*
X171555976Y-115346533D01*
X170101905Y-149898819D02*
X170101905Y-148898819D01*
X170101905Y-148898819D02*
X170340000Y-148898819D01*
X170340000Y-148898819D02*
X170482857Y-148946438D01*
X170482857Y-148946438D02*
X170578095Y-149041676D01*
X170578095Y-149041676D02*
X170625714Y-149136914D01*
X170625714Y-149136914D02*
X170673333Y-149327390D01*
X170673333Y-149327390D02*
X170673333Y-149470247D01*
X170673333Y-149470247D02*
X170625714Y-149660723D01*
X170625714Y-149660723D02*
X170578095Y-149755961D01*
X170578095Y-149755961D02*
X170482857Y-149851200D01*
X170482857Y-149851200D02*
X170340000Y-149898819D01*
X170340000Y-149898819D02*
X170101905Y-149898819D01*
X171054286Y-148994057D02*
X171101905Y-148946438D01*
X171101905Y-148946438D02*
X171197143Y-148898819D01*
X171197143Y-148898819D02*
X171435238Y-148898819D01*
X171435238Y-148898819D02*
X171530476Y-148946438D01*
X171530476Y-148946438D02*
X171578095Y-148994057D01*
X171578095Y-148994057D02*
X171625714Y-149089295D01*
X171625714Y-149089295D02*
X171625714Y-149184533D01*
X171625714Y-149184533D02*
X171578095Y-149327390D01*
X171578095Y-149327390D02*
X171006667Y-149898819D01*
X171006667Y-149898819D02*
X171625714Y-149898819D01*
X134684819Y-83333333D02*
X135399104Y-83333333D01*
X135399104Y-83333333D02*
X135541961Y-83380952D01*
X135541961Y-83380952D02*
X135637200Y-83476190D01*
X135637200Y-83476190D02*
X135684819Y-83619047D01*
X135684819Y-83619047D02*
X135684819Y-83714285D01*
X135684819Y-82333333D02*
X135684819Y-82904761D01*
X135684819Y-82619047D02*
X134684819Y-82619047D01*
X134684819Y-82619047D02*
X134827676Y-82714285D01*
X134827676Y-82714285D02*
X134922914Y-82809523D01*
X134922914Y-82809523D02*
X134970533Y-82904761D01*
X158583333Y-138109580D02*
X158535714Y-138157200D01*
X158535714Y-138157200D02*
X158392857Y-138204819D01*
X158392857Y-138204819D02*
X158297619Y-138204819D01*
X158297619Y-138204819D02*
X158154762Y-138157200D01*
X158154762Y-138157200D02*
X158059524Y-138061961D01*
X158059524Y-138061961D02*
X158011905Y-137966723D01*
X158011905Y-137966723D02*
X157964286Y-137776247D01*
X157964286Y-137776247D02*
X157964286Y-137633390D01*
X157964286Y-137633390D02*
X158011905Y-137442914D01*
X158011905Y-137442914D02*
X158059524Y-137347676D01*
X158059524Y-137347676D02*
X158154762Y-137252438D01*
X158154762Y-137252438D02*
X158297619Y-137204819D01*
X158297619Y-137204819D02*
X158392857Y-137204819D01*
X158392857Y-137204819D02*
X158535714Y-137252438D01*
X158535714Y-137252438D02*
X158583333Y-137300057D01*
X159535714Y-138204819D02*
X158964286Y-138204819D01*
X159250000Y-138204819D02*
X159250000Y-137204819D01*
X159250000Y-137204819D02*
X159154762Y-137347676D01*
X159154762Y-137347676D02*
X159059524Y-137442914D01*
X159059524Y-137442914D02*
X158964286Y-137490533D01*
X148823333Y-100409580D02*
X148775714Y-100457200D01*
X148775714Y-100457200D02*
X148632857Y-100504819D01*
X148632857Y-100504819D02*
X148537619Y-100504819D01*
X148537619Y-100504819D02*
X148394762Y-100457200D01*
X148394762Y-100457200D02*
X148299524Y-100361961D01*
X148299524Y-100361961D02*
X148251905Y-100266723D01*
X148251905Y-100266723D02*
X148204286Y-100076247D01*
X148204286Y-100076247D02*
X148204286Y-99933390D01*
X148204286Y-99933390D02*
X148251905Y-99742914D01*
X148251905Y-99742914D02*
X148299524Y-99647676D01*
X148299524Y-99647676D02*
X148394762Y-99552438D01*
X148394762Y-99552438D02*
X148537619Y-99504819D01*
X148537619Y-99504819D02*
X148632857Y-99504819D01*
X148632857Y-99504819D02*
X148775714Y-99552438D01*
X148775714Y-99552438D02*
X148823333Y-99600057D01*
X149680476Y-99504819D02*
X149490000Y-99504819D01*
X149490000Y-99504819D02*
X149394762Y-99552438D01*
X149394762Y-99552438D02*
X149347143Y-99600057D01*
X149347143Y-99600057D02*
X149251905Y-99742914D01*
X149251905Y-99742914D02*
X149204286Y-99933390D01*
X149204286Y-99933390D02*
X149204286Y-100314342D01*
X149204286Y-100314342D02*
X149251905Y-100409580D01*
X149251905Y-100409580D02*
X149299524Y-100457200D01*
X149299524Y-100457200D02*
X149394762Y-100504819D01*
X149394762Y-100504819D02*
X149585238Y-100504819D01*
X149585238Y-100504819D02*
X149680476Y-100457200D01*
X149680476Y-100457200D02*
X149728095Y-100409580D01*
X149728095Y-100409580D02*
X149775714Y-100314342D01*
X149775714Y-100314342D02*
X149775714Y-100076247D01*
X149775714Y-100076247D02*
X149728095Y-99981009D01*
X149728095Y-99981009D02*
X149680476Y-99933390D01*
X149680476Y-99933390D02*
X149585238Y-99885771D01*
X149585238Y-99885771D02*
X149394762Y-99885771D01*
X149394762Y-99885771D02*
X149299524Y-99933390D01*
X149299524Y-99933390D02*
X149251905Y-99981009D01*
X149251905Y-99981009D02*
X149204286Y-100076247D01*
X173838905Y-119806819D02*
X173838905Y-118806819D01*
X173838905Y-118806819D02*
X174077000Y-118806819D01*
X174077000Y-118806819D02*
X174219857Y-118854438D01*
X174219857Y-118854438D02*
X174315095Y-118949676D01*
X174315095Y-118949676D02*
X174362714Y-119044914D01*
X174362714Y-119044914D02*
X174410333Y-119235390D01*
X174410333Y-119235390D02*
X174410333Y-119378247D01*
X174410333Y-119378247D02*
X174362714Y-119568723D01*
X174362714Y-119568723D02*
X174315095Y-119663961D01*
X174315095Y-119663961D02*
X174219857Y-119759200D01*
X174219857Y-119759200D02*
X174077000Y-119806819D01*
X174077000Y-119806819D02*
X173838905Y-119806819D01*
X174886524Y-119806819D02*
X175077000Y-119806819D01*
X175077000Y-119806819D02*
X175172238Y-119759200D01*
X175172238Y-119759200D02*
X175219857Y-119711580D01*
X175219857Y-119711580D02*
X175315095Y-119568723D01*
X175315095Y-119568723D02*
X175362714Y-119378247D01*
X175362714Y-119378247D02*
X175362714Y-118997295D01*
X175362714Y-118997295D02*
X175315095Y-118902057D01*
X175315095Y-118902057D02*
X175267476Y-118854438D01*
X175267476Y-118854438D02*
X175172238Y-118806819D01*
X175172238Y-118806819D02*
X174981762Y-118806819D01*
X174981762Y-118806819D02*
X174886524Y-118854438D01*
X174886524Y-118854438D02*
X174838905Y-118902057D01*
X174838905Y-118902057D02*
X174791286Y-118997295D01*
X174791286Y-118997295D02*
X174791286Y-119235390D01*
X174791286Y-119235390D02*
X174838905Y-119330628D01*
X174838905Y-119330628D02*
X174886524Y-119378247D01*
X174886524Y-119378247D02*
X174981762Y-119425866D01*
X174981762Y-119425866D02*
X175172238Y-119425866D01*
X175172238Y-119425866D02*
X175267476Y-119378247D01*
X175267476Y-119378247D02*
X175315095Y-119330628D01*
X175315095Y-119330628D02*
X175362714Y-119235390D01*
X169954819Y-105333333D02*
X170669104Y-105333333D01*
X170669104Y-105333333D02*
X170811961Y-105380952D01*
X170811961Y-105380952D02*
X170907200Y-105476190D01*
X170907200Y-105476190D02*
X170954819Y-105619047D01*
X170954819Y-105619047D02*
X170954819Y-105714285D01*
X169954819Y-104952380D02*
X169954819Y-104333333D01*
X169954819Y-104333333D02*
X170335771Y-104666666D01*
X170335771Y-104666666D02*
X170335771Y-104523809D01*
X170335771Y-104523809D02*
X170383390Y-104428571D01*
X170383390Y-104428571D02*
X170431009Y-104380952D01*
X170431009Y-104380952D02*
X170526247Y-104333333D01*
X170526247Y-104333333D02*
X170764342Y-104333333D01*
X170764342Y-104333333D02*
X170859580Y-104380952D01*
X170859580Y-104380952D02*
X170907200Y-104428571D01*
X170907200Y-104428571D02*
X170954819Y-104523809D01*
X170954819Y-104523809D02*
X170954819Y-104809523D01*
X170954819Y-104809523D02*
X170907200Y-104904761D01*
X170907200Y-104904761D02*
X170859580Y-104952380D01*
X142670833Y-138304819D02*
X142337500Y-137828628D01*
X142099405Y-138304819D02*
X142099405Y-137304819D01*
X142099405Y-137304819D02*
X142480357Y-137304819D01*
X142480357Y-137304819D02*
X142575595Y-137352438D01*
X142575595Y-137352438D02*
X142623214Y-137400057D01*
X142623214Y-137400057D02*
X142670833Y-137495295D01*
X142670833Y-137495295D02*
X142670833Y-137638152D01*
X142670833Y-137638152D02*
X142623214Y-137733390D01*
X142623214Y-137733390D02*
X142575595Y-137781009D01*
X142575595Y-137781009D02*
X142480357Y-137828628D01*
X142480357Y-137828628D02*
X142099405Y-137828628D01*
X143527976Y-137638152D02*
X143527976Y-138304819D01*
X143289881Y-137257200D02*
X143051786Y-137971485D01*
X143051786Y-137971485D02*
X143670833Y-137971485D01*
X174341666Y-115904819D02*
X174341666Y-116619104D01*
X174341666Y-116619104D02*
X174294047Y-116761961D01*
X174294047Y-116761961D02*
X174198809Y-116857200D01*
X174198809Y-116857200D02*
X174055952Y-116904819D01*
X174055952Y-116904819D02*
X173960714Y-116904819D01*
X175294047Y-115904819D02*
X174817857Y-115904819D01*
X174817857Y-115904819D02*
X174770238Y-116381009D01*
X174770238Y-116381009D02*
X174817857Y-116333390D01*
X174817857Y-116333390D02*
X174913095Y-116285771D01*
X174913095Y-116285771D02*
X175151190Y-116285771D01*
X175151190Y-116285771D02*
X175246428Y-116333390D01*
X175246428Y-116333390D02*
X175294047Y-116381009D01*
X175294047Y-116381009D02*
X175341666Y-116476247D01*
X175341666Y-116476247D02*
X175341666Y-116714342D01*
X175341666Y-116714342D02*
X175294047Y-116809580D01*
X175294047Y-116809580D02*
X175246428Y-116857200D01*
X175246428Y-116857200D02*
X175151190Y-116904819D01*
X175151190Y-116904819D02*
X174913095Y-116904819D01*
X174913095Y-116904819D02*
X174817857Y-116857200D01*
X174817857Y-116857200D02*
X174770238Y-116809580D01*
X155833333Y-128179580D02*
X155785714Y-128227200D01*
X155785714Y-128227200D02*
X155642857Y-128274819D01*
X155642857Y-128274819D02*
X155547619Y-128274819D01*
X155547619Y-128274819D02*
X155404762Y-128227200D01*
X155404762Y-128227200D02*
X155309524Y-128131961D01*
X155309524Y-128131961D02*
X155261905Y-128036723D01*
X155261905Y-128036723D02*
X155214286Y-127846247D01*
X155214286Y-127846247D02*
X155214286Y-127703390D01*
X155214286Y-127703390D02*
X155261905Y-127512914D01*
X155261905Y-127512914D02*
X155309524Y-127417676D01*
X155309524Y-127417676D02*
X155404762Y-127322438D01*
X155404762Y-127322438D02*
X155547619Y-127274819D01*
X155547619Y-127274819D02*
X155642857Y-127274819D01*
X155642857Y-127274819D02*
X155785714Y-127322438D01*
X155785714Y-127322438D02*
X155833333Y-127370057D01*
X156690476Y-127608152D02*
X156690476Y-128274819D01*
X156452381Y-127227200D02*
X156214286Y-127941485D01*
X156214286Y-127941485D02*
X156833333Y-127941485D01*
X154600595Y-137204819D02*
X154600595Y-138014342D01*
X154600595Y-138014342D02*
X154648214Y-138109580D01*
X154648214Y-138109580D02*
X154695833Y-138157200D01*
X154695833Y-138157200D02*
X154791071Y-138204819D01*
X154791071Y-138204819D02*
X154981547Y-138204819D01*
X154981547Y-138204819D02*
X155076785Y-138157200D01*
X155076785Y-138157200D02*
X155124404Y-138109580D01*
X155124404Y-138109580D02*
X155172023Y-138014342D01*
X155172023Y-138014342D02*
X155172023Y-137204819D01*
X155600595Y-137300057D02*
X155648214Y-137252438D01*
X155648214Y-137252438D02*
X155743452Y-137204819D01*
X155743452Y-137204819D02*
X155981547Y-137204819D01*
X155981547Y-137204819D02*
X156076785Y-137252438D01*
X156076785Y-137252438D02*
X156124404Y-137300057D01*
X156124404Y-137300057D02*
X156172023Y-137395295D01*
X156172023Y-137395295D02*
X156172023Y-137490533D01*
X156172023Y-137490533D02*
X156124404Y-137633390D01*
X156124404Y-137633390D02*
X155552976Y-138204819D01*
X155552976Y-138204819D02*
X156172023Y-138204819D01*
X138666667Y-88907200D02*
X138809524Y-88954819D01*
X138809524Y-88954819D02*
X139047619Y-88954819D01*
X139047619Y-88954819D02*
X139142857Y-88907200D01*
X139142857Y-88907200D02*
X139190476Y-88859580D01*
X139190476Y-88859580D02*
X139238095Y-88764342D01*
X139238095Y-88764342D02*
X139238095Y-88669104D01*
X139238095Y-88669104D02*
X139190476Y-88573866D01*
X139190476Y-88573866D02*
X139142857Y-88526247D01*
X139142857Y-88526247D02*
X139047619Y-88478628D01*
X139047619Y-88478628D02*
X138857143Y-88431009D01*
X138857143Y-88431009D02*
X138761905Y-88383390D01*
X138761905Y-88383390D02*
X138714286Y-88335771D01*
X138714286Y-88335771D02*
X138666667Y-88240533D01*
X138666667Y-88240533D02*
X138666667Y-88145295D01*
X138666667Y-88145295D02*
X138714286Y-88050057D01*
X138714286Y-88050057D02*
X138761905Y-88002438D01*
X138761905Y-88002438D02*
X138857143Y-87954819D01*
X138857143Y-87954819D02*
X139095238Y-87954819D01*
X139095238Y-87954819D02*
X139238095Y-88002438D01*
X139571429Y-87954819D02*
X139809524Y-88954819D01*
X139809524Y-88954819D02*
X140000000Y-88240533D01*
X140000000Y-88240533D02*
X140190476Y-88954819D01*
X140190476Y-88954819D02*
X140428572Y-87954819D01*
X141238095Y-87954819D02*
X141047619Y-87954819D01*
X141047619Y-87954819D02*
X140952381Y-88002438D01*
X140952381Y-88002438D02*
X140904762Y-88050057D01*
X140904762Y-88050057D02*
X140809524Y-88192914D01*
X140809524Y-88192914D02*
X140761905Y-88383390D01*
X140761905Y-88383390D02*
X140761905Y-88764342D01*
X140761905Y-88764342D02*
X140809524Y-88859580D01*
X140809524Y-88859580D02*
X140857143Y-88907200D01*
X140857143Y-88907200D02*
X140952381Y-88954819D01*
X140952381Y-88954819D02*
X141142857Y-88954819D01*
X141142857Y-88954819D02*
X141238095Y-88907200D01*
X141238095Y-88907200D02*
X141285714Y-88859580D01*
X141285714Y-88859580D02*
X141333333Y-88764342D01*
X141333333Y-88764342D02*
X141333333Y-88526247D01*
X141333333Y-88526247D02*
X141285714Y-88431009D01*
X141285714Y-88431009D02*
X141238095Y-88383390D01*
X141238095Y-88383390D02*
X141142857Y-88335771D01*
X141142857Y-88335771D02*
X140952381Y-88335771D01*
X140952381Y-88335771D02*
X140857143Y-88383390D01*
X140857143Y-88383390D02*
X140809524Y-88431009D01*
X140809524Y-88431009D02*
X140761905Y-88526247D01*
X159690476Y-104494819D02*
X159690476Y-103494819D01*
X159690476Y-103494819D02*
X160023809Y-104209104D01*
X160023809Y-104209104D02*
X160357142Y-103494819D01*
X160357142Y-103494819D02*
X160357142Y-104494819D01*
X161357142Y-104494819D02*
X160785714Y-104494819D01*
X161071428Y-104494819D02*
X161071428Y-103494819D01*
X161071428Y-103494819D02*
X160976190Y-103637676D01*
X160976190Y-103637676D02*
X160880952Y-103732914D01*
X160880952Y-103732914D02*
X160785714Y-103780533D01*
X170154905Y-143864819D02*
X170154905Y-142864819D01*
X170154905Y-142864819D02*
X170393000Y-142864819D01*
X170393000Y-142864819D02*
X170535857Y-142912438D01*
X170535857Y-142912438D02*
X170631095Y-143007676D01*
X170631095Y-143007676D02*
X170678714Y-143102914D01*
X170678714Y-143102914D02*
X170726333Y-143293390D01*
X170726333Y-143293390D02*
X170726333Y-143436247D01*
X170726333Y-143436247D02*
X170678714Y-143626723D01*
X170678714Y-143626723D02*
X170631095Y-143721961D01*
X170631095Y-143721961D02*
X170535857Y-143817200D01*
X170535857Y-143817200D02*
X170393000Y-143864819D01*
X170393000Y-143864819D02*
X170154905Y-143864819D01*
X171583476Y-143198152D02*
X171583476Y-143864819D01*
X171345381Y-142817200D02*
X171107286Y-143531485D01*
X171107286Y-143531485D02*
X171726333Y-143531485D01*
X161083333Y-138204819D02*
X160750000Y-137728628D01*
X160511905Y-138204819D02*
X160511905Y-137204819D01*
X160511905Y-137204819D02*
X160892857Y-137204819D01*
X160892857Y-137204819D02*
X160988095Y-137252438D01*
X160988095Y-137252438D02*
X161035714Y-137300057D01*
X161035714Y-137300057D02*
X161083333Y-137395295D01*
X161083333Y-137395295D02*
X161083333Y-137538152D01*
X161083333Y-137538152D02*
X161035714Y-137633390D01*
X161035714Y-137633390D02*
X160988095Y-137681009D01*
X160988095Y-137681009D02*
X160892857Y-137728628D01*
X160892857Y-137728628D02*
X160511905Y-137728628D01*
X161464286Y-137300057D02*
X161511905Y-137252438D01*
X161511905Y-137252438D02*
X161607143Y-137204819D01*
X161607143Y-137204819D02*
X161845238Y-137204819D01*
X161845238Y-137204819D02*
X161940476Y-137252438D01*
X161940476Y-137252438D02*
X161988095Y-137300057D01*
X161988095Y-137300057D02*
X162035714Y-137395295D01*
X162035714Y-137395295D02*
X162035714Y-137490533D01*
X162035714Y-137490533D02*
X161988095Y-137633390D01*
X161988095Y-137633390D02*
X161416667Y-138204819D01*
X161416667Y-138204819D02*
X162035714Y-138204819D01*
X145823333Y-95417319D02*
X145490000Y-94941128D01*
X145251905Y-95417319D02*
X145251905Y-94417319D01*
X145251905Y-94417319D02*
X145632857Y-94417319D01*
X145632857Y-94417319D02*
X145728095Y-94464938D01*
X145728095Y-94464938D02*
X145775714Y-94512557D01*
X145775714Y-94512557D02*
X145823333Y-94607795D01*
X145823333Y-94607795D02*
X145823333Y-94750652D01*
X145823333Y-94750652D02*
X145775714Y-94845890D01*
X145775714Y-94845890D02*
X145728095Y-94893509D01*
X145728095Y-94893509D02*
X145632857Y-94941128D01*
X145632857Y-94941128D02*
X145251905Y-94941128D01*
X146775714Y-95417319D02*
X146204286Y-95417319D01*
X146490000Y-95417319D02*
X146490000Y-94417319D01*
X146490000Y-94417319D02*
X146394762Y-94560176D01*
X146394762Y-94560176D02*
X146299524Y-94655414D01*
X146299524Y-94655414D02*
X146204286Y-94703033D01*
X165974714Y-121173319D02*
X165974714Y-120173319D01*
X165974714Y-120173319D02*
X166212809Y-120173319D01*
X166212809Y-120173319D02*
X166355666Y-120220938D01*
X166355666Y-120220938D02*
X166450904Y-120316176D01*
X166450904Y-120316176D02*
X166498523Y-120411414D01*
X166498523Y-120411414D02*
X166546142Y-120601890D01*
X166546142Y-120601890D02*
X166546142Y-120744747D01*
X166546142Y-120744747D02*
X166498523Y-120935223D01*
X166498523Y-120935223D02*
X166450904Y-121030461D01*
X166450904Y-121030461D02*
X166355666Y-121125700D01*
X166355666Y-121125700D02*
X166212809Y-121173319D01*
X166212809Y-121173319D02*
X165974714Y-121173319D01*
X167498523Y-121173319D02*
X166927095Y-121173319D01*
X167212809Y-121173319D02*
X167212809Y-120173319D01*
X167212809Y-120173319D02*
X167117571Y-120316176D01*
X167117571Y-120316176D02*
X167022333Y-120411414D01*
X167022333Y-120411414D02*
X166927095Y-120459033D01*
X167879476Y-120268557D02*
X167927095Y-120220938D01*
X167927095Y-120220938D02*
X168022333Y-120173319D01*
X168022333Y-120173319D02*
X168260428Y-120173319D01*
X168260428Y-120173319D02*
X168355666Y-120220938D01*
X168355666Y-120220938D02*
X168403285Y-120268557D01*
X168403285Y-120268557D02*
X168450904Y-120363795D01*
X168450904Y-120363795D02*
X168450904Y-120459033D01*
X168450904Y-120459033D02*
X168403285Y-120601890D01*
X168403285Y-120601890D02*
X167831857Y-121173319D01*
X167831857Y-121173319D02*
X168450904Y-121173319D01*
X147170833Y-138304819D02*
X146837500Y-137828628D01*
X146599405Y-138304819D02*
X146599405Y-137304819D01*
X146599405Y-137304819D02*
X146980357Y-137304819D01*
X146980357Y-137304819D02*
X147075595Y-137352438D01*
X147075595Y-137352438D02*
X147123214Y-137400057D01*
X147123214Y-137400057D02*
X147170833Y-137495295D01*
X147170833Y-137495295D02*
X147170833Y-137638152D01*
X147170833Y-137638152D02*
X147123214Y-137733390D01*
X147123214Y-137733390D02*
X147075595Y-137781009D01*
X147075595Y-137781009D02*
X146980357Y-137828628D01*
X146980357Y-137828628D02*
X146599405Y-137828628D01*
X148075595Y-137304819D02*
X147599405Y-137304819D01*
X147599405Y-137304819D02*
X147551786Y-137781009D01*
X147551786Y-137781009D02*
X147599405Y-137733390D01*
X147599405Y-137733390D02*
X147694643Y-137685771D01*
X147694643Y-137685771D02*
X147932738Y-137685771D01*
X147932738Y-137685771D02*
X148027976Y-137733390D01*
X148027976Y-137733390D02*
X148075595Y-137781009D01*
X148075595Y-137781009D02*
X148123214Y-137876247D01*
X148123214Y-137876247D02*
X148123214Y-138114342D01*
X148123214Y-138114342D02*
X148075595Y-138209580D01*
X148075595Y-138209580D02*
X148027976Y-138257200D01*
X148027976Y-138257200D02*
X147932738Y-138304819D01*
X147932738Y-138304819D02*
X147694643Y-138304819D01*
X147694643Y-138304819D02*
X147599405Y-138257200D01*
X147599405Y-138257200D02*
X147551786Y-138209580D01*
X160166666Y-81034819D02*
X160166666Y-81749104D01*
X160166666Y-81749104D02*
X160119047Y-81891961D01*
X160119047Y-81891961D02*
X160023809Y-81987200D01*
X160023809Y-81987200D02*
X159880952Y-82034819D01*
X159880952Y-82034819D02*
X159785714Y-82034819D01*
X160595238Y-81130057D02*
X160642857Y-81082438D01*
X160642857Y-81082438D02*
X160738095Y-81034819D01*
X160738095Y-81034819D02*
X160976190Y-81034819D01*
X160976190Y-81034819D02*
X161071428Y-81082438D01*
X161071428Y-81082438D02*
X161119047Y-81130057D01*
X161119047Y-81130057D02*
X161166666Y-81225295D01*
X161166666Y-81225295D02*
X161166666Y-81320533D01*
X161166666Y-81320533D02*
X161119047Y-81463390D01*
X161119047Y-81463390D02*
X160547619Y-82034819D01*
X160547619Y-82034819D02*
X161166666Y-82034819D01*
X166485905Y-140443819D02*
X166485905Y-139443819D01*
X166485905Y-139443819D02*
X166724000Y-139443819D01*
X166724000Y-139443819D02*
X166866857Y-139491438D01*
X166866857Y-139491438D02*
X166962095Y-139586676D01*
X166962095Y-139586676D02*
X167009714Y-139681914D01*
X167009714Y-139681914D02*
X167057333Y-139872390D01*
X167057333Y-139872390D02*
X167057333Y-140015247D01*
X167057333Y-140015247D02*
X167009714Y-140205723D01*
X167009714Y-140205723D02*
X166962095Y-140300961D01*
X166962095Y-140300961D02*
X166866857Y-140396200D01*
X166866857Y-140396200D02*
X166724000Y-140443819D01*
X166724000Y-140443819D02*
X166485905Y-140443819D01*
X167914476Y-139443819D02*
X167724000Y-139443819D01*
X167724000Y-139443819D02*
X167628762Y-139491438D01*
X167628762Y-139491438D02*
X167581143Y-139539057D01*
X167581143Y-139539057D02*
X167485905Y-139681914D01*
X167485905Y-139681914D02*
X167438286Y-139872390D01*
X167438286Y-139872390D02*
X167438286Y-140253342D01*
X167438286Y-140253342D02*
X167485905Y-140348580D01*
X167485905Y-140348580D02*
X167533524Y-140396200D01*
X167533524Y-140396200D02*
X167628762Y-140443819D01*
X167628762Y-140443819D02*
X167819238Y-140443819D01*
X167819238Y-140443819D02*
X167914476Y-140396200D01*
X167914476Y-140396200D02*
X167962095Y-140348580D01*
X167962095Y-140348580D02*
X168009714Y-140253342D01*
X168009714Y-140253342D02*
X168009714Y-140015247D01*
X168009714Y-140015247D02*
X167962095Y-139920009D01*
X167962095Y-139920009D02*
X167914476Y-139872390D01*
X167914476Y-139872390D02*
X167819238Y-139824771D01*
X167819238Y-139824771D02*
X167628762Y-139824771D01*
X167628762Y-139824771D02*
X167533524Y-139872390D01*
X167533524Y-139872390D02*
X167485905Y-139920009D01*
X167485905Y-139920009D02*
X167438286Y-140015247D01*
X149667200Y-89333332D02*
X149714819Y-89190475D01*
X149714819Y-89190475D02*
X149714819Y-88952380D01*
X149714819Y-88952380D02*
X149667200Y-88857142D01*
X149667200Y-88857142D02*
X149619580Y-88809523D01*
X149619580Y-88809523D02*
X149524342Y-88761904D01*
X149524342Y-88761904D02*
X149429104Y-88761904D01*
X149429104Y-88761904D02*
X149333866Y-88809523D01*
X149333866Y-88809523D02*
X149286247Y-88857142D01*
X149286247Y-88857142D02*
X149238628Y-88952380D01*
X149238628Y-88952380D02*
X149191009Y-89142856D01*
X149191009Y-89142856D02*
X149143390Y-89238094D01*
X149143390Y-89238094D02*
X149095771Y-89285713D01*
X149095771Y-89285713D02*
X149000533Y-89333332D01*
X149000533Y-89333332D02*
X148905295Y-89333332D01*
X148905295Y-89333332D02*
X148810057Y-89285713D01*
X148810057Y-89285713D02*
X148762438Y-89238094D01*
X148762438Y-89238094D02*
X148714819Y-89142856D01*
X148714819Y-89142856D02*
X148714819Y-88904761D01*
X148714819Y-88904761D02*
X148762438Y-88761904D01*
X148714819Y-88428570D02*
X149714819Y-88190475D01*
X149714819Y-88190475D02*
X149000533Y-87999999D01*
X149000533Y-87999999D02*
X149714819Y-87809523D01*
X149714819Y-87809523D02*
X148714819Y-87571428D01*
X148714819Y-86714285D02*
X148714819Y-87190475D01*
X148714819Y-87190475D02*
X149191009Y-87238094D01*
X149191009Y-87238094D02*
X149143390Y-87190475D01*
X149143390Y-87190475D02*
X149095771Y-87095237D01*
X149095771Y-87095237D02*
X149095771Y-86857142D01*
X149095771Y-86857142D02*
X149143390Y-86761904D01*
X149143390Y-86761904D02*
X149191009Y-86714285D01*
X149191009Y-86714285D02*
X149286247Y-86666666D01*
X149286247Y-86666666D02*
X149524342Y-86666666D01*
X149524342Y-86666666D02*
X149619580Y-86714285D01*
X149619580Y-86714285D02*
X149667200Y-86761904D01*
X149667200Y-86761904D02*
X149714819Y-86857142D01*
X149714819Y-86857142D02*
X149714819Y-87095237D01*
X149714819Y-87095237D02*
X149667200Y-87190475D01*
X149667200Y-87190475D02*
X149619580Y-87238094D01*
X166524905Y-149904819D02*
X166524905Y-148904819D01*
X166524905Y-148904819D02*
X166763000Y-148904819D01*
X166763000Y-148904819D02*
X166905857Y-148952438D01*
X166905857Y-148952438D02*
X167001095Y-149047676D01*
X167001095Y-149047676D02*
X167048714Y-149142914D01*
X167048714Y-149142914D02*
X167096333Y-149333390D01*
X167096333Y-149333390D02*
X167096333Y-149476247D01*
X167096333Y-149476247D02*
X167048714Y-149666723D01*
X167048714Y-149666723D02*
X167001095Y-149761961D01*
X167001095Y-149761961D02*
X166905857Y-149857200D01*
X166905857Y-149857200D02*
X166763000Y-149904819D01*
X166763000Y-149904819D02*
X166524905Y-149904819D01*
X167429667Y-148904819D02*
X168048714Y-148904819D01*
X168048714Y-148904819D02*
X167715381Y-149285771D01*
X167715381Y-149285771D02*
X167858238Y-149285771D01*
X167858238Y-149285771D02*
X167953476Y-149333390D01*
X167953476Y-149333390D02*
X168001095Y-149381009D01*
X168001095Y-149381009D02*
X168048714Y-149476247D01*
X168048714Y-149476247D02*
X168048714Y-149714342D01*
X168048714Y-149714342D02*
X168001095Y-149809580D01*
X168001095Y-149809580D02*
X167953476Y-149857200D01*
X167953476Y-149857200D02*
X167858238Y-149904819D01*
X167858238Y-149904819D02*
X167572524Y-149904819D01*
X167572524Y-149904819D02*
X167477286Y-149857200D01*
X167477286Y-149857200D02*
X167429667Y-149809580D01*
X148323333Y-95159580D02*
X148275714Y-95207200D01*
X148275714Y-95207200D02*
X148132857Y-95254819D01*
X148132857Y-95254819D02*
X148037619Y-95254819D01*
X148037619Y-95254819D02*
X147894762Y-95207200D01*
X147894762Y-95207200D02*
X147799524Y-95111961D01*
X147799524Y-95111961D02*
X147751905Y-95016723D01*
X147751905Y-95016723D02*
X147704286Y-94826247D01*
X147704286Y-94826247D02*
X147704286Y-94683390D01*
X147704286Y-94683390D02*
X147751905Y-94492914D01*
X147751905Y-94492914D02*
X147799524Y-94397676D01*
X147799524Y-94397676D02*
X147894762Y-94302438D01*
X147894762Y-94302438D02*
X148037619Y-94254819D01*
X148037619Y-94254819D02*
X148132857Y-94254819D01*
X148132857Y-94254819D02*
X148275714Y-94302438D01*
X148275714Y-94302438D02*
X148323333Y-94350057D01*
X148894762Y-94683390D02*
X148799524Y-94635771D01*
X148799524Y-94635771D02*
X148751905Y-94588152D01*
X148751905Y-94588152D02*
X148704286Y-94492914D01*
X148704286Y-94492914D02*
X148704286Y-94445295D01*
X148704286Y-94445295D02*
X148751905Y-94350057D01*
X148751905Y-94350057D02*
X148799524Y-94302438D01*
X148799524Y-94302438D02*
X148894762Y-94254819D01*
X148894762Y-94254819D02*
X149085238Y-94254819D01*
X149085238Y-94254819D02*
X149180476Y-94302438D01*
X149180476Y-94302438D02*
X149228095Y-94350057D01*
X149228095Y-94350057D02*
X149275714Y-94445295D01*
X149275714Y-94445295D02*
X149275714Y-94492914D01*
X149275714Y-94492914D02*
X149228095Y-94588152D01*
X149228095Y-94588152D02*
X149180476Y-94635771D01*
X149180476Y-94635771D02*
X149085238Y-94683390D01*
X149085238Y-94683390D02*
X148894762Y-94683390D01*
X148894762Y-94683390D02*
X148799524Y-94731009D01*
X148799524Y-94731009D02*
X148751905Y-94778628D01*
X148751905Y-94778628D02*
X148704286Y-94873866D01*
X148704286Y-94873866D02*
X148704286Y-95064342D01*
X148704286Y-95064342D02*
X148751905Y-95159580D01*
X148751905Y-95159580D02*
X148799524Y-95207200D01*
X148799524Y-95207200D02*
X148894762Y-95254819D01*
X148894762Y-95254819D02*
X149085238Y-95254819D01*
X149085238Y-95254819D02*
X149180476Y-95207200D01*
X149180476Y-95207200D02*
X149228095Y-95159580D01*
X149228095Y-95159580D02*
X149275714Y-95064342D01*
X149275714Y-95064342D02*
X149275714Y-94873866D01*
X149275714Y-94873866D02*
X149228095Y-94778628D01*
X149228095Y-94778628D02*
X149180476Y-94731009D01*
X149180476Y-94731009D02*
X149085238Y-94683390D01*
X155800595Y-136004819D02*
X155800595Y-136814342D01*
X155800595Y-136814342D02*
X155848214Y-136909580D01*
X155848214Y-136909580D02*
X155895833Y-136957200D01*
X155895833Y-136957200D02*
X155991071Y-137004819D01*
X155991071Y-137004819D02*
X156181547Y-137004819D01*
X156181547Y-137004819D02*
X156276785Y-136957200D01*
X156276785Y-136957200D02*
X156324404Y-136909580D01*
X156324404Y-136909580D02*
X156372023Y-136814342D01*
X156372023Y-136814342D02*
X156372023Y-136004819D01*
X156752976Y-136004819D02*
X157372023Y-136004819D01*
X157372023Y-136004819D02*
X157038690Y-136385771D01*
X157038690Y-136385771D02*
X157181547Y-136385771D01*
X157181547Y-136385771D02*
X157276785Y-136433390D01*
X157276785Y-136433390D02*
X157324404Y-136481009D01*
X157324404Y-136481009D02*
X157372023Y-136576247D01*
X157372023Y-136576247D02*
X157372023Y-136814342D01*
X157372023Y-136814342D02*
X157324404Y-136909580D01*
X157324404Y-136909580D02*
X157276785Y-136957200D01*
X157276785Y-136957200D02*
X157181547Y-137004819D01*
X157181547Y-137004819D02*
X156895833Y-137004819D01*
X156895833Y-137004819D02*
X156800595Y-136957200D01*
X156800595Y-136957200D02*
X156752976Y-136909580D01*
X151833333Y-138109580D02*
X151785714Y-138157200D01*
X151785714Y-138157200D02*
X151642857Y-138204819D01*
X151642857Y-138204819D02*
X151547619Y-138204819D01*
X151547619Y-138204819D02*
X151404762Y-138157200D01*
X151404762Y-138157200D02*
X151309524Y-138061961D01*
X151309524Y-138061961D02*
X151261905Y-137966723D01*
X151261905Y-137966723D02*
X151214286Y-137776247D01*
X151214286Y-137776247D02*
X151214286Y-137633390D01*
X151214286Y-137633390D02*
X151261905Y-137442914D01*
X151261905Y-137442914D02*
X151309524Y-137347676D01*
X151309524Y-137347676D02*
X151404762Y-137252438D01*
X151404762Y-137252438D02*
X151547619Y-137204819D01*
X151547619Y-137204819D02*
X151642857Y-137204819D01*
X151642857Y-137204819D02*
X151785714Y-137252438D01*
X151785714Y-137252438D02*
X151833333Y-137300057D01*
X152214286Y-137300057D02*
X152261905Y-137252438D01*
X152261905Y-137252438D02*
X152357143Y-137204819D01*
X152357143Y-137204819D02*
X152595238Y-137204819D01*
X152595238Y-137204819D02*
X152690476Y-137252438D01*
X152690476Y-137252438D02*
X152738095Y-137300057D01*
X152738095Y-137300057D02*
X152785714Y-137395295D01*
X152785714Y-137395295D02*
X152785714Y-137490533D01*
X152785714Y-137490533D02*
X152738095Y-137633390D01*
X152738095Y-137633390D02*
X152166667Y-138204819D01*
X152166667Y-138204819D02*
X152785714Y-138204819D01*
X132850476Y-135874819D02*
X132850476Y-136589104D01*
X132850476Y-136589104D02*
X132802857Y-136731961D01*
X132802857Y-136731961D02*
X132707619Y-136827200D01*
X132707619Y-136827200D02*
X132564762Y-136874819D01*
X132564762Y-136874819D02*
X132469524Y-136874819D01*
X133850476Y-136874819D02*
X133279048Y-136874819D01*
X133564762Y-136874819D02*
X133564762Y-135874819D01*
X133564762Y-135874819D02*
X133469524Y-136017676D01*
X133469524Y-136017676D02*
X133374286Y-136112914D01*
X133374286Y-136112914D02*
X133279048Y-136160533D01*
X134707619Y-136208152D02*
X134707619Y-136874819D01*
X134469524Y-135827200D02*
X134231429Y-136541485D01*
X134231429Y-136541485D02*
X134850476Y-136541485D01*
X166944642Y-95754819D02*
X166611309Y-95278628D01*
X166373214Y-95754819D02*
X166373214Y-94754819D01*
X166373214Y-94754819D02*
X166754166Y-94754819D01*
X166754166Y-94754819D02*
X166849404Y-94802438D01*
X166849404Y-94802438D02*
X166897023Y-94850057D01*
X166897023Y-94850057D02*
X166944642Y-94945295D01*
X166944642Y-94945295D02*
X166944642Y-95088152D01*
X166944642Y-95088152D02*
X166897023Y-95183390D01*
X166897023Y-95183390D02*
X166849404Y-95231009D01*
X166849404Y-95231009D02*
X166754166Y-95278628D01*
X166754166Y-95278628D02*
X166373214Y-95278628D01*
X167897023Y-95754819D02*
X167325595Y-95754819D01*
X167611309Y-95754819D02*
X167611309Y-94754819D01*
X167611309Y-94754819D02*
X167516071Y-94897676D01*
X167516071Y-94897676D02*
X167420833Y-94992914D01*
X167420833Y-94992914D02*
X167325595Y-95040533D01*
X168754166Y-94754819D02*
X168563690Y-94754819D01*
X168563690Y-94754819D02*
X168468452Y-94802438D01*
X168468452Y-94802438D02*
X168420833Y-94850057D01*
X168420833Y-94850057D02*
X168325595Y-94992914D01*
X168325595Y-94992914D02*
X168277976Y-95183390D01*
X168277976Y-95183390D02*
X168277976Y-95564342D01*
X168277976Y-95564342D02*
X168325595Y-95659580D01*
X168325595Y-95659580D02*
X168373214Y-95707200D01*
X168373214Y-95707200D02*
X168468452Y-95754819D01*
X168468452Y-95754819D02*
X168658928Y-95754819D01*
X168658928Y-95754819D02*
X168754166Y-95707200D01*
X168754166Y-95707200D02*
X168801785Y-95659580D01*
X168801785Y-95659580D02*
X168849404Y-95564342D01*
X168849404Y-95564342D02*
X168849404Y-95326247D01*
X168849404Y-95326247D02*
X168801785Y-95231009D01*
X168801785Y-95231009D02*
X168754166Y-95183390D01*
X168754166Y-95183390D02*
X168658928Y-95135771D01*
X168658928Y-95135771D02*
X168468452Y-95135771D01*
X168468452Y-95135771D02*
X168373214Y-95183390D01*
X168373214Y-95183390D02*
X168325595Y-95231009D01*
X168325595Y-95231009D02*
X168277976Y-95326247D01*
X173824905Y-125937819D02*
X173824905Y-124937819D01*
X173824905Y-124937819D02*
X174063000Y-124937819D01*
X174063000Y-124937819D02*
X174205857Y-124985438D01*
X174205857Y-124985438D02*
X174301095Y-125080676D01*
X174301095Y-125080676D02*
X174348714Y-125175914D01*
X174348714Y-125175914D02*
X174396333Y-125366390D01*
X174396333Y-125366390D02*
X174396333Y-125509247D01*
X174396333Y-125509247D02*
X174348714Y-125699723D01*
X174348714Y-125699723D02*
X174301095Y-125794961D01*
X174301095Y-125794961D02*
X174205857Y-125890200D01*
X174205857Y-125890200D02*
X174063000Y-125937819D01*
X174063000Y-125937819D02*
X173824905Y-125937819D01*
X174967762Y-125366390D02*
X174872524Y-125318771D01*
X174872524Y-125318771D02*
X174824905Y-125271152D01*
X174824905Y-125271152D02*
X174777286Y-125175914D01*
X174777286Y-125175914D02*
X174777286Y-125128295D01*
X174777286Y-125128295D02*
X174824905Y-125033057D01*
X174824905Y-125033057D02*
X174872524Y-124985438D01*
X174872524Y-124985438D02*
X174967762Y-124937819D01*
X174967762Y-124937819D02*
X175158238Y-124937819D01*
X175158238Y-124937819D02*
X175253476Y-124985438D01*
X175253476Y-124985438D02*
X175301095Y-125033057D01*
X175301095Y-125033057D02*
X175348714Y-125128295D01*
X175348714Y-125128295D02*
X175348714Y-125175914D01*
X175348714Y-125175914D02*
X175301095Y-125271152D01*
X175301095Y-125271152D02*
X175253476Y-125318771D01*
X175253476Y-125318771D02*
X175158238Y-125366390D01*
X175158238Y-125366390D02*
X174967762Y-125366390D01*
X174967762Y-125366390D02*
X174872524Y-125414009D01*
X174872524Y-125414009D02*
X174824905Y-125461628D01*
X174824905Y-125461628D02*
X174777286Y-125556866D01*
X174777286Y-125556866D02*
X174777286Y-125747342D01*
X174777286Y-125747342D02*
X174824905Y-125842580D01*
X174824905Y-125842580D02*
X174872524Y-125890200D01*
X174872524Y-125890200D02*
X174967762Y-125937819D01*
X174967762Y-125937819D02*
X175158238Y-125937819D01*
X175158238Y-125937819D02*
X175253476Y-125890200D01*
X175253476Y-125890200D02*
X175301095Y-125842580D01*
X175301095Y-125842580D02*
X175348714Y-125747342D01*
X175348714Y-125747342D02*
X175348714Y-125556866D01*
X175348714Y-125556866D02*
X175301095Y-125461628D01*
X175301095Y-125461628D02*
X175253476Y-125414009D01*
X175253476Y-125414009D02*
X175158238Y-125366390D01*
X170176905Y-135229819D02*
X170176905Y-134229819D01*
X170176905Y-134229819D02*
X170415000Y-134229819D01*
X170415000Y-134229819D02*
X170557857Y-134277438D01*
X170557857Y-134277438D02*
X170653095Y-134372676D01*
X170653095Y-134372676D02*
X170700714Y-134467914D01*
X170700714Y-134467914D02*
X170748333Y-134658390D01*
X170748333Y-134658390D02*
X170748333Y-134801247D01*
X170748333Y-134801247D02*
X170700714Y-134991723D01*
X170700714Y-134991723D02*
X170653095Y-135086961D01*
X170653095Y-135086961D02*
X170557857Y-135182200D01*
X170557857Y-135182200D02*
X170415000Y-135229819D01*
X170415000Y-135229819D02*
X170176905Y-135229819D01*
X171081667Y-134229819D02*
X171748333Y-134229819D01*
X171748333Y-134229819D02*
X171319762Y-135229819D01*
X168454819Y-83309523D02*
X169169104Y-83309523D01*
X169169104Y-83309523D02*
X169311961Y-83357142D01*
X169311961Y-83357142D02*
X169407200Y-83452380D01*
X169407200Y-83452380D02*
X169454819Y-83595237D01*
X169454819Y-83595237D02*
X169454819Y-83690475D01*
X169454819Y-82309523D02*
X169454819Y-82880951D01*
X169454819Y-82595237D02*
X168454819Y-82595237D01*
X168454819Y-82595237D02*
X168597676Y-82690475D01*
X168597676Y-82690475D02*
X168692914Y-82785713D01*
X168692914Y-82785713D02*
X168740533Y-82880951D01*
X168550057Y-81928570D02*
X168502438Y-81880951D01*
X168502438Y-81880951D02*
X168454819Y-81785713D01*
X168454819Y-81785713D02*
X168454819Y-81547618D01*
X168454819Y-81547618D02*
X168502438Y-81452380D01*
X168502438Y-81452380D02*
X168550057Y-81404761D01*
X168550057Y-81404761D02*
X168645295Y-81357142D01*
X168645295Y-81357142D02*
X168740533Y-81357142D01*
X168740533Y-81357142D02*
X168883390Y-81404761D01*
X168883390Y-81404761D02*
X169454819Y-81976189D01*
X169454819Y-81976189D02*
X169454819Y-81357142D01*
X160705833Y-136954819D02*
X160372500Y-136478628D01*
X160134405Y-136954819D02*
X160134405Y-135954819D01*
X160134405Y-135954819D02*
X160515357Y-135954819D01*
X160515357Y-135954819D02*
X160610595Y-136002438D01*
X160610595Y-136002438D02*
X160658214Y-136050057D01*
X160658214Y-136050057D02*
X160705833Y-136145295D01*
X160705833Y-136145295D02*
X160705833Y-136288152D01*
X160705833Y-136288152D02*
X160658214Y-136383390D01*
X160658214Y-136383390D02*
X160610595Y-136431009D01*
X160610595Y-136431009D02*
X160515357Y-136478628D01*
X160515357Y-136478628D02*
X160134405Y-136478628D01*
X161039167Y-135954819D02*
X161658214Y-135954819D01*
X161658214Y-135954819D02*
X161324881Y-136335771D01*
X161324881Y-136335771D02*
X161467738Y-136335771D01*
X161467738Y-136335771D02*
X161562976Y-136383390D01*
X161562976Y-136383390D02*
X161610595Y-136431009D01*
X161610595Y-136431009D02*
X161658214Y-136526247D01*
X161658214Y-136526247D02*
X161658214Y-136764342D01*
X161658214Y-136764342D02*
X161610595Y-136859580D01*
X161610595Y-136859580D02*
X161562976Y-136907200D01*
X161562976Y-136907200D02*
X161467738Y-136954819D01*
X161467738Y-136954819D02*
X161182024Y-136954819D01*
X161182024Y-136954819D02*
X161086786Y-136907200D01*
X161086786Y-136907200D02*
X161039167Y-136859580D01*
X141940476Y-140954819D02*
X141940476Y-141669104D01*
X141940476Y-141669104D02*
X141892857Y-141811961D01*
X141892857Y-141811961D02*
X141797619Y-141907200D01*
X141797619Y-141907200D02*
X141654762Y-141954819D01*
X141654762Y-141954819D02*
X141559524Y-141954819D01*
X142940476Y-141954819D02*
X142369048Y-141954819D01*
X142654762Y-141954819D02*
X142654762Y-140954819D01*
X142654762Y-140954819D02*
X142559524Y-141097676D01*
X142559524Y-141097676D02*
X142464286Y-141192914D01*
X142464286Y-141192914D02*
X142369048Y-141240533D01*
X143797619Y-140954819D02*
X143607143Y-140954819D01*
X143607143Y-140954819D02*
X143511905Y-141002438D01*
X143511905Y-141002438D02*
X143464286Y-141050057D01*
X143464286Y-141050057D02*
X143369048Y-141192914D01*
X143369048Y-141192914D02*
X143321429Y-141383390D01*
X143321429Y-141383390D02*
X143321429Y-141764342D01*
X143321429Y-141764342D02*
X143369048Y-141859580D01*
X143369048Y-141859580D02*
X143416667Y-141907200D01*
X143416667Y-141907200D02*
X143511905Y-141954819D01*
X143511905Y-141954819D02*
X143702381Y-141954819D01*
X143702381Y-141954819D02*
X143797619Y-141907200D01*
X143797619Y-141907200D02*
X143845238Y-141859580D01*
X143845238Y-141859580D02*
X143892857Y-141764342D01*
X143892857Y-141764342D02*
X143892857Y-141526247D01*
X143892857Y-141526247D02*
X143845238Y-141431009D01*
X143845238Y-141431009D02*
X143797619Y-141383390D01*
X143797619Y-141383390D02*
X143702381Y-141335771D01*
X143702381Y-141335771D02*
X143511905Y-141335771D01*
X143511905Y-141335771D02*
X143416667Y-141383390D01*
X143416667Y-141383390D02*
X143369048Y-141431009D01*
X143369048Y-141431009D02*
X143321429Y-141526247D01*
D11*
%TO.C,D1*%
X173635000Y-149700000D02*
X173635000Y-152385000D01*
X173635000Y-152385000D02*
X175555000Y-152385000D01*
X175555000Y-152385000D02*
X175555000Y-149700000D01*
%TO.C,D10*%
X169948000Y-120116000D02*
X169948000Y-122801000D01*
X171868000Y-120116000D02*
X169948000Y-120116000D01*
X171868000Y-122801000D02*
X171868000Y-120116000D01*
%TO.C,J11*%
X159120000Y-119730000D02*
X159120000Y-114540000D01*
X161880000Y-114540000D02*
X159120000Y-114540000D01*
X161880000Y-119730000D02*
X159120000Y-119730000D01*
X161880000Y-119730000D02*
X161880000Y-114540000D01*
X161880000Y-121000000D02*
X161880000Y-122380000D01*
X161880000Y-122380000D02*
X160500000Y-122380000D01*
%TO.C,J15*%
X136870000Y-137420000D02*
X138250000Y-137420000D01*
X136870000Y-138800000D02*
X136870000Y-137420000D01*
X136870000Y-140070000D02*
X136870000Y-152880000D01*
X136870000Y-140070000D02*
X139630000Y-140070000D01*
X136870000Y-152880000D02*
X139630000Y-152880000D01*
X139630000Y-140070000D02*
X139630000Y-152880000D01*
%TO.C,J17*%
X145870000Y-142500000D02*
X147250000Y-142500000D01*
X145870000Y-143880000D02*
X145870000Y-142500000D01*
X145870000Y-145150000D02*
X145870000Y-152880000D01*
X145870000Y-145150000D02*
X148630000Y-145150000D01*
X145870000Y-152880000D02*
X148630000Y-152880000D01*
X148630000Y-145150000D02*
X148630000Y-152880000D01*
%TO.C,C7*%
X151275000Y-97811252D02*
X151275000Y-97288748D01*
X152745000Y-97811252D02*
X152745000Y-97288748D01*
%TO.C,R15*%
X167360436Y-93265000D02*
X167814564Y-93265000D01*
X167360436Y-94735000D02*
X167814564Y-94735000D01*
%TO.C,U1*%
X130100000Y-100895000D02*
X136300000Y-100895000D01*
X130100000Y-119295000D02*
X130100000Y-100895000D01*
X130100000Y-119295000D02*
X136300000Y-119295000D01*
X154950000Y-119295000D02*
X155950000Y-119295000D01*
X155950000Y-100895000D02*
X154950000Y-100895000D01*
X155950000Y-100895000D02*
X155950000Y-102395000D01*
X155950000Y-119295000D02*
X155950000Y-117795000D01*
X136975000Y-119795000D02*
X136475000Y-119295000D01*
X136975000Y-119295000D01*
X136975000Y-119795000D01*
G36*
X136975000Y-119795000D02*
G01*
X136475000Y-119295000D01*
X136975000Y-119295000D01*
X136975000Y-119795000D01*
G37*
%TO.C,C3*%
X155738748Y-125265000D02*
X156261252Y-125265000D01*
X155738748Y-126735000D02*
X156261252Y-126735000D01*
%TO.C,LS1*%
X159120000Y-124345000D02*
X160500000Y-124345000D01*
X159120000Y-125725000D02*
X159120000Y-124345000D01*
X159120000Y-126995000D02*
X159120000Y-129645000D01*
X159120000Y-126995000D02*
X161880000Y-126995000D01*
X159120000Y-129645000D02*
X161880000Y-129645000D01*
X161880000Y-126995000D02*
X161880000Y-129645000D01*
%TO.C,C5*%
X145255000Y-97811252D02*
X145255000Y-97288748D01*
X146725000Y-97811252D02*
X146725000Y-97288748D01*
%TO.C,M2*%
X159120000Y-95120000D02*
X160500000Y-95120000D01*
X159120000Y-96500000D02*
X159120000Y-95120000D01*
X159120000Y-97770000D02*
X159120000Y-102960000D01*
X159120000Y-97770000D02*
X161880000Y-97770000D01*
X159120000Y-102960000D02*
X161880000Y-102960000D01*
X161880000Y-97770000D02*
X161880000Y-102960000D01*
%TO.C,D5*%
X173615000Y-135723000D02*
X173615000Y-138408000D01*
X175535000Y-135723000D02*
X173615000Y-135723000D01*
X175535000Y-138408000D02*
X175535000Y-135723000D01*
%TO.C,J13*%
X152800000Y-146400000D02*
X152800000Y-149160000D01*
X152800000Y-149160000D02*
X163180000Y-149160000D01*
X153750000Y-146087358D02*
X153750000Y-146400000D01*
X153750000Y-155160000D02*
X153750000Y-149160000D01*
X154610000Y-146087358D02*
X154610000Y-146400000D01*
X154610000Y-149160000D02*
X154610000Y-155160000D01*
X154610000Y-155160000D02*
X153750000Y-155160000D01*
X155450000Y-146400000D02*
X155450000Y-149160000D01*
X156290000Y-146087358D02*
X156290000Y-146400000D01*
X156290000Y-155160000D02*
X156290000Y-149160000D01*
X157150000Y-146087358D02*
X157150000Y-146400000D01*
X157150000Y-149160000D02*
X157150000Y-155160000D01*
X157150000Y-155160000D02*
X156290000Y-155160000D01*
X157990000Y-146400000D02*
X157990000Y-149160000D01*
X158830000Y-146087358D02*
X158830000Y-146400000D01*
X158830000Y-155160000D02*
X158830000Y-149160000D01*
X159690000Y-146087358D02*
X159690000Y-146400000D01*
X159690000Y-149160000D02*
X159690000Y-155160000D01*
X159690000Y-155160000D02*
X158830000Y-155160000D01*
X160530000Y-146400000D02*
X160530000Y-149160000D01*
X161370000Y-146170000D02*
X161370000Y-146400000D01*
X161800000Y-143740000D02*
X163070000Y-143740000D01*
X162230000Y-146170000D02*
X162230000Y-146400000D01*
X163070000Y-143740000D02*
X163070000Y-145010000D01*
X163180000Y-146400000D02*
X152800000Y-146400000D01*
X163180000Y-149160000D02*
X163180000Y-146400000D01*
X162230000Y-149160000D02*
X161370000Y-149160000D01*
X161370000Y-155160000D01*
X162230000Y-155160000D01*
X162230000Y-149160000D01*
G36*
X162230000Y-149160000D02*
G01*
X161370000Y-149160000D01*
X161370000Y-155160000D01*
X162230000Y-155160000D01*
X162230000Y-149160000D01*
G37*
%TO.C,D11*%
X169948000Y-117094000D02*
X169948000Y-119779000D01*
X169948000Y-119779000D02*
X171868000Y-119779000D01*
X171868000Y-119779000D02*
X171868000Y-117094000D01*
%TO.C,D2*%
X169949000Y-145349000D02*
X169949000Y-148034000D01*
X171869000Y-145349000D02*
X169949000Y-145349000D01*
X171869000Y-148034000D02*
X171869000Y-145349000D01*
%TO.C,J1*%
X136230000Y-84380000D02*
X136230000Y-83000000D01*
X137610000Y-84380000D02*
X136230000Y-84380000D01*
X138880000Y-81620000D02*
X156770000Y-81620000D01*
X138880000Y-84380000D02*
X138880000Y-81620000D01*
X138880000Y-84380000D02*
X156770000Y-84380000D01*
X156770000Y-84380000D02*
X156770000Y-81620000D01*
%TO.C,C1*%
X158015000Y-140561252D02*
X158015000Y-140038748D01*
X159485000Y-140561252D02*
X159485000Y-140038748D01*
%TO.C,C6*%
X148265000Y-97811252D02*
X148265000Y-97288748D01*
X149735000Y-97811252D02*
X149735000Y-97288748D01*
%TO.C,D9*%
X173615000Y-120781000D02*
X173615000Y-123466000D01*
X173615000Y-123466000D02*
X175535000Y-123466000D01*
X175535000Y-123466000D02*
X175535000Y-120781000D01*
%TO.C,J3*%
X165795000Y-109475000D02*
X165795000Y-100525000D01*
X168875000Y-100405000D02*
X169775000Y-100405000D01*
X168875000Y-109595000D02*
X169775000Y-109595000D01*
X172475000Y-100405000D02*
X175205000Y-100405000D01*
X172475000Y-109595000D02*
X175205000Y-109595000D01*
X175205000Y-109595000D02*
X175205000Y-100405000D01*
%TO.C,R4*%
X142610436Y-138765000D02*
X143064564Y-138765000D01*
X142610436Y-140235000D02*
X143064564Y-140235000D01*
%TO.C,J5*%
X165235000Y-112570000D02*
X165235000Y-115330000D01*
X172965000Y-112570000D02*
X165235000Y-112570000D01*
X172965000Y-112570000D02*
X172965000Y-115330000D01*
X172965000Y-115330000D02*
X165235000Y-115330000D01*
X174235000Y-112570000D02*
X175615000Y-112570000D01*
X175615000Y-112570000D02*
X175615000Y-113950000D01*
%TO.C,C4*%
X155738748Y-128765000D02*
X156261252Y-128765000D01*
X155738748Y-130235000D02*
X156261252Y-130235000D01*
%TO.C,U2*%
X155362500Y-138640000D02*
X154562500Y-138640000D01*
X155362500Y-138640000D02*
X156162500Y-138640000D01*
X155362500Y-141760000D02*
X154562500Y-141760000D01*
X155362500Y-141760000D02*
X156162500Y-141760000D01*
X156902500Y-142040000D02*
X156422500Y-142040000D01*
X156662500Y-141710000D01*
X156902500Y-142040000D01*
G36*
X156902500Y-142040000D02*
G01*
X156422500Y-142040000D01*
X156662500Y-141710000D01*
X156902500Y-142040000D01*
G37*
%TO.C,SW6*%
X136765000Y-90790000D02*
X136765000Y-97210000D01*
X136765000Y-97210000D02*
X137200000Y-97210000D01*
X137200000Y-90790000D02*
X136765000Y-90790000D01*
X138800000Y-97210000D02*
X141200000Y-97210000D01*
X141200000Y-90790000D02*
X138800000Y-90790000D01*
X142800000Y-97210000D02*
X143235000Y-97210000D01*
X143235000Y-90790000D02*
X142930000Y-90790000D01*
X143235000Y-97210000D02*
X143235000Y-90790000D01*
%TO.C,M1*%
X159120000Y-105040000D02*
X160500000Y-105040000D01*
X159120000Y-106420000D02*
X159120000Y-105040000D01*
X159120000Y-107690000D02*
X159120000Y-112880000D01*
X159120000Y-107690000D02*
X161880000Y-107690000D01*
X159120000Y-112880000D02*
X161880000Y-112880000D01*
X161880000Y-107690000D02*
X161880000Y-112880000D01*
%TO.C,D4*%
X169949000Y-139369000D02*
X169949000Y-142054000D01*
X171869000Y-139369000D02*
X169949000Y-139369000D01*
X171869000Y-142054000D02*
X171869000Y-139369000D01*
%TO.C,R2*%
X160515000Y-140564564D02*
X160515000Y-140110436D01*
X161985000Y-140564564D02*
X161985000Y-140110436D01*
%TO.C,R1*%
X145255000Y-92277064D02*
X145255000Y-91822936D01*
X146725000Y-92277064D02*
X146725000Y-91822936D01*
%TO.C,D12*%
X166281000Y-116449000D02*
X166281000Y-119134000D01*
X168201000Y-116449000D02*
X166281000Y-116449000D01*
X168201000Y-119134000D02*
X168201000Y-116449000D01*
%TO.C,R5*%
X147110436Y-138765000D02*
X147564564Y-138765000D01*
X147110436Y-140235000D02*
X147564564Y-140235000D01*
%TO.C,J2*%
X159120000Y-90310000D02*
X159120000Y-82580000D01*
X161880000Y-82580000D02*
X159120000Y-82580000D01*
X161880000Y-90310000D02*
X159120000Y-90310000D01*
X161880000Y-90310000D02*
X161880000Y-82580000D01*
X161880000Y-91580000D02*
X161880000Y-92960000D01*
X161880000Y-92960000D02*
X160500000Y-92960000D01*
%TO.C,D6*%
X166283000Y-135723000D02*
X166283000Y-138408000D01*
X168203000Y-135723000D02*
X166283000Y-135723000D01*
X168203000Y-138408000D02*
X168203000Y-135723000D01*
%TO.C,SW5*%
X150265000Y-86790000D02*
X150265000Y-93210000D01*
X150265000Y-93210000D02*
X150570000Y-93210000D01*
X150700000Y-86790000D02*
X150265000Y-86790000D01*
X152300000Y-93210000D02*
X154700000Y-93210000D01*
X154700000Y-86790000D02*
X152300000Y-86790000D01*
X156300000Y-93210000D02*
X156735000Y-93210000D01*
X156735000Y-86790000D02*
X156300000Y-86790000D01*
X156735000Y-93210000D02*
X156735000Y-86790000D01*
%TO.C,D3*%
X166282000Y-146034000D02*
X166282000Y-148719000D01*
X166282000Y-148719000D02*
X168202000Y-148719000D01*
X168202000Y-148719000D02*
X168202000Y-146034000D01*
%TO.C,C8*%
X147755000Y-91788748D02*
X147755000Y-92311252D01*
X149225000Y-91788748D02*
X149225000Y-92311252D01*
%TO.C,U3*%
X154952500Y-132140000D02*
X154952500Y-132615000D01*
X154952500Y-135360000D02*
X154952500Y-134885000D01*
X155427500Y-132140000D02*
X154952500Y-132140000D01*
X155427500Y-135360000D02*
X154952500Y-135360000D01*
X157697500Y-132140000D02*
X158172500Y-132140000D01*
X157697500Y-135360000D02*
X157872500Y-135360000D01*
X158172500Y-132140000D02*
X158172500Y-132615000D01*
X158172500Y-134885000D02*
X158172500Y-135120000D01*
X158412500Y-135690000D02*
X157932500Y-135690000D01*
X158172500Y-135360000D01*
X158412500Y-135690000D01*
G36*
X158412500Y-135690000D02*
G01*
X157932500Y-135690000D01*
X158172500Y-135360000D01*
X158412500Y-135690000D01*
G37*
%TO.C,C2*%
X151265000Y-140561252D02*
X151265000Y-140038748D01*
X152735000Y-140561252D02*
X152735000Y-140038748D01*
%TO.C,J14*%
X132280000Y-137420000D02*
X133660000Y-137420000D01*
X132280000Y-138800000D02*
X132280000Y-137420000D01*
X132280000Y-140070000D02*
X132280000Y-152880000D01*
X132280000Y-140070000D02*
X135040000Y-140070000D01*
X132280000Y-152880000D02*
X135040000Y-152880000D01*
X135040000Y-140070000D02*
X135040000Y-152880000D01*
%TO.C,R16*%
X167360436Y-96215000D02*
X167814564Y-96215000D01*
X167360436Y-97685000D02*
X167814564Y-97685000D01*
%TO.C,D8*%
X173615000Y-126761000D02*
X173615000Y-129446000D01*
X173615000Y-129446000D02*
X175535000Y-129446000D01*
X175535000Y-129446000D02*
X175535000Y-126761000D01*
%TO.C,D7*%
X169949000Y-135722000D02*
X169949000Y-138407000D01*
X171869000Y-135722000D02*
X169949000Y-135722000D01*
X171869000Y-138407000D02*
X171869000Y-135722000D01*
%TO.C,J12*%
X165120000Y-77540000D02*
X166500000Y-77540000D01*
X165120000Y-78920000D02*
X165120000Y-77540000D01*
X165120000Y-80190000D02*
X165120000Y-87920000D01*
X165120000Y-80190000D02*
X167880000Y-80190000D01*
X165120000Y-87920000D02*
X167880000Y-87920000D01*
X167880000Y-80190000D02*
X167880000Y-87920000D01*
%TO.C,R3*%
X160137500Y-133582936D02*
X160137500Y-134037064D01*
X161607500Y-133582936D02*
X161607500Y-134037064D01*
%TO.C,J16*%
X141370000Y-142500000D02*
X142750000Y-142500000D01*
X141370000Y-143880000D02*
X141370000Y-142500000D01*
X141370000Y-145150000D02*
X141370000Y-152880000D01*
X141370000Y-145150000D02*
X144130000Y-145150000D01*
X141370000Y-152880000D02*
X144130000Y-152880000D01*
X144130000Y-145150000D02*
X144130000Y-152880000D01*
%TD*%
M02*
