%TF.GenerationSoftware,KiCad,Pcbnew,9.0.4*%
%TF.CreationDate,2025-12-17T09:45:10-05:00*%
%TF.ProjectId,TARS,54415253-2e6b-4696-9361-645f70636258,rev?*%
%TF.SameCoordinates,Original*%
%TF.FileFunction,Copper,L2,Bot*%
%TF.FilePolarity,Positive*%
%FSLAX46Y46*%
G04 Gerber Fmt 4.6, Leading zero omitted, Abs format (unit mm)*
G04 Created by KiCad (PCBNEW 9.0.4) date 2025-12-17 09:45:10*
%MOMM*%
%LPD*%
G01*
G04 APERTURE LIST*
G04 Aperture macros list*
%AMRoundRect*
0 Rectangle with rounded corners*
0 $1 Rounding radius*
0 $2 $3 $4 $5 $6 $7 $8 $9 X,Y pos of 4 corners*
0 Add a 4 corners polygon primitive as box body*
4,1,4,$2,$3,$4,$5,$6,$7,$8,$9,$2,$3,0*
0 Add four circle primitives for the rounded corners*
1,1,$1+$1,$2,$3*
1,1,$1+$1,$4,$5*
1,1,$1+$1,$6,$7*
1,1,$1+$1,$8,$9*
0 Add four rect primitives between the rounded corners*
20,1,$1+$1,$2,$3,$4,$5,0*
20,1,$1+$1,$4,$5,$6,$7,0*
20,1,$1+$1,$6,$7,$8,$9,0*
20,1,$1+$1,$8,$9,$2,$3,0*%
G04 Aperture macros list end*
%TA.AperFunction,SMDPad,CuDef*%
%ADD10RoundRect,0.150000X0.088388X-0.583363X0.583363X-0.088388X-0.088388X0.583363X-0.583363X0.088388X0*%
%TD*%
%TA.AperFunction,SMDPad,CuDef*%
%ADD11RoundRect,0.150000X-0.583363X-0.088388X-0.088388X-0.583363X0.583363X0.088388X0.088388X0.583363X0*%
%TD*%
%TA.AperFunction,ComponentPad*%
%ADD12R,1.700000X1.700000*%
%TD*%
%TA.AperFunction,ComponentPad*%
%ADD13C,1.700000*%
%TD*%
%TA.AperFunction,HeatsinkPad*%
%ADD14C,0.600000*%
%TD*%
%TA.AperFunction,ComponentPad*%
%ADD15C,0.700000*%
%TD*%
%TA.AperFunction,ComponentPad*%
%ADD16O,2.400000X0.900000*%
%TD*%
%TA.AperFunction,ComponentPad*%
%ADD17O,1.700000X0.900000*%
%TD*%
%TA.AperFunction,ViaPad*%
%ADD18C,0.600000*%
%TD*%
%TA.AperFunction,Conductor*%
%ADD19C,0.200000*%
%TD*%
G04 APERTURE END LIST*
D10*
%TO.P,SW1,10*%
%TO.N,+3V3*%
X151540648Y-130559074D03*
%TO.P,SW1,9*%
X150197145Y-131902577D03*
%TO.P,SW1,8*%
X148853643Y-133246080D03*
D11*
%TO.P,SW1,7*%
%TO.N,UP*%
X144080672Y-132680394D03*
%TO.P,SW1,6*%
%TO.N,+3V3*%
X142525037Y-131124759D03*
D10*
%TO.P,SW1,5*%
%TO.N,LEFT*%
X141959351Y-126351788D03*
%TO.P,SW1,4*%
%TO.N,ENTER*%
X143302854Y-125008286D03*
%TO.P,SW1,3*%
%TO.N,DOWN*%
X144646357Y-123664783D03*
D11*
%TO.P,SW1,2*%
%TO.N,+3V3*%
X149419328Y-124230468D03*
%TO.P,SW1,1*%
%TO.N,RIGHT*%
X150974963Y-125786103D03*
%TD*%
D12*
%TO.P,J11,1,Pin_1*%
%TO.N,+5V*%
X160500000Y-121000000D03*
D13*
%TO.P,J11,2,Pin_2*%
%TO.N,WS2812B*%
X160500000Y-118460000D03*
%TO.P,J11,3,Pin_3*%
%TO.N,GND*%
X160500000Y-115920000D03*
%TD*%
D12*
%TO.P,J15,1,Pin_1*%
%TO.N,+5V*%
X138250000Y-138800000D03*
D13*
%TO.P,J15,2,Pin_2*%
%TO.N,MOSI*%
X138250000Y-141340000D03*
%TO.P,J15,3,Pin_3*%
%TO.N,MISO*%
X138250000Y-143880000D03*
%TO.P,J15,4,Pin_4*%
%TO.N,SCK*%
X138250000Y-146420000D03*
%TO.P,J15,5,Pin_5*%
%TO.N,CS2*%
X138250000Y-148960000D03*
%TO.P,J15,6,Pin_6*%
%TO.N,GND*%
X138250000Y-151500000D03*
%TD*%
D12*
%TO.P,J17,1,Pin_1*%
%TO.N,+5V*%
X147250000Y-143880000D03*
D13*
%TO.P,J17,2,Pin_2*%
%TO.N,SDA*%
X147250000Y-146420000D03*
%TO.P,J17,3,Pin_3*%
%TO.N,SCL*%
X147250000Y-148960000D03*
%TO.P,J17,4,Pin_4*%
%TO.N,GND*%
X147250000Y-151500000D03*
%TD*%
D14*
%TO.P,U1,41,GND*%
%TO.N,GND*%
X144760000Y-112995000D03*
X146160000Y-112995000D03*
X144060000Y-112295000D03*
X145460000Y-112295000D03*
X146860000Y-112295000D03*
X144760000Y-111595000D03*
X146160000Y-111595000D03*
X144060000Y-110895000D03*
X145460000Y-110895000D03*
X146860000Y-110895000D03*
X144760000Y-110195000D03*
X146160000Y-110195000D03*
%TD*%
D12*
%TO.P,LS1,1,1*%
%TO.N,Net-(U3-OUTP)*%
X160500000Y-125725000D03*
D13*
%TO.P,LS1,2,2*%
%TO.N,Net-(U3-OUTN)*%
X160500000Y-128265000D03*
%TD*%
D12*
%TO.P,M2,1,PWM*%
%TO.N,SERV2*%
X160500000Y-96500000D03*
D13*
%TO.P,M2,2,+*%
%TO.N,+5V*%
X160500000Y-99040000D03*
%TO.P,M2,3,-*%
%TO.N,GND*%
X160500000Y-101580000D03*
%TD*%
D12*
%TO.P,J13,1,Pin_1*%
%TO.N,+5V*%
X161800000Y-145010000D03*
D13*
%TO.P,J13,2,Pin_2*%
%TO.N,D+*%
X159260000Y-145010000D03*
%TO.P,J13,3,Pin_3*%
%TO.N,D-*%
X156720000Y-145010000D03*
%TO.P,J13,4,Pin_4*%
%TO.N,GND*%
X154180000Y-145010000D03*
%TD*%
D12*
%TO.P,J1,1,Pin_1*%
%TO.N,+3V3*%
X137610000Y-83000000D03*
D13*
%TO.P,J1,2,Pin_2*%
%TO.N,GND*%
X140150000Y-83000000D03*
%TO.P,J1,3,Pin_3*%
%TO.N,unconnected-(J1-Pin_3-Pad3)*%
X142690000Y-83000000D03*
%TO.P,J1,4,Pin_4*%
%TO.N,MOSI*%
X145230000Y-83000000D03*
%TO.P,J1,5,Pin_5*%
%TO.N,SCK*%
X147770000Y-83000000D03*
%TO.P,J1,6,Pin_6*%
%TO.N,CS0*%
X150310000Y-83000000D03*
%TO.P,J1,7,Pin_7*%
%TO.N,D{slash}C*%
X152850000Y-83000000D03*
%TO.P,J1,8,Pin_8*%
%TO.N,RES*%
X155390000Y-83000000D03*
%TD*%
D15*
%TO.P,J3,A1,GND*%
%TO.N,GND*%
X167726000Y-111725000D03*
%TO.P,J3,A4,VBUS*%
%TO.N,+5V*%
X167726000Y-110875000D03*
%TO.P,J3,A5,CC1*%
%TO.N,Net-(J3-CC1)*%
X167726000Y-110025000D03*
%TO.P,J3,A6,D+*%
%TO.N,D+*%
X167726000Y-109175000D03*
%TO.P,J3,A7,D-*%
%TO.N,D-*%
X167726000Y-108325000D03*
%TO.P,J3,A8,SBU1*%
%TO.N,unconnected-(J3-SBU1-PadA8)*%
X167726000Y-107475000D03*
%TO.P,J3,A9,VBUS*%
%TO.N,+5V*%
X167726000Y-106625000D03*
%TO.P,J3,A12,GND*%
%TO.N,GND*%
X167726000Y-105775000D03*
%TO.P,J3,B1,GND*%
X169076000Y-105775000D03*
%TO.P,J3,B4,VBUS*%
%TO.N,+5V*%
X169076000Y-106625000D03*
%TO.P,J3,B5,CC2*%
%TO.N,Net-(J3-CC2)*%
X169076000Y-107475000D03*
%TO.P,J3,B6,D+*%
%TO.N,D+*%
X169076000Y-108325000D03*
%TO.P,J3,B7,D-*%
%TO.N,D-*%
X169076000Y-109175000D03*
%TO.P,J3,B8,SBU2*%
%TO.N,unconnected-(J3-SBU2-PadB8)*%
X169076000Y-110025000D03*
%TO.P,J3,B9,VBUS*%
%TO.N,+5V*%
X169076000Y-110875000D03*
%TO.P,J3,B12,GND*%
%TO.N,GND*%
X169076000Y-111725000D03*
D16*
%TO.P,J3,S1,SHIELD*%
%TO.N,unconnected-(J3-SHIELD-PadS1)*%
X168706000Y-113075000D03*
D17*
%TO.N,unconnected-(J3-SHIELD-PadS1)_3*%
X172086000Y-113075000D03*
D16*
%TO.N,unconnected-(J3-SHIELD-PadS1)_2*%
X168706000Y-104425000D03*
D17*
%TO.N,unconnected-(J3-SHIELD-PadS1)_1*%
X172086000Y-104425000D03*
%TD*%
D12*
%TO.P,J5,1,Pin_1*%
%TO.N,LEDA*%
X175560000Y-117566000D03*
D13*
%TO.P,J5,2,Pin_2*%
%TO.N,LEDB*%
X173020000Y-117566000D03*
%TO.P,J5,3,Pin_3*%
%TO.N,LEDC*%
X170480000Y-117566000D03*
%TO.P,J5,4,Pin_4*%
%TO.N,LEDD*%
X167940000Y-117566000D03*
%TD*%
D12*
%TO.P,M1,1,PWM*%
%TO.N,SERV1*%
X160500000Y-106420000D03*
D13*
%TO.P,M1,2,+*%
%TO.N,+5V*%
X160500000Y-108960000D03*
%TO.P,M1,3,-*%
%TO.N,GND*%
X160500000Y-111500000D03*
%TD*%
D12*
%TO.P,J2,1,Pin_1*%
%TO.N,LEDA*%
X160500000Y-91580000D03*
D13*
%TO.P,J2,2,Pin_2*%
%TO.N,LEDB*%
X160500000Y-89040000D03*
%TO.P,J2,3,Pin_3*%
%TO.N,LEDC*%
X160500000Y-86500000D03*
%TO.P,J2,4,Pin_4*%
%TO.N,LEDD*%
X160500000Y-83960000D03*
%TD*%
D12*
%TO.P,J14,1,Pin_1*%
%TO.N,+5V*%
X133660000Y-138800000D03*
D13*
%TO.P,J14,2,Pin_2*%
%TO.N,MOSI*%
X133660000Y-141340000D03*
%TO.P,J14,3,Pin_3*%
%TO.N,MISO*%
X133660000Y-143880000D03*
%TO.P,J14,4,Pin_4*%
%TO.N,SCK*%
X133660000Y-146420000D03*
%TO.P,J14,5,Pin_5*%
%TO.N,CS1*%
X133660000Y-148960000D03*
%TO.P,J14,6,Pin_6*%
%TO.N,GND*%
X133660000Y-151500000D03*
%TD*%
D12*
%TO.P,J12,1,Pin_1*%
%TO.N,+5V*%
X167751000Y-82670000D03*
D13*
%TO.P,J12,2,Pin_2*%
%TO.N,D+*%
X167751000Y-85210000D03*
%TO.P,J12,3,Pin_3*%
%TO.N,D-*%
X167751000Y-87750000D03*
%TO.P,J12,4,Pin_4*%
%TO.N,GND*%
X167751000Y-90290000D03*
%TD*%
D12*
%TO.P,J16,1,Pin_1*%
%TO.N,+5V*%
X142750000Y-143880000D03*
D13*
%TO.P,J16,2,Pin_2*%
%TO.N,SDA*%
X142750000Y-146420000D03*
%TO.P,J16,3,Pin_3*%
%TO.N,SCL*%
X142750000Y-148960000D03*
%TO.P,J16,4,Pin_4*%
%TO.N,GND*%
X142750000Y-151500000D03*
%TD*%
D18*
%TO.N,LEFT*%
X152500000Y-117500000D03*
%TO.N,RIGHT*%
X139250000Y-122750000D03*
%TO.N,ENTER*%
X139750000Y-122000000D03*
%TO.N,DOWN*%
X139500000Y-105500000D03*
%TO.N,UP*%
X139000000Y-104000000D03*
%TO.N,+3V3*%
X148853643Y-133246080D03*
X150197145Y-131902577D03*
X151540648Y-130559074D03*
X149419328Y-124230468D03*
X142525037Y-131124759D03*
%TO.N,GND*%
X138000000Y-94000000D03*
X149250000Y-93250000D03*
X162750000Y-147250000D03*
X153750000Y-136000000D03*
X155500000Y-90000000D03*
X157000000Y-123250000D03*
X156950000Y-127750000D03*
X162750000Y-143000000D03*
X137740000Y-101345000D03*
%TO.N,+3V3*%
X162500000Y-121500000D03*
X155750000Y-124000000D03*
X158250000Y-131750000D03*
X131000000Y-135250000D03*
X160750000Y-131500000D03*
X133750000Y-136500000D03*
%TO.N,RESET*%
X140250000Y-116250000D03*
X144250000Y-92500000D03*
%TO.N,LEDA*%
X147900000Y-101345000D03*
%TO.N,LEDB*%
X146630000Y-101345000D03*
%TO.N,LEDC*%
X145360000Y-101345000D03*
X170500000Y-141066000D03*
X170500000Y-138066000D03*
%TO.N,CS0*%
X154000000Y-113000000D03*
%TO.N,RES*%
X150440000Y-118845000D03*
%TO.N,SCK*%
X142500000Y-122500000D03*
X151750000Y-111250000D03*
%TO.N,D{slash}C*%
X149250000Y-118750000D03*
%TO.N,MOSI*%
X141250000Y-121750000D03*
X149750000Y-112000000D03*
%TO.N,D+*%
X154250000Y-120750000D03*
%TO.N,D-*%
X171426000Y-105700000D03*
X153000000Y-120750000D03*
X171426000Y-102700000D03*
%TO.N,WS2812B*%
X153000000Y-116501000D03*
X156500000Y-120500000D03*
%TO.N,CS1*%
X143117364Y-113854578D03*
X142250000Y-112000000D03*
%TO.N,MISO*%
X150750000Y-110500000D03*
X142250000Y-121500000D03*
%TO.N,CS2*%
X146750000Y-117250000D03*
X141250000Y-112000000D03*
X144250000Y-117250000D03*
X142250000Y-114500000D03*
%TO.N,SCL*%
X143750000Y-121750000D03*
X152750000Y-105000000D03*
%TO.N,SDA*%
X154000000Y-114750000D03*
X144500000Y-122500000D03*
%TO.N,Net-(U3-OUTP)*%
X154250000Y-132000000D03*
%TO.N,Net-(U3-OUTN)*%
X153750000Y-132750000D03*
%TO.N,DIN*%
X159250000Y-135250000D03*
X157500000Y-110000000D03*
%TO.N,LEDD*%
X144409998Y-101221893D03*
%TD*%
D19*
%TO.N,LEFT*%
X152500000Y-117750000D02*
X152500000Y-117500000D01*
%TO.N,WS2812B*%
X153000000Y-116501000D02*
X153249000Y-116750000D01*
X153249000Y-116750000D02*
X153250000Y-116750000D01*
X153250000Y-116750000D02*
X156500000Y-120000000D01*
X156500000Y-120000000D02*
X156500000Y-120500000D01*
%TO.N,LEFT*%
X143898212Y-126351788D02*
X152500000Y-117750000D01*
X141959351Y-126351788D02*
X143898212Y-126351788D01*
%TO.N,RIGHT*%
X139250000Y-127000000D02*
X141500000Y-129250000D01*
X139250000Y-122750000D02*
X139250000Y-127000000D01*
X141500000Y-129250000D02*
X149750000Y-129250000D01*
X149750000Y-129250000D02*
X150974963Y-128025037D01*
X150974963Y-128025037D02*
X150974963Y-125786103D01*
%TO.N,ENTER*%
X142758286Y-125008286D02*
X139750000Y-122000000D01*
X143302854Y-125008286D02*
X142758286Y-125008286D01*
%TO.N,DOWN*%
X144646357Y-123664783D02*
X142314840Y-123664783D01*
X139500000Y-120849943D02*
X139500000Y-105500000D01*
X142314840Y-123664783D02*
X139500000Y-120849943D01*
%TO.N,D-*%
X156720000Y-145010000D02*
X152198000Y-140488000D01*
X153000000Y-123500000D02*
X153000000Y-120750000D01*
X152198000Y-140488000D02*
X152198000Y-124302000D01*
X152198000Y-124302000D02*
X153000000Y-123500000D01*
%TO.N,D+*%
X154250000Y-123099000D02*
X154250000Y-120750000D01*
X152599000Y-124750000D02*
X154250000Y-123099000D01*
%TO.N,DIN*%
X159250000Y-135250000D02*
X154750000Y-135250000D01*
X154750000Y-135250000D02*
X153000000Y-133500000D01*
X153000000Y-133500000D02*
X153000000Y-125000000D01*
X153000000Y-125000000D02*
X157500000Y-120500000D01*
X157500000Y-120500000D02*
X157500000Y-110000000D01*
%TO.N,UP*%
X138500000Y-104500000D02*
X139000000Y-104000000D01*
X138500000Y-130500000D02*
X138500000Y-104500000D01*
X140680394Y-132680394D02*
X138500000Y-130500000D01*
X144080672Y-132680394D02*
X140680394Y-132680394D01*
%TO.N,+3V3*%
X148853643Y-133246080D02*
X151540648Y-130559074D01*
%TO.N,GND*%
X162750000Y-143000000D02*
X163000000Y-143250000D01*
X147250000Y-151500000D02*
X133660000Y-151500000D01*
X166426000Y-110495654D02*
X166426000Y-107004346D01*
X163000000Y-147000000D02*
X162750000Y-147250000D01*
X167655346Y-105775000D02*
X167726000Y-105775000D01*
X166426000Y-107004346D02*
X167655346Y-105775000D01*
X167655346Y-111725000D02*
X166426000Y-110495654D01*
X167726000Y-111725000D02*
X167655346Y-111725000D01*
X163000000Y-143250000D02*
X163000000Y-147000000D01*
%TO.N,+5V*%
X167655346Y-110875000D02*
X167075000Y-110294654D01*
X167075000Y-107205346D02*
X167655346Y-106625000D01*
X159310000Y-147500000D02*
X161800000Y-145010000D01*
X147380000Y-143880000D02*
X151000000Y-147500000D01*
X167655346Y-106625000D02*
X167726000Y-106625000D01*
X167726000Y-110875000D02*
X167655346Y-110875000D01*
X151000000Y-147500000D02*
X159310000Y-147500000D01*
X147250000Y-143880000D02*
X147380000Y-143880000D01*
X142750000Y-143300000D02*
X138250000Y-138800000D01*
X167075000Y-110294654D02*
X167075000Y-107205346D01*
X142750000Y-143880000D02*
X142750000Y-143300000D01*
%TO.N,+3V3*%
X133750000Y-136500000D02*
X132250000Y-136500000D01*
X160000000Y-124000000D02*
X155750000Y-124000000D01*
X162500000Y-121500000D02*
X160000000Y-124000000D01*
X132250000Y-136500000D02*
X131000000Y-135250000D01*
X158500000Y-131500000D02*
X158250000Y-131750000D01*
X160750000Y-131500000D02*
X158500000Y-131500000D01*
%TO.N,RESET*%
X140250000Y-96500000D02*
X140250000Y-116250000D01*
X144250000Y-92500000D02*
X140250000Y-96500000D01*
%TO.N,LEDA*%
X150735000Y-101345000D02*
X160500000Y-91580000D01*
X147900000Y-101345000D02*
X150735000Y-101345000D01*
%TO.N,LEDB*%
X146630000Y-101345000D02*
X155475000Y-92500000D01*
X157040000Y-92500000D02*
X160500000Y-89040000D01*
X155475000Y-92500000D02*
X157040000Y-92500000D01*
%TO.N,LEDC*%
X145655000Y-101345000D02*
X160500000Y-86500000D01*
X170500000Y-138066000D02*
X170500000Y-141066000D01*
X145360000Y-101345000D02*
X145655000Y-101345000D01*
%TO.N,CS0*%
X152500000Y-103750000D02*
X154200000Y-105450000D01*
X150310000Y-89690000D02*
X142750000Y-97250000D01*
X142750000Y-102250000D02*
X144250000Y-103750000D01*
X144250000Y-103750000D02*
X152500000Y-103750000D01*
X154200000Y-112800000D02*
X154000000Y-113000000D01*
X142750000Y-97250000D02*
X142750000Y-102250000D01*
X154200000Y-105450000D02*
X154200000Y-112800000D01*
X150310000Y-83000000D02*
X150310000Y-89690000D01*
%TO.N,RES*%
X155002000Y-105117800D02*
X152634200Y-102750000D01*
X155002000Y-115165043D02*
X155002000Y-105117800D01*
X154266043Y-115901000D02*
X155002000Y-115165043D01*
X150440000Y-118845000D02*
X150440000Y-118210057D01*
X143750000Y-101932900D02*
X143750000Y-97750000D01*
X152749057Y-115901000D02*
X154266043Y-115901000D01*
X152634200Y-102750000D02*
X144567100Y-102750000D01*
X155390000Y-86110000D02*
X155390000Y-83000000D01*
X144567100Y-102750000D02*
X143750000Y-101932900D01*
X150440000Y-118210057D02*
X152749057Y-115901000D01*
X143750000Y-97750000D02*
X155390000Y-86110000D01*
%TO.N,SCK*%
X144000000Y-116500000D02*
X143000000Y-117500000D01*
X147770000Y-91230000D02*
X142000000Y-97000000D01*
X151750000Y-111250000D02*
X151750000Y-112500000D01*
X143000000Y-117500000D02*
X143000000Y-122000000D01*
X142000000Y-97000000D02*
X142000000Y-103000000D01*
X147770000Y-83000000D02*
X147770000Y-91230000D01*
X142000000Y-103000000D02*
X147250000Y-108250000D01*
X151750000Y-112500000D02*
X147750000Y-116500000D01*
X149349943Y-108250000D02*
X151750000Y-110650057D01*
X151750000Y-110650057D02*
X151750000Y-111250000D01*
X147250000Y-108250000D02*
X149349943Y-108250000D01*
X147750000Y-116500000D02*
X144000000Y-116500000D01*
X143000000Y-122000000D02*
X142500000Y-122500000D01*
%TO.N,D{slash}C*%
X152500000Y-115500000D02*
X149250000Y-118750000D01*
X154601000Y-114998943D02*
X154099943Y-115500000D01*
X154099943Y-115500000D02*
X154000000Y-115500000D01*
X144500000Y-103250000D02*
X152567100Y-103250000D01*
X154000000Y-115500000D02*
X152500000Y-115500000D01*
X143250000Y-102000000D02*
X144500000Y-103250000D01*
X152850000Y-87900000D02*
X143250000Y-97500000D01*
X154601000Y-105283900D02*
X154601000Y-114998943D01*
X143250000Y-97500000D02*
X143250000Y-102000000D01*
X152567100Y-103250000D02*
X154601000Y-105283900D01*
X152850000Y-83000000D02*
X152850000Y-87900000D01*
%TO.N,MOSI*%
X146750000Y-115000000D02*
X149750000Y-112000000D01*
X141500000Y-103750000D02*
X149750000Y-112000000D01*
X141250000Y-121750000D02*
X141250000Y-117000000D01*
X141500000Y-96750000D02*
X141500000Y-103750000D01*
X145230000Y-93020000D02*
X141500000Y-96750000D01*
X145230000Y-83000000D02*
X145230000Y-93020000D01*
X141250000Y-117000000D02*
X143250000Y-115000000D01*
X143250000Y-115000000D02*
X146750000Y-115000000D01*
%TO.N,D+*%
X167726000Y-109175000D02*
X168155346Y-109175000D01*
X168155346Y-109175000D02*
X169005346Y-108325000D01*
X169076000Y-108325000D02*
X169570974Y-108325000D01*
X159260000Y-145010000D02*
X152599000Y-138349000D01*
X170207000Y-87666000D02*
X167751000Y-85210000D01*
X170207000Y-107688974D02*
X170207000Y-87666000D01*
X169570974Y-108325000D02*
X170207000Y-107688974D01*
X152599000Y-138349000D02*
X152599000Y-124750000D01*
X169005346Y-108325000D02*
X169076000Y-108325000D01*
%TO.N,D-*%
X171426000Y-105700000D02*
X170935000Y-105209000D01*
X170935000Y-105209000D02*
X170935000Y-103191000D01*
X170935000Y-103191000D02*
X171426000Y-102700000D01*
%TO.N,CS1*%
X143117364Y-113854578D02*
X142250000Y-112987214D01*
X142250000Y-112987214D02*
X142250000Y-112000000D01*
%TO.N,MISO*%
X142250000Y-121500000D02*
X142250000Y-117000000D01*
X150750000Y-112250000D02*
X150750000Y-110500000D01*
X147250000Y-115750000D02*
X150750000Y-112250000D01*
X143500000Y-115750000D02*
X147250000Y-115750000D01*
X142250000Y-117000000D02*
X143500000Y-115750000D01*
%TO.N,CS2*%
X144250000Y-117250000D02*
X146750000Y-117250000D01*
X141250000Y-113500000D02*
X142250000Y-114500000D01*
X141250000Y-112000000D02*
X141250000Y-113500000D01*
%TO.N,SCL*%
X152750000Y-112750000D02*
X152750000Y-105000000D01*
X143750000Y-121750000D02*
X152750000Y-112750000D01*
%TO.N,SDA*%
X144500000Y-122500000D02*
X152250000Y-114750000D01*
X152250000Y-114750000D02*
X154000000Y-114750000D01*
%TO.N,Net-(U3-OUTP)*%
X154250000Y-132000000D02*
X160500000Y-125750000D01*
X160500000Y-125750000D02*
X160500000Y-125725000D01*
%TO.N,Net-(U3-OUTN)*%
X156015000Y-132750000D02*
X160500000Y-128265000D01*
X153750000Y-132750000D02*
X156015000Y-132750000D01*
%TO.N,LEDD*%
X144409998Y-101221893D02*
X144409998Y-100050002D01*
X144409998Y-100050002D02*
X160500000Y-83960000D01*
%TD*%
%TA.AperFunction,Conductor*%
%TO.N,GND*%
G36*
X163192539Y-81270185D02*
G01*
X163238294Y-81322989D01*
X163249500Y-81374500D01*
X163249500Y-81868097D01*
X163286446Y-82101368D01*
X163359433Y-82325996D01*
X163466657Y-82536433D01*
X163543613Y-82642353D01*
X163567093Y-82708160D01*
X163551268Y-82776214D01*
X163550684Y-82777237D01*
X163533608Y-82806814D01*
X163499500Y-82934108D01*
X163499500Y-83065892D01*
X163533556Y-83192993D01*
X163533609Y-83193188D01*
X163533609Y-83193189D01*
X163602782Y-83313000D01*
X163619255Y-83380900D01*
X163602782Y-83437000D01*
X163533609Y-83556810D01*
X163533609Y-83556811D01*
X163533608Y-83556813D01*
X163533608Y-83556814D01*
X163499500Y-83684108D01*
X163499500Y-83815892D01*
X163521467Y-83897876D01*
X163533609Y-83943188D01*
X163533609Y-83943189D01*
X163602782Y-84063000D01*
X163619255Y-84130900D01*
X163602782Y-84187000D01*
X163533609Y-84306810D01*
X163533609Y-84306811D01*
X163533608Y-84306813D01*
X163533608Y-84306814D01*
X163499500Y-84434108D01*
X163499500Y-84565892D01*
X163526811Y-84667820D01*
X163533609Y-84693188D01*
X163533609Y-84693189D01*
X163550682Y-84722760D01*
X163567155Y-84790660D01*
X163544302Y-84856687D01*
X163543613Y-84857645D01*
X163466659Y-84963563D01*
X163359433Y-85174003D01*
X163286446Y-85398631D01*
X163249500Y-85631902D01*
X163249500Y-103618097D01*
X163286446Y-103851368D01*
X163359433Y-104075996D01*
X163466657Y-104286433D01*
X163543613Y-104392353D01*
X163567093Y-104458160D01*
X163551268Y-104526214D01*
X163550684Y-104527237D01*
X163533608Y-104556814D01*
X163499500Y-104684108D01*
X163499500Y-104815892D01*
X163527704Y-104921153D01*
X163533609Y-104943188D01*
X163533609Y-104943189D01*
X163602782Y-105063000D01*
X163619255Y-105130900D01*
X163602782Y-105187000D01*
X163533609Y-105306810D01*
X163533609Y-105306811D01*
X163533608Y-105306813D01*
X163533608Y-105306814D01*
X163499500Y-105434108D01*
X163499500Y-105565892D01*
X163530626Y-105682058D01*
X163533609Y-105693188D01*
X163533609Y-105693189D01*
X163602782Y-105813000D01*
X163619255Y-105880900D01*
X163602782Y-105937000D01*
X163533609Y-106056810D01*
X163533609Y-106056811D01*
X163533608Y-106056813D01*
X163533608Y-106056814D01*
X163499500Y-106184108D01*
X163499500Y-106315892D01*
X163510108Y-106355483D01*
X163533609Y-106443188D01*
X163533609Y-106443189D01*
X163550682Y-106472760D01*
X163567155Y-106540660D01*
X163544302Y-106606687D01*
X163543613Y-106607645D01*
X163466659Y-106713563D01*
X163359433Y-106924003D01*
X163286446Y-107148631D01*
X163249500Y-107381902D01*
X163249500Y-120118097D01*
X163286446Y-120351368D01*
X163359433Y-120575996D01*
X163439685Y-120733497D01*
X163466657Y-120786433D01*
X163526439Y-120868716D01*
X163543613Y-120892353D01*
X163567093Y-120958160D01*
X163562340Y-120999941D01*
X163558155Y-121014296D01*
X163533608Y-121056814D01*
X163499500Y-121184108D01*
X163499500Y-121215512D01*
X163494545Y-121232511D01*
X163484871Y-121247628D01*
X163479815Y-121264848D01*
X163466432Y-121276443D01*
X163456886Y-121291363D01*
X163440573Y-121298851D01*
X163427011Y-121310603D01*
X163409482Y-121313123D01*
X163393387Y-121320512D01*
X163375617Y-121317992D01*
X163357853Y-121320547D01*
X163341743Y-121313190D01*
X163324209Y-121310704D01*
X163310622Y-121298977D01*
X163294297Y-121291522D01*
X163281627Y-121273951D01*
X163271316Y-121265052D01*
X163268608Y-121255896D01*
X163260939Y-121245261D01*
X163209397Y-121120827D01*
X163209390Y-121120814D01*
X163121789Y-120989711D01*
X163121786Y-120989707D01*
X163010292Y-120878213D01*
X163010288Y-120878210D01*
X162879185Y-120790609D01*
X162879172Y-120790602D01*
X162733501Y-120730264D01*
X162733489Y-120730261D01*
X162578845Y-120699500D01*
X162578842Y-120699500D01*
X162421158Y-120699500D01*
X162421155Y-120699500D01*
X162266510Y-120730261D01*
X162266498Y-120730264D01*
X162120827Y-120790602D01*
X162120814Y-120790609D01*
X162043390Y-120842343D01*
X161976712Y-120863221D01*
X161909332Y-120844736D01*
X161862642Y-120792757D01*
X161850499Y-120739241D01*
X161850499Y-120102129D01*
X161850498Y-120102123D01*
X161850497Y-120102116D01*
X161844091Y-120042517D01*
X161843379Y-120040609D01*
X161793797Y-119907671D01*
X161793793Y-119907664D01*
X161707547Y-119792455D01*
X161707544Y-119792452D01*
X161592335Y-119706206D01*
X161592328Y-119706202D01*
X161460917Y-119657189D01*
X161404983Y-119615318D01*
X161380566Y-119549853D01*
X161395418Y-119481580D01*
X161416563Y-119453332D01*
X161530104Y-119339792D01*
X161538427Y-119328337D01*
X161655048Y-119167820D01*
X161655047Y-119167820D01*
X161655051Y-119167816D01*
X161751557Y-118978412D01*
X161817246Y-118776243D01*
X161850500Y-118566287D01*
X161850500Y-118353713D01*
X161817246Y-118143757D01*
X161751557Y-117941588D01*
X161655051Y-117752184D01*
X161655049Y-117752181D01*
X161655048Y-117752179D01*
X161530109Y-117580213D01*
X161379786Y-117429890D01*
X161207817Y-117304949D01*
X161198504Y-117300204D01*
X161147707Y-117252230D01*
X161130912Y-117184409D01*
X161153449Y-117118274D01*
X161198507Y-117079232D01*
X161207555Y-117074622D01*
X161261716Y-117035270D01*
X161261717Y-117035270D01*
X160629408Y-116402962D01*
X160692993Y-116385925D01*
X160807007Y-116320099D01*
X160900099Y-116227007D01*
X160965925Y-116112993D01*
X160982962Y-116049409D01*
X161615270Y-116681717D01*
X161615270Y-116681716D01*
X161654622Y-116627554D01*
X161751095Y-116438217D01*
X161816757Y-116236130D01*
X161816757Y-116236127D01*
X161850000Y-116026246D01*
X161850000Y-115813753D01*
X161816757Y-115603872D01*
X161816757Y-115603869D01*
X161751095Y-115401782D01*
X161654624Y-115212449D01*
X161615270Y-115158282D01*
X161615269Y-115158282D01*
X160982962Y-115790590D01*
X160965925Y-115727007D01*
X160900099Y-115612993D01*
X160807007Y-115519901D01*
X160692993Y-115454075D01*
X160629409Y-115437037D01*
X161261716Y-114804728D01*
X161207550Y-114765375D01*
X161018217Y-114668904D01*
X160816129Y-114603242D01*
X160606246Y-114570000D01*
X160393754Y-114570000D01*
X160183872Y-114603242D01*
X160183869Y-114603242D01*
X159981782Y-114668904D01*
X159792439Y-114765380D01*
X159738282Y-114804727D01*
X159738282Y-114804728D01*
X160370591Y-115437037D01*
X160307007Y-115454075D01*
X160192993Y-115519901D01*
X160099901Y-115612993D01*
X160034075Y-115727007D01*
X160017037Y-115790591D01*
X159384728Y-115158282D01*
X159384727Y-115158282D01*
X159345380Y-115212439D01*
X159248904Y-115401782D01*
X159183242Y-115603869D01*
X159183242Y-115603872D01*
X159150000Y-115813753D01*
X159150000Y-116026246D01*
X159183242Y-116236127D01*
X159183242Y-116236130D01*
X159248904Y-116438217D01*
X159345375Y-116627550D01*
X159384728Y-116681716D01*
X160017037Y-116049408D01*
X160034075Y-116112993D01*
X160099901Y-116227007D01*
X160192993Y-116320099D01*
X160307007Y-116385925D01*
X160370590Y-116402962D01*
X159738282Y-117035269D01*
X159738282Y-117035270D01*
X159792452Y-117074626D01*
X159792451Y-117074626D01*
X159801495Y-117079234D01*
X159852292Y-117127208D01*
X159869087Y-117195029D01*
X159846550Y-117261164D01*
X159801499Y-117300202D01*
X159792182Y-117304949D01*
X159620213Y-117429890D01*
X159469890Y-117580213D01*
X159344951Y-117752179D01*
X159248444Y-117941585D01*
X159182753Y-118143760D01*
X159149500Y-118353713D01*
X159149500Y-118566286D01*
X159182753Y-118776239D01*
X159248444Y-118978414D01*
X159344951Y-119167820D01*
X159469890Y-119339786D01*
X159583430Y-119453326D01*
X159616915Y-119514649D01*
X159611931Y-119584341D01*
X159570059Y-119640274D01*
X159539083Y-119657189D01*
X159407669Y-119706203D01*
X159407664Y-119706206D01*
X159292455Y-119792452D01*
X159292452Y-119792455D01*
X159206206Y-119907664D01*
X159206202Y-119907671D01*
X159155908Y-120042517D01*
X159152343Y-120075683D01*
X159149501Y-120102123D01*
X159149500Y-120102135D01*
X159149500Y-121897870D01*
X159149501Y-121897876D01*
X159155908Y-121957483D01*
X159206202Y-122092328D01*
X159206206Y-122092335D01*
X159292452Y-122207544D01*
X159292455Y-122207547D01*
X159407664Y-122293793D01*
X159407671Y-122293797D01*
X159542517Y-122344091D01*
X159542516Y-122344091D01*
X159549444Y-122344835D01*
X159602127Y-122350500D01*
X160500902Y-122350499D01*
X160567941Y-122370183D01*
X160613696Y-122422987D01*
X160623640Y-122492146D01*
X160594615Y-122555702D01*
X160588583Y-122562180D01*
X159787584Y-123363181D01*
X159726261Y-123396666D01*
X159699903Y-123399500D01*
X156329766Y-123399500D01*
X156262727Y-123379815D01*
X156260875Y-123378602D01*
X156129185Y-123290609D01*
X156129172Y-123290602D01*
X155983501Y-123230264D01*
X155983489Y-123230261D01*
X155906979Y-123215042D01*
X155845068Y-123182657D01*
X155810494Y-123121941D01*
X155814233Y-123052172D01*
X155843487Y-123005746D01*
X157858506Y-120990728D01*
X157858511Y-120990724D01*
X157868714Y-120980520D01*
X157868716Y-120980520D01*
X157980520Y-120868716D01*
X158049349Y-120749500D01*
X158059577Y-120731785D01*
X158100501Y-120579057D01*
X158100501Y-120420943D01*
X158100501Y-120413348D01*
X158100500Y-120413330D01*
X158100500Y-110579765D01*
X158120185Y-110512726D01*
X158121398Y-110510874D01*
X158209390Y-110379185D01*
X158209390Y-110379184D01*
X158209394Y-110379179D01*
X158269737Y-110233497D01*
X158300500Y-110078842D01*
X158300500Y-109921158D01*
X158300500Y-109921155D01*
X158300499Y-109921153D01*
X158269738Y-109766510D01*
X158269737Y-109766503D01*
X158269735Y-109766498D01*
X158209397Y-109620827D01*
X158209390Y-109620814D01*
X158121789Y-109489711D01*
X158121786Y-109489707D01*
X158010292Y-109378213D01*
X158010288Y-109378210D01*
X157879185Y-109290609D01*
X157879172Y-109290602D01*
X157733501Y-109230264D01*
X157733489Y-109230261D01*
X157578845Y-109199500D01*
X157578842Y-109199500D01*
X157421158Y-109199500D01*
X157421155Y-109199500D01*
X157266510Y-109230261D01*
X157266498Y-109230264D01*
X157120827Y-109290602D01*
X157120814Y-109290609D01*
X156989711Y-109378210D01*
X156989707Y-109378213D01*
X156878213Y-109489707D01*
X156878210Y-109489711D01*
X156790609Y-109620814D01*
X156790602Y-109620827D01*
X156730264Y-109766498D01*
X156730261Y-109766510D01*
X156699500Y-109921153D01*
X156699500Y-110078846D01*
X156730261Y-110233489D01*
X156730264Y-110233501D01*
X156790602Y-110379172D01*
X156790609Y-110379185D01*
X156878602Y-110510874D01*
X156899480Y-110577551D01*
X156899500Y-110579765D01*
X156899500Y-119250903D01*
X156879815Y-119317942D01*
X156827011Y-119363697D01*
X156757853Y-119373641D01*
X156694297Y-119344616D01*
X156687819Y-119338584D01*
X154062416Y-116713181D01*
X154051803Y-116693744D01*
X154037303Y-116677011D01*
X154035386Y-116663679D01*
X154028931Y-116651858D01*
X154030510Y-116629771D01*
X154027359Y-116607853D01*
X154032954Y-116595601D01*
X154033915Y-116582166D01*
X154047185Y-116564439D01*
X154056384Y-116544297D01*
X154067715Y-116537014D01*
X154075787Y-116526233D01*
X154096532Y-116518495D01*
X154115162Y-116506523D01*
X154137080Y-116503371D01*
X154141251Y-116501816D01*
X154150097Y-116501500D01*
X154179374Y-116501500D01*
X154179390Y-116501501D01*
X154186986Y-116501501D01*
X154345097Y-116501501D01*
X154345100Y-116501501D01*
X154497828Y-116460577D01*
X154564371Y-116422158D01*
X154634759Y-116381520D01*
X154746563Y-116269716D01*
X154746563Y-116269714D01*
X154756767Y-116259511D01*
X154756771Y-116259506D01*
X155360506Y-115655771D01*
X155360511Y-115655767D01*
X155370714Y-115645563D01*
X155370716Y-115645563D01*
X155482520Y-115533759D01*
X155561577Y-115396827D01*
X155595699Y-115269481D01*
X155602500Y-115244101D01*
X155602500Y-115085986D01*
X155602500Y-105522135D01*
X159149500Y-105522135D01*
X159149500Y-107317870D01*
X159149501Y-107317876D01*
X159155908Y-107377483D01*
X159206202Y-107512328D01*
X159206206Y-107512335D01*
X159292452Y-107627544D01*
X159292455Y-107627547D01*
X159407664Y-107713793D01*
X159407671Y-107713797D01*
X159539082Y-107762810D01*
X159595016Y-107804681D01*
X159619433Y-107870145D01*
X159604582Y-107938418D01*
X159583431Y-107966673D01*
X159469889Y-108080215D01*
X159344951Y-108252179D01*
X159248444Y-108441585D01*
X159182753Y-108643760D01*
X159149500Y-108853713D01*
X159149500Y-109066286D01*
X159175471Y-109230264D01*
X159182754Y-109276243D01*
X159215886Y-109378213D01*
X159248444Y-109478414D01*
X159344951Y-109667820D01*
X159469890Y-109839786D01*
X159620213Y-109990109D01*
X159792179Y-110115048D01*
X159792181Y-110115049D01*
X159792184Y-110115051D01*
X159801493Y-110119794D01*
X159852290Y-110167766D01*
X159869087Y-110235587D01*
X159846552Y-110301722D01*
X159801505Y-110340760D01*
X159792446Y-110345376D01*
X159792440Y-110345380D01*
X159738282Y-110384727D01*
X159738282Y-110384728D01*
X160370591Y-111017037D01*
X160307007Y-111034075D01*
X160192993Y-111099901D01*
X160099901Y-111192993D01*
X160034075Y-111307007D01*
X160017037Y-111370591D01*
X159384728Y-110738282D01*
X159384727Y-110738282D01*
X159345380Y-110792439D01*
X159248904Y-110981782D01*
X159183242Y-111183869D01*
X159183242Y-111183872D01*
X159150000Y-111393753D01*
X159150000Y-111606246D01*
X159183242Y-111816127D01*
X159183242Y-111816130D01*
X159248904Y-112018217D01*
X159345375Y-112207550D01*
X159384728Y-112261716D01*
X160017037Y-111629408D01*
X160034075Y-111692993D01*
X160099901Y-111807007D01*
X160192993Y-111900099D01*
X160307007Y-111965925D01*
X160370590Y-111982962D01*
X159738282Y-112615269D01*
X159738282Y-112615270D01*
X159792449Y-112654624D01*
X159981782Y-112751095D01*
X160183870Y-112816757D01*
X160393754Y-112850000D01*
X160606246Y-112850000D01*
X160816127Y-112816757D01*
X160816130Y-112816757D01*
X161018217Y-112751095D01*
X161207554Y-112654622D01*
X161261716Y-112615270D01*
X161261717Y-112615270D01*
X160629408Y-111982962D01*
X160692993Y-111965925D01*
X160807007Y-111900099D01*
X160900099Y-111807007D01*
X160965925Y-111692993D01*
X160982962Y-111629409D01*
X161615270Y-112261717D01*
X161615270Y-112261716D01*
X161654622Y-112207554D01*
X161751095Y-112018217D01*
X161816757Y-111816130D01*
X161816757Y-111816127D01*
X161850000Y-111606246D01*
X161850000Y-111393753D01*
X161816757Y-111183872D01*
X161816757Y-111183869D01*
X161751095Y-110981782D01*
X161654624Y-110792449D01*
X161615270Y-110738282D01*
X161615269Y-110738282D01*
X160982962Y-111370590D01*
X160965925Y-111307007D01*
X160900099Y-111192993D01*
X160807007Y-111099901D01*
X160692993Y-111034075D01*
X160629409Y-111017037D01*
X161261716Y-110384728D01*
X161207547Y-110345373D01*
X161207547Y-110345372D01*
X161198500Y-110340763D01*
X161147706Y-110292788D01*
X161130912Y-110224966D01*
X161153451Y-110158832D01*
X161198508Y-110119793D01*
X161207816Y-110115051D01*
X161333554Y-110023698D01*
X161379786Y-109990109D01*
X161379788Y-109990106D01*
X161379792Y-109990104D01*
X161530104Y-109839792D01*
X161530106Y-109839788D01*
X161530109Y-109839786D01*
X161655048Y-109667820D01*
X161655047Y-109667820D01*
X161655051Y-109667816D01*
X161751557Y-109478412D01*
X161817246Y-109276243D01*
X161850500Y-109066287D01*
X161850500Y-108853713D01*
X161817246Y-108643757D01*
X161751557Y-108441588D01*
X161655051Y-108252184D01*
X161655049Y-108252181D01*
X161655048Y-108252179D01*
X161530109Y-108080213D01*
X161416569Y-107966673D01*
X161383084Y-107905350D01*
X161388068Y-107835658D01*
X161429940Y-107779725D01*
X161460915Y-107762810D01*
X161592331Y-107713796D01*
X161707546Y-107627546D01*
X161793796Y-107512331D01*
X161844091Y-107377483D01*
X161850500Y-107317873D01*
X161850499Y-105522128D01*
X161844091Y-105462517D01*
X161813010Y-105379185D01*
X161793797Y-105327671D01*
X161793793Y-105327664D01*
X161707547Y-105212455D01*
X161707544Y-105212452D01*
X161592335Y-105126206D01*
X161592328Y-105126202D01*
X161457482Y-105075908D01*
X161457483Y-105075908D01*
X161397883Y-105069501D01*
X161397881Y-105069500D01*
X161397873Y-105069500D01*
X161397864Y-105069500D01*
X159602129Y-105069500D01*
X159602123Y-105069501D01*
X159542516Y-105075908D01*
X159407671Y-105126202D01*
X159407664Y-105126206D01*
X159292455Y-105212452D01*
X159292452Y-105212455D01*
X159206206Y-105327664D01*
X159206202Y-105327671D01*
X159155908Y-105462517D01*
X159150710Y-105510874D01*
X159149501Y-105522123D01*
X159149500Y-105522135D01*
X155602500Y-105522135D01*
X155602500Y-105206859D01*
X155602501Y-105206846D01*
X155602501Y-105038745D01*
X155602501Y-105038743D01*
X155561577Y-104886015D01*
X155517837Y-104810256D01*
X155517837Y-104810254D01*
X155482524Y-104749090D01*
X155482521Y-104749086D01*
X155482520Y-104749084D01*
X155370716Y-104637280D01*
X155370715Y-104637279D01*
X155366385Y-104632949D01*
X155366374Y-104632939D01*
X153121790Y-102388355D01*
X153121788Y-102388352D01*
X153002917Y-102269481D01*
X153002916Y-102269480D01*
X152916104Y-102219360D01*
X152916104Y-102219359D01*
X152916100Y-102219358D01*
X152865985Y-102190423D01*
X152713257Y-102149499D01*
X152555143Y-102149499D01*
X152547547Y-102149499D01*
X152547531Y-102149500D01*
X150994593Y-102149500D01*
X150927554Y-102129815D01*
X150881799Y-102077011D01*
X150871855Y-102007853D01*
X150900880Y-101944297D01*
X150938400Y-101914963D01*
X150949963Y-101909084D01*
X150966785Y-101904577D01*
X151022529Y-101872393D01*
X151103716Y-101825520D01*
X151215520Y-101713716D01*
X151215520Y-101713714D01*
X151225724Y-101703511D01*
X151225728Y-101703506D01*
X157327099Y-95602135D01*
X159149500Y-95602135D01*
X159149500Y-97397870D01*
X159149501Y-97397876D01*
X159155908Y-97457483D01*
X159206202Y-97592328D01*
X159206206Y-97592335D01*
X159292452Y-97707544D01*
X159292455Y-97707547D01*
X159407664Y-97793793D01*
X159407671Y-97793797D01*
X159539082Y-97842810D01*
X159595016Y-97884681D01*
X159619433Y-97950145D01*
X159604582Y-98018418D01*
X159583431Y-98046673D01*
X159469889Y-98160215D01*
X159344951Y-98332179D01*
X159248444Y-98521585D01*
X159182753Y-98723760D01*
X159149500Y-98933713D01*
X159149500Y-99146286D01*
X159182753Y-99356239D01*
X159248444Y-99558414D01*
X159344951Y-99747820D01*
X159469890Y-99919786D01*
X159620213Y-100070109D01*
X159792179Y-100195048D01*
X159792181Y-100195049D01*
X159792184Y-100195051D01*
X159801493Y-100199794D01*
X159852290Y-100247766D01*
X159869087Y-100315587D01*
X159846552Y-100381722D01*
X159801505Y-100420760D01*
X159792446Y-100425376D01*
X159792440Y-100425380D01*
X159738282Y-100464727D01*
X159738282Y-100464728D01*
X160370591Y-101097037D01*
X160307007Y-101114075D01*
X160192993Y-101179901D01*
X160099901Y-101272993D01*
X160034075Y-101387007D01*
X160017037Y-101450591D01*
X159384728Y-100818282D01*
X159384727Y-100818282D01*
X159345380Y-100872439D01*
X159248904Y-101061782D01*
X159183242Y-101263869D01*
X159183242Y-101263872D01*
X159150000Y-101473753D01*
X159150000Y-101686246D01*
X159183242Y-101896127D01*
X159183242Y-101896130D01*
X159248904Y-102098217D01*
X159345375Y-102287550D01*
X159384728Y-102341716D01*
X160017037Y-101709408D01*
X160034075Y-101772993D01*
X160099901Y-101887007D01*
X160192993Y-101980099D01*
X160307007Y-102045925D01*
X160370590Y-102062962D01*
X159738282Y-102695269D01*
X159738282Y-102695270D01*
X159792449Y-102734624D01*
X159981782Y-102831095D01*
X160183870Y-102896757D01*
X160393754Y-102930000D01*
X160606246Y-102930000D01*
X160816127Y-102896757D01*
X160816130Y-102896757D01*
X161018217Y-102831095D01*
X161207554Y-102734622D01*
X161261716Y-102695270D01*
X161261717Y-102695270D01*
X160629408Y-102062962D01*
X160692993Y-102045925D01*
X160807007Y-101980099D01*
X160900099Y-101887007D01*
X160965925Y-101772993D01*
X160982962Y-101709409D01*
X161615270Y-102341717D01*
X161615270Y-102341716D01*
X161654622Y-102287554D01*
X161751095Y-102098217D01*
X161816757Y-101896130D01*
X161816757Y-101896127D01*
X161850000Y-101686246D01*
X161850000Y-101473753D01*
X161816757Y-101263872D01*
X161816757Y-101263869D01*
X161751095Y-101061782D01*
X161654624Y-100872449D01*
X161615270Y-100818282D01*
X161615269Y-100818282D01*
X160982962Y-101450590D01*
X160965925Y-101387007D01*
X160900099Y-101272993D01*
X160807007Y-101179901D01*
X160692993Y-101114075D01*
X160629409Y-101097037D01*
X161261716Y-100464728D01*
X161207547Y-100425373D01*
X161207547Y-100425372D01*
X161198500Y-100420763D01*
X161147706Y-100372788D01*
X161130912Y-100304966D01*
X161153451Y-100238832D01*
X161198508Y-100199793D01*
X161207816Y-100195051D01*
X161287007Y-100137515D01*
X161379786Y-100070109D01*
X161379788Y-100070106D01*
X161379792Y-100070104D01*
X161530104Y-99919792D01*
X161530106Y-99919788D01*
X161530109Y-99919786D01*
X161655048Y-99747820D01*
X161655047Y-99747820D01*
X161655051Y-99747816D01*
X161751557Y-99558412D01*
X161817246Y-99356243D01*
X161850500Y-99146287D01*
X161850500Y-98933713D01*
X161817246Y-98723757D01*
X161751557Y-98521588D01*
X161655051Y-98332184D01*
X161655049Y-98332181D01*
X161655048Y-98332179D01*
X161530109Y-98160213D01*
X161416569Y-98046673D01*
X161383084Y-97985350D01*
X161388068Y-97915658D01*
X161429940Y-97859725D01*
X161460915Y-97842810D01*
X161592331Y-97793796D01*
X161707546Y-97707546D01*
X161793796Y-97592331D01*
X161844091Y-97457483D01*
X161850500Y-97397873D01*
X161850499Y-95602128D01*
X161844091Y-95542517D01*
X161793796Y-95407669D01*
X161793795Y-95407668D01*
X161793793Y-95407664D01*
X161707547Y-95292455D01*
X161707544Y-95292452D01*
X161592335Y-95206206D01*
X161592328Y-95206202D01*
X161457482Y-95155908D01*
X161457483Y-95155908D01*
X161397883Y-95149501D01*
X161397881Y-95149500D01*
X161397873Y-95149500D01*
X161397864Y-95149500D01*
X159602129Y-95149500D01*
X159602123Y-95149501D01*
X159542516Y-95155908D01*
X159407671Y-95206202D01*
X159407664Y-95206206D01*
X159292455Y-95292452D01*
X159292452Y-95292455D01*
X159206206Y-95407664D01*
X159206202Y-95407671D01*
X159155908Y-95542517D01*
X159149501Y-95602116D01*
X159149501Y-95602123D01*
X159149500Y-95602135D01*
X157327099Y-95602135D01*
X159962416Y-92966818D01*
X160023739Y-92933333D01*
X160050097Y-92930499D01*
X161397871Y-92930499D01*
X161397872Y-92930499D01*
X161457483Y-92924091D01*
X161592331Y-92873796D01*
X161707546Y-92787546D01*
X161793796Y-92672331D01*
X161844091Y-92537483D01*
X161850500Y-92477873D01*
X161850499Y-90682128D01*
X161844091Y-90622517D01*
X161794571Y-90489748D01*
X161793797Y-90487671D01*
X161793793Y-90487664D01*
X161707547Y-90372455D01*
X161707544Y-90372452D01*
X161592335Y-90286206D01*
X161592328Y-90286202D01*
X161460917Y-90237189D01*
X161404983Y-90195318D01*
X161380566Y-90129853D01*
X161395418Y-90061580D01*
X161416563Y-90033332D01*
X161530104Y-89919792D01*
X161655051Y-89747816D01*
X161751557Y-89558412D01*
X161817246Y-89356243D01*
X161850500Y-89146287D01*
X161850500Y-88933713D01*
X161817246Y-88723757D01*
X161751557Y-88521588D01*
X161655051Y-88332184D01*
X161655049Y-88332181D01*
X161655048Y-88332179D01*
X161530109Y-88160213D01*
X161379786Y-88009890D01*
X161207820Y-87884951D01*
X161207115Y-87884591D01*
X161199054Y-87880485D01*
X161148259Y-87832512D01*
X161131463Y-87764692D01*
X161153999Y-87698556D01*
X161199054Y-87659515D01*
X161207816Y-87655051D01*
X161229789Y-87639086D01*
X161379786Y-87530109D01*
X161379788Y-87530106D01*
X161379792Y-87530104D01*
X161530104Y-87379792D01*
X161530106Y-87379788D01*
X161530109Y-87379786D01*
X161655048Y-87207820D01*
X161655047Y-87207820D01*
X161655051Y-87207816D01*
X161751557Y-87018412D01*
X161817246Y-86816243D01*
X161850500Y-86606287D01*
X161850500Y-86393713D01*
X161817246Y-86183757D01*
X161751557Y-85981588D01*
X161655051Y-85792184D01*
X161655049Y-85792181D01*
X161655048Y-85792179D01*
X161530109Y-85620213D01*
X161379786Y-85469890D01*
X161207820Y-85344951D01*
X161207115Y-85344591D01*
X161199054Y-85340485D01*
X161148259Y-85292512D01*
X161131463Y-85224692D01*
X161153999Y-85158556D01*
X161199054Y-85119515D01*
X161207816Y-85115051D01*
X161229789Y-85099086D01*
X161379786Y-84990109D01*
X161379788Y-84990106D01*
X161379792Y-84990104D01*
X161530104Y-84839792D01*
X161530106Y-84839788D01*
X161530109Y-84839786D01*
X161655048Y-84667820D01*
X161655047Y-84667820D01*
X161655051Y-84667816D01*
X161751557Y-84478412D01*
X161817246Y-84276243D01*
X161850500Y-84066287D01*
X161850500Y-83853713D01*
X161817246Y-83643757D01*
X161751557Y-83441588D01*
X161655051Y-83252184D01*
X161655049Y-83252181D01*
X161655048Y-83252179D01*
X161530109Y-83080213D01*
X161379786Y-82929890D01*
X161207820Y-82804951D01*
X161018414Y-82708444D01*
X161018413Y-82708443D01*
X161018412Y-82708443D01*
X160816243Y-82642754D01*
X160816241Y-82642753D01*
X160816240Y-82642753D01*
X160654957Y-82617208D01*
X160606287Y-82609500D01*
X160393713Y-82609500D01*
X160345042Y-82617208D01*
X160183760Y-82642753D01*
X159981585Y-82708444D01*
X159792179Y-82804951D01*
X159620213Y-82929890D01*
X159469890Y-83080213D01*
X159344951Y-83252179D01*
X159248444Y-83441585D01*
X159182753Y-83643760D01*
X159149500Y-83853713D01*
X159149500Y-84066286D01*
X159182754Y-84276244D01*
X159182754Y-84276247D01*
X159196491Y-84318523D01*
X159198486Y-84388364D01*
X159166241Y-84444522D01*
X144562181Y-99048583D01*
X144500858Y-99082068D01*
X144431166Y-99077084D01*
X144375233Y-99035212D01*
X144350816Y-98969748D01*
X144350500Y-98960902D01*
X144350500Y-98050096D01*
X144370185Y-97983057D01*
X144386814Y-97962420D01*
X155758713Y-86590521D01*
X155758716Y-86590520D01*
X155870520Y-86478716D01*
X155920639Y-86391904D01*
X155949577Y-86341785D01*
X155990501Y-86189057D01*
X155990501Y-86030943D01*
X155990501Y-86023348D01*
X155990500Y-86023330D01*
X155990500Y-84285718D01*
X156010185Y-84218679D01*
X156058207Y-84175233D01*
X156097815Y-84155052D01*
X156097815Y-84155051D01*
X156097816Y-84155051D01*
X156219990Y-84066287D01*
X156269786Y-84030109D01*
X156269788Y-84030106D01*
X156269792Y-84030104D01*
X156420104Y-83879792D01*
X156420106Y-83879788D01*
X156420109Y-83879786D01*
X156545048Y-83707820D01*
X156545050Y-83707817D01*
X156545051Y-83707816D01*
X156641557Y-83518412D01*
X156707246Y-83316243D01*
X156740500Y-83106287D01*
X156740500Y-82893713D01*
X156707246Y-82683757D01*
X156641557Y-82481588D01*
X156545051Y-82292184D01*
X156545049Y-82292181D01*
X156545048Y-82292179D01*
X156420109Y-82120213D01*
X156269786Y-81969890D01*
X156097820Y-81844951D01*
X155908414Y-81748444D01*
X155908413Y-81748443D01*
X155908412Y-81748443D01*
X155706243Y-81682754D01*
X155706241Y-81682753D01*
X155706240Y-81682753D01*
X155544957Y-81657208D01*
X155496287Y-81649500D01*
X155283713Y-81649500D01*
X155235042Y-81657208D01*
X155073760Y-81682753D01*
X154871585Y-81748444D01*
X154682179Y-81844951D01*
X154510213Y-81969890D01*
X154359890Y-82120213D01*
X154234949Y-82292182D01*
X154230484Y-82300946D01*
X154182509Y-82351742D01*
X154114688Y-82368536D01*
X154048553Y-82345998D01*
X154009516Y-82300946D01*
X154005050Y-82292182D01*
X153880109Y-82120213D01*
X153729786Y-81969890D01*
X153557820Y-81844951D01*
X153368414Y-81748444D01*
X153368413Y-81748443D01*
X153368412Y-81748443D01*
X153166243Y-81682754D01*
X153166241Y-81682753D01*
X153166240Y-81682753D01*
X153004957Y-81657208D01*
X152956287Y-81649500D01*
X152743713Y-81649500D01*
X152695042Y-81657208D01*
X152533760Y-81682753D01*
X152331585Y-81748444D01*
X152142179Y-81844951D01*
X151970213Y-81969890D01*
X151819890Y-82120213D01*
X151694949Y-82292182D01*
X151690484Y-82300946D01*
X151642509Y-82351742D01*
X151574688Y-82368536D01*
X151508553Y-82345998D01*
X151469516Y-82300946D01*
X151465050Y-82292182D01*
X151340109Y-82120213D01*
X151189786Y-81969890D01*
X151017820Y-81844951D01*
X150828414Y-81748444D01*
X150828413Y-81748443D01*
X150828412Y-81748443D01*
X150626243Y-81682754D01*
X150626241Y-81682753D01*
X150626240Y-81682753D01*
X150464957Y-81657208D01*
X150416287Y-81649500D01*
X150203713Y-81649500D01*
X150155042Y-81657208D01*
X149993760Y-81682753D01*
X149791585Y-81748444D01*
X149602179Y-81844951D01*
X149430213Y-81969890D01*
X149279890Y-82120213D01*
X149154949Y-82292182D01*
X149150484Y-82300946D01*
X149102509Y-82351742D01*
X149034688Y-82368536D01*
X148968553Y-82345998D01*
X148929516Y-82300946D01*
X148925050Y-82292182D01*
X148800109Y-82120213D01*
X148649786Y-81969890D01*
X148477820Y-81844951D01*
X148288414Y-81748444D01*
X148288413Y-81748443D01*
X148288412Y-81748443D01*
X148086243Y-81682754D01*
X148086241Y-81682753D01*
X148086240Y-81682753D01*
X147924957Y-81657208D01*
X147876287Y-81649500D01*
X147663713Y-81649500D01*
X147615042Y-81657208D01*
X147453760Y-81682753D01*
X147251585Y-81748444D01*
X147062179Y-81844951D01*
X146890213Y-81969890D01*
X146739890Y-82120213D01*
X146614949Y-82292182D01*
X146610484Y-82300946D01*
X146562509Y-82351742D01*
X146494688Y-82368536D01*
X146428553Y-82345998D01*
X146389516Y-82300946D01*
X146385050Y-82292182D01*
X146260109Y-82120213D01*
X146109786Y-81969890D01*
X145937820Y-81844951D01*
X145748414Y-81748444D01*
X145748413Y-81748443D01*
X145748412Y-81748443D01*
X145546243Y-81682754D01*
X145546241Y-81682753D01*
X145546240Y-81682753D01*
X145384957Y-81657208D01*
X145336287Y-81649500D01*
X145123713Y-81649500D01*
X145075042Y-81657208D01*
X144913760Y-81682753D01*
X144711585Y-81748444D01*
X144522179Y-81844951D01*
X144350213Y-81969890D01*
X144199890Y-82120213D01*
X144074949Y-82292182D01*
X144070484Y-82300946D01*
X144022509Y-82351742D01*
X143954688Y-82368536D01*
X143888553Y-82345998D01*
X143849516Y-82300946D01*
X143845050Y-82292182D01*
X143720109Y-82120213D01*
X143569786Y-81969890D01*
X143397820Y-81844951D01*
X143208414Y-81748444D01*
X143208413Y-81748443D01*
X143208412Y-81748443D01*
X143006243Y-81682754D01*
X143006241Y-81682753D01*
X143006240Y-81682753D01*
X142844957Y-81657208D01*
X142796287Y-81649500D01*
X142583713Y-81649500D01*
X142535042Y-81657208D01*
X142373760Y-81682753D01*
X142171585Y-81748444D01*
X141982179Y-81844951D01*
X141810213Y-81969890D01*
X141659890Y-82120213D01*
X141534949Y-82292182D01*
X141530202Y-82301499D01*
X141482227Y-82352293D01*
X141414405Y-82369087D01*
X141348271Y-82346548D01*
X141309234Y-82301495D01*
X141304626Y-82292452D01*
X141265270Y-82238282D01*
X141265269Y-82238282D01*
X140632962Y-82870590D01*
X140615925Y-82807007D01*
X140550099Y-82692993D01*
X140457007Y-82599901D01*
X140342993Y-82534075D01*
X140279409Y-82517037D01*
X140911716Y-81884728D01*
X140857550Y-81845375D01*
X140668217Y-81748904D01*
X140466129Y-81683242D01*
X140256246Y-81650000D01*
X140043754Y-81650000D01*
X139833872Y-81683242D01*
X139833869Y-81683242D01*
X139631782Y-81748904D01*
X139442439Y-81845380D01*
X139388282Y-81884727D01*
X139388282Y-81884728D01*
X140020591Y-82517037D01*
X139957007Y-82534075D01*
X139842993Y-82599901D01*
X139749901Y-82692993D01*
X139684075Y-82807007D01*
X139667037Y-82870591D01*
X138996818Y-82200372D01*
X138963333Y-82139049D01*
X138963330Y-82139036D01*
X138960499Y-82126015D01*
X138960499Y-82102128D01*
X138954091Y-82042517D01*
X138925926Y-81967002D01*
X138903798Y-81907673D01*
X138903793Y-81907664D01*
X138817547Y-81792455D01*
X138817544Y-81792452D01*
X138702335Y-81706206D01*
X138702328Y-81706202D01*
X138567482Y-81655908D01*
X138567483Y-81655908D01*
X138507883Y-81649501D01*
X138507881Y-81649500D01*
X138507873Y-81649500D01*
X138507864Y-81649500D01*
X136712129Y-81649500D01*
X136712123Y-81649501D01*
X136652516Y-81655908D01*
X136517671Y-81706202D01*
X136517664Y-81706206D01*
X136402455Y-81792452D01*
X136402452Y-81792455D01*
X136316206Y-81907664D01*
X136316202Y-81907671D01*
X136265908Y-82042517D01*
X136259501Y-82102116D01*
X136259500Y-82102135D01*
X136259500Y-83897870D01*
X136259501Y-83897876D01*
X136265908Y-83957483D01*
X136316202Y-84092328D01*
X136316206Y-84092335D01*
X136402452Y-84207544D01*
X136402455Y-84207547D01*
X136517664Y-84293793D01*
X136517671Y-84293797D01*
X136652517Y-84344091D01*
X136652516Y-84344091D01*
X136659444Y-84344835D01*
X136712127Y-84350500D01*
X138507872Y-84350499D01*
X138567483Y-84344091D01*
X138702331Y-84293796D01*
X138817546Y-84207546D01*
X138903796Y-84092331D01*
X138954091Y-83957483D01*
X138960500Y-83897873D01*
X138960499Y-83873979D01*
X138963330Y-83860963D01*
X138973940Y-83841525D01*
X138980179Y-83820275D01*
X138996803Y-83799643D01*
X138996808Y-83799636D01*
X138996811Y-83799634D01*
X138996818Y-83799626D01*
X139667037Y-83129408D01*
X139684075Y-83192993D01*
X139749901Y-83307007D01*
X139842993Y-83400099D01*
X139957007Y-83465925D01*
X140020590Y-83482962D01*
X139388282Y-84115269D01*
X139388282Y-84115270D01*
X139442449Y-84154624D01*
X139631782Y-84251095D01*
X139833870Y-84316757D01*
X140043754Y-84350000D01*
X140256246Y-84350000D01*
X140466127Y-84316757D01*
X140466130Y-84316757D01*
X140668217Y-84251095D01*
X140857554Y-84154622D01*
X140911716Y-84115270D01*
X140911717Y-84115270D01*
X140279408Y-83482962D01*
X140342993Y-83465925D01*
X140457007Y-83400099D01*
X140550099Y-83307007D01*
X140615925Y-83192993D01*
X140632962Y-83129408D01*
X141265270Y-83761717D01*
X141265270Y-83761716D01*
X141304622Y-83707555D01*
X141309232Y-83698507D01*
X141357205Y-83647709D01*
X141425025Y-83630912D01*
X141491161Y-83653447D01*
X141530204Y-83698504D01*
X141534949Y-83707817D01*
X141659890Y-83879786D01*
X141810213Y-84030109D01*
X141982179Y-84155048D01*
X141982181Y-84155049D01*
X141982184Y-84155051D01*
X142171588Y-84251557D01*
X142373757Y-84317246D01*
X142583713Y-84350500D01*
X142583714Y-84350500D01*
X142796286Y-84350500D01*
X142796287Y-84350500D01*
X143006243Y-84317246D01*
X143208412Y-84251557D01*
X143397816Y-84155051D01*
X143484138Y-84092335D01*
X143569786Y-84030109D01*
X143569788Y-84030106D01*
X143569792Y-84030104D01*
X143720104Y-83879792D01*
X143720106Y-83879788D01*
X143720109Y-83879786D01*
X143845048Y-83707820D01*
X143845050Y-83707817D01*
X143845051Y-83707816D01*
X143849514Y-83699054D01*
X143897488Y-83648259D01*
X143965308Y-83631463D01*
X144031444Y-83653999D01*
X144070486Y-83699056D01*
X144074951Y-83707820D01*
X144199890Y-83879786D01*
X144350213Y-84030109D01*
X144522184Y-84155051D01*
X144522184Y-84155052D01*
X144561793Y-84175233D01*
X144612590Y-84223206D01*
X144629500Y-84285718D01*
X144629500Y-91608210D01*
X144609815Y-91675249D01*
X144557011Y-91721004D01*
X144487853Y-91730948D01*
X144481309Y-91729827D01*
X144328845Y-91699500D01*
X144328842Y-91699500D01*
X144171158Y-91699500D01*
X144171155Y-91699500D01*
X144016510Y-91730261D01*
X144016498Y-91730264D01*
X143870827Y-91790602D01*
X143870814Y-91790609D01*
X143739711Y-91878210D01*
X143739707Y-91878213D01*
X143628213Y-91989707D01*
X143628210Y-91989711D01*
X143540609Y-92120814D01*
X143540602Y-92120827D01*
X143480264Y-92266498D01*
X143480261Y-92266508D01*
X143449361Y-92421850D01*
X143416976Y-92483761D01*
X143415425Y-92485339D01*
X139769481Y-96131282D01*
X139769480Y-96131284D01*
X139725093Y-96208165D01*
X139690423Y-96268215D01*
X139649499Y-96420943D01*
X139649499Y-96420945D01*
X139649499Y-96589046D01*
X139649500Y-96589059D01*
X139649500Y-103239240D01*
X139629815Y-103306279D01*
X139577011Y-103352034D01*
X139507853Y-103361978D01*
X139456610Y-103342342D01*
X139379190Y-103290612D01*
X139379172Y-103290602D01*
X139233501Y-103230264D01*
X139233489Y-103230261D01*
X139078845Y-103199500D01*
X139078842Y-103199500D01*
X138921158Y-103199500D01*
X138921155Y-103199500D01*
X138766510Y-103230261D01*
X138766498Y-103230264D01*
X138620827Y-103290602D01*
X138620814Y-103290609D01*
X138489711Y-103378210D01*
X138489707Y-103378213D01*
X138378213Y-103489707D01*
X138378210Y-103489711D01*
X138290609Y-103620814D01*
X138290602Y-103620827D01*
X138230264Y-103766498D01*
X138230261Y-103766508D01*
X138199362Y-103921847D01*
X138190597Y-103938602D01*
X138186578Y-103957081D01*
X138167834Y-103982118D01*
X138166977Y-103983758D01*
X138165427Y-103985335D01*
X138124224Y-104026538D01*
X138124212Y-104026552D01*
X138019478Y-104131285D01*
X137990165Y-104182059D01*
X137980096Y-104199500D01*
X137940423Y-104268215D01*
X137899499Y-104420943D01*
X137899499Y-104420945D01*
X137899499Y-104589046D01*
X137899500Y-104589059D01*
X137899500Y-130413330D01*
X137899499Y-130413348D01*
X137899499Y-130579054D01*
X137899498Y-130579054D01*
X137940423Y-130731787D01*
X137948388Y-130745581D01*
X137948387Y-130745581D01*
X137948389Y-130745583D01*
X138019475Y-130868709D01*
X138019481Y-130868717D01*
X138138349Y-130987585D01*
X138138354Y-130987589D01*
X140311678Y-133160914D01*
X140311680Y-133160915D01*
X140311684Y-133160918D01*
X140448603Y-133239967D01*
X140448610Y-133239971D01*
X140601337Y-133280895D01*
X140601339Y-133280895D01*
X140767048Y-133280895D01*
X140767064Y-133280894D01*
X143038112Y-133280894D01*
X143105151Y-133300579D01*
X143125793Y-133317213D01*
X143578763Y-133770183D01*
X143606890Y-133794205D01*
X143750916Y-133873384D01*
X143910107Y-133914257D01*
X143910111Y-133914257D01*
X144074457Y-133914257D01*
X144074461Y-133914257D01*
X144233652Y-133873384D01*
X144377677Y-133794205D01*
X144405804Y-133770183D01*
X145170461Y-133005526D01*
X145194483Y-132977399D01*
X145273662Y-132833374D01*
X145314535Y-132674183D01*
X145314535Y-132509829D01*
X145273662Y-132350638D01*
X145266761Y-132338085D01*
X145194486Y-132206617D01*
X145194484Y-132206615D01*
X145194483Y-132206612D01*
X145170461Y-132178485D01*
X144582581Y-131590605D01*
X144561758Y-131572821D01*
X144554458Y-131566586D01*
X144554448Y-131566579D01*
X144410431Y-131487405D01*
X144410421Y-131487402D01*
X144251240Y-131446531D01*
X144251237Y-131446531D01*
X144086883Y-131446531D01*
X144086879Y-131446531D01*
X143927698Y-131487402D01*
X143927688Y-131487405D01*
X143836039Y-131537790D01*
X143767808Y-131552837D01*
X143702275Y-131528606D01*
X143660244Y-131472792D01*
X143655061Y-131403115D01*
X143667637Y-131369396D01*
X143718027Y-131277739D01*
X143758900Y-131118548D01*
X143758900Y-130954194D01*
X143718027Y-130795003D01*
X143718025Y-130794999D01*
X143638851Y-130650982D01*
X143638849Y-130650980D01*
X143638848Y-130650977D01*
X143614826Y-130622850D01*
X143054157Y-130062181D01*
X143020672Y-130000858D01*
X143025656Y-129931166D01*
X143067528Y-129875233D01*
X143132992Y-129850816D01*
X143141838Y-129850500D01*
X149663331Y-129850500D01*
X149663347Y-129850501D01*
X149670943Y-129850501D01*
X149829054Y-129850501D01*
X149829057Y-129850501D01*
X149981785Y-129809577D01*
X150031904Y-129780639D01*
X150118716Y-129730520D01*
X150230520Y-129618716D01*
X150230520Y-129618714D01*
X150240728Y-129608507D01*
X150240730Y-129608504D01*
X151343676Y-128505558D01*
X151343679Y-128505557D01*
X151385823Y-128463412D01*
X151438015Y-128434916D01*
X151447142Y-128429932D01*
X151447143Y-128429932D01*
X151447145Y-128429931D01*
X151489467Y-128432958D01*
X151516834Y-128434916D01*
X151516835Y-128434916D01*
X151516837Y-128434917D01*
X151554902Y-128463414D01*
X151572767Y-128476788D01*
X151572769Y-128476790D01*
X151585671Y-128511385D01*
X151597184Y-128542252D01*
X151597500Y-128551098D01*
X151597500Y-129201211D01*
X151577815Y-129268250D01*
X151525011Y-129314005D01*
X151473500Y-129325211D01*
X151370079Y-129325211D01*
X151210898Y-129366082D01*
X151210888Y-129366085D01*
X151066871Y-129445259D01*
X151066861Y-129445266D01*
X151038743Y-129469281D01*
X151038733Y-129469290D01*
X150450864Y-130057159D01*
X150450855Y-130057169D01*
X150426840Y-130085287D01*
X150426833Y-130085297D01*
X150347659Y-130229314D01*
X150347656Y-130229324D01*
X150306785Y-130388505D01*
X150306785Y-130544714D01*
X150287100Y-130611753D01*
X150234296Y-130657508D01*
X150182785Y-130668714D01*
X150026576Y-130668714D01*
X149867395Y-130709585D01*
X149867385Y-130709588D01*
X149723368Y-130788762D01*
X149723358Y-130788769D01*
X149695240Y-130812784D01*
X149695230Y-130812793D01*
X149107361Y-131400662D01*
X149107352Y-131400672D01*
X149083337Y-131428790D01*
X149083330Y-131428800D01*
X149004156Y-131572817D01*
X149004153Y-131572827D01*
X148963282Y-131732008D01*
X148963282Y-131888217D01*
X148943597Y-131955256D01*
X148890793Y-132001011D01*
X148839282Y-132012217D01*
X148683074Y-132012217D01*
X148523893Y-132053088D01*
X148523883Y-132053091D01*
X148379866Y-132132265D01*
X148379856Y-132132272D01*
X148351738Y-132156287D01*
X148351728Y-132156296D01*
X147763859Y-132744165D01*
X147763850Y-132744175D01*
X147739835Y-132772293D01*
X147739828Y-132772303D01*
X147660654Y-132916320D01*
X147660651Y-132916330D01*
X147619780Y-133075511D01*
X147619780Y-133239872D01*
X147652567Y-133367568D01*
X147660653Y-133399060D01*
X147739832Y-133543085D01*
X147739834Y-133543087D01*
X147739835Y-133543089D01*
X147754395Y-133560136D01*
X147763854Y-133571212D01*
X148528511Y-134335869D01*
X148556638Y-134359891D01*
X148700663Y-134439070D01*
X148859854Y-134479943D01*
X148859858Y-134479943D01*
X149024204Y-134479943D01*
X149024208Y-134479943D01*
X149183399Y-134439070D01*
X149327425Y-134359891D01*
X149355552Y-134335869D01*
X149943432Y-133747989D01*
X149967454Y-133719862D01*
X150046633Y-133575836D01*
X150087506Y-133416645D01*
X150087506Y-133260440D01*
X150107191Y-133193401D01*
X150159995Y-133147646D01*
X150211506Y-133136440D01*
X150367706Y-133136440D01*
X150367710Y-133136440D01*
X150526901Y-133095567D01*
X150670927Y-133016388D01*
X150699054Y-132992366D01*
X151286934Y-132404486D01*
X151310956Y-132376359D01*
X151364838Y-132278347D01*
X151414384Y-132229084D01*
X151482699Y-132214427D01*
X151548093Y-132239030D01*
X151589805Y-132295083D01*
X151597500Y-132338085D01*
X151597500Y-140401330D01*
X151597499Y-140401348D01*
X151597499Y-140567054D01*
X151597498Y-140567054D01*
X151638423Y-140719785D01*
X151667358Y-140769900D01*
X151667359Y-140769904D01*
X151667360Y-140769904D01*
X151697197Y-140821585D01*
X151717479Y-140856714D01*
X151717481Y-140856717D01*
X151836349Y-140975585D01*
X151836355Y-140975590D01*
X154309084Y-143448319D01*
X154342569Y-143509642D01*
X154337585Y-143579334D01*
X154295713Y-143635267D01*
X154230249Y-143659684D01*
X154221403Y-143660000D01*
X154073754Y-143660000D01*
X153863872Y-143693242D01*
X153863869Y-143693242D01*
X153661782Y-143758904D01*
X153472439Y-143855380D01*
X153418282Y-143894727D01*
X153418282Y-143894728D01*
X154050591Y-144527037D01*
X153987007Y-144544075D01*
X153872993Y-144609901D01*
X153779901Y-144702993D01*
X153714075Y-144817007D01*
X153697037Y-144880591D01*
X153064728Y-144248282D01*
X153064727Y-144248282D01*
X153025380Y-144302439D01*
X152928904Y-144491782D01*
X152863242Y-144693869D01*
X152863242Y-144693872D01*
X152830000Y-144903753D01*
X152830000Y-145116246D01*
X152863242Y-145326127D01*
X152863242Y-145326130D01*
X152928904Y-145528217D01*
X153025375Y-145717550D01*
X153064728Y-145771716D01*
X153697037Y-145139408D01*
X153714075Y-145202993D01*
X153779901Y-145317007D01*
X153872993Y-145410099D01*
X153987007Y-145475925D01*
X154050590Y-145492962D01*
X153418282Y-146125269D01*
X153418282Y-146125270D01*
X153472449Y-146164624D01*
X153661782Y-146261095D01*
X153863870Y-146326757D01*
X154073754Y-146360000D01*
X154286246Y-146360000D01*
X154496127Y-146326757D01*
X154496130Y-146326757D01*
X154698217Y-146261095D01*
X154887554Y-146164622D01*
X154941716Y-146125270D01*
X154941717Y-146125270D01*
X154309408Y-145492962D01*
X154372993Y-145475925D01*
X154487007Y-145410099D01*
X154580099Y-145317007D01*
X154645925Y-145202993D01*
X154662962Y-145139408D01*
X155295270Y-145771717D01*
X155295270Y-145771716D01*
X155334622Y-145717555D01*
X155339232Y-145708507D01*
X155387205Y-145657709D01*
X155455025Y-145640912D01*
X155521161Y-145663447D01*
X155560204Y-145708504D01*
X155564949Y-145717817D01*
X155689890Y-145889786D01*
X155840213Y-146040109D01*
X156012179Y-146165048D01*
X156012181Y-146165049D01*
X156012184Y-146165051D01*
X156201588Y-146261557D01*
X156403757Y-146327246D01*
X156613713Y-146360500D01*
X156613714Y-146360500D01*
X156826286Y-146360500D01*
X156826287Y-146360500D01*
X157036243Y-146327246D01*
X157238412Y-146261557D01*
X157427816Y-146165051D01*
X157497002Y-146114785D01*
X157599786Y-146040109D01*
X157599788Y-146040106D01*
X157599792Y-146040104D01*
X157750104Y-145889792D01*
X157750106Y-145889788D01*
X157750109Y-145889786D01*
X157875048Y-145717820D01*
X157875050Y-145717817D01*
X157875051Y-145717816D01*
X157879514Y-145709054D01*
X157927488Y-145658259D01*
X157995308Y-145641463D01*
X158061444Y-145663999D01*
X158100484Y-145709054D01*
X158104591Y-145717115D01*
X158104951Y-145717820D01*
X158229890Y-145889786D01*
X158380213Y-146040109D01*
X158552179Y-146165048D01*
X158552181Y-146165049D01*
X158552184Y-146165051D01*
X158741588Y-146261557D01*
X158943757Y-146327246D01*
X159153713Y-146360500D01*
X159153714Y-146360500D01*
X159300902Y-146360500D01*
X159367941Y-146380185D01*
X159413696Y-146432989D01*
X159423640Y-146502147D01*
X159394615Y-146565703D01*
X159388584Y-146572179D01*
X159224522Y-146736243D01*
X159097584Y-146863181D01*
X159036261Y-146896666D01*
X159009903Y-146899500D01*
X151300097Y-146899500D01*
X151233058Y-146879815D01*
X151212416Y-146863181D01*
X148636818Y-144287583D01*
X148603333Y-144226260D01*
X148600499Y-144199902D01*
X148600499Y-142982129D01*
X148600498Y-142982123D01*
X148600497Y-142982116D01*
X148594091Y-142922517D01*
X148590051Y-142911686D01*
X148543797Y-142787671D01*
X148543793Y-142787664D01*
X148457547Y-142672455D01*
X148457544Y-142672452D01*
X148342335Y-142586206D01*
X148342328Y-142586202D01*
X148207482Y-142535908D01*
X148207483Y-142535908D01*
X148147883Y-142529501D01*
X148147881Y-142529500D01*
X148147873Y-142529500D01*
X148147864Y-142529500D01*
X146352129Y-142529500D01*
X146352123Y-142529501D01*
X146292516Y-142535908D01*
X146157671Y-142586202D01*
X146157664Y-142586206D01*
X146042455Y-142672452D01*
X146042452Y-142672455D01*
X145956206Y-142787664D01*
X145956202Y-142787671D01*
X145905908Y-142922517D01*
X145899501Y-142982116D01*
X145899501Y-142982123D01*
X145899500Y-142982135D01*
X145899500Y-144777870D01*
X145899501Y-144777876D01*
X145905908Y-144837483D01*
X145956202Y-144972328D01*
X145956206Y-144972335D01*
X146042452Y-145087544D01*
X146042455Y-145087547D01*
X146157664Y-145173793D01*
X146157671Y-145173797D01*
X146289082Y-145222810D01*
X146345016Y-145264681D01*
X146369433Y-145330145D01*
X146354582Y-145398418D01*
X146333431Y-145426673D01*
X146219889Y-145540215D01*
X146094951Y-145712179D01*
X145998444Y-145901585D01*
X145932753Y-146103760D01*
X145899500Y-146313713D01*
X145899500Y-146526286D01*
X145932753Y-146736239D01*
X145998444Y-146938414D01*
X146094951Y-147127820D01*
X146219890Y-147299786D01*
X146370213Y-147450109D01*
X146542182Y-147575050D01*
X146550946Y-147579516D01*
X146601742Y-147627491D01*
X146618536Y-147695312D01*
X146595998Y-147761447D01*
X146550946Y-147800484D01*
X146542182Y-147804949D01*
X146370213Y-147929890D01*
X146219890Y-148080213D01*
X146094951Y-148252179D01*
X145998444Y-148441585D01*
X145932753Y-148643760D01*
X145899500Y-148853713D01*
X145899500Y-149066286D01*
X145932753Y-149276239D01*
X145998444Y-149478414D01*
X146094951Y-149667820D01*
X146219890Y-149839786D01*
X146370213Y-149990109D01*
X146542179Y-150115048D01*
X146542181Y-150115049D01*
X146542184Y-150115051D01*
X146551493Y-150119794D01*
X146602290Y-150167766D01*
X146619087Y-150235587D01*
X146596552Y-150301722D01*
X146551505Y-150340760D01*
X146542446Y-150345376D01*
X146542440Y-150345380D01*
X146488282Y-150384727D01*
X146488282Y-150384728D01*
X147120591Y-151017037D01*
X147057007Y-151034075D01*
X146942993Y-151099901D01*
X146849901Y-151192993D01*
X146784075Y-151307007D01*
X146767037Y-151370591D01*
X146134728Y-150738282D01*
X146134727Y-150738282D01*
X146095380Y-150792439D01*
X145998904Y-150981782D01*
X145933242Y-151183869D01*
X145933242Y-151183872D01*
X145900000Y-151393753D01*
X145900000Y-151606246D01*
X145933242Y-151816127D01*
X145933242Y-151816130D01*
X145998904Y-152018217D01*
X146095375Y-152207550D01*
X146134728Y-152261716D01*
X146767037Y-151629408D01*
X146784075Y-151692993D01*
X146849901Y-151807007D01*
X146942993Y-151900099D01*
X147057007Y-151965925D01*
X147120590Y-151982962D01*
X146488282Y-152615269D01*
X146488282Y-152615270D01*
X146542449Y-152654624D01*
X146731782Y-152751095D01*
X146933870Y-152816757D01*
X147143754Y-152850000D01*
X147356246Y-152850000D01*
X147566127Y-152816757D01*
X147566130Y-152816757D01*
X147768217Y-152751095D01*
X147957554Y-152654622D01*
X148011716Y-152615270D01*
X148011717Y-152615270D01*
X147379408Y-151982962D01*
X147442993Y-151965925D01*
X147557007Y-151900099D01*
X147650099Y-151807007D01*
X147715925Y-151692993D01*
X147732962Y-151629408D01*
X148365270Y-152261717D01*
X148365270Y-152261716D01*
X148404622Y-152207554D01*
X148501095Y-152018217D01*
X148566757Y-151816130D01*
X148566757Y-151816127D01*
X148600000Y-151606246D01*
X148600000Y-151393753D01*
X148566757Y-151183872D01*
X148566757Y-151183869D01*
X148501095Y-150981782D01*
X148404624Y-150792449D01*
X148365270Y-150738282D01*
X147732962Y-151370590D01*
X147715925Y-151307007D01*
X147650099Y-151192993D01*
X147557007Y-151099901D01*
X147442993Y-151034075D01*
X147379409Y-151017037D01*
X148011716Y-150384728D01*
X147957547Y-150345373D01*
X147957547Y-150345372D01*
X147948500Y-150340763D01*
X147897706Y-150292788D01*
X147880912Y-150224966D01*
X147903451Y-150158832D01*
X147948508Y-150119793D01*
X147957816Y-150115051D01*
X148037978Y-150056810D01*
X148129786Y-149990109D01*
X148129788Y-149990106D01*
X148129792Y-149990104D01*
X148280104Y-149839792D01*
X148280106Y-149839788D01*
X148280109Y-149839786D01*
X148405048Y-149667820D01*
X148405047Y-149667820D01*
X148405051Y-149667816D01*
X148501557Y-149478412D01*
X148567246Y-149276243D01*
X148600500Y-149066287D01*
X148600500Y-148853713D01*
X148567246Y-148643757D01*
X148501557Y-148441588D01*
X148405051Y-148252184D01*
X148405049Y-148252181D01*
X148405048Y-148252179D01*
X148280109Y-148080213D01*
X148129786Y-147929890D01*
X147957820Y-147804951D01*
X147957115Y-147804591D01*
X147949054Y-147800485D01*
X147898259Y-147752512D01*
X147881463Y-147684692D01*
X147903999Y-147618556D01*
X147949054Y-147579515D01*
X147957816Y-147575051D01*
X147979789Y-147559086D01*
X148129786Y-147450109D01*
X148129788Y-147450106D01*
X148129792Y-147450104D01*
X148280104Y-147299792D01*
X148280106Y-147299788D01*
X148280109Y-147299786D01*
X148405048Y-147127820D01*
X148405047Y-147127820D01*
X148405051Y-147127816D01*
X148501557Y-146938412D01*
X148567246Y-146736243D01*
X148600500Y-146526287D01*
X148600500Y-146313713D01*
X148591702Y-146258167D01*
X148600656Y-146188878D01*
X148645652Y-146135425D01*
X148712403Y-146114785D01*
X148779717Y-146133509D01*
X148801856Y-146151091D01*
X150515139Y-147864374D01*
X150515149Y-147864385D01*
X150519479Y-147868715D01*
X150519480Y-147868716D01*
X150631284Y-147980520D01*
X150718095Y-148030639D01*
X150718097Y-148030641D01*
X150756151Y-148052611D01*
X150768215Y-148059577D01*
X150920943Y-148100500D01*
X159223331Y-148100500D01*
X159223347Y-148100501D01*
X159230943Y-148100501D01*
X159389054Y-148100501D01*
X159389057Y-148100501D01*
X159541785Y-148059577D01*
X159591904Y-148030639D01*
X159678716Y-147980520D01*
X159790520Y-147868716D01*
X159790520Y-147868714D01*
X159800728Y-147858507D01*
X159800730Y-147858504D01*
X161262416Y-146396818D01*
X161323739Y-146363333D01*
X161350097Y-146360499D01*
X162697871Y-146360499D01*
X162697872Y-146360499D01*
X162757483Y-146354091D01*
X162892331Y-146303796D01*
X163007546Y-146217546D01*
X163026233Y-146192582D01*
X163082166Y-146150711D01*
X163151858Y-146145727D01*
X163213181Y-146179212D01*
X163246666Y-146240535D01*
X163249500Y-146266893D01*
X163249500Y-148368097D01*
X163286446Y-148601368D01*
X163359433Y-148825996D01*
X163466657Y-149036433D01*
X163543613Y-149142353D01*
X163567093Y-149208160D01*
X163551268Y-149276214D01*
X163550684Y-149277237D01*
X163533608Y-149306814D01*
X163499500Y-149434108D01*
X163499500Y-149565892D01*
X163526811Y-149667820D01*
X163533609Y-149693188D01*
X163533609Y-149693189D01*
X163602782Y-149813000D01*
X163619255Y-149880900D01*
X163602782Y-149937000D01*
X163533609Y-150056810D01*
X163533609Y-150056811D01*
X163533608Y-150056813D01*
X163533608Y-150056814D01*
X163499500Y-150184108D01*
X163499500Y-150315892D01*
X163517944Y-150384728D01*
X163533609Y-150443188D01*
X163533609Y-150443189D01*
X163602782Y-150563000D01*
X163619255Y-150630900D01*
X163602782Y-150687000D01*
X163533609Y-150806810D01*
X163533609Y-150806811D01*
X163533608Y-150806813D01*
X163533608Y-150806814D01*
X163499500Y-150934108D01*
X163499500Y-151065892D01*
X163533556Y-151192993D01*
X163533609Y-151193188D01*
X163533609Y-151193189D01*
X163550682Y-151222760D01*
X163567155Y-151290660D01*
X163544302Y-151356687D01*
X163543613Y-151357645D01*
X163466659Y-151463563D01*
X163359433Y-151674003D01*
X163286446Y-151898631D01*
X163249500Y-152131902D01*
X163249500Y-155125500D01*
X163229815Y-155192539D01*
X163177011Y-155238294D01*
X163125500Y-155249500D01*
X130374500Y-155249500D01*
X130307461Y-155229815D01*
X130261706Y-155177011D01*
X130250500Y-155125500D01*
X130250500Y-135931941D01*
X130270185Y-135864902D01*
X130322989Y-135819147D01*
X130392147Y-135809203D01*
X130455703Y-135838228D01*
X130462181Y-135844260D01*
X130489707Y-135871786D01*
X130489711Y-135871789D01*
X130620814Y-135959390D01*
X130620827Y-135959397D01*
X130694013Y-135989711D01*
X130766503Y-136019737D01*
X130831147Y-136032595D01*
X130921849Y-136050638D01*
X130983760Y-136083023D01*
X130985339Y-136084574D01*
X131765139Y-136864374D01*
X131765149Y-136864385D01*
X131769479Y-136868715D01*
X131769480Y-136868716D01*
X131881284Y-136980520D01*
X131932845Y-137010288D01*
X131968095Y-137030639D01*
X131968097Y-137030641D01*
X132006151Y-137052611D01*
X132018215Y-137059577D01*
X132170943Y-137100501D01*
X132170946Y-137100501D01*
X132336653Y-137100501D01*
X132336669Y-137100500D01*
X133170234Y-137100500D01*
X133187390Y-137105537D01*
X133205270Y-137105553D01*
X133235287Y-137119602D01*
X133237273Y-137120185D01*
X133237362Y-137120242D01*
X133239613Y-137121691D01*
X133239711Y-137121789D01*
X133370821Y-137209394D01*
X133384852Y-137215205D01*
X133394227Y-137221242D01*
X133410079Y-137239567D01*
X133428951Y-137254774D01*
X133432528Y-137265520D01*
X133439937Y-137274085D01*
X133443365Y-137298072D01*
X133451020Y-137321067D01*
X133448219Y-137332040D01*
X133449822Y-137343252D01*
X133439735Y-137365289D01*
X133433744Y-137388767D01*
X133425457Y-137396483D01*
X133420743Y-137406783D01*
X133400343Y-137419867D01*
X133382610Y-137436381D01*
X133369927Y-137439378D01*
X133361932Y-137444507D01*
X133348275Y-137444495D01*
X133327099Y-137449500D01*
X132762129Y-137449500D01*
X132762123Y-137449501D01*
X132702516Y-137455908D01*
X132567671Y-137506202D01*
X132567664Y-137506206D01*
X132452455Y-137592452D01*
X132452452Y-137592455D01*
X132366206Y-137707664D01*
X132366202Y-137707671D01*
X132315908Y-137842517D01*
X132309501Y-137902116D01*
X132309501Y-137902123D01*
X132309500Y-137902135D01*
X132309500Y-139697870D01*
X132309501Y-139697876D01*
X132315908Y-139757483D01*
X132366202Y-139892328D01*
X132366206Y-139892335D01*
X132452452Y-140007544D01*
X132452455Y-140007547D01*
X132567664Y-140093793D01*
X132567671Y-140093797D01*
X132699082Y-140142810D01*
X132755016Y-140184681D01*
X132779433Y-140250145D01*
X132764582Y-140318418D01*
X132743431Y-140346673D01*
X132629889Y-140460215D01*
X132504951Y-140632179D01*
X132408444Y-140821585D01*
X132342753Y-141023760D01*
X132309500Y-141233713D01*
X132309500Y-141446286D01*
X132342753Y-141656239D01*
X132408444Y-141858414D01*
X132504951Y-142047820D01*
X132629890Y-142219786D01*
X132780213Y-142370109D01*
X132952182Y-142495050D01*
X132960946Y-142499516D01*
X133011742Y-142547491D01*
X133028536Y-142615312D01*
X133005998Y-142681447D01*
X132960946Y-142720484D01*
X132952182Y-142724949D01*
X132780213Y-142849890D01*
X132629890Y-143000213D01*
X132504951Y-143172179D01*
X132408444Y-143361585D01*
X132342753Y-143563760D01*
X132309500Y-143773713D01*
X132309500Y-143986287D01*
X132342754Y-144196243D01*
X132399144Y-144369794D01*
X132408444Y-144398414D01*
X132504951Y-144587820D01*
X132629890Y-144759786D01*
X132780213Y-144910109D01*
X132952182Y-145035050D01*
X132960946Y-145039516D01*
X133011742Y-145087491D01*
X133028536Y-145155312D01*
X133005998Y-145221447D01*
X132960946Y-145260484D01*
X132952182Y-145264949D01*
X132780213Y-145389890D01*
X132629890Y-145540213D01*
X132504951Y-145712179D01*
X132408444Y-145901585D01*
X132342753Y-146103760D01*
X132309500Y-146313713D01*
X132309500Y-146526286D01*
X132342753Y-146736239D01*
X132408444Y-146938414D01*
X132504951Y-147127820D01*
X132629890Y-147299786D01*
X132780213Y-147450109D01*
X132952182Y-147575050D01*
X132960946Y-147579516D01*
X133011742Y-147627491D01*
X133028536Y-147695312D01*
X133005998Y-147761447D01*
X132960946Y-147800484D01*
X132952182Y-147804949D01*
X132780213Y-147929890D01*
X132629890Y-148080213D01*
X132504951Y-148252179D01*
X132408444Y-148441585D01*
X132342753Y-148643760D01*
X132309500Y-148853713D01*
X132309500Y-149066286D01*
X132342753Y-149276239D01*
X132408444Y-149478414D01*
X132504951Y-149667820D01*
X132629890Y-149839786D01*
X132780213Y-149990109D01*
X132952179Y-150115048D01*
X132952181Y-150115049D01*
X132952184Y-150115051D01*
X132961493Y-150119794D01*
X133012290Y-150167766D01*
X133029087Y-150235587D01*
X133006552Y-150301722D01*
X132961505Y-150340760D01*
X132952446Y-150345376D01*
X132952440Y-150345380D01*
X132898282Y-150384727D01*
X132898282Y-150384728D01*
X133530591Y-151017037D01*
X133467007Y-151034075D01*
X133352993Y-151099901D01*
X133259901Y-151192993D01*
X133194075Y-151307007D01*
X133177037Y-151370591D01*
X132544728Y-150738282D01*
X132544727Y-150738282D01*
X132505380Y-150792439D01*
X132408904Y-150981782D01*
X132343242Y-151183869D01*
X132343242Y-151183872D01*
X132310000Y-151393753D01*
X132310000Y-151606246D01*
X132343242Y-151816127D01*
X132343242Y-151816130D01*
X132408904Y-152018217D01*
X132505375Y-152207550D01*
X132544728Y-152261716D01*
X133177037Y-151629408D01*
X133194075Y-151692993D01*
X133259901Y-151807007D01*
X133352993Y-151900099D01*
X133467007Y-151965925D01*
X133530590Y-151982962D01*
X132898282Y-152615269D01*
X132898282Y-152615270D01*
X132952449Y-152654624D01*
X133141782Y-152751095D01*
X133343870Y-152816757D01*
X133553754Y-152850000D01*
X133766246Y-152850000D01*
X133976127Y-152816757D01*
X133976130Y-152816757D01*
X134178217Y-152751095D01*
X134367554Y-152654622D01*
X134421716Y-152615270D01*
X134421717Y-152615270D01*
X133789408Y-151982962D01*
X133852993Y-151965925D01*
X133967007Y-151900099D01*
X134060099Y-151807007D01*
X134125925Y-151692993D01*
X134142962Y-151629409D01*
X134775270Y-152261717D01*
X134775270Y-152261716D01*
X134814622Y-152207554D01*
X134911095Y-152018217D01*
X134976757Y-151816130D01*
X134976757Y-151816127D01*
X135010000Y-151606246D01*
X135010000Y-151393753D01*
X134976757Y-151183872D01*
X134976757Y-151183869D01*
X134911095Y-150981782D01*
X134814624Y-150792449D01*
X134775270Y-150738282D01*
X134775269Y-150738282D01*
X134142962Y-151370590D01*
X134125925Y-151307007D01*
X134060099Y-151192993D01*
X133967007Y-151099901D01*
X133852993Y-151034075D01*
X133789409Y-151017037D01*
X134421716Y-150384728D01*
X134367547Y-150345373D01*
X134367547Y-150345372D01*
X134358500Y-150340763D01*
X134307706Y-150292788D01*
X134290912Y-150224966D01*
X134313451Y-150158832D01*
X134358508Y-150119793D01*
X134367816Y-150115051D01*
X134447978Y-150056810D01*
X134539786Y-149990109D01*
X134539788Y-149990106D01*
X134539792Y-149990104D01*
X134690104Y-149839792D01*
X134690106Y-149839788D01*
X134690109Y-149839786D01*
X134815048Y-149667820D01*
X134815047Y-149667820D01*
X134815051Y-149667816D01*
X134911557Y-149478412D01*
X134977246Y-149276243D01*
X135010500Y-149066287D01*
X135010500Y-148853713D01*
X134977246Y-148643757D01*
X134911557Y-148441588D01*
X134815051Y-148252184D01*
X134815049Y-148252181D01*
X134815048Y-148252179D01*
X134690109Y-148080213D01*
X134539786Y-147929890D01*
X134367820Y-147804951D01*
X134367115Y-147804591D01*
X134359054Y-147800485D01*
X134308259Y-147752512D01*
X134291463Y-147684692D01*
X134313999Y-147618556D01*
X134359054Y-147579515D01*
X134367816Y-147575051D01*
X134389789Y-147559086D01*
X134539786Y-147450109D01*
X134539788Y-147450106D01*
X134539792Y-147450104D01*
X134690104Y-147299792D01*
X134690106Y-147299788D01*
X134690109Y-147299786D01*
X134815048Y-147127820D01*
X134815047Y-147127820D01*
X134815051Y-147127816D01*
X134911557Y-146938412D01*
X134977246Y-146736243D01*
X135010500Y-146526287D01*
X135010500Y-146313713D01*
X134977246Y-146103757D01*
X134911557Y-145901588D01*
X134815051Y-145712184D01*
X134815049Y-145712181D01*
X134815048Y-145712179D01*
X134690109Y-145540213D01*
X134539786Y-145389890D01*
X134367820Y-145264951D01*
X134367115Y-145264591D01*
X134359054Y-145260485D01*
X134308259Y-145212512D01*
X134291463Y-145144692D01*
X134313999Y-145078556D01*
X134359054Y-145039515D01*
X134367816Y-145035051D01*
X134454138Y-144972335D01*
X134539786Y-144910109D01*
X134539788Y-144910106D01*
X134539792Y-144910104D01*
X134690104Y-144759792D01*
X134690106Y-144759788D01*
X134690109Y-144759786D01*
X134815048Y-144587820D01*
X134815047Y-144587820D01*
X134815051Y-144587816D01*
X134911557Y-144398412D01*
X134977246Y-144196243D01*
X135010500Y-143986287D01*
X135010500Y-143773713D01*
X134977246Y-143563757D01*
X134911557Y-143361588D01*
X134815051Y-143172184D01*
X134815049Y-143172181D01*
X134815048Y-143172179D01*
X134690109Y-143000213D01*
X134539786Y-142849890D01*
X134367820Y-142724951D01*
X134367115Y-142724591D01*
X134359054Y-142720485D01*
X134308259Y-142672512D01*
X134291463Y-142604692D01*
X134313999Y-142538556D01*
X134359054Y-142499515D01*
X134367816Y-142495051D01*
X134389789Y-142479086D01*
X134539786Y-142370109D01*
X134539788Y-142370106D01*
X134539792Y-142370104D01*
X134690104Y-142219792D01*
X134690106Y-142219788D01*
X134690109Y-142219786D01*
X134815048Y-142047820D01*
X134815047Y-142047820D01*
X134815051Y-142047816D01*
X134911557Y-141858412D01*
X134977246Y-141656243D01*
X135010500Y-141446287D01*
X135010500Y-141233713D01*
X134977246Y-141023757D01*
X134911557Y-140821588D01*
X134815051Y-140632184D01*
X134815049Y-140632181D01*
X134815048Y-140632179D01*
X134690109Y-140460213D01*
X134576569Y-140346673D01*
X134543084Y-140285350D01*
X134548068Y-140215658D01*
X134589940Y-140159725D01*
X134620915Y-140142810D01*
X134752331Y-140093796D01*
X134867546Y-140007546D01*
X134953796Y-139892331D01*
X135004091Y-139757483D01*
X135010500Y-139697873D01*
X135010499Y-137902135D01*
X136899500Y-137902135D01*
X136899500Y-139697870D01*
X136899501Y-139697876D01*
X136905908Y-139757483D01*
X136956202Y-139892328D01*
X136956206Y-139892335D01*
X137042452Y-140007544D01*
X137042455Y-140007547D01*
X137157664Y-140093793D01*
X137157671Y-140093797D01*
X137289082Y-140142810D01*
X137345016Y-140184681D01*
X137369433Y-140250145D01*
X137354582Y-140318418D01*
X137333431Y-140346673D01*
X137219889Y-140460215D01*
X137094951Y-140632179D01*
X136998444Y-140821585D01*
X136932753Y-141023760D01*
X136899500Y-141233713D01*
X136899500Y-141446286D01*
X136932753Y-141656239D01*
X136998444Y-141858414D01*
X137094951Y-142047820D01*
X137219890Y-142219786D01*
X137370213Y-142370109D01*
X137542182Y-142495050D01*
X137550946Y-142499516D01*
X137601742Y-142547491D01*
X137618536Y-142615312D01*
X137595998Y-142681447D01*
X137550946Y-142720484D01*
X137542182Y-142724949D01*
X137370213Y-142849890D01*
X137219890Y-143000213D01*
X137094951Y-143172179D01*
X136998444Y-143361585D01*
X136932753Y-143563760D01*
X136899500Y-143773713D01*
X136899500Y-143986287D01*
X136932754Y-144196243D01*
X136989144Y-144369794D01*
X136998444Y-144398414D01*
X137094951Y-144587820D01*
X137219890Y-144759786D01*
X137370213Y-144910109D01*
X137542182Y-145035050D01*
X137550946Y-145039516D01*
X137601742Y-145087491D01*
X137618536Y-145155312D01*
X137595998Y-145221447D01*
X137550946Y-145260484D01*
X137542182Y-145264949D01*
X137370213Y-145389890D01*
X137219890Y-145540213D01*
X137094951Y-145712179D01*
X136998444Y-145901585D01*
X136932753Y-146103760D01*
X136899500Y-146313713D01*
X136899500Y-146526286D01*
X136932753Y-146736239D01*
X136998444Y-146938414D01*
X137094951Y-147127820D01*
X137219890Y-147299786D01*
X137370213Y-147450109D01*
X137542182Y-147575050D01*
X137550946Y-147579516D01*
X137601742Y-147627491D01*
X137618536Y-147695312D01*
X137595998Y-147761447D01*
X137550946Y-147800484D01*
X137542182Y-147804949D01*
X137370213Y-147929890D01*
X137219890Y-148080213D01*
X137094951Y-148252179D01*
X136998444Y-148441585D01*
X136932753Y-148643760D01*
X136899500Y-148853713D01*
X136899500Y-149066286D01*
X136932753Y-149276239D01*
X136998444Y-149478414D01*
X137094951Y-149667820D01*
X137219890Y-149839786D01*
X137370213Y-149990109D01*
X137542179Y-150115048D01*
X137542181Y-150115049D01*
X137542184Y-150115051D01*
X137551493Y-150119794D01*
X137602290Y-150167766D01*
X137619087Y-150235587D01*
X137596552Y-150301722D01*
X137551505Y-150340760D01*
X137542446Y-150345376D01*
X137542440Y-150345380D01*
X137488282Y-150384727D01*
X137488282Y-150384728D01*
X138120591Y-151017037D01*
X138057007Y-151034075D01*
X137942993Y-151099901D01*
X137849901Y-151192993D01*
X137784075Y-151307007D01*
X137767037Y-151370591D01*
X137134728Y-150738282D01*
X137134727Y-150738282D01*
X137095380Y-150792439D01*
X136998904Y-150981782D01*
X136933242Y-151183869D01*
X136933242Y-151183872D01*
X136900000Y-151393753D01*
X136900000Y-151606246D01*
X136933242Y-151816127D01*
X136933242Y-151816130D01*
X136998904Y-152018217D01*
X137095375Y-152207550D01*
X137134728Y-152261716D01*
X137767037Y-151629408D01*
X137784075Y-151692993D01*
X137849901Y-151807007D01*
X137942993Y-151900099D01*
X138057007Y-151965925D01*
X138120590Y-151982962D01*
X137488282Y-152615269D01*
X137488282Y-152615270D01*
X137542449Y-152654624D01*
X137731782Y-152751095D01*
X137933870Y-152816757D01*
X138143754Y-152850000D01*
X138356246Y-152850000D01*
X138566127Y-152816757D01*
X138566130Y-152816757D01*
X138768217Y-152751095D01*
X138957554Y-152654622D01*
X139011716Y-152615270D01*
X139011717Y-152615270D01*
X138379408Y-151982962D01*
X138442993Y-151965925D01*
X138557007Y-151900099D01*
X138650099Y-151807007D01*
X138715925Y-151692993D01*
X138732962Y-151629408D01*
X139365270Y-152261717D01*
X139365270Y-152261716D01*
X139404622Y-152207554D01*
X139501095Y-152018217D01*
X139566757Y-151816130D01*
X139566757Y-151816127D01*
X139600000Y-151606246D01*
X139600000Y-151393753D01*
X139566757Y-151183872D01*
X139566757Y-151183869D01*
X139501095Y-150981782D01*
X139404624Y-150792449D01*
X139365270Y-150738282D01*
X139365269Y-150738282D01*
X138732962Y-151370590D01*
X138715925Y-151307007D01*
X138650099Y-151192993D01*
X138557007Y-151099901D01*
X138442993Y-151034075D01*
X138379409Y-151017037D01*
X139011716Y-150384728D01*
X138957547Y-150345373D01*
X138957547Y-150345372D01*
X138948500Y-150340763D01*
X138897706Y-150292788D01*
X138880912Y-150224966D01*
X138903451Y-150158832D01*
X138948508Y-150119793D01*
X138957816Y-150115051D01*
X139037978Y-150056810D01*
X139129786Y-149990109D01*
X139129788Y-149990106D01*
X139129792Y-149990104D01*
X139280104Y-149839792D01*
X139280106Y-149839788D01*
X139280109Y-149839786D01*
X139405048Y-149667820D01*
X139405047Y-149667820D01*
X139405051Y-149667816D01*
X139501557Y-149478412D01*
X139567246Y-149276243D01*
X139600500Y-149066287D01*
X139600500Y-148853713D01*
X139567246Y-148643757D01*
X139501557Y-148441588D01*
X139405051Y-148252184D01*
X139405049Y-148252181D01*
X139405048Y-148252179D01*
X139280109Y-148080213D01*
X139129786Y-147929890D01*
X138957820Y-147804951D01*
X138957115Y-147804591D01*
X138949054Y-147800485D01*
X138898259Y-147752512D01*
X138881463Y-147684692D01*
X138903999Y-147618556D01*
X138949054Y-147579515D01*
X138957816Y-147575051D01*
X138979789Y-147559086D01*
X139129786Y-147450109D01*
X139129788Y-147450106D01*
X139129792Y-147450104D01*
X139280104Y-147299792D01*
X139280106Y-147299788D01*
X139280109Y-147299786D01*
X139405048Y-147127820D01*
X139405047Y-147127820D01*
X139405051Y-147127816D01*
X139501557Y-146938412D01*
X139567246Y-146736243D01*
X139600500Y-146526287D01*
X139600500Y-146313713D01*
X139567246Y-146103757D01*
X139501557Y-145901588D01*
X139405051Y-145712184D01*
X139405049Y-145712181D01*
X139405048Y-145712179D01*
X139280109Y-145540213D01*
X139129786Y-145389890D01*
X138957820Y-145264951D01*
X138957115Y-145264591D01*
X138949054Y-145260485D01*
X138898259Y-145212512D01*
X138881463Y-145144692D01*
X138903999Y-145078556D01*
X138949054Y-145039515D01*
X138957816Y-145035051D01*
X139044138Y-144972335D01*
X139129786Y-144910109D01*
X139129788Y-144910106D01*
X139129792Y-144910104D01*
X139280104Y-144759792D01*
X139280106Y-144759788D01*
X139280109Y-144759786D01*
X139405048Y-144587820D01*
X139405047Y-144587820D01*
X139405051Y-144587816D01*
X139501557Y-144398412D01*
X139567246Y-144196243D01*
X139600500Y-143986287D01*
X139600500Y-143773713D01*
X139567246Y-143563757D01*
X139501557Y-143361588D01*
X139405051Y-143172184D01*
X139405049Y-143172181D01*
X139405048Y-143172179D01*
X139280109Y-143000213D01*
X139129786Y-142849890D01*
X138957820Y-142724951D01*
X138957115Y-142724591D01*
X138949054Y-142720485D01*
X138898259Y-142672512D01*
X138881463Y-142604692D01*
X138903999Y-142538556D01*
X138949054Y-142499515D01*
X138957816Y-142495051D01*
X138979789Y-142479086D01*
X139129786Y-142370109D01*
X139129788Y-142370106D01*
X139129792Y-142370104D01*
X139280104Y-142219792D01*
X139280106Y-142219788D01*
X139280109Y-142219786D01*
X139405048Y-142047820D01*
X139405047Y-142047820D01*
X139405051Y-142047816D01*
X139501557Y-141858412D01*
X139567246Y-141656243D01*
X139600500Y-141446287D01*
X139600500Y-141299097D01*
X139620185Y-141232058D01*
X139672989Y-141186303D01*
X139742147Y-141176359D01*
X139805703Y-141205384D01*
X139812181Y-141211416D01*
X141381444Y-142780679D01*
X141414929Y-142842002D01*
X141409948Y-142911686D01*
X141405908Y-142922517D01*
X141399501Y-142982116D01*
X141399501Y-142982123D01*
X141399500Y-142982135D01*
X141399500Y-144777870D01*
X141399501Y-144777876D01*
X141405908Y-144837483D01*
X141456202Y-144972328D01*
X141456206Y-144972335D01*
X141542452Y-145087544D01*
X141542455Y-145087547D01*
X141657664Y-145173793D01*
X141657671Y-145173797D01*
X141789082Y-145222810D01*
X141845016Y-145264681D01*
X141869433Y-145330145D01*
X141854582Y-145398418D01*
X141833431Y-145426673D01*
X141719889Y-145540215D01*
X141594951Y-145712179D01*
X141498444Y-145901585D01*
X141432753Y-146103760D01*
X141399500Y-146313713D01*
X141399500Y-146526286D01*
X141432753Y-146736239D01*
X141498444Y-146938414D01*
X141594951Y-147127820D01*
X141719890Y-147299786D01*
X141870213Y-147450109D01*
X142042182Y-147575050D01*
X142050946Y-147579516D01*
X142101742Y-147627491D01*
X142118536Y-147695312D01*
X142095998Y-147761447D01*
X142050946Y-147800484D01*
X142042182Y-147804949D01*
X141870213Y-147929890D01*
X141719890Y-148080213D01*
X141594951Y-148252179D01*
X141498444Y-148441585D01*
X141432753Y-148643760D01*
X141399500Y-148853713D01*
X141399500Y-149066286D01*
X141432753Y-149276239D01*
X141498444Y-149478414D01*
X141594951Y-149667820D01*
X141719890Y-149839786D01*
X141870213Y-149990109D01*
X142042179Y-150115048D01*
X142042181Y-150115049D01*
X142042184Y-150115051D01*
X142051493Y-150119794D01*
X142102290Y-150167766D01*
X142119087Y-150235587D01*
X142096552Y-150301722D01*
X142051505Y-150340760D01*
X142042446Y-150345376D01*
X142042440Y-150345380D01*
X141988282Y-150384727D01*
X141988282Y-150384728D01*
X142620591Y-151017037D01*
X142557007Y-151034075D01*
X142442993Y-151099901D01*
X142349901Y-151192993D01*
X142284075Y-151307007D01*
X142267037Y-151370591D01*
X141634728Y-150738282D01*
X141634727Y-150738282D01*
X141595380Y-150792439D01*
X141498904Y-150981782D01*
X141433242Y-151183869D01*
X141433242Y-151183872D01*
X141400000Y-151393753D01*
X141400000Y-151606246D01*
X141433242Y-151816127D01*
X141433242Y-151816130D01*
X141498904Y-152018217D01*
X141595375Y-152207550D01*
X141634728Y-152261716D01*
X142267037Y-151629408D01*
X142284075Y-151692993D01*
X142349901Y-151807007D01*
X142442993Y-151900099D01*
X142557007Y-151965925D01*
X142620590Y-151982962D01*
X141988282Y-152615269D01*
X141988282Y-152615270D01*
X142042449Y-152654624D01*
X142231782Y-152751095D01*
X142433870Y-152816757D01*
X142643754Y-152850000D01*
X142856246Y-152850000D01*
X143066127Y-152816757D01*
X143066130Y-152816757D01*
X143268217Y-152751095D01*
X143457554Y-152654622D01*
X143511716Y-152615270D01*
X143511717Y-152615270D01*
X142879408Y-151982962D01*
X142942993Y-151965925D01*
X143057007Y-151900099D01*
X143150099Y-151807007D01*
X143215925Y-151692993D01*
X143232962Y-151629409D01*
X143865270Y-152261717D01*
X143865270Y-152261716D01*
X143904622Y-152207554D01*
X144001095Y-152018217D01*
X144066757Y-151816130D01*
X144066757Y-151816127D01*
X144100000Y-151606246D01*
X144100000Y-151393753D01*
X144066757Y-151183872D01*
X144066757Y-151183869D01*
X144001095Y-150981782D01*
X143904624Y-150792449D01*
X143865270Y-150738282D01*
X143232962Y-151370590D01*
X143215925Y-151307007D01*
X143150099Y-151192993D01*
X143057007Y-151099901D01*
X142942993Y-151034075D01*
X142879409Y-151017037D01*
X143511716Y-150384728D01*
X143457547Y-150345373D01*
X143457547Y-150345372D01*
X143448500Y-150340763D01*
X143397706Y-150292788D01*
X143380912Y-150224966D01*
X143403451Y-150158832D01*
X143448508Y-150119793D01*
X143457816Y-150115051D01*
X143537978Y-150056810D01*
X143629786Y-149990109D01*
X143629788Y-149990106D01*
X143629792Y-149990104D01*
X143780104Y-149839792D01*
X143780106Y-149839788D01*
X143780109Y-149839786D01*
X143905048Y-149667820D01*
X143905047Y-149667820D01*
X143905051Y-149667816D01*
X144001557Y-149478412D01*
X144067246Y-149276243D01*
X144100500Y-149066287D01*
X144100500Y-148853713D01*
X144067246Y-148643757D01*
X144001557Y-148441588D01*
X143905051Y-148252184D01*
X143905049Y-148252181D01*
X143905048Y-148252179D01*
X143780109Y-148080213D01*
X143629786Y-147929890D01*
X143457820Y-147804951D01*
X143457115Y-147804591D01*
X143449054Y-147800485D01*
X143398259Y-147752512D01*
X143381463Y-147684692D01*
X143403999Y-147618556D01*
X143449054Y-147579515D01*
X143457816Y-147575051D01*
X143479789Y-147559086D01*
X143629786Y-147450109D01*
X143629788Y-147450106D01*
X143629792Y-147450104D01*
X143780104Y-147299792D01*
X143780106Y-147299788D01*
X143780109Y-147299786D01*
X143905048Y-147127820D01*
X143905047Y-147127820D01*
X143905051Y-147127816D01*
X144001557Y-146938412D01*
X144067246Y-146736243D01*
X144100500Y-146526287D01*
X144100500Y-146313713D01*
X144067246Y-146103757D01*
X144001557Y-145901588D01*
X143905051Y-145712184D01*
X143905049Y-145712181D01*
X143905048Y-145712179D01*
X143780109Y-145540213D01*
X143666569Y-145426673D01*
X143633084Y-145365350D01*
X143638068Y-145295658D01*
X143679940Y-145239725D01*
X143710915Y-145222810D01*
X143842331Y-145173796D01*
X143957546Y-145087546D01*
X144043796Y-144972331D01*
X144094091Y-144837483D01*
X144100500Y-144777873D01*
X144100499Y-142982128D01*
X144094091Y-142922517D01*
X144090051Y-142911686D01*
X144043797Y-142787671D01*
X144043793Y-142787664D01*
X143957547Y-142672455D01*
X143957544Y-142672452D01*
X143842335Y-142586206D01*
X143842328Y-142586202D01*
X143707482Y-142535908D01*
X143707483Y-142535908D01*
X143647883Y-142529501D01*
X143647881Y-142529500D01*
X143647873Y-142529500D01*
X143647865Y-142529500D01*
X142880097Y-142529500D01*
X142813058Y-142509815D01*
X142792416Y-142493181D01*
X139636818Y-139337583D01*
X139603333Y-139276260D01*
X139600499Y-139249902D01*
X139600499Y-137902129D01*
X139600498Y-137902123D01*
X139600497Y-137902116D01*
X139594091Y-137842517D01*
X139543796Y-137707669D01*
X139543795Y-137707668D01*
X139543793Y-137707664D01*
X139457547Y-137592455D01*
X139457544Y-137592452D01*
X139342335Y-137506206D01*
X139342328Y-137506202D01*
X139207482Y-137455908D01*
X139207483Y-137455908D01*
X139147883Y-137449501D01*
X139147881Y-137449500D01*
X139147873Y-137449500D01*
X139147864Y-137449500D01*
X137352129Y-137449500D01*
X137352123Y-137449501D01*
X137292516Y-137455908D01*
X137157671Y-137506202D01*
X137157664Y-137506206D01*
X137042455Y-137592452D01*
X137042452Y-137592455D01*
X136956206Y-137707664D01*
X136956202Y-137707671D01*
X136905908Y-137842517D01*
X136899501Y-137902116D01*
X136899501Y-137902123D01*
X136899500Y-137902135D01*
X135010499Y-137902135D01*
X135010499Y-137902128D01*
X135004091Y-137842517D01*
X134953796Y-137707669D01*
X134953795Y-137707668D01*
X134953793Y-137707664D01*
X134867547Y-137592455D01*
X134867544Y-137592452D01*
X134752335Y-137506206D01*
X134752328Y-137506202D01*
X134617482Y-137455908D01*
X134617483Y-137455908D01*
X134557883Y-137449501D01*
X134557881Y-137449500D01*
X134557873Y-137449500D01*
X134557865Y-137449500D01*
X134172901Y-137449500D01*
X134105862Y-137429815D01*
X134060107Y-137377011D01*
X134050163Y-137307853D01*
X134079188Y-137244297D01*
X134125453Y-137210937D01*
X134129179Y-137209394D01*
X134260289Y-137121789D01*
X134371789Y-137010289D01*
X134459394Y-136879179D01*
X134519737Y-136733497D01*
X134550500Y-136578842D01*
X134550500Y-136421158D01*
X134550500Y-136421155D01*
X134550499Y-136421153D01*
X134519738Y-136266510D01*
X134519737Y-136266503D01*
X134519735Y-136266498D01*
X134459397Y-136120827D01*
X134459390Y-136120814D01*
X134371789Y-135989711D01*
X134371786Y-135989707D01*
X134260292Y-135878213D01*
X134260288Y-135878210D01*
X134129185Y-135790609D01*
X134129172Y-135790602D01*
X133983501Y-135730264D01*
X133983489Y-135730261D01*
X133828845Y-135699500D01*
X133828842Y-135699500D01*
X133671158Y-135699500D01*
X133671155Y-135699500D01*
X133516510Y-135730261D01*
X133516498Y-135730264D01*
X133370827Y-135790602D01*
X133370814Y-135790609D01*
X133239125Y-135878602D01*
X133172447Y-135899480D01*
X133170234Y-135899500D01*
X132550097Y-135899500D01*
X132483058Y-135879815D01*
X132462416Y-135863181D01*
X131834574Y-135235339D01*
X131801089Y-135174016D01*
X131800638Y-135171849D01*
X131769738Y-135016510D01*
X131769737Y-135016503D01*
X131749500Y-134967646D01*
X131709397Y-134870827D01*
X131709390Y-134870814D01*
X131621789Y-134739711D01*
X131621786Y-134739707D01*
X131510292Y-134628213D01*
X131510288Y-134628210D01*
X131379185Y-134540609D01*
X131379172Y-134540602D01*
X131233501Y-134480264D01*
X131233489Y-134480261D01*
X131078845Y-134449500D01*
X131078842Y-134449500D01*
X130921158Y-134449500D01*
X130921155Y-134449500D01*
X130766510Y-134480261D01*
X130766498Y-134480264D01*
X130620827Y-134540602D01*
X130620814Y-134540609D01*
X130489711Y-134628210D01*
X130489707Y-134628213D01*
X130462181Y-134655740D01*
X130400858Y-134689225D01*
X130331166Y-134684241D01*
X130275233Y-134642369D01*
X130250816Y-134576905D01*
X130250500Y-134568059D01*
X130250500Y-134219000D01*
X130270185Y-134151961D01*
X130322989Y-134106206D01*
X130374500Y-134095000D01*
X136250000Y-134095000D01*
X136250000Y-86095000D01*
X130374500Y-86095000D01*
X130307461Y-86075315D01*
X130261706Y-86022511D01*
X130250500Y-85971000D01*
X130250500Y-81374500D01*
X130270185Y-81307461D01*
X130322989Y-81261706D01*
X130374500Y-81250500D01*
X163125500Y-81250500D01*
X163192539Y-81270185D01*
G37*
%TD.AperFunction*%
%TA.AperFunction,Conductor*%
G36*
X163505703Y-121408493D02*
G01*
X163531887Y-121440206D01*
X163602782Y-121563000D01*
X163619255Y-121630900D01*
X163602782Y-121687000D01*
X163533609Y-121806810D01*
X163533609Y-121806811D01*
X163533608Y-121806813D01*
X163533608Y-121806814D01*
X163499500Y-121934108D01*
X163499500Y-122065892D01*
X163514552Y-122122068D01*
X163533609Y-122193188D01*
X163533609Y-122193189D01*
X163602782Y-122313000D01*
X163619255Y-122380900D01*
X163602782Y-122437000D01*
X163533609Y-122556810D01*
X163533609Y-122556811D01*
X163533608Y-122556813D01*
X163533608Y-122556814D01*
X163499500Y-122684108D01*
X163499500Y-122815892D01*
X163523969Y-122907213D01*
X163533609Y-122943188D01*
X163533609Y-122943189D01*
X163550682Y-122972760D01*
X163567155Y-123040660D01*
X163544302Y-123106687D01*
X163543613Y-123107645D01*
X163466659Y-123213563D01*
X163359433Y-123424003D01*
X163286446Y-123648631D01*
X163249500Y-123881902D01*
X163249500Y-143753106D01*
X163229815Y-143820145D01*
X163177011Y-143865900D01*
X163107853Y-143875844D01*
X163044297Y-143846819D01*
X163026234Y-143827418D01*
X163020789Y-143820145D01*
X163007546Y-143802454D01*
X163007544Y-143802453D01*
X163007544Y-143802452D01*
X162892335Y-143716206D01*
X162892328Y-143716202D01*
X162757482Y-143665908D01*
X162757483Y-143665908D01*
X162697883Y-143659501D01*
X162697881Y-143659500D01*
X162697873Y-143659500D01*
X162697864Y-143659500D01*
X160902129Y-143659500D01*
X160902123Y-143659501D01*
X160842516Y-143665908D01*
X160707671Y-143716202D01*
X160707664Y-143716206D01*
X160592455Y-143802452D01*
X160592452Y-143802455D01*
X160506206Y-143917664D01*
X160506203Y-143917669D01*
X160457189Y-144049083D01*
X160415317Y-144105016D01*
X160349853Y-144129433D01*
X160281580Y-144114581D01*
X160253326Y-144093430D01*
X160139786Y-143979890D01*
X159967820Y-143854951D01*
X159778414Y-143758444D01*
X159778413Y-143758443D01*
X159778412Y-143758443D01*
X159576243Y-143692754D01*
X159576241Y-143692753D01*
X159576240Y-143692753D01*
X159414957Y-143667208D01*
X159366287Y-143659500D01*
X159153713Y-143659500D01*
X159125006Y-143664046D01*
X158943757Y-143692753D01*
X158901473Y-143706492D01*
X158831632Y-143708486D01*
X158775476Y-143676241D01*
X153235819Y-138136583D01*
X153202334Y-138075260D01*
X153199500Y-138048902D01*
X153199500Y-134848097D01*
X153219185Y-134781058D01*
X153271989Y-134735303D01*
X153341147Y-134725359D01*
X153404703Y-134754384D01*
X153411178Y-134760413D01*
X154381284Y-135730520D01*
X154381286Y-135730521D01*
X154381290Y-135730524D01*
X154485350Y-135790602D01*
X154518216Y-135809577D01*
X154670943Y-135850501D01*
X154670945Y-135850501D01*
X154836654Y-135850501D01*
X154836670Y-135850500D01*
X158670234Y-135850500D01*
X158737273Y-135870185D01*
X158739125Y-135871398D01*
X158870814Y-135959390D01*
X158870827Y-135959397D01*
X158944013Y-135989711D01*
X159016503Y-136019737D01*
X159171153Y-136050499D01*
X159171156Y-136050500D01*
X159171158Y-136050500D01*
X159328844Y-136050500D01*
X159328845Y-136050499D01*
X159483497Y-136019737D01*
X159629179Y-135959394D01*
X159760289Y-135871789D01*
X159871789Y-135760289D01*
X159959394Y-135629179D01*
X160019737Y-135483497D01*
X160050500Y-135328842D01*
X160050500Y-135171158D01*
X160050500Y-135171155D01*
X160050499Y-135171153D01*
X160019738Y-135016510D01*
X160019737Y-135016503D01*
X159999500Y-134967646D01*
X159959397Y-134870827D01*
X159959390Y-134870814D01*
X159871789Y-134739711D01*
X159871786Y-134739707D01*
X159760292Y-134628213D01*
X159760288Y-134628210D01*
X159629185Y-134540609D01*
X159629172Y-134540602D01*
X159483501Y-134480264D01*
X159483489Y-134480261D01*
X159328845Y-134449500D01*
X159328842Y-134449500D01*
X159171158Y-134449500D01*
X159171155Y-134449500D01*
X159016510Y-134480261D01*
X159016498Y-134480264D01*
X158870827Y-134540602D01*
X158870814Y-134540609D01*
X158739125Y-134628602D01*
X158672447Y-134649480D01*
X158670234Y-134649500D01*
X155050098Y-134649500D01*
X154983059Y-134629815D01*
X154962417Y-134613181D01*
X154033740Y-133684504D01*
X154021967Y-133662945D01*
X154006643Y-133643748D01*
X154005519Y-133632821D01*
X154000255Y-133623181D01*
X154002007Y-133598678D01*
X153999494Y-133574245D01*
X154004455Y-133564446D01*
X154005239Y-133553489D01*
X154019960Y-133533824D01*
X154031056Y-133511910D01*
X154042053Y-133504311D01*
X154047111Y-133497556D01*
X154058639Y-133489891D01*
X154066033Y-133485549D01*
X154129179Y-133459394D01*
X154260289Y-133371789D01*
X154260991Y-133371086D01*
X154266984Y-133367568D01*
X154297517Y-133359924D01*
X154327553Y-133350520D01*
X154329766Y-133350500D01*
X155928331Y-133350500D01*
X155928347Y-133350501D01*
X155935943Y-133350501D01*
X156094054Y-133350501D01*
X156094057Y-133350501D01*
X156246785Y-133309577D01*
X156296904Y-133280639D01*
X156383716Y-133230520D01*
X156495520Y-133118716D01*
X156495520Y-133118714D01*
X156505728Y-133108507D01*
X156505730Y-133108504D01*
X157411517Y-132202716D01*
X157472838Y-132169233D01*
X157542530Y-132174217D01*
X157598463Y-132216089D01*
X157602298Y-132221508D01*
X157628210Y-132260288D01*
X157628213Y-132260292D01*
X157739707Y-132371786D01*
X157739711Y-132371789D01*
X157870814Y-132459390D01*
X157870827Y-132459397D01*
X157992592Y-132509833D01*
X158016503Y-132519737D01*
X158171153Y-132550499D01*
X158171156Y-132550500D01*
X158171158Y-132550500D01*
X158328844Y-132550500D01*
X158328845Y-132550499D01*
X158483497Y-132519737D01*
X158629179Y-132459394D01*
X158760289Y-132371789D01*
X158871789Y-132260289D01*
X158941734Y-132155608D01*
X158995346Y-132110804D01*
X159044836Y-132100500D01*
X160170234Y-132100500D01*
X160237273Y-132120185D01*
X160239125Y-132121398D01*
X160370814Y-132209390D01*
X160370827Y-132209397D01*
X160516498Y-132269735D01*
X160516503Y-132269737D01*
X160643925Y-132295083D01*
X160671153Y-132300499D01*
X160671156Y-132300500D01*
X160671158Y-132300500D01*
X160828844Y-132300500D01*
X160828845Y-132300499D01*
X160983497Y-132269737D01*
X161129179Y-132209394D01*
X161260289Y-132121789D01*
X161371789Y-132010289D01*
X161459394Y-131879179D01*
X161519737Y-131733497D01*
X161550500Y-131578842D01*
X161550500Y-131421158D01*
X161550500Y-131421155D01*
X161550499Y-131421153D01*
X161524959Y-131292756D01*
X161519737Y-131266503D01*
X161519735Y-131266498D01*
X161459397Y-131120827D01*
X161459390Y-131120814D01*
X161371789Y-130989711D01*
X161371786Y-130989707D01*
X161260292Y-130878213D01*
X161260288Y-130878210D01*
X161129185Y-130790609D01*
X161129172Y-130790602D01*
X160983501Y-130730264D01*
X160983489Y-130730261D01*
X160828845Y-130699500D01*
X160828842Y-130699500D01*
X160671158Y-130699500D01*
X160671155Y-130699500D01*
X160516510Y-130730261D01*
X160516498Y-130730264D01*
X160370827Y-130790602D01*
X160370814Y-130790609D01*
X160239125Y-130878602D01*
X160172447Y-130899480D01*
X160170234Y-130899500D01*
X159014097Y-130899500D01*
X158947058Y-130879815D01*
X158901303Y-130827011D01*
X158891359Y-130757853D01*
X158920384Y-130694297D01*
X158926416Y-130687819D01*
X159193296Y-130420939D01*
X160015478Y-129598755D01*
X160076799Y-129565272D01*
X160141473Y-129568506D01*
X160183757Y-129582246D01*
X160393713Y-129615500D01*
X160393714Y-129615500D01*
X160606286Y-129615500D01*
X160606287Y-129615500D01*
X160816243Y-129582246D01*
X161018412Y-129516557D01*
X161207816Y-129420051D01*
X161229789Y-129404086D01*
X161379786Y-129295109D01*
X161379788Y-129295106D01*
X161379792Y-129295104D01*
X161530104Y-129144792D01*
X161530106Y-129144788D01*
X161530109Y-129144786D01*
X161655048Y-128972820D01*
X161655047Y-128972820D01*
X161655051Y-128972816D01*
X161751557Y-128783412D01*
X161817246Y-128581243D01*
X161850500Y-128371287D01*
X161850500Y-128158713D01*
X161817246Y-127948757D01*
X161751557Y-127746588D01*
X161655051Y-127557184D01*
X161655049Y-127557181D01*
X161655048Y-127557179D01*
X161530109Y-127385213D01*
X161416569Y-127271673D01*
X161383084Y-127210350D01*
X161388068Y-127140658D01*
X161429940Y-127084725D01*
X161460915Y-127067810D01*
X161592331Y-127018796D01*
X161707546Y-126932546D01*
X161793796Y-126817331D01*
X161844091Y-126682483D01*
X161850500Y-126622873D01*
X161850499Y-124827128D01*
X161844330Y-124769737D01*
X161844091Y-124767516D01*
X161793797Y-124632671D01*
X161793793Y-124632664D01*
X161707547Y-124517455D01*
X161707544Y-124517452D01*
X161592335Y-124431206D01*
X161592328Y-124431202D01*
X161457482Y-124380908D01*
X161457483Y-124380908D01*
X161397883Y-124374501D01*
X161397881Y-124374500D01*
X161397873Y-124374500D01*
X161397865Y-124374500D01*
X160774096Y-124374500D01*
X160707057Y-124354815D01*
X160661302Y-124302011D01*
X160651358Y-124232853D01*
X160680383Y-124169297D01*
X160686415Y-124162819D01*
X161509589Y-123339645D01*
X162514662Y-122334572D01*
X162575983Y-122301089D01*
X162578150Y-122300638D01*
X162636085Y-122289113D01*
X162733497Y-122269737D01*
X162879179Y-122209394D01*
X163010289Y-122121789D01*
X163121789Y-122010289D01*
X163209394Y-121879179D01*
X163269737Y-121733497D01*
X163300500Y-121578842D01*
X163300500Y-121502206D01*
X163320185Y-121435167D01*
X163372989Y-121389412D01*
X163442147Y-121379468D01*
X163505703Y-121408493D01*
G37*
%TD.AperFunction*%
%TA.AperFunction,Conductor*%
G36*
X154861463Y-124063180D02*
G01*
X154886759Y-124064989D01*
X154894895Y-124071080D01*
X154904785Y-124073417D01*
X154922392Y-124091664D01*
X154942692Y-124106861D01*
X154947535Y-124117721D01*
X154953300Y-124123696D01*
X154965042Y-124156979D01*
X154980261Y-124233491D01*
X154980264Y-124233501D01*
X155040602Y-124379172D01*
X155040609Y-124379185D01*
X155128210Y-124510288D01*
X155128213Y-124510292D01*
X155239707Y-124621786D01*
X155239711Y-124621789D01*
X155370814Y-124709390D01*
X155370827Y-124709397D01*
X155426319Y-124732382D01*
X155516503Y-124769737D01*
X155671153Y-124800499D01*
X155671156Y-124800500D01*
X155671158Y-124800500D01*
X155828844Y-124800500D01*
X155828845Y-124800499D01*
X155983497Y-124769737D01*
X156129179Y-124709394D01*
X156184706Y-124672292D01*
X156260875Y-124621398D01*
X156327553Y-124600520D01*
X156329766Y-124600500D01*
X159039609Y-124600500D01*
X159106648Y-124620185D01*
X159152403Y-124672989D01*
X159162347Y-124742147D01*
X159156366Y-124765577D01*
X159155908Y-124767516D01*
X159150595Y-124816942D01*
X159149501Y-124827123D01*
X159149500Y-124827135D01*
X159149500Y-126199901D01*
X159129815Y-126266940D01*
X159113181Y-126287582D01*
X154235339Y-131165425D01*
X154174016Y-131198910D01*
X154171850Y-131199361D01*
X154016508Y-131230261D01*
X154016498Y-131230264D01*
X153870827Y-131290602D01*
X153870809Y-131290612D01*
X153793390Y-131342342D01*
X153726713Y-131363220D01*
X153659333Y-131344735D01*
X153612643Y-131292756D01*
X153600500Y-131239240D01*
X153600500Y-125300096D01*
X153620185Y-125233057D01*
X153636814Y-125212420D01*
X154755744Y-124093489D01*
X154764663Y-124088619D01*
X154770898Y-124080594D01*
X154794810Y-124072158D01*
X154817067Y-124060005D01*
X154827204Y-124060729D01*
X154836788Y-124057349D01*
X154861463Y-124063180D01*
G37*
%TD.AperFunction*%
%TA.AperFunction,Conductor*%
G36*
X141055703Y-104155385D02*
G01*
X141062181Y-104161417D01*
X141138349Y-104237585D01*
X141138355Y-104237590D01*
X148813083Y-111912318D01*
X148846568Y-111973641D01*
X148841584Y-112043333D01*
X148813083Y-112087680D01*
X146537584Y-114363181D01*
X146476261Y-114396666D01*
X146449903Y-114399500D01*
X143943684Y-114399500D01*
X143876645Y-114379815D01*
X143830890Y-114327011D01*
X143820946Y-114257853D01*
X143829123Y-114228048D01*
X143887099Y-114088079D01*
X143887101Y-114088075D01*
X143917864Y-113933420D01*
X143917864Y-113775736D01*
X143917864Y-113775733D01*
X143917863Y-113775731D01*
X143904668Y-113709397D01*
X143887101Y-113621081D01*
X143841210Y-113510289D01*
X143826761Y-113475405D01*
X143826754Y-113475392D01*
X143739153Y-113344289D01*
X143739150Y-113344285D01*
X143627656Y-113232791D01*
X143627652Y-113232788D01*
X143496549Y-113145187D01*
X143496536Y-113145180D01*
X143350865Y-113084842D01*
X143350855Y-113084839D01*
X143195513Y-113053939D01*
X143133602Y-113021554D01*
X143132024Y-113020003D01*
X142886819Y-112774798D01*
X142872115Y-112747870D01*
X142855523Y-112722052D01*
X142854631Y-112715851D01*
X142853334Y-112713475D01*
X142850500Y-112687117D01*
X142850500Y-112579765D01*
X142870185Y-112512726D01*
X142871398Y-112510874D01*
X142959390Y-112379185D01*
X142959390Y-112379184D01*
X142959394Y-112379179D01*
X143019737Y-112233497D01*
X143050500Y-112078842D01*
X143050500Y-111921158D01*
X143050500Y-111921155D01*
X143050499Y-111921153D01*
X143046311Y-111900099D01*
X143019737Y-111766503D01*
X143019735Y-111766498D01*
X142959397Y-111620827D01*
X142959390Y-111620814D01*
X142871789Y-111489711D01*
X142871786Y-111489707D01*
X142760292Y-111378213D01*
X142760288Y-111378210D01*
X142629185Y-111290609D01*
X142629172Y-111290602D01*
X142483501Y-111230264D01*
X142483489Y-111230261D01*
X142328845Y-111199500D01*
X142328842Y-111199500D01*
X142171158Y-111199500D01*
X142171155Y-111199500D01*
X142016510Y-111230261D01*
X142016498Y-111230264D01*
X141870827Y-111290602D01*
X141870814Y-111290609D01*
X141818891Y-111325304D01*
X141752214Y-111346182D01*
X141684833Y-111327698D01*
X141681109Y-111325304D01*
X141629185Y-111290609D01*
X141629172Y-111290602D01*
X141483501Y-111230264D01*
X141483489Y-111230261D01*
X141328845Y-111199500D01*
X141328842Y-111199500D01*
X141171158Y-111199500D01*
X141171155Y-111199500D01*
X141016510Y-111230261D01*
X141010676Y-111232031D01*
X141009873Y-111229385D01*
X140952056Y-111235396D01*
X140889687Y-111203902D01*
X140854245Y-111143689D01*
X140850500Y-111113444D01*
X140850500Y-104249098D01*
X140870185Y-104182059D01*
X140922989Y-104136304D01*
X140992147Y-104126360D01*
X141055703Y-104155385D01*
G37*
%TD.AperFunction*%
%TA.AperFunction,Conductor*%
G36*
X159068834Y-86342914D02*
G01*
X159124767Y-86384786D01*
X159149184Y-86450250D01*
X159149500Y-86459096D01*
X159149500Y-86606286D01*
X159182754Y-86816244D01*
X159182754Y-86816247D01*
X159196491Y-86858523D01*
X159198486Y-86928364D01*
X159166241Y-86984522D01*
X145625353Y-100525410D01*
X145564030Y-100558895D01*
X145513481Y-100559346D01*
X145438846Y-100544500D01*
X145438842Y-100544500D01*
X145281158Y-100544500D01*
X145281155Y-100544500D01*
X145158689Y-100568860D01*
X145137705Y-100566982D01*
X145116851Y-100569981D01*
X145103603Y-100563930D01*
X145089098Y-100562633D01*
X145072459Y-100549708D01*
X145053295Y-100540956D01*
X145045421Y-100528704D01*
X145033920Y-100519770D01*
X145026910Y-100499901D01*
X145015521Y-100482178D01*
X145011986Y-100457594D01*
X145010676Y-100453880D01*
X145010498Y-100447243D01*
X145010498Y-100350098D01*
X145030183Y-100283059D01*
X145046812Y-100262422D01*
X158937819Y-86371414D01*
X158999142Y-86337930D01*
X159068834Y-86342914D01*
G37*
%TD.AperFunction*%
%TD*%
M02*
