%TF.GenerationSoftware,KiCad,Pcbnew,9.0.4*%
%TF.CreationDate,2025-12-09T12:16:09-05:00*%
%TF.ProjectId,TARS,54415253-2e6b-4696-9361-645f70636258,rev?*%
%TF.SameCoordinates,Original*%
%TF.FileFunction,Copper,L1,Top*%
%TF.FilePolarity,Positive*%
%FSLAX46Y46*%
G04 Gerber Fmt 4.6, Leading zero omitted, Abs format (unit mm)*
G04 Created by KiCad (PCBNEW 9.0.4) date 2025-12-09 12:16:09*
%MOMM*%
%LPD*%
G01*
G04 APERTURE LIST*
G04 Aperture macros list*
%AMRoundRect*
0 Rectangle with rounded corners*
0 $1 Rounding radius*
0 $2 $3 $4 $5 $6 $7 $8 $9 X,Y pos of 4 corners*
0 Add a 4 corners polygon primitive as box body*
4,1,4,$2,$3,$4,$5,$6,$7,$8,$9,$2,$3,0*
0 Add four circle primitives for the rounded corners*
1,1,$1+$1,$2,$3*
1,1,$1+$1,$4,$5*
1,1,$1+$1,$6,$7*
1,1,$1+$1,$8,$9*
0 Add four rect primitives between the rounded corners*
20,1,$1+$1,$2,$3,$4,$5,0*
20,1,$1+$1,$4,$5,$6,$7,0*
20,1,$1+$1,$6,$7,$8,$9,0*
20,1,$1+$1,$8,$9,$2,$3,0*%
G04 Aperture macros list end*
%TA.AperFunction,SMDPad,CuDef*%
%ADD10RoundRect,0.243750X0.456250X-0.243750X0.456250X0.243750X-0.456250X0.243750X-0.456250X-0.243750X0*%
%TD*%
%TA.AperFunction,SMDPad,CuDef*%
%ADD11RoundRect,0.243750X-0.456250X0.243750X-0.456250X-0.243750X0.456250X-0.243750X0.456250X0.243750X0*%
%TD*%
%TA.AperFunction,ComponentPad*%
%ADD12R,1.700000X1.700000*%
%TD*%
%TA.AperFunction,ComponentPad*%
%ADD13C,1.700000*%
%TD*%
%TA.AperFunction,SMDPad,CuDef*%
%ADD14RoundRect,0.250000X0.475000X-0.250000X0.475000X0.250000X-0.475000X0.250000X-0.475000X-0.250000X0*%
%TD*%
%TA.AperFunction,SMDPad,CuDef*%
%ADD15RoundRect,0.250000X-0.262500X-0.450000X0.262500X-0.450000X0.262500X0.450000X-0.262500X0.450000X0*%
%TD*%
%TA.AperFunction,SMDPad,CuDef*%
%ADD16R,0.900000X1.500000*%
%TD*%
%TA.AperFunction,SMDPad,CuDef*%
%ADD17R,1.500000X0.900000*%
%TD*%
%TA.AperFunction,HeatsinkPad*%
%ADD18C,0.600000*%
%TD*%
%TA.AperFunction,HeatsinkPad*%
%ADD19R,3.900000X3.900000*%
%TD*%
%TA.AperFunction,SMDPad,CuDef*%
%ADD20RoundRect,0.250000X-0.250000X-0.475000X0.250000X-0.475000X0.250000X0.475000X-0.250000X0.475000X0*%
%TD*%
%TA.AperFunction,ComponentPad*%
%ADD21C,0.700000*%
%TD*%
%TA.AperFunction,ComponentPad*%
%ADD22O,2.400000X0.900000*%
%TD*%
%TA.AperFunction,ComponentPad*%
%ADD23O,1.700000X0.900000*%
%TD*%
%TA.AperFunction,SMDPad,CuDef*%
%ADD24RoundRect,0.150000X0.512500X0.150000X-0.512500X0.150000X-0.512500X-0.150000X0.512500X-0.150000X0*%
%TD*%
%TA.AperFunction,SMDPad,CuDef*%
%ADD25RoundRect,0.250000X0.250000X-1.150000X0.250000X1.150000X-0.250000X1.150000X-0.250000X-1.150000X0*%
%TD*%
%TA.AperFunction,SMDPad,CuDef*%
%ADD26RoundRect,0.250000X0.450000X-0.262500X0.450000X0.262500X-0.450000X0.262500X-0.450000X-0.262500X0*%
%TD*%
%TA.AperFunction,SMDPad,CuDef*%
%ADD27RoundRect,0.250000X-0.250000X1.150000X-0.250000X-1.150000X0.250000X-1.150000X0.250000X1.150000X0*%
%TD*%
%TA.AperFunction,SMDPad,CuDef*%
%ADD28RoundRect,0.250000X-0.475000X0.250000X-0.475000X-0.250000X0.475000X-0.250000X0.475000X0.250000X0*%
%TD*%
%TA.AperFunction,SMDPad,CuDef*%
%ADD29RoundRect,0.062500X0.350000X0.062500X-0.350000X0.062500X-0.350000X-0.062500X0.350000X-0.062500X0*%
%TD*%
%TA.AperFunction,SMDPad,CuDef*%
%ADD30RoundRect,0.062500X0.062500X0.350000X-0.062500X0.350000X-0.062500X-0.350000X0.062500X-0.350000X0*%
%TD*%
%TA.AperFunction,HeatsinkPad*%
%ADD31R,1.230000X1.230000*%
%TD*%
%TA.AperFunction,SMDPad,CuDef*%
%ADD32RoundRect,0.250000X-0.450000X0.262500X-0.450000X-0.262500X0.450000X-0.262500X0.450000X0.262500X0*%
%TD*%
%TA.AperFunction,ViaPad*%
%ADD33C,0.600000*%
%TD*%
%TA.AperFunction,Conductor*%
%ADD34C,0.200000*%
%TD*%
G04 APERTURE END LIST*
D10*
%TO.P,D1,1,K*%
%TO.N,LEDC*%
X174595000Y-151637500D03*
%TO.P,D1,2,A*%
%TO.N,LEDA*%
X174595000Y-149762500D03*
%TD*%
D11*
%TO.P,D10,1,K*%
%TO.N,LEDB*%
X170908000Y-120863500D03*
%TO.P,D10,2,A*%
%TO.N,LEDC*%
X170908000Y-122738500D03*
%TD*%
D12*
%TO.P,J11,1,Pin_1*%
%TO.N,+5V*%
X160500000Y-121000000D03*
D13*
%TO.P,J11,2,Pin_2*%
%TO.N,WS2812B*%
X160500000Y-118460000D03*
%TO.P,J11,3,Pin_3*%
%TO.N,GND*%
X160500000Y-115920000D03*
%TD*%
D12*
%TO.P,J15,1,Pin_1*%
%TO.N,+5V*%
X138250000Y-138800000D03*
D13*
%TO.P,J15,2,Pin_2*%
%TO.N,MOSI*%
X138250000Y-141340000D03*
%TO.P,J15,3,Pin_3*%
%TO.N,MISO*%
X138250000Y-143880000D03*
%TO.P,J15,4,Pin_4*%
%TO.N,SCK*%
X138250000Y-146420000D03*
%TO.P,J15,5,Pin_5*%
%TO.N,CS2*%
X138250000Y-148960000D03*
%TO.P,J15,6,Pin_6*%
%TO.N,GND*%
X138250000Y-151500000D03*
%TD*%
D12*
%TO.P,J17,1,Pin_1*%
%TO.N,+5V*%
X147250000Y-143880000D03*
D13*
%TO.P,J17,2,Pin_2*%
%TO.N,SDA*%
X147250000Y-146420000D03*
%TO.P,J17,3,Pin_3*%
%TO.N,SCL*%
X147250000Y-148960000D03*
%TO.P,J17,4,Pin_4*%
%TO.N,GND*%
X147250000Y-151500000D03*
%TD*%
D14*
%TO.P,C7,1*%
%TO.N,+3V3*%
X152010000Y-98500000D03*
%TO.P,C7,2*%
%TO.N,GND*%
X152010000Y-96600000D03*
%TD*%
D15*
%TO.P,R15,1*%
%TO.N,Net-(J3-CC2)*%
X166675000Y-94000000D03*
%TO.P,R15,2*%
%TO.N,GND*%
X168500000Y-94000000D03*
%TD*%
D16*
%TO.P,U1,1,GND*%
%TO.N,GND*%
X137740000Y-118845000D03*
%TO.P,U1,2,3V3*%
%TO.N,+3V3*%
X139010000Y-118845000D03*
%TO.P,U1,3,EN*%
%TO.N,RESET*%
X140280000Y-118845000D03*
%TO.P,U1,4,IO4*%
%TO.N,RIGHT*%
X141550000Y-118845000D03*
%TO.P,U1,5,IO5*%
%TO.N,ENTER*%
X142820000Y-118845000D03*
%TO.P,U1,6,IO6*%
%TO.N,WS2812B*%
X144090000Y-118845000D03*
%TO.P,U1,7,IO7*%
%TO.N,SDMODE*%
X145360000Y-118845000D03*
%TO.P,U1,8,IO15*%
%TO.N,BCLK*%
X146630000Y-118845000D03*
%TO.P,U1,9,IO16*%
%TO.N,FCLK*%
X147900000Y-118845000D03*
%TO.P,U1,10,IO17*%
%TO.N,D{slash}C*%
X149170000Y-118845000D03*
%TO.P,U1,11,IO18*%
%TO.N,RES*%
X150440000Y-118845000D03*
%TO.P,U1,12,IO8*%
%TO.N,CS2*%
X151710000Y-118845000D03*
%TO.P,U1,13,USB_D-*%
%TO.N,D-*%
X152980000Y-118845000D03*
%TO.P,U1,14,USB_D+*%
%TO.N,D+*%
X154250000Y-118845000D03*
D17*
%TO.P,U1,15,IO3*%
%TO.N,LEFT*%
X155500000Y-117080000D03*
%TO.P,U1,16,IO46*%
%TO.N,SDA*%
X155500000Y-115810000D03*
%TO.P,U1,17,IO9*%
%TO.N,CS1*%
X155500000Y-114540000D03*
%TO.P,U1,18,IO10*%
%TO.N,CS0*%
X155500000Y-113270000D03*
%TO.P,U1,19,IO11*%
%TO.N,MOSI*%
X155500000Y-112000000D03*
%TO.P,U1,20,IO12*%
%TO.N,SCK*%
X155500000Y-110730000D03*
%TO.P,U1,21,IO13*%
%TO.N,MISO*%
X155500000Y-109460000D03*
%TO.P,U1,22,IO14*%
%TO.N,DIN*%
X155500000Y-108190000D03*
%TO.P,U1,23,IO21*%
%TO.N,unconnected-(U1-IO21-Pad23)*%
X155500000Y-106920000D03*
%TO.P,U1,24,IO47*%
%TO.N,SERV1*%
X155500000Y-105650000D03*
%TO.P,U1,25,IO48*%
%TO.N,SERV2*%
X155500000Y-104380000D03*
%TO.P,U1,26,IO45*%
%TO.N,SCL*%
X155500000Y-103110000D03*
D16*
%TO.P,U1,27,IO0*%
%TO.N,BOOT*%
X154250000Y-101345000D03*
%TO.P,U1,28,IO35*%
%TO.N,unconnected-(U1-IO35-Pad28)*%
X152980000Y-101345000D03*
%TO.P,U1,29,IO36*%
%TO.N,unconnected-(U1-IO36-Pad29)*%
X151710000Y-101345000D03*
%TO.P,U1,30,IO37*%
%TO.N,unconnected-(U1-IO37-Pad30)*%
X150440000Y-101345000D03*
%TO.P,U1,31,IO38*%
%TO.N,unconnected-(U1-IO38-Pad31)*%
X149170000Y-101345000D03*
%TO.P,U1,32,IO39*%
%TO.N,LEDA*%
X147900000Y-101345000D03*
%TO.P,U1,33,IO40*%
%TO.N,LEDB*%
X146630000Y-101345000D03*
%TO.P,U1,34,IO41*%
%TO.N,LEDC*%
X145360000Y-101345000D03*
%TO.P,U1,35,IO42*%
%TO.N,LEDD*%
X144090000Y-101345000D03*
%TO.P,U1,36,RXD0*%
%TO.N,unconnected-(U1-RXD0-Pad36)*%
X142820000Y-101345000D03*
%TO.P,U1,37,TXD0*%
%TO.N,unconnected-(U1-TXD0-Pad37)*%
X141550000Y-101345000D03*
%TO.P,U1,38,IO2*%
%TO.N,DOWN*%
X140280000Y-101345000D03*
%TO.P,U1,39,IO1*%
%TO.N,UP*%
X139010000Y-101345000D03*
%TO.P,U1,40,GND*%
%TO.N,GND*%
X137740000Y-101345000D03*
D18*
%TO.P,U1,41,GND*%
X144760000Y-112995000D03*
X146160000Y-112995000D03*
X144060000Y-112295000D03*
X145460000Y-112295000D03*
X146860000Y-112295000D03*
X144760000Y-111595000D03*
D19*
X145460000Y-111595000D03*
D18*
X146160000Y-111595000D03*
X144060000Y-110895000D03*
X145460000Y-110895000D03*
X146860000Y-110895000D03*
X144760000Y-110195000D03*
X146160000Y-110195000D03*
%TD*%
D20*
%TO.P,C3,1*%
%TO.N,+3V3*%
X155050000Y-126000000D03*
%TO.P,C3,2*%
%TO.N,GND*%
X156950000Y-126000000D03*
%TD*%
D12*
%TO.P,LS1,1,1*%
%TO.N,Net-(U3-OUTP)*%
X160500000Y-125725000D03*
D13*
%TO.P,LS1,2,2*%
%TO.N,Net-(U3-OUTN)*%
X160500000Y-128265000D03*
%TD*%
D14*
%TO.P,C5,1*%
%TO.N,+3V3*%
X145990000Y-98500000D03*
%TO.P,C5,2*%
%TO.N,GND*%
X145990000Y-96600000D03*
%TD*%
D12*
%TO.P,M2,1,PWM*%
%TO.N,SERV2*%
X160500000Y-96500000D03*
D13*
%TO.P,M2,2,+*%
%TO.N,+5V*%
X160500000Y-99040000D03*
%TO.P,M2,3,-*%
%TO.N,GND*%
X160500000Y-101580000D03*
%TD*%
D11*
%TO.P,D5,1,K*%
%TO.N,LEDA*%
X174575000Y-136470500D03*
%TO.P,D5,2,A*%
%TO.N,LEDC*%
X174575000Y-138345500D03*
%TD*%
D12*
%TO.P,J13,1,Pin_1*%
%TO.N,+5V*%
X161800000Y-145010000D03*
D13*
%TO.P,J13,2,Pin_2*%
%TO.N,D+*%
X159260000Y-145010000D03*
%TO.P,J13,3,Pin_3*%
%TO.N,D-*%
X156720000Y-145010000D03*
%TO.P,J13,4,Pin_4*%
%TO.N,GND*%
X154180000Y-145010000D03*
%TD*%
D10*
%TO.P,D11,1,K*%
%TO.N,LEDC*%
X170908000Y-119031500D03*
%TO.P,D11,2,A*%
%TO.N,LEDB*%
X170908000Y-117156500D03*
%TD*%
D11*
%TO.P,D2,1,K*%
%TO.N,LEDD*%
X170909000Y-146096500D03*
%TO.P,D2,2,A*%
%TO.N,LEDB*%
X170909000Y-147971500D03*
%TD*%
D12*
%TO.P,J1,1,Pin_1*%
%TO.N,+3V3*%
X137610000Y-83000000D03*
D13*
%TO.P,J1,2,Pin_2*%
%TO.N,GND*%
X140150000Y-83000000D03*
%TO.P,J1,3,Pin_3*%
%TO.N,unconnected-(J1-Pin_3-Pad3)*%
X142690000Y-83000000D03*
%TO.P,J1,4,Pin_4*%
%TO.N,MOSI*%
X145230000Y-83000000D03*
%TO.P,J1,5,Pin_5*%
%TO.N,SCK*%
X147770000Y-83000000D03*
%TO.P,J1,6,Pin_6*%
%TO.N,CS0*%
X150310000Y-83000000D03*
%TO.P,J1,7,Pin_7*%
%TO.N,D{slash}C*%
X152850000Y-83000000D03*
%TO.P,J1,8,Pin_8*%
%TO.N,RES*%
X155390000Y-83000000D03*
%TD*%
D14*
%TO.P,C1,1*%
%TO.N,+5V*%
X158750000Y-141250000D03*
%TO.P,C1,2*%
%TO.N,GND*%
X158750000Y-139350000D03*
%TD*%
%TO.P,C6,1*%
%TO.N,+3V3*%
X149000000Y-98500000D03*
%TO.P,C6,2*%
%TO.N,GND*%
X149000000Y-96600000D03*
%TD*%
D10*
%TO.P,D9,1,K*%
%TO.N,LEDB*%
X174575000Y-122718500D03*
%TO.P,D9,2,A*%
%TO.N,LEDA*%
X174575000Y-120843500D03*
%TD*%
D21*
%TO.P,J3,A1,GND*%
%TO.N,GND*%
X166475000Y-107975000D03*
%TO.P,J3,A4,VBUS*%
%TO.N,+5V*%
X166475000Y-107125000D03*
%TO.P,J3,A5,CC1*%
%TO.N,Net-(J3-CC1)*%
X166475000Y-106275000D03*
%TO.P,J3,A6,D+*%
%TO.N,D+*%
X166475000Y-105425000D03*
%TO.P,J3,A7,D-*%
%TO.N,D-*%
X166475000Y-104575000D03*
%TO.P,J3,A8,SBU1*%
%TO.N,unconnected-(J3-SBU1-PadA8)*%
X166475000Y-103725000D03*
%TO.P,J3,A9,VBUS*%
%TO.N,+5V*%
X166475000Y-102875000D03*
%TO.P,J3,A12,GND*%
%TO.N,GND*%
X166475000Y-102025000D03*
%TO.P,J3,B1,GND*%
X167825000Y-102025000D03*
%TO.P,J3,B4,VBUS*%
%TO.N,+5V*%
X167825000Y-102875000D03*
%TO.P,J3,B5,CC2*%
%TO.N,Net-(J3-CC2)*%
X167825000Y-103725000D03*
%TO.P,J3,B6,D+*%
%TO.N,D+*%
X167825000Y-104575000D03*
%TO.P,J3,B7,D-*%
%TO.N,D-*%
X167825000Y-105425000D03*
%TO.P,J3,B8,SBU2*%
%TO.N,unconnected-(J3-SBU2-PadB8)*%
X167825000Y-106275000D03*
%TO.P,J3,B9,VBUS*%
%TO.N,+5V*%
X167825000Y-107125000D03*
%TO.P,J3,B12,GND*%
%TO.N,GND*%
X167825000Y-107975000D03*
D22*
%TO.P,J3,S1,SHIELD*%
%TO.N,unconnected-(J3-SHIELD-PadS1)*%
X167455000Y-109325000D03*
D23*
%TO.N,unconnected-(J3-SHIELD-PadS1)_3*%
X170835000Y-109325000D03*
D22*
%TO.N,unconnected-(J3-SHIELD-PadS1)_2*%
X167455000Y-100675000D03*
D23*
%TO.N,unconnected-(J3-SHIELD-PadS1)_1*%
X170835000Y-100675000D03*
%TD*%
D15*
%TO.P,R4,1*%
%TO.N,+3V3*%
X141925000Y-139500000D03*
%TO.P,R4,2*%
%TO.N,SDA*%
X143750000Y-139500000D03*
%TD*%
D12*
%TO.P,J5,1,Pin_1*%
%TO.N,LEDA*%
X174235000Y-113950000D03*
D13*
%TO.P,J5,2,Pin_2*%
%TO.N,LEDB*%
X171695000Y-113950000D03*
%TO.P,J5,3,Pin_3*%
%TO.N,LEDC*%
X169155000Y-113950000D03*
%TO.P,J5,4,Pin_4*%
%TO.N,LEDD*%
X166615000Y-113950000D03*
%TD*%
D20*
%TO.P,C4,1*%
%TO.N,+3V3*%
X155050000Y-129500000D03*
%TO.P,C4,2*%
%TO.N,GND*%
X156950000Y-129500000D03*
%TD*%
D24*
%TO.P,U2,1,VIN*%
%TO.N,+5V*%
X156500000Y-141150000D03*
%TO.P,U2,2,GND*%
%TO.N,GND*%
X156500000Y-140200000D03*
%TO.P,U2,3,EN*%
%TO.N,Net-(U2-EN)*%
X156500000Y-139250000D03*
%TO.P,U2,4,NC*%
%TO.N,unconnected-(U2-NC-Pad4)*%
X154225000Y-139250000D03*
%TO.P,U2,5,VOUT*%
%TO.N,+3V3*%
X154225000Y-141150000D03*
%TD*%
D25*
%TO.P,SW6,1,1*%
%TO.N,GND*%
X138000000Y-96900000D03*
X138000000Y-91100000D03*
%TO.P,SW6,2,2*%
%TO.N,BOOT*%
X142000000Y-96900000D03*
X142000000Y-91100000D03*
%TD*%
D12*
%TO.P,M1,1,PWM*%
%TO.N,SERV1*%
X160500000Y-106420000D03*
D13*
%TO.P,M1,2,+*%
%TO.N,+5V*%
X160500000Y-108960000D03*
%TO.P,M1,3,-*%
%TO.N,GND*%
X160500000Y-111500000D03*
%TD*%
D11*
%TO.P,D4,1,K*%
%TO.N,LEDA*%
X170909000Y-140116500D03*
%TO.P,D4,2,A*%
%TO.N,LEDD*%
X170909000Y-141991500D03*
%TD*%
D26*
%TO.P,R2,1*%
%TO.N,+5V*%
X161250000Y-141250000D03*
%TO.P,R2,2*%
%TO.N,Net-(U2-EN)*%
X161250000Y-139425000D03*
%TD*%
%TO.P,R1,1*%
%TO.N,+3V3*%
X145990000Y-92962500D03*
%TO.P,R1,2*%
%TO.N,RESET*%
X145990000Y-91137500D03*
%TD*%
D11*
%TO.P,D12,1,K*%
%TO.N,LEDC*%
X167241000Y-117196500D03*
%TO.P,D12,2,A*%
%TO.N,LEDD*%
X167241000Y-119071500D03*
%TD*%
D15*
%TO.P,R5,1*%
%TO.N,+3V3*%
X146425000Y-139500000D03*
%TO.P,R5,2*%
%TO.N,SCL*%
X148250000Y-139500000D03*
%TD*%
D12*
%TO.P,J2,1,Pin_1*%
%TO.N,LEDA*%
X160500000Y-91580000D03*
D13*
%TO.P,J2,2,Pin_2*%
%TO.N,LEDB*%
X160500000Y-89040000D03*
%TO.P,J2,3,Pin_3*%
%TO.N,LEDC*%
X160500000Y-86500000D03*
%TO.P,J2,4,Pin_4*%
%TO.N,LEDD*%
X160500000Y-83960000D03*
%TD*%
D11*
%TO.P,D6,1,K*%
%TO.N,LEDD*%
X167243000Y-136470500D03*
%TO.P,D6,2,A*%
%TO.N,LEDC*%
X167243000Y-138345500D03*
%TD*%
D27*
%TO.P,SW5,1,1*%
%TO.N,GND*%
X155500000Y-87100000D03*
X155500000Y-92900000D03*
%TO.P,SW5,2,2*%
%TO.N,RESET*%
X151500000Y-87100000D03*
X151500000Y-92900000D03*
%TD*%
D10*
%TO.P,D3,1,K*%
%TO.N,LEDB*%
X167242000Y-147971500D03*
%TO.P,D3,2,A*%
%TO.N,LEDD*%
X167242000Y-146096500D03*
%TD*%
D28*
%TO.P,C8,1*%
%TO.N,RESET*%
X148490000Y-91100000D03*
%TO.P,C8,2*%
%TO.N,GND*%
X148490000Y-93000000D03*
%TD*%
D29*
%TO.P,U3,1,DIN*%
%TO.N,DIN*%
X158000000Y-134500000D03*
%TO.P,U3,2,GAIN_SLOT*%
%TO.N,+3V3*%
X158000000Y-134000000D03*
%TO.P,U3,3,GND*%
%TO.N,GND*%
X158000000Y-133500000D03*
%TO.P,U3,4,~{SD_MODE}*%
%TO.N,Net-(U3-~{SD_MODE})*%
X158000000Y-133000000D03*
D30*
%TO.P,U3,5,NC*%
%TO.N,unconnected-(U3-NC-Pad5)*%
X157312500Y-132312500D03*
%TO.P,U3,6,NC*%
%TO.N,unconnected-(U3-NC-Pad6)*%
X156812500Y-132312500D03*
%TO.P,U3,7,VDD*%
%TO.N,+3V3*%
X156312500Y-132312500D03*
%TO.P,U3,8,VDD*%
X155812500Y-132312500D03*
D29*
%TO.P,U3,9,OUTP*%
%TO.N,Net-(U3-OUTP)*%
X155125000Y-133000000D03*
%TO.P,U3,10,OUTN*%
%TO.N,Net-(U3-OUTN)*%
X155125000Y-133500000D03*
%TO.P,U3,11,GND*%
%TO.N,GND*%
X155125000Y-134000000D03*
%TO.P,U3,12,NC*%
%TO.N,unconnected-(U3-NC-Pad12)*%
X155125000Y-134500000D03*
D30*
%TO.P,U3,13,NC*%
%TO.N,unconnected-(U3-NC-Pad13)*%
X155812500Y-135187500D03*
%TO.P,U3,14,LRCLK*%
%TO.N,FCLK*%
X156312500Y-135187500D03*
%TO.P,U3,15,GND*%
%TO.N,GND*%
X156812500Y-135187500D03*
%TO.P,U3,16,BCLK*%
%TO.N,BCLK*%
X157312500Y-135187500D03*
D31*
%TO.P,U3,17,PAD*%
%TO.N,GND*%
X156562500Y-133750000D03*
%TD*%
D14*
%TO.P,C2,1*%
%TO.N,+3V3*%
X152000000Y-141250000D03*
%TO.P,C2,2*%
%TO.N,GND*%
X152000000Y-139350000D03*
%TD*%
D12*
%TO.P,J14,1,Pin_1*%
%TO.N,+5V*%
X133660000Y-138800000D03*
D13*
%TO.P,J14,2,Pin_2*%
%TO.N,MOSI*%
X133660000Y-141340000D03*
%TO.P,J14,3,Pin_3*%
%TO.N,MISO*%
X133660000Y-143880000D03*
%TO.P,J14,4,Pin_4*%
%TO.N,SCK*%
X133660000Y-146420000D03*
%TO.P,J14,5,Pin_5*%
%TO.N,CS1*%
X133660000Y-148960000D03*
%TO.P,J14,6,Pin_6*%
%TO.N,GND*%
X133660000Y-151500000D03*
%TD*%
D15*
%TO.P,R16,1*%
%TO.N,Net-(J3-CC1)*%
X166675000Y-96950000D03*
%TO.P,R16,2*%
%TO.N,GND*%
X168500000Y-96950000D03*
%TD*%
D10*
%TO.P,D8,1,K*%
%TO.N,LEDA*%
X174575000Y-128698500D03*
%TO.P,D8,2,A*%
%TO.N,LEDB*%
X174575000Y-126823500D03*
%TD*%
D11*
%TO.P,D7,1,K*%
%TO.N,LEDD*%
X170909000Y-136469500D03*
%TO.P,D7,2,A*%
%TO.N,LEDA*%
X170909000Y-138344500D03*
%TD*%
D12*
%TO.P,J12,1,Pin_1*%
%TO.N,+5V*%
X166500000Y-78920000D03*
D13*
%TO.P,J12,2,Pin_2*%
%TO.N,D+*%
X166500000Y-81460000D03*
%TO.P,J12,3,Pin_3*%
%TO.N,D-*%
X166500000Y-84000000D03*
%TO.P,J12,4,Pin_4*%
%TO.N,GND*%
X166500000Y-86540000D03*
%TD*%
D32*
%TO.P,R3,1*%
%TO.N,SDMODE*%
X160872500Y-132897500D03*
%TO.P,R3,2*%
%TO.N,Net-(U3-~{SD_MODE})*%
X160872500Y-134722500D03*
%TD*%
D12*
%TO.P,J16,1,Pin_1*%
%TO.N,+5V*%
X142750000Y-143880000D03*
D13*
%TO.P,J16,2,Pin_2*%
%TO.N,SDA*%
X142750000Y-146420000D03*
%TO.P,J16,3,Pin_3*%
%TO.N,SCL*%
X142750000Y-148960000D03*
%TO.P,J16,4,Pin_4*%
%TO.N,GND*%
X142750000Y-151500000D03*
%TD*%
D33*
%TO.N,GND*%
X138000000Y-94000000D03*
X149250000Y-93250000D03*
X162750000Y-147250000D03*
X153750000Y-136000000D03*
X155500000Y-90000000D03*
X157000000Y-123250000D03*
X156950000Y-127750000D03*
X162750000Y-143000000D03*
X137740000Y-101345000D03*
%TO.N,+3V3*%
X143425000Y-124375000D03*
X145325000Y-124375000D03*
X162500000Y-121500000D03*
X155750000Y-124000000D03*
X150200000Y-130350000D03*
X147225000Y-124375000D03*
X131000000Y-135250000D03*
X133750000Y-136500000D03*
%TO.N,RESET*%
X140250000Y-116250000D03*
X144250000Y-92500000D03*
%TO.N,LEDA*%
X147900000Y-101345000D03*
%TO.N,LEDB*%
X146630000Y-101345000D03*
%TO.N,LEDC*%
X145360000Y-101345000D03*
X169175000Y-137450000D03*
X169175000Y-134450000D03*
%TO.N,CS0*%
X154000000Y-113000000D03*
%TO.N,RES*%
X150440000Y-118845000D03*
%TO.N,SCK*%
X142500000Y-122500000D03*
X151750000Y-111250000D03*
%TO.N,D{slash}C*%
X149250000Y-118750000D03*
%TO.N,MOSI*%
X141250000Y-121750000D03*
X149750000Y-112000000D03*
%TO.N,UP*%
X138750000Y-103000000D03*
%TO.N,D+*%
X154250000Y-120750000D03*
%TO.N,D-*%
X170175000Y-101950000D03*
X153000000Y-120750000D03*
X170175000Y-98950000D03*
%TO.N,DOWN*%
X138500000Y-104500000D03*
%TO.N,LEFT*%
X152000000Y-117500000D03*
%TO.N,RIGHT*%
X138750000Y-122000000D03*
%TO.N,WS2812B*%
X152750000Y-116750000D03*
X156500000Y-120500000D03*
%TO.N,CS1*%
X143117364Y-113854578D03*
X142250000Y-112000000D03*
%TO.N,MISO*%
X150750000Y-110500000D03*
X142250000Y-121500000D03*
%TO.N,CS2*%
X146750000Y-117250000D03*
X141250000Y-112000000D03*
X144250000Y-117250000D03*
X142250000Y-114500000D03*
%TO.N,SCL*%
X143750000Y-121750000D03*
X152750000Y-105000000D03*
%TO.N,SDA*%
X154000000Y-114750000D03*
X144500000Y-122500000D03*
%TO.N,Net-(U3-OUTP)*%
X154250000Y-132000000D03*
%TO.N,Net-(U3-OUTN)*%
X153750000Y-132750000D03*
%TO.N,DIN*%
X159250000Y-135250000D03*
X157500000Y-110000000D03*
%TO.N,LEDD*%
X144409998Y-101221893D03*
%TO.N,ENTER*%
X139500000Y-122500000D03*
%TD*%
D34*
%TO.N,+3V3*%
X145990000Y-92962500D02*
X144500000Y-94452500D01*
X144500000Y-94452500D02*
X144500000Y-97010000D01*
X144500000Y-97010000D02*
X145990000Y-98500000D01*
%TO.N,GND*%
X156500000Y-140200000D02*
X157900000Y-140200000D01*
X166475000Y-107975000D02*
X167825000Y-107975000D01*
X137740000Y-106025000D02*
X137740000Y-101345000D01*
X152850000Y-140200000D02*
X156500000Y-140200000D01*
X156312500Y-134000000D02*
X156562500Y-133750000D01*
X156812500Y-135187500D02*
X156812500Y-134000000D01*
X155500000Y-90000000D02*
X155500000Y-87100000D01*
X149000000Y-93500000D02*
X149000000Y-96600000D01*
X138000000Y-96900000D02*
X138000000Y-94000000D01*
X168500000Y-96950000D02*
X168956000Y-97406000D01*
X168500000Y-94000000D02*
X168500000Y-96950000D01*
X145990000Y-96600000D02*
X152010000Y-96600000D01*
X156812500Y-134000000D02*
X156562500Y-133750000D01*
X137740000Y-118845000D02*
X137740000Y-117760000D01*
X165650000Y-94473660D02*
X167125340Y-95949000D01*
X152010000Y-96600000D02*
X153350000Y-96600000D01*
X155125000Y-134000000D02*
X156312500Y-134000000D01*
X167499000Y-95949000D02*
X168500000Y-96950000D01*
X153750000Y-134750000D02*
X153750000Y-136000000D01*
X143205000Y-112295000D02*
X144060000Y-112295000D01*
X149250000Y-93250000D02*
X149000000Y-93500000D01*
X165650000Y-87390000D02*
X165650000Y-94473660D01*
X156950000Y-129500000D02*
X156950000Y-127750000D01*
X167125340Y-95949000D02*
X167499000Y-95949000D01*
X166500000Y-86540000D02*
X165650000Y-87390000D01*
X137740000Y-117760000D02*
X143205000Y-112295000D01*
X152000000Y-139350000D02*
X152850000Y-140200000D01*
X153750000Y-136000000D02*
X153750000Y-137600000D01*
X156950000Y-126000000D02*
X156950000Y-123300000D01*
X155125000Y-134000000D02*
X154500000Y-134000000D01*
X153750000Y-137600000D02*
X152000000Y-139350000D01*
X156950000Y-123300000D02*
X157000000Y-123250000D01*
X158000000Y-133500000D02*
X156812500Y-133500000D01*
X168100000Y-102025000D02*
X166475000Y-102025000D01*
X155500000Y-92900000D02*
X155500000Y-90000000D01*
X153350000Y-96600000D02*
X155500000Y-94450000D01*
X157900000Y-140200000D02*
X158750000Y-139350000D01*
X156950000Y-127750000D02*
X156950000Y-126000000D01*
X145460000Y-111595000D02*
X143310000Y-111595000D01*
X155500000Y-94450000D02*
X155500000Y-92900000D01*
X168956000Y-97406000D02*
X168956000Y-101169000D01*
X154500000Y-134000000D02*
X153750000Y-134750000D01*
X156812500Y-133500000D02*
X156562500Y-133750000D01*
X168956000Y-101169000D02*
X168100000Y-102025000D01*
X143310000Y-111595000D02*
X137740000Y-106025000D01*
X138000000Y-94000000D02*
X138000000Y-91100000D01*
%TO.N,+5V*%
X167825000Y-102875000D02*
X166475000Y-102875000D01*
X161651000Y-110111000D02*
X161651000Y-119849000D01*
X166475000Y-107125000D02*
X167825000Y-107125000D01*
X166208852Y-107125000D02*
X166475000Y-107125000D01*
X147250000Y-143880000D02*
X142750000Y-143880000D01*
X165175000Y-106091148D02*
X166208852Y-107125000D01*
X160500000Y-108960000D02*
X161651000Y-110111000D01*
X162901000Y-139599000D02*
X161250000Y-141250000D01*
X156600000Y-141250000D02*
X156500000Y-141150000D01*
X165175000Y-80245000D02*
X165175000Y-106091148D01*
X161250000Y-141250000D02*
X156600000Y-141250000D01*
X160500000Y-121000000D02*
X162901000Y-123401000D01*
X161651000Y-107809000D02*
X160500000Y-108960000D01*
X138250000Y-138800000D02*
X133660000Y-138800000D01*
X161800000Y-141800000D02*
X161250000Y-141250000D01*
X162901000Y-123401000D02*
X162901000Y-139599000D01*
X161800000Y-145010000D02*
X161800000Y-141800000D01*
X161651000Y-119849000D02*
X160500000Y-121000000D01*
X161651000Y-100191000D02*
X161651000Y-107809000D01*
X166500000Y-78920000D02*
X165175000Y-80245000D01*
X160500000Y-99040000D02*
X161651000Y-100191000D01*
%TO.N,+3V3*%
X155812500Y-132062500D02*
X155050000Y-131300000D01*
X155812500Y-132312500D02*
X155812500Y-132062500D01*
X154225000Y-141150000D02*
X152100000Y-141150000D01*
X145424000Y-138499000D02*
X142926000Y-138499000D01*
X142926000Y-138499000D02*
X141925000Y-139500000D01*
X147925000Y-138000000D02*
X146425000Y-139500000D01*
X148750000Y-138000000D02*
X147925000Y-138000000D01*
X155050000Y-131300000D02*
X155050000Y-129500000D01*
X146425000Y-139500000D02*
X145424000Y-138499000D01*
X152000000Y-141250000D02*
X148750000Y-138000000D01*
X156312500Y-132312500D02*
X155812500Y-132312500D01*
X152100000Y-141150000D02*
X152000000Y-141250000D01*
%TO.N,RESET*%
X140250000Y-116250000D02*
X140280000Y-116280000D01*
X149700000Y-91100000D02*
X151500000Y-92900000D01*
X148490000Y-91100000D02*
X146027500Y-91100000D01*
X145990000Y-91137500D02*
X145952500Y-91100000D01*
X145952500Y-91100000D02*
X145650000Y-91100000D01*
X140280000Y-116280000D02*
X140280000Y-118845000D01*
X151500000Y-87100000D02*
X151500000Y-92900000D01*
X145650000Y-91100000D02*
X144250000Y-92500000D01*
X148490000Y-91100000D02*
X149700000Y-91100000D01*
X146027500Y-91100000D02*
X145990000Y-91137500D01*
%TO.N,LEDA*%
X175576000Y-121844500D02*
X175576000Y-127697500D01*
X170909000Y-138344500D02*
X170909000Y-140116500D01*
X174575000Y-120843500D02*
X175576000Y-121844500D01*
X171511000Y-138345500D02*
X171510000Y-138344500D01*
X174595000Y-143802500D02*
X170909000Y-140116500D01*
X174575000Y-136470500D02*
X172783000Y-136470500D01*
X174235000Y-120503500D02*
X174575000Y-120843500D01*
X174575000Y-128698500D02*
X174575000Y-136470500D01*
X174595000Y-149762500D02*
X174595000Y-143802500D01*
X175576000Y-127697500D02*
X174575000Y-128698500D01*
X172783000Y-136470500D02*
X170909000Y-138344500D01*
X174235000Y-113950000D02*
X174235000Y-120503500D01*
%TO.N,LEDB*%
X172088500Y-120863500D02*
X170908000Y-120863500D01*
X167242000Y-147971500D02*
X166542001Y-147971500D01*
X174575000Y-126823500D02*
X174575000Y-122718500D01*
X171909000Y-119862500D02*
X171909000Y-118157500D01*
X173943500Y-122718500D02*
X172088500Y-120863500D01*
X170908000Y-120863500D02*
X171909000Y-119862500D01*
X167242000Y-147971500D02*
X170909000Y-147971500D01*
X174575000Y-122718500D02*
X173943500Y-122718500D01*
X165364000Y-113573240D02*
X166138240Y-112799000D01*
X165364000Y-146793499D02*
X165364000Y-113573240D01*
X171909000Y-118157500D02*
X170908000Y-117156500D01*
X166542001Y-147971500D02*
X165364000Y-146793499D01*
X171695000Y-116369500D02*
X171695000Y-113950000D01*
X166138240Y-112799000D02*
X170544000Y-112799000D01*
X170544000Y-112799000D02*
X171695000Y-113950000D01*
X170908000Y-117156500D02*
X171695000Y-116369500D01*
X170929000Y-147971500D02*
X170909000Y-147971500D01*
%TO.N,LEDC*%
X171597646Y-147183000D02*
X173594000Y-149179354D01*
X166851354Y-147183000D02*
X171597646Y-147183000D01*
X168408500Y-117196500D02*
X169155000Y-116450000D01*
X173594000Y-149179354D02*
X173594000Y-150636500D01*
X167241000Y-117196500D02*
X168408500Y-117196500D01*
X166241000Y-146572646D02*
X166851354Y-147183000D01*
X173594000Y-150636500D02*
X174595000Y-151637500D01*
X167243000Y-138345500D02*
X166241000Y-139347500D01*
X169907000Y-120032500D02*
X170908000Y-119031500D01*
X169155000Y-119280500D02*
X169155000Y-116450000D01*
X169907000Y-121737500D02*
X169907000Y-120032500D01*
X175596000Y-150636500D02*
X174595000Y-151637500D01*
X170908000Y-132717000D02*
X169175000Y-134450000D01*
X169907000Y-120032500D02*
X169155000Y-119280500D01*
X170908000Y-122738500D02*
X170908000Y-132717000D01*
X169175000Y-137450000D02*
X168279500Y-138345500D01*
X168279500Y-138345500D02*
X167243000Y-138345500D01*
X170908000Y-122738500D02*
X169907000Y-121737500D01*
X174575000Y-138345500D02*
X175596000Y-139366500D01*
X166241000Y-139347500D02*
X166241000Y-146572646D01*
X175596000Y-139366500D02*
X175596000Y-150636500D01*
X169155000Y-116450000D02*
X169155000Y-113950000D01*
%TO.N,CS0*%
X154270000Y-113270000D02*
X154000000Y-113000000D01*
X155500000Y-113270000D02*
X154270000Y-113270000D01*
%TO.N,SCK*%
X140250000Y-144420000D02*
X140250000Y-124500000D01*
X153000000Y-111250000D02*
X153520000Y-110730000D01*
X151750000Y-111250000D02*
X153000000Y-111250000D01*
X153520000Y-110730000D02*
X155500000Y-110730000D01*
X138250000Y-146420000D02*
X133660000Y-146420000D01*
X142250000Y-122500000D02*
X142500000Y-122500000D01*
X138250000Y-146420000D02*
X140250000Y-144420000D01*
X140250000Y-124500000D02*
X142250000Y-122500000D01*
%TO.N,MOSI*%
X140750000Y-122500000D02*
X141250000Y-122000000D01*
X133660000Y-141340000D02*
X138250000Y-141340000D01*
X138250000Y-141340000D02*
X139401000Y-140189000D01*
X141250000Y-122000000D02*
X141250000Y-121750000D01*
X139401000Y-123849000D02*
X140750000Y-122500000D01*
X139401000Y-140189000D02*
X139401000Y-123849000D01*
X155500000Y-112000000D02*
X149750000Y-112000000D01*
%TO.N,UP*%
X138750000Y-103000000D02*
X138750000Y-101605000D01*
X138750000Y-101605000D02*
X139010000Y-101345000D01*
%TO.N,Net-(J3-CC1)*%
X165824000Y-97801000D02*
X165824000Y-106118974D01*
X165980026Y-106275000D02*
X166475000Y-106275000D01*
X165824000Y-106118974D02*
X165980026Y-106275000D01*
X166675000Y-96950000D02*
X165824000Y-97801000D01*
%TO.N,D+*%
X154250000Y-120750000D02*
X154250000Y-118845000D01*
%TO.N,D-*%
X170175000Y-98950000D02*
X170175000Y-87675000D01*
X170175000Y-87675000D02*
X166500000Y-84000000D01*
X167395654Y-105425000D02*
X166545654Y-104575000D01*
X153000000Y-118865000D02*
X152980000Y-118845000D01*
X167825000Y-105425000D02*
X168319974Y-105425000D01*
X166545654Y-104575000D02*
X166475000Y-104575000D01*
X167825000Y-105425000D02*
X167395654Y-105425000D01*
X170175000Y-103569974D02*
X170175000Y-101950000D01*
X168319974Y-105425000D02*
X170175000Y-103569974D01*
X153000000Y-120750000D02*
X153000000Y-118865000D01*
%TO.N,Net-(J3-CC2)*%
X166675000Y-94000000D02*
X167676000Y-92999000D01*
X169357000Y-93358340D02*
X169357000Y-102687974D01*
X168319974Y-103725000D02*
X167825000Y-103725000D01*
X169357000Y-102687974D02*
X168319974Y-103725000D01*
X168997660Y-92999000D02*
X169357000Y-93358340D01*
X167676000Y-92999000D02*
X168997660Y-92999000D01*
%TO.N,DOWN*%
X138500000Y-104500000D02*
X140280000Y-102720000D01*
X140280000Y-102720000D02*
X140280000Y-101345000D01*
%TO.N,LEFT*%
X152000000Y-117500000D02*
X155080000Y-117500000D01*
X155080000Y-117500000D02*
X155500000Y-117080000D01*
%TO.N,RIGHT*%
X141500000Y-118895000D02*
X141550000Y-118845000D01*
X141500000Y-119250000D02*
X141500000Y-118895000D01*
X138750000Y-122000000D02*
X141500000Y-119250000D01*
%TO.N,WS2812B*%
X144090000Y-118410000D02*
X144090000Y-118845000D01*
X152750000Y-116750000D02*
X151750000Y-115750000D01*
X146750000Y-115750000D02*
X144090000Y-118410000D01*
X158460000Y-120500000D02*
X156500000Y-120500000D01*
X160500000Y-118460000D02*
X158460000Y-120500000D01*
X151750000Y-115750000D02*
X146750000Y-115750000D01*
%TO.N,CS1*%
X143762786Y-114500000D02*
X153400057Y-114500000D01*
X132500000Y-147800000D02*
X133660000Y-148960000D01*
X136250000Y-135250000D02*
X132500000Y-135250000D01*
X153751057Y-114149000D02*
X154248943Y-114149000D01*
X153400057Y-114500000D02*
X153751057Y-114149000D01*
X143117364Y-113854578D02*
X143762786Y-114500000D01*
X142250000Y-112000000D02*
X136989000Y-117261000D01*
X154599943Y-114500000D02*
X155460000Y-114500000D01*
X132500000Y-135250000D02*
X132500000Y-147800000D01*
X155460000Y-114500000D02*
X155500000Y-114540000D01*
X154248943Y-114149000D02*
X154599943Y-114500000D01*
X136989000Y-134511000D02*
X136250000Y-135250000D01*
X136989000Y-117261000D02*
X136989000Y-134511000D01*
%TO.N,MISO*%
X138250000Y-143880000D02*
X139802000Y-142328000D01*
X141500000Y-122500000D02*
X141750000Y-122250000D01*
X139802000Y-124198000D02*
X141500000Y-122500000D01*
X141750000Y-122250000D02*
X142000000Y-122000000D01*
X151790000Y-109460000D02*
X155500000Y-109460000D01*
X150750000Y-110500000D02*
X151790000Y-109460000D01*
X142000000Y-122000000D02*
X142250000Y-121750000D01*
X139802000Y-142328000D02*
X139802000Y-124198000D01*
X142250000Y-121750000D02*
X142250000Y-121500000D01*
X138250000Y-143880000D02*
X133660000Y-143880000D01*
%TO.N,CS2*%
X146750000Y-117250000D02*
X147250000Y-116750000D01*
X132099000Y-135083900D02*
X132432900Y-134750000D01*
X142250000Y-114500000D02*
X144250000Y-116500000D01*
X136588000Y-133899836D02*
X136588000Y-116912000D01*
X136588000Y-116912000D02*
X141250000Y-112250000D01*
X132432900Y-134750000D02*
X135000000Y-134750000D01*
X150147000Y-116750000D02*
X151710000Y-118313000D01*
X147250000Y-116750000D02*
X150147000Y-116750000D01*
X151710000Y-118313000D02*
X151710000Y-118845000D01*
X132099000Y-149026760D02*
X132099000Y-135083900D01*
X137099000Y-150111000D02*
X133183240Y-150111000D01*
X135737836Y-134750000D02*
X136588000Y-133899836D01*
X144250000Y-116500000D02*
X144250000Y-117250000D01*
X133183240Y-150111000D02*
X132099000Y-149026760D01*
X135000000Y-134750000D02*
X135737836Y-134750000D01*
X141250000Y-112250000D02*
X141250000Y-112000000D01*
X138250000Y-148960000D02*
X137099000Y-150111000D01*
%TO.N,SCL*%
X154640000Y-103110000D02*
X155500000Y-103110000D01*
X140710500Y-146920500D02*
X140710500Y-125139443D01*
X143500000Y-122349943D02*
X143500000Y-122000000D01*
X148250000Y-139500000D02*
X148401000Y-139651000D01*
X148401000Y-147809000D02*
X147250000Y-148960000D01*
X140710500Y-125139443D02*
X143500000Y-122349943D01*
X148401000Y-139651000D02*
X148401000Y-147809000D01*
X152750000Y-105000000D02*
X154640000Y-103110000D01*
X147250000Y-148960000D02*
X142750000Y-148960000D01*
X142750000Y-148960000D02*
X140710500Y-146920500D01*
X143500000Y-122000000D02*
X143750000Y-121750000D01*
%TO.N,SDA*%
X155500000Y-115810000D02*
X155060000Y-115810000D01*
X143750000Y-139500000D02*
X141599000Y-141651000D01*
X141599000Y-141651000D02*
X141111500Y-141163500D01*
X144000000Y-122750000D02*
X144250000Y-122500000D01*
X144250000Y-122500000D02*
X144500000Y-122500000D01*
X141599000Y-141651000D02*
X141599000Y-145269000D01*
X141599000Y-145269000D02*
X142750000Y-146420000D01*
X142750000Y-146420000D02*
X147250000Y-146420000D01*
X141111500Y-125638500D02*
X143750000Y-123000000D01*
X143750000Y-123000000D02*
X144000000Y-122750000D01*
X155060000Y-115810000D02*
X154000000Y-114750000D01*
X141111500Y-141163500D02*
X141111500Y-125638500D01*
%TO.N,Net-(U3-OUTP)*%
X154250000Y-132000000D02*
X154250000Y-132125000D01*
X155125000Y-133000000D02*
X154250000Y-132125000D01*
%TO.N,Net-(U3-OUTN)*%
X154500000Y-133500000D02*
X153750000Y-132750000D01*
X155125000Y-133500000D02*
X154500000Y-133500000D01*
%TO.N,SERV1*%
X155500000Y-105650000D02*
X159730000Y-105650000D01*
X159730000Y-105650000D02*
X160500000Y-106420000D01*
%TO.N,SERV2*%
X156551000Y-103861000D02*
X156551000Y-100449000D01*
X155500000Y-104380000D02*
X156032000Y-104380000D01*
X156032000Y-104380000D02*
X156551000Y-103861000D01*
X156551000Y-100449000D02*
X160500000Y-96500000D01*
%TO.N,Net-(U2-EN)*%
X160374000Y-138549000D02*
X157201000Y-138549000D01*
X157201000Y-138549000D02*
X156500000Y-139250000D01*
X161250000Y-139425000D02*
X160374000Y-138549000D01*
%TO.N,Net-(U3-~{SD_MODE})*%
X159150000Y-133000000D02*
X160872500Y-134722500D01*
X158000000Y-133000000D02*
X159150000Y-133000000D01*
%TO.N,SDMODE*%
X160872500Y-132872500D02*
X157750000Y-129750000D01*
X145360000Y-119795000D02*
X145360000Y-118845000D01*
X160872500Y-132897500D02*
X160872500Y-132872500D01*
X157750000Y-129750000D02*
X157750000Y-122500000D01*
X148065000Y-122500000D02*
X145360000Y-119795000D01*
X157750000Y-122500000D02*
X148065000Y-122500000D01*
%TO.N,BOOT*%
X144850000Y-99750000D02*
X142000000Y-96900000D01*
X154250000Y-100830840D02*
X153169160Y-99750000D01*
X154250000Y-101345000D02*
X154250000Y-100830840D01*
X153169160Y-99750000D02*
X144850000Y-99750000D01*
X142000000Y-91100000D02*
X142000000Y-96900000D01*
%TO.N,BCLK*%
X158500000Y-122250000D02*
X158250000Y-122000000D01*
X161000000Y-136250000D02*
X162000000Y-135250000D01*
X158500000Y-129067100D02*
X158500000Y-122250000D01*
X160151000Y-130401000D02*
X159833900Y-130401000D01*
X158250000Y-136250000D02*
X161000000Y-136250000D01*
X146630000Y-119795000D02*
X146630000Y-118845000D01*
X162000000Y-135250000D02*
X162000000Y-132250000D01*
X148835000Y-122000000D02*
X146630000Y-119795000D01*
X162000000Y-132250000D02*
X160151000Y-130401000D01*
X157312500Y-135312500D02*
X158250000Y-136250000D01*
X158250000Y-122000000D02*
X148835000Y-122000000D01*
X159833900Y-130401000D02*
X158500000Y-129067100D01*
X157312500Y-135187500D02*
X157312500Y-135312500D01*
%TO.N,DIN*%
X157500000Y-110000000D02*
X157500000Y-109240000D01*
X158500000Y-134500000D02*
X159250000Y-135250000D01*
X157500000Y-109240000D02*
X156450000Y-108190000D01*
X158000000Y-134500000D02*
X158500000Y-134500000D01*
X156450000Y-108190000D02*
X155500000Y-108190000D01*
%TO.N,FCLK*%
X157696702Y-137000000D02*
X161000000Y-137000000D01*
X160000000Y-130000000D02*
X159000000Y-129000000D01*
X162500000Y-135500000D02*
X162500000Y-131892760D01*
X156312500Y-135615798D02*
X157696702Y-137000000D01*
X158500000Y-121500000D02*
X149500000Y-121500000D01*
X149500000Y-121500000D02*
X147900000Y-119900000D01*
X160607240Y-130000000D02*
X160000000Y-130000000D01*
X161000000Y-137000000D02*
X162500000Y-135500000D01*
X156312500Y-135187500D02*
X156312500Y-135615798D01*
X159000000Y-129000000D02*
X159000000Y-122000000D01*
X159000000Y-122000000D02*
X158500000Y-121500000D01*
X162500000Y-131892760D02*
X160607240Y-130000000D01*
X147900000Y-119900000D02*
X147900000Y-118845000D01*
%TO.N,LEDD*%
X169908000Y-137470500D02*
X170909000Y-136469500D01*
X165765000Y-114800000D02*
X166615000Y-113950000D01*
X170694500Y-136469500D02*
X170693500Y-136470500D01*
X170909000Y-136469500D02*
X170694500Y-136469500D01*
X165765000Y-117595500D02*
X165765000Y-114800000D01*
X167241000Y-119071500D02*
X165765000Y-117595500D01*
X170693500Y-136470500D02*
X167243000Y-136470500D01*
X167241000Y-119071500D02*
X167241000Y-136468500D01*
X170909000Y-146096500D02*
X170909000Y-141991500D01*
X170909000Y-141991500D02*
X169908000Y-140990500D01*
X167242000Y-146096500D02*
X170909000Y-146096500D01*
X169908000Y-140990500D02*
X169908000Y-137470500D01*
X167241000Y-136468500D02*
X167243000Y-136470500D01*
%TO.N,ENTER*%
X139500000Y-122500000D02*
X141250000Y-120750000D01*
X142820000Y-120680000D02*
X142820000Y-118845000D01*
X142750000Y-120750000D02*
X142820000Y-120680000D01*
X141250000Y-120750000D02*
X142750000Y-120750000D01*
%TD*%
%TA.AperFunction,Conductor*%
%TO.N,+3V3*%
G36*
X144768335Y-120076342D02*
G01*
X144803928Y-120089618D01*
X144813444Y-120096741D01*
X144824932Y-120099797D01*
X144852190Y-120122217D01*
X144861257Y-120132154D01*
X144879480Y-120163716D01*
X144991284Y-120275520D01*
X144991286Y-120275521D01*
X147696284Y-122980520D01*
X147696286Y-122980521D01*
X147696290Y-122980524D01*
X147833209Y-123059573D01*
X147833216Y-123059577D01*
X147985943Y-123100501D01*
X147985945Y-123100501D01*
X148151654Y-123100501D01*
X148151670Y-123100500D01*
X156075500Y-123100500D01*
X156142539Y-123120185D01*
X156188294Y-123172989D01*
X156199500Y-123224500D01*
X156199500Y-123328846D01*
X156230261Y-123483489D01*
X156230264Y-123483501D01*
X156290602Y-123629172D01*
X156290606Y-123629179D01*
X156328602Y-123686044D01*
X156349480Y-123752721D01*
X156349500Y-123754935D01*
X156349500Y-124790201D01*
X156329815Y-124857240D01*
X156290598Y-124895739D01*
X156231344Y-124932287D01*
X156107288Y-125056343D01*
X156107283Y-125056349D01*
X156105241Y-125059661D01*
X156103247Y-125061453D01*
X156102807Y-125062011D01*
X156102711Y-125061935D01*
X156053291Y-125106383D01*
X155984328Y-125117602D01*
X155920247Y-125089755D01*
X155894168Y-125059656D01*
X155892319Y-125056659D01*
X155892316Y-125056655D01*
X155768345Y-124932684D01*
X155619124Y-124840643D01*
X155619119Y-124840641D01*
X155452697Y-124785494D01*
X155452690Y-124785493D01*
X155349986Y-124775000D01*
X155300000Y-124775000D01*
X155300000Y-127224999D01*
X155349972Y-127224999D01*
X155349986Y-127224998D01*
X155452697Y-127214505D01*
X155619119Y-127159358D01*
X155619124Y-127159356D01*
X155768345Y-127067315D01*
X155892318Y-126943342D01*
X155894165Y-126940348D01*
X155895969Y-126938724D01*
X155896798Y-126937677D01*
X155896976Y-126937818D01*
X155946110Y-126893621D01*
X156015073Y-126882396D01*
X156079156Y-126910236D01*
X156105243Y-126940341D01*
X156107288Y-126943656D01*
X156107289Y-126943657D01*
X156231345Y-127067713D01*
X156271875Y-127092712D01*
X156318600Y-127144660D01*
X156329823Y-127213622D01*
X156309881Y-127267141D01*
X156240612Y-127370809D01*
X156240602Y-127370827D01*
X156180264Y-127516498D01*
X156180261Y-127516510D01*
X156149500Y-127671153D01*
X156149500Y-127828846D01*
X156180261Y-127983489D01*
X156180264Y-127983501D01*
X156240602Y-128129172D01*
X156240609Y-128129185D01*
X156309881Y-128232857D01*
X156330759Y-128299535D01*
X156312275Y-128366915D01*
X156271878Y-128407285D01*
X156231346Y-128432285D01*
X156107288Y-128556343D01*
X156107283Y-128556349D01*
X156105241Y-128559661D01*
X156103247Y-128561453D01*
X156102807Y-128562011D01*
X156102711Y-128561935D01*
X156053291Y-128606383D01*
X155984328Y-128617602D01*
X155920247Y-128589755D01*
X155894168Y-128559656D01*
X155892319Y-128556659D01*
X155892316Y-128556655D01*
X155768345Y-128432684D01*
X155619124Y-128340643D01*
X155619119Y-128340641D01*
X155452697Y-128285494D01*
X155452690Y-128285493D01*
X155349986Y-128275000D01*
X155300000Y-128275000D01*
X155300000Y-130724999D01*
X155349972Y-130724999D01*
X155349986Y-130724998D01*
X155452697Y-130714505D01*
X155619119Y-130659358D01*
X155619124Y-130659356D01*
X155768345Y-130567315D01*
X155892318Y-130443342D01*
X155894165Y-130440348D01*
X155895969Y-130438724D01*
X155896798Y-130437677D01*
X155896976Y-130437818D01*
X155946110Y-130393621D01*
X156015073Y-130382396D01*
X156079156Y-130410236D01*
X156105243Y-130440341D01*
X156107288Y-130443656D01*
X156231344Y-130567712D01*
X156380666Y-130659814D01*
X156547203Y-130714999D01*
X156649991Y-130725500D01*
X157250008Y-130725499D01*
X157250016Y-130725498D01*
X157250019Y-130725498D01*
X157306302Y-130719748D01*
X157352797Y-130714999D01*
X157519334Y-130659814D01*
X157616021Y-130600176D01*
X157683413Y-130581736D01*
X157750077Y-130602658D01*
X157768799Y-130618034D01*
X159340663Y-132189898D01*
X159351590Y-132209910D01*
X159366334Y-132227307D01*
X159368016Y-132239991D01*
X159374148Y-132251221D01*
X159372521Y-132273965D01*
X159375519Y-132296570D01*
X159370076Y-132308149D01*
X159369164Y-132320913D01*
X159355497Y-132339168D01*
X159345799Y-132359804D01*
X159334959Y-132366603D01*
X159327292Y-132376846D01*
X159305928Y-132384814D01*
X159286611Y-132396932D01*
X159270289Y-132398106D01*
X159261828Y-132401263D01*
X159251623Y-132401572D01*
X159236160Y-132401402D01*
X159229057Y-132399499D01*
X159070943Y-132399499D01*
X159070939Y-132399500D01*
X158547008Y-132399500D01*
X158499558Y-132390062D01*
X158496975Y-132388992D01*
X158496970Y-132388990D01*
X158386910Y-132374501D01*
X158386907Y-132374500D01*
X158386901Y-132374500D01*
X158386894Y-132374500D01*
X158061999Y-132374500D01*
X157994960Y-132354815D01*
X157949205Y-132302011D01*
X157937999Y-132250500D01*
X157937999Y-131925596D01*
X157923511Y-131815536D01*
X157923509Y-131815531D01*
X157923509Y-131815528D01*
X157866779Y-131678571D01*
X157776536Y-131560964D01*
X157658929Y-131470721D01*
X157658925Y-131470719D01*
X157521972Y-131413991D01*
X157521970Y-131413990D01*
X157411901Y-131399500D01*
X157213096Y-131399500D01*
X157103031Y-131413989D01*
X157095178Y-131416094D01*
X157094302Y-131412824D01*
X157040353Y-131418567D01*
X157029977Y-131415518D01*
X157029823Y-131416095D01*
X157021970Y-131413990D01*
X156911901Y-131399500D01*
X156713096Y-131399500D01*
X156603029Y-131413989D01*
X156595181Y-131416093D01*
X156594356Y-131413015D01*
X156539729Y-131418842D01*
X156529855Y-131415989D01*
X156529697Y-131416582D01*
X156521846Y-131414478D01*
X156437500Y-131403373D01*
X156437500Y-131431494D01*
X156436422Y-131435164D01*
X156437279Y-131438893D01*
X156426655Y-131468425D01*
X156417815Y-131498533D01*
X156414548Y-131502082D01*
X156413629Y-131504639D01*
X156388966Y-131529885D01*
X156386966Y-131531419D01*
X156321792Y-131556600D01*
X156253350Y-131542548D01*
X156203370Y-131493723D01*
X156187500Y-131433028D01*
X156187500Y-131403373D01*
X156103159Y-131414478D01*
X156095307Y-131416582D01*
X156094440Y-131413347D01*
X156040374Y-131419112D01*
X156029843Y-131416019D01*
X156029693Y-131416582D01*
X156021840Y-131414478D01*
X155937500Y-131403373D01*
X155937500Y-132188500D01*
X155934949Y-132197185D01*
X155936238Y-132206147D01*
X155925259Y-132230187D01*
X155917815Y-132255539D01*
X155910974Y-132261466D01*
X155907213Y-132269703D01*
X155884978Y-132283992D01*
X155865011Y-132301294D01*
X155854496Y-132303581D01*
X155848435Y-132307477D01*
X155813500Y-132312500D01*
X155811500Y-132312500D01*
X155744461Y-132292815D01*
X155698706Y-132240011D01*
X155687500Y-132188500D01*
X155687500Y-131403373D01*
X155603159Y-131414478D01*
X155603157Y-131414478D01*
X155466324Y-131471156D01*
X155348820Y-131561320D01*
X155258655Y-131678826D01*
X155235597Y-131734491D01*
X155191756Y-131788894D01*
X155125461Y-131810958D01*
X155057762Y-131793678D01*
X155010152Y-131742540D01*
X155006490Y-131734523D01*
X154959394Y-131620821D01*
X154959392Y-131620818D01*
X154959390Y-131620814D01*
X154871789Y-131489711D01*
X154871786Y-131489707D01*
X154760292Y-131378213D01*
X154760288Y-131378210D01*
X154629185Y-131290609D01*
X154629172Y-131290602D01*
X154483501Y-131230264D01*
X154483489Y-131230261D01*
X154328845Y-131199500D01*
X154328842Y-131199500D01*
X154171158Y-131199500D01*
X154171155Y-131199500D01*
X154016510Y-131230261D01*
X154016498Y-131230264D01*
X153870827Y-131290602D01*
X153870814Y-131290609D01*
X153739711Y-131378210D01*
X153739707Y-131378213D01*
X153628213Y-131489707D01*
X153628210Y-131489711D01*
X153540609Y-131620814D01*
X153540602Y-131620827D01*
X153480264Y-131766498D01*
X153480261Y-131766510D01*
X153449500Y-131921153D01*
X153449500Y-131925161D01*
X153448906Y-131927182D01*
X153448903Y-131927218D01*
X153448896Y-131927217D01*
X153429815Y-131992200D01*
X153377011Y-132037955D01*
X153372962Y-132039718D01*
X153370830Y-132040601D01*
X153370814Y-132040609D01*
X153239711Y-132128210D01*
X153239707Y-132128213D01*
X153128213Y-132239707D01*
X153128210Y-132239711D01*
X153040609Y-132370814D01*
X153040602Y-132370827D01*
X152980264Y-132516498D01*
X152980261Y-132516510D01*
X152949500Y-132671153D01*
X152949500Y-132828846D01*
X152980261Y-132983489D01*
X152980264Y-132983501D01*
X153040602Y-133129172D01*
X153040609Y-133129185D01*
X153128210Y-133260288D01*
X153128213Y-133260292D01*
X153239707Y-133371786D01*
X153239711Y-133371789D01*
X153370814Y-133459390D01*
X153370827Y-133459397D01*
X153516498Y-133519735D01*
X153516503Y-133519737D01*
X153581147Y-133532595D01*
X153671849Y-133550638D01*
X153688605Y-133559402D01*
X153707085Y-133563423D01*
X153732123Y-133582167D01*
X153733760Y-133583023D01*
X153735339Y-133584574D01*
X153813083Y-133662318D01*
X153846568Y-133723641D01*
X153841584Y-133793333D01*
X153813083Y-133837680D01*
X153381286Y-134269478D01*
X153269481Y-134381282D01*
X153269479Y-134381284D01*
X153247290Y-134419718D01*
X153237911Y-134435964D01*
X153190423Y-134518215D01*
X153149499Y-134670943D01*
X153149499Y-134670945D01*
X153149499Y-134839046D01*
X153149500Y-134839059D01*
X153149500Y-135420234D01*
X153129815Y-135487273D01*
X153128602Y-135489125D01*
X153040609Y-135620814D01*
X153040602Y-135620827D01*
X152980264Y-135766498D01*
X152980261Y-135766510D01*
X152949500Y-135921153D01*
X152949500Y-136078846D01*
X152980261Y-136233489D01*
X152980264Y-136233501D01*
X153040602Y-136379172D01*
X153040609Y-136379185D01*
X153128602Y-136510874D01*
X153149480Y-136577551D01*
X153149500Y-136579765D01*
X153149500Y-137299902D01*
X153129815Y-137366941D01*
X153113181Y-137387583D01*
X152187582Y-138313181D01*
X152126259Y-138346666D01*
X152099901Y-138349500D01*
X151474998Y-138349500D01*
X151474980Y-138349501D01*
X151372203Y-138360000D01*
X151372200Y-138360001D01*
X151205668Y-138415185D01*
X151205663Y-138415187D01*
X151056342Y-138507289D01*
X150932289Y-138631342D01*
X150840187Y-138780663D01*
X150840185Y-138780668D01*
X150812349Y-138864670D01*
X150785001Y-138947203D01*
X150785001Y-138947204D01*
X150785000Y-138947204D01*
X150774500Y-139049983D01*
X150774500Y-139650001D01*
X150774501Y-139650019D01*
X150785000Y-139752796D01*
X150785001Y-139752799D01*
X150831237Y-139892328D01*
X150840186Y-139919334D01*
X150932288Y-140068656D01*
X151056344Y-140192712D01*
X151059176Y-140194459D01*
X151059653Y-140194753D01*
X151061445Y-140196746D01*
X151062011Y-140197193D01*
X151061934Y-140197289D01*
X151106379Y-140246699D01*
X151117603Y-140315661D01*
X151089761Y-140379744D01*
X151059665Y-140405826D01*
X151056660Y-140407679D01*
X151056655Y-140407683D01*
X150932684Y-140531654D01*
X150840643Y-140680875D01*
X150840641Y-140680880D01*
X150785494Y-140847302D01*
X150785493Y-140847309D01*
X150775000Y-140950013D01*
X150775000Y-141000000D01*
X152932500Y-141000000D01*
X152942476Y-140990023D01*
X152952185Y-140956961D01*
X153004989Y-140911206D01*
X153056500Y-140900000D01*
X154101000Y-140900000D01*
X154168039Y-140919685D01*
X154213794Y-140972489D01*
X154225000Y-141024000D01*
X154225000Y-141150000D01*
X154351000Y-141150000D01*
X154418039Y-141169685D01*
X154463794Y-141222489D01*
X154475000Y-141274000D01*
X154475000Y-141950000D01*
X154803134Y-141950000D01*
X154803149Y-141949999D01*
X154839989Y-141947100D01*
X154839995Y-141947099D01*
X154997693Y-141901283D01*
X154997696Y-141901282D01*
X155139052Y-141817685D01*
X155139061Y-141817678D01*
X155255178Y-141701561D01*
X155255180Y-141701558D01*
X155255472Y-141701066D01*
X155255801Y-141700758D01*
X155259963Y-141695393D01*
X155260828Y-141696064D01*
X155306538Y-141653379D01*
X155375278Y-141640870D01*
X155439870Y-141667510D01*
X155464436Y-141695858D01*
X155464639Y-141695702D01*
X155467522Y-141699420D01*
X155468938Y-141701053D01*
X155469414Y-141701859D01*
X155469423Y-141701870D01*
X155585629Y-141818076D01*
X155585633Y-141818079D01*
X155585635Y-141818081D01*
X155727102Y-141901744D01*
X155729973Y-141902578D01*
X155884926Y-141947597D01*
X155884929Y-141947597D01*
X155884931Y-141947598D01*
X155921806Y-141950500D01*
X155921814Y-141950500D01*
X157078186Y-141950500D01*
X157078194Y-141950500D01*
X157115069Y-141947598D01*
X157115071Y-141947597D01*
X157115073Y-141947597D01*
X157156691Y-141935505D01*
X157272898Y-141901744D01*
X157330348Y-141867767D01*
X157346249Y-141863417D01*
X157358534Y-141855523D01*
X157393469Y-141850500D01*
X157540202Y-141850500D01*
X157607241Y-141870185D01*
X157645739Y-141909401D01*
X157682288Y-141968656D01*
X157806344Y-142092712D01*
X157955666Y-142184814D01*
X158122203Y-142239999D01*
X158224991Y-142250500D01*
X159275008Y-142250499D01*
X159275016Y-142250498D01*
X159275019Y-142250498D01*
X159331302Y-142244748D01*
X159377797Y-142239999D01*
X159544334Y-142184814D01*
X159693656Y-142092712D01*
X159817712Y-141968656D01*
X159854259Y-141909402D01*
X159861846Y-141902578D01*
X159866085Y-141893297D01*
X159887384Y-141879608D01*
X159906207Y-141862679D01*
X159917842Y-141860034D01*
X159924863Y-141855523D01*
X159959798Y-141850500D01*
X160057492Y-141850500D01*
X160124531Y-141870185D01*
X160163029Y-141909401D01*
X160207288Y-141981156D01*
X160331344Y-142105212D01*
X160480666Y-142197314D01*
X160647203Y-142252499D01*
X160749991Y-142263000D01*
X161075500Y-142262999D01*
X161142539Y-142282683D01*
X161188294Y-142335487D01*
X161199500Y-142386999D01*
X161199500Y-143535500D01*
X161179815Y-143602539D01*
X161127011Y-143648294D01*
X161075501Y-143659500D01*
X160902130Y-143659500D01*
X160902123Y-143659501D01*
X160842516Y-143665908D01*
X160707671Y-143716202D01*
X160707664Y-143716206D01*
X160592455Y-143802452D01*
X160592452Y-143802455D01*
X160506206Y-143917664D01*
X160506203Y-143917669D01*
X160457189Y-144049083D01*
X160415317Y-144105016D01*
X160349853Y-144129433D01*
X160281580Y-144114581D01*
X160253326Y-144093430D01*
X160139786Y-143979890D01*
X159967820Y-143854951D01*
X159778414Y-143758444D01*
X159778413Y-143758443D01*
X159778412Y-143758443D01*
X159576243Y-143692754D01*
X159576241Y-143692753D01*
X159576240Y-143692753D01*
X159414957Y-143667208D01*
X159366287Y-143659500D01*
X159153713Y-143659500D01*
X159105042Y-143667208D01*
X158943760Y-143692753D01*
X158741585Y-143758444D01*
X158552179Y-143854951D01*
X158380213Y-143979890D01*
X158229890Y-144130213D01*
X158104949Y-144302182D01*
X158100484Y-144310946D01*
X158052509Y-144361742D01*
X157984688Y-144378536D01*
X157918553Y-144355998D01*
X157879516Y-144310946D01*
X157875050Y-144302182D01*
X157750109Y-144130213D01*
X157599786Y-143979890D01*
X157427820Y-143854951D01*
X157238414Y-143758444D01*
X157238413Y-143758443D01*
X157238412Y-143758443D01*
X157036243Y-143692754D01*
X157036241Y-143692753D01*
X157036240Y-143692753D01*
X156874957Y-143667208D01*
X156826287Y-143659500D01*
X156613713Y-143659500D01*
X156565042Y-143667208D01*
X156403760Y-143692753D01*
X156201585Y-143758444D01*
X156012179Y-143854951D01*
X155840213Y-143979890D01*
X155689890Y-144130213D01*
X155564949Y-144302182D01*
X155560484Y-144310946D01*
X155512509Y-144361742D01*
X155444688Y-144378536D01*
X155378553Y-144355998D01*
X155339516Y-144310946D01*
X155335050Y-144302182D01*
X155210109Y-144130213D01*
X155059786Y-143979890D01*
X154887820Y-143854951D01*
X154698414Y-143758444D01*
X154698413Y-143758443D01*
X154698412Y-143758443D01*
X154496243Y-143692754D01*
X154496241Y-143692753D01*
X154496240Y-143692753D01*
X154334957Y-143667208D01*
X154286287Y-143659500D01*
X154073713Y-143659500D01*
X154025042Y-143667208D01*
X153863760Y-143692753D01*
X153661585Y-143758444D01*
X153472179Y-143854951D01*
X153300213Y-143979890D01*
X153149890Y-144130213D01*
X153024951Y-144302179D01*
X152928444Y-144491585D01*
X152862753Y-144693760D01*
X152829500Y-144903713D01*
X152829500Y-145116286D01*
X152857909Y-145295658D01*
X152862754Y-145326243D01*
X152886205Y-145398418D01*
X152928444Y-145528414D01*
X153024951Y-145717820D01*
X153149890Y-145889786D01*
X153300213Y-146040109D01*
X153472179Y-146165048D01*
X153472181Y-146165049D01*
X153472184Y-146165051D01*
X153661588Y-146261557D01*
X153863757Y-146327246D01*
X154073713Y-146360500D01*
X154073714Y-146360500D01*
X154286286Y-146360500D01*
X154286287Y-146360500D01*
X154496243Y-146327246D01*
X154698412Y-146261557D01*
X154887816Y-146165051D01*
X154974138Y-146102335D01*
X155059786Y-146040109D01*
X155059788Y-146040106D01*
X155059792Y-146040104D01*
X155210104Y-145889792D01*
X155210106Y-145889788D01*
X155210109Y-145889786D01*
X155335048Y-145717820D01*
X155335047Y-145717820D01*
X155335051Y-145717816D01*
X155339514Y-145709054D01*
X155387488Y-145658259D01*
X155455308Y-145641463D01*
X155521444Y-145663999D01*
X155560484Y-145709054D01*
X155562080Y-145712185D01*
X155564951Y-145717820D01*
X155689890Y-145889786D01*
X155840213Y-146040109D01*
X156012179Y-146165048D01*
X156012181Y-146165049D01*
X156012184Y-146165051D01*
X156201588Y-146261557D01*
X156403757Y-146327246D01*
X156613713Y-146360500D01*
X156613714Y-146360500D01*
X156826286Y-146360500D01*
X156826287Y-146360500D01*
X157036243Y-146327246D01*
X157238412Y-146261557D01*
X157427816Y-146165051D01*
X157514138Y-146102335D01*
X157599786Y-146040109D01*
X157599788Y-146040106D01*
X157599792Y-146040104D01*
X157750104Y-145889792D01*
X157750106Y-145889788D01*
X157750109Y-145889786D01*
X157875048Y-145717820D01*
X157875047Y-145717820D01*
X157875051Y-145717816D01*
X157879514Y-145709054D01*
X157927488Y-145658259D01*
X157995308Y-145641463D01*
X158061444Y-145663999D01*
X158100484Y-145709054D01*
X158102080Y-145712185D01*
X158104951Y-145717820D01*
X158229890Y-145889786D01*
X158380213Y-146040109D01*
X158552179Y-146165048D01*
X158552181Y-146165049D01*
X158552184Y-146165051D01*
X158741588Y-146261557D01*
X158943757Y-146327246D01*
X159153713Y-146360500D01*
X159153714Y-146360500D01*
X159366286Y-146360500D01*
X159366287Y-146360500D01*
X159576243Y-146327246D01*
X159778412Y-146261557D01*
X159967816Y-146165051D01*
X160139792Y-146040104D01*
X160253329Y-145926566D01*
X160314648Y-145893084D01*
X160384340Y-145898068D01*
X160440274Y-145939939D01*
X160457189Y-145970917D01*
X160506202Y-146102328D01*
X160506206Y-146102335D01*
X160592452Y-146217544D01*
X160592455Y-146217547D01*
X160707664Y-146303793D01*
X160707671Y-146303797D01*
X160842517Y-146354091D01*
X160842516Y-146354091D01*
X160849444Y-146354835D01*
X160902127Y-146360500D01*
X162231595Y-146360499D01*
X162298634Y-146380184D01*
X162344389Y-146432987D01*
X162354333Y-146502146D01*
X162325308Y-146565702D01*
X162300487Y-146587600D01*
X162239713Y-146628208D01*
X162239707Y-146628213D01*
X162128213Y-146739707D01*
X162128210Y-146739711D01*
X162040609Y-146870814D01*
X162040602Y-146870827D01*
X161980264Y-147016498D01*
X161980261Y-147016510D01*
X161949500Y-147171153D01*
X161949500Y-147328846D01*
X161980261Y-147483489D01*
X161980264Y-147483501D01*
X162040602Y-147629172D01*
X162040609Y-147629185D01*
X162128210Y-147760288D01*
X162128213Y-147760292D01*
X162239707Y-147871786D01*
X162239711Y-147871789D01*
X162370814Y-147959390D01*
X162370827Y-147959397D01*
X162479425Y-148004379D01*
X162516503Y-148019737D01*
X162622318Y-148040785D01*
X162671153Y-148050499D01*
X162671156Y-148050500D01*
X162671158Y-148050500D01*
X162828844Y-148050500D01*
X162828845Y-148050499D01*
X162983497Y-148019737D01*
X163078048Y-147980572D01*
X163147517Y-147973104D01*
X163209996Y-148004379D01*
X163245648Y-148064468D01*
X163249500Y-148095134D01*
X163249500Y-155125500D01*
X163229815Y-155192539D01*
X163177011Y-155238294D01*
X163125500Y-155249500D01*
X130374500Y-155249500D01*
X130307461Y-155229815D01*
X130261706Y-155177011D01*
X130250500Y-155125500D01*
X130250500Y-134219000D01*
X130270185Y-134151961D01*
X130322989Y-134106206D01*
X130374500Y-134095000D01*
X131939302Y-134095000D01*
X132006341Y-134114685D01*
X132052096Y-134167489D01*
X132062040Y-134236647D01*
X132033015Y-134300203D01*
X132026983Y-134306681D01*
X131618481Y-134715182D01*
X131618480Y-134715184D01*
X131587133Y-134769480D01*
X131569167Y-134800598D01*
X131569165Y-134800600D01*
X131539425Y-134852109D01*
X131539424Y-134852110D01*
X131539423Y-134852115D01*
X131498499Y-135004843D01*
X131498499Y-135004845D01*
X131498499Y-135172946D01*
X131498500Y-135172959D01*
X131498500Y-148940090D01*
X131498499Y-148940108D01*
X131498499Y-149105814D01*
X131498498Y-149105814D01*
X131539424Y-149258547D01*
X131549640Y-149276241D01*
X131549641Y-149276243D01*
X131618477Y-149395472D01*
X131618481Y-149395477D01*
X131737349Y-149514345D01*
X131737355Y-149514350D01*
X132648873Y-150425868D01*
X132682358Y-150487191D01*
X132677374Y-150556883D01*
X132648875Y-150601228D01*
X132629890Y-150620213D01*
X132504951Y-150792179D01*
X132408444Y-150981585D01*
X132342753Y-151183760D01*
X132309500Y-151393713D01*
X132309500Y-151606286D01*
X132342753Y-151816239D01*
X132408444Y-152018414D01*
X132504951Y-152207820D01*
X132629890Y-152379786D01*
X132780213Y-152530109D01*
X132952179Y-152655048D01*
X132952181Y-152655049D01*
X132952184Y-152655051D01*
X133141588Y-152751557D01*
X133343757Y-152817246D01*
X133553713Y-152850500D01*
X133553714Y-152850500D01*
X133766286Y-152850500D01*
X133766287Y-152850500D01*
X133976243Y-152817246D01*
X134178412Y-152751557D01*
X134367816Y-152655051D01*
X134389789Y-152639086D01*
X134539786Y-152530109D01*
X134539788Y-152530106D01*
X134539792Y-152530104D01*
X134690104Y-152379792D01*
X134690106Y-152379788D01*
X134690109Y-152379786D01*
X134815048Y-152207820D01*
X134815047Y-152207820D01*
X134815051Y-152207816D01*
X134911557Y-152018412D01*
X134977246Y-151816243D01*
X135010500Y-151606287D01*
X135010500Y-151393713D01*
X134977246Y-151183757D01*
X134911557Y-150981588D01*
X134865804Y-150891794D01*
X134852909Y-150823126D01*
X134879185Y-150758385D01*
X134936291Y-150718128D01*
X134976290Y-150711500D01*
X136933710Y-150711500D01*
X137000749Y-150731185D01*
X137046504Y-150783989D01*
X137056448Y-150853147D01*
X137044195Y-150891795D01*
X136998444Y-150981585D01*
X136932753Y-151183760D01*
X136899500Y-151393713D01*
X136899500Y-151606286D01*
X136932753Y-151816239D01*
X136998444Y-152018414D01*
X137094951Y-152207820D01*
X137219890Y-152379786D01*
X137370213Y-152530109D01*
X137542179Y-152655048D01*
X137542181Y-152655049D01*
X137542184Y-152655051D01*
X137731588Y-152751557D01*
X137933757Y-152817246D01*
X138143713Y-152850500D01*
X138143714Y-152850500D01*
X138356286Y-152850500D01*
X138356287Y-152850500D01*
X138566243Y-152817246D01*
X138768412Y-152751557D01*
X138957816Y-152655051D01*
X138979789Y-152639086D01*
X139129786Y-152530109D01*
X139129788Y-152530106D01*
X139129792Y-152530104D01*
X139280104Y-152379792D01*
X139280106Y-152379788D01*
X139280109Y-152379786D01*
X139405048Y-152207820D01*
X139405047Y-152207820D01*
X139405051Y-152207816D01*
X139501557Y-152018412D01*
X139567246Y-151816243D01*
X139600500Y-151606287D01*
X139600500Y-151393713D01*
X139567246Y-151183757D01*
X139501557Y-150981588D01*
X139405051Y-150792184D01*
X139405049Y-150792181D01*
X139405048Y-150792179D01*
X139280109Y-150620213D01*
X139129786Y-150469890D01*
X138957820Y-150344951D01*
X138957115Y-150344591D01*
X138949054Y-150340485D01*
X138898259Y-150292512D01*
X138881463Y-150224692D01*
X138903999Y-150158556D01*
X138949054Y-150119515D01*
X138957816Y-150115051D01*
X138979789Y-150099086D01*
X139129786Y-149990109D01*
X139129788Y-149990106D01*
X139129792Y-149990104D01*
X139280104Y-149839792D01*
X139280106Y-149839788D01*
X139280109Y-149839786D01*
X139405048Y-149667820D01*
X139405047Y-149667820D01*
X139405051Y-149667816D01*
X139501557Y-149478412D01*
X139567246Y-149276243D01*
X139600500Y-149066287D01*
X139600500Y-148853713D01*
X139567246Y-148643757D01*
X139501557Y-148441588D01*
X139405051Y-148252184D01*
X139405049Y-148252181D01*
X139405048Y-148252179D01*
X139280109Y-148080213D01*
X139129786Y-147929890D01*
X138957820Y-147804951D01*
X138957115Y-147804591D01*
X138949054Y-147800485D01*
X138898259Y-147752512D01*
X138881463Y-147684692D01*
X138903999Y-147618556D01*
X138949054Y-147579515D01*
X138957816Y-147575051D01*
X139083825Y-147483501D01*
X139129786Y-147450109D01*
X139129788Y-147450106D01*
X139129792Y-147450104D01*
X139280104Y-147299792D01*
X139280106Y-147299788D01*
X139280109Y-147299786D01*
X139405048Y-147127820D01*
X139405047Y-147127820D01*
X139405051Y-147127816D01*
X139501557Y-146938412D01*
X139567246Y-146736243D01*
X139600500Y-146526287D01*
X139600500Y-146313713D01*
X139567246Y-146103757D01*
X139553506Y-146061473D01*
X139551512Y-145991635D01*
X139583755Y-145935478D01*
X139898320Y-145620914D01*
X139959642Y-145587430D01*
X140029334Y-145592414D01*
X140085267Y-145634286D01*
X140109684Y-145699750D01*
X140110000Y-145708596D01*
X140110000Y-146833830D01*
X140109999Y-146833848D01*
X140109999Y-146999554D01*
X140109998Y-146999554D01*
X140120885Y-147040185D01*
X140150923Y-147152285D01*
X140150924Y-147152286D01*
X140170348Y-147185929D01*
X140170348Y-147185932D01*
X140170350Y-147185932D01*
X140229979Y-147289214D01*
X140229981Y-147289217D01*
X140348849Y-147408085D01*
X140348855Y-147408090D01*
X141416241Y-148475476D01*
X141449726Y-148536799D01*
X141446492Y-148601473D01*
X141432753Y-148643757D01*
X141399500Y-148853713D01*
X141399500Y-149066287D01*
X141432754Y-149276243D01*
X141478250Y-149416266D01*
X141498444Y-149478414D01*
X141594951Y-149667820D01*
X141719890Y-149839786D01*
X141870213Y-149990109D01*
X142042182Y-150115050D01*
X142050946Y-150119516D01*
X142101742Y-150167491D01*
X142118536Y-150235312D01*
X142095998Y-150301447D01*
X142050946Y-150340484D01*
X142042182Y-150344949D01*
X141870213Y-150469890D01*
X141719890Y-150620213D01*
X141594951Y-150792179D01*
X141498444Y-150981585D01*
X141432753Y-151183760D01*
X141399500Y-151393713D01*
X141399500Y-151606286D01*
X141432753Y-151816239D01*
X141498444Y-152018414D01*
X141594951Y-152207820D01*
X141719890Y-152379786D01*
X141870213Y-152530109D01*
X142042179Y-152655048D01*
X142042181Y-152655049D01*
X142042184Y-152655051D01*
X142231588Y-152751557D01*
X142433757Y-152817246D01*
X142643713Y-152850500D01*
X142643714Y-152850500D01*
X142856286Y-152850500D01*
X142856287Y-152850500D01*
X143066243Y-152817246D01*
X143268412Y-152751557D01*
X143457816Y-152655051D01*
X143479789Y-152639086D01*
X143629786Y-152530109D01*
X143629788Y-152530106D01*
X143629792Y-152530104D01*
X143780104Y-152379792D01*
X143780106Y-152379788D01*
X143780109Y-152379786D01*
X143905048Y-152207820D01*
X143905047Y-152207820D01*
X143905051Y-152207816D01*
X144001557Y-152018412D01*
X144067246Y-151816243D01*
X144100500Y-151606287D01*
X144100500Y-151393713D01*
X144067246Y-151183757D01*
X144001557Y-150981588D01*
X143905051Y-150792184D01*
X143905049Y-150792181D01*
X143905048Y-150792179D01*
X143780109Y-150620213D01*
X143629786Y-150469890D01*
X143457820Y-150344951D01*
X143457115Y-150344591D01*
X143449054Y-150340485D01*
X143398259Y-150292512D01*
X143381463Y-150224692D01*
X143403999Y-150158556D01*
X143449054Y-150119515D01*
X143457816Y-150115051D01*
X143479789Y-150099086D01*
X143629786Y-149990109D01*
X143629788Y-149990106D01*
X143629792Y-149990104D01*
X143780104Y-149839792D01*
X143780106Y-149839788D01*
X143780109Y-149839786D01*
X143838661Y-149759193D01*
X143905051Y-149667816D01*
X143905349Y-149667230D01*
X143925235Y-149628205D01*
X143973209Y-149577409D01*
X144035719Y-149560500D01*
X145964281Y-149560500D01*
X146031320Y-149580185D01*
X146074765Y-149628205D01*
X146094947Y-149667814D01*
X146094948Y-149667815D01*
X146219890Y-149839786D01*
X146370213Y-149990109D01*
X146542182Y-150115050D01*
X146550946Y-150119516D01*
X146601742Y-150167491D01*
X146618536Y-150235312D01*
X146595998Y-150301447D01*
X146550946Y-150340484D01*
X146542182Y-150344949D01*
X146370213Y-150469890D01*
X146219890Y-150620213D01*
X146094951Y-150792179D01*
X145998444Y-150981585D01*
X145932753Y-151183760D01*
X145899500Y-151393713D01*
X145899500Y-151606286D01*
X145932753Y-151816239D01*
X145998444Y-152018414D01*
X146094951Y-152207820D01*
X146219890Y-152379786D01*
X146370213Y-152530109D01*
X146542179Y-152655048D01*
X146542181Y-152655049D01*
X146542184Y-152655051D01*
X146731588Y-152751557D01*
X146933757Y-152817246D01*
X147143713Y-152850500D01*
X147143714Y-152850500D01*
X147356286Y-152850500D01*
X147356287Y-152850500D01*
X147566243Y-152817246D01*
X147768412Y-152751557D01*
X147957816Y-152655051D01*
X147979789Y-152639086D01*
X148129786Y-152530109D01*
X148129788Y-152530106D01*
X148129792Y-152530104D01*
X148280104Y-152379792D01*
X148280106Y-152379788D01*
X148280109Y-152379786D01*
X148405048Y-152207820D01*
X148405047Y-152207820D01*
X148405051Y-152207816D01*
X148501557Y-152018412D01*
X148567246Y-151816243D01*
X148600500Y-151606287D01*
X148600500Y-151393713D01*
X148567246Y-151183757D01*
X148501557Y-150981588D01*
X148405051Y-150792184D01*
X148405049Y-150792181D01*
X148405048Y-150792179D01*
X148280109Y-150620213D01*
X148129786Y-150469890D01*
X147957820Y-150344951D01*
X147957115Y-150344591D01*
X147949054Y-150340485D01*
X147898259Y-150292512D01*
X147881463Y-150224692D01*
X147903999Y-150158556D01*
X147949054Y-150119515D01*
X147957816Y-150115051D01*
X147979789Y-150099086D01*
X148129786Y-149990109D01*
X148129788Y-149990106D01*
X148129792Y-149990104D01*
X148280104Y-149839792D01*
X148280106Y-149839788D01*
X148280109Y-149839786D01*
X148405048Y-149667820D01*
X148405047Y-149667820D01*
X148405051Y-149667816D01*
X148501557Y-149478412D01*
X148567246Y-149276243D01*
X148600500Y-149066287D01*
X148600500Y-148853713D01*
X148567246Y-148643757D01*
X148553506Y-148601473D01*
X148553072Y-148586262D01*
X148547754Y-148572003D01*
X148552095Y-148552047D01*
X148551512Y-148531635D01*
X148559599Y-148517548D01*
X148562606Y-148503730D01*
X148583754Y-148475479D01*
X148759506Y-148299728D01*
X148759511Y-148299724D01*
X148769714Y-148289520D01*
X148769716Y-148289520D01*
X148881520Y-148177716D01*
X148954968Y-148050500D01*
X148960577Y-148040785D01*
X149001501Y-147888057D01*
X149001501Y-147729942D01*
X149001501Y-147722347D01*
X149001500Y-147722329D01*
X149001500Y-141549986D01*
X150775001Y-141549986D01*
X150785494Y-141652697D01*
X150840641Y-141819119D01*
X150840643Y-141819124D01*
X150932684Y-141968345D01*
X151056654Y-142092315D01*
X151205875Y-142184356D01*
X151205880Y-142184358D01*
X151372302Y-142239505D01*
X151372309Y-142239506D01*
X151475019Y-142249999D01*
X151749999Y-142249999D01*
X151750000Y-142249998D01*
X151750000Y-141500000D01*
X152250000Y-141500000D01*
X152250000Y-142249999D01*
X152524972Y-142249999D01*
X152524986Y-142249998D01*
X152627697Y-142239505D01*
X152794119Y-142184358D01*
X152794124Y-142184356D01*
X152943345Y-142092315D01*
X153067317Y-141968343D01*
X153136627Y-141855974D01*
X153188575Y-141809249D01*
X153257537Y-141798026D01*
X153305287Y-141814338D01*
X153452303Y-141901282D01*
X153452306Y-141901283D01*
X153610004Y-141947099D01*
X153610010Y-141947100D01*
X153646850Y-141949999D01*
X153646866Y-141950000D01*
X153975000Y-141950000D01*
X153975000Y-141400000D01*
X153355000Y-141400000D01*
X153345023Y-141409976D01*
X153335315Y-141443039D01*
X153282511Y-141488794D01*
X153231000Y-141500000D01*
X152250000Y-141500000D01*
X151750000Y-141500000D01*
X150775001Y-141500000D01*
X150775001Y-141549986D01*
X149001500Y-141549986D01*
X149001500Y-140573730D01*
X149021185Y-140506691D01*
X149037819Y-140486049D01*
X149063660Y-140460208D01*
X149105212Y-140418656D01*
X149197314Y-140269334D01*
X149252499Y-140102797D01*
X149263000Y-140000009D01*
X149262999Y-138999992D01*
X149252499Y-138897203D01*
X149197314Y-138730666D01*
X149105212Y-138581344D01*
X148981156Y-138457288D01*
X148875817Y-138392315D01*
X148831836Y-138365187D01*
X148831831Y-138365185D01*
X148816184Y-138360000D01*
X148665297Y-138310001D01*
X148665295Y-138310000D01*
X148562510Y-138299500D01*
X147937498Y-138299500D01*
X147937480Y-138299501D01*
X147834703Y-138310000D01*
X147834700Y-138310001D01*
X147668168Y-138365185D01*
X147668163Y-138365187D01*
X147518845Y-138457287D01*
X147424827Y-138551305D01*
X147363503Y-138584789D01*
X147293812Y-138579805D01*
X147249465Y-138551304D01*
X147155845Y-138457684D01*
X147006624Y-138365643D01*
X147006619Y-138365641D01*
X146840197Y-138310494D01*
X146840190Y-138310493D01*
X146737486Y-138300000D01*
X146675000Y-138300000D01*
X146675000Y-140699999D01*
X146737472Y-140699999D01*
X146737486Y-140699998D01*
X146840197Y-140689505D01*
X147006619Y-140634358D01*
X147006624Y-140634356D01*
X147155842Y-140542317D01*
X147249464Y-140448695D01*
X147310787Y-140415210D01*
X147380479Y-140420194D01*
X147424827Y-140448695D01*
X147518844Y-140542712D01*
X147668166Y-140634814D01*
X147715503Y-140650500D01*
X147772948Y-140690270D01*
X147799772Y-140754786D01*
X147800500Y-140768205D01*
X147800500Y-142405500D01*
X147780815Y-142472539D01*
X147728011Y-142518294D01*
X147676500Y-142529500D01*
X146352129Y-142529500D01*
X146352123Y-142529501D01*
X146292516Y-142535908D01*
X146157671Y-142586202D01*
X146157664Y-142586206D01*
X146042455Y-142672452D01*
X146042452Y-142672455D01*
X145956206Y-142787664D01*
X145956202Y-142787671D01*
X145905908Y-142922517D01*
X145899501Y-142982116D01*
X145899501Y-142982123D01*
X145899500Y-142982135D01*
X145899500Y-143155500D01*
X145879815Y-143222539D01*
X145827011Y-143268294D01*
X145775500Y-143279500D01*
X144224499Y-143279500D01*
X144157460Y-143259815D01*
X144111705Y-143207011D01*
X144100499Y-143155500D01*
X144100499Y-142982129D01*
X144100498Y-142982123D01*
X144100497Y-142982116D01*
X144094091Y-142922517D01*
X144043796Y-142787669D01*
X144043795Y-142787668D01*
X144043793Y-142787664D01*
X143957547Y-142672455D01*
X143957544Y-142672452D01*
X143842335Y-142586206D01*
X143842328Y-142586202D01*
X143707482Y-142535908D01*
X143707483Y-142535908D01*
X143647883Y-142529501D01*
X143647881Y-142529500D01*
X143647873Y-142529500D01*
X143647865Y-142529500D01*
X142323500Y-142529500D01*
X142256461Y-142509815D01*
X142210706Y-142457011D01*
X142199500Y-142405500D01*
X142199500Y-141951096D01*
X142219185Y-141884057D01*
X142235814Y-141863419D01*
X143362417Y-140736816D01*
X143423738Y-140703333D01*
X143450086Y-140700499D01*
X144062508Y-140700499D01*
X144062516Y-140700498D01*
X144062519Y-140700498D01*
X144118802Y-140694748D01*
X144165297Y-140689999D01*
X144331834Y-140634814D01*
X144481156Y-140542712D01*
X144605212Y-140418656D01*
X144697314Y-140269334D01*
X144752499Y-140102797D01*
X144763000Y-140000009D01*
X144763000Y-139999986D01*
X145412501Y-139999986D01*
X145422994Y-140102697D01*
X145478141Y-140269119D01*
X145478143Y-140269124D01*
X145570184Y-140418345D01*
X145694154Y-140542315D01*
X145843375Y-140634356D01*
X145843380Y-140634358D01*
X146009802Y-140689505D01*
X146009809Y-140689506D01*
X146112519Y-140699999D01*
X146174999Y-140699998D01*
X146175000Y-140699998D01*
X146175000Y-139750000D01*
X145412501Y-139750000D01*
X145412501Y-139999986D01*
X144763000Y-139999986D01*
X144762999Y-139500000D01*
X144762999Y-139000013D01*
X145412500Y-139000013D01*
X145412500Y-139250000D01*
X146175000Y-139250000D01*
X146175000Y-138300000D01*
X146174999Y-138299999D01*
X146112528Y-138300000D01*
X146112511Y-138300001D01*
X146009802Y-138310494D01*
X145843380Y-138365641D01*
X145843375Y-138365643D01*
X145694154Y-138457684D01*
X145570184Y-138581654D01*
X145478143Y-138730875D01*
X145478141Y-138730880D01*
X145422994Y-138897302D01*
X145422993Y-138897309D01*
X145412500Y-139000013D01*
X144762999Y-139000013D01*
X144762999Y-138999998D01*
X144762998Y-138999980D01*
X144752499Y-138897203D01*
X144752498Y-138897200D01*
X144713881Y-138780663D01*
X144697314Y-138730666D01*
X144605212Y-138581344D01*
X144481156Y-138457288D01*
X144375817Y-138392315D01*
X144331836Y-138365187D01*
X144331831Y-138365185D01*
X144316184Y-138360000D01*
X144165297Y-138310001D01*
X144165295Y-138310000D01*
X144062510Y-138299500D01*
X143437498Y-138299500D01*
X143437480Y-138299501D01*
X143334703Y-138310000D01*
X143334700Y-138310001D01*
X143168168Y-138365185D01*
X143168163Y-138365187D01*
X143018845Y-138457287D01*
X142924827Y-138551305D01*
X142863503Y-138584789D01*
X142793812Y-138579805D01*
X142749465Y-138551304D01*
X142655845Y-138457684D01*
X142506624Y-138365643D01*
X142506619Y-138365641D01*
X142340197Y-138310494D01*
X142340190Y-138310493D01*
X142237486Y-138300000D01*
X142175000Y-138300000D01*
X142175000Y-139376000D01*
X142172449Y-139384685D01*
X142173738Y-139393647D01*
X142162759Y-139417687D01*
X142155315Y-139443039D01*
X142148474Y-139448966D01*
X142144713Y-139457203D01*
X142122478Y-139471492D01*
X142102511Y-139488794D01*
X142091996Y-139491081D01*
X142085935Y-139494977D01*
X142051000Y-139500000D01*
X141836000Y-139500000D01*
X141768961Y-139480315D01*
X141723206Y-139427511D01*
X141712000Y-139376000D01*
X141712000Y-130024986D01*
X154050001Y-130024986D01*
X154060494Y-130127697D01*
X154115641Y-130294119D01*
X154115643Y-130294124D01*
X154207684Y-130443345D01*
X154331654Y-130567315D01*
X154480875Y-130659356D01*
X154480880Y-130659358D01*
X154647302Y-130714505D01*
X154647309Y-130714506D01*
X154750019Y-130724999D01*
X154799999Y-130724998D01*
X154800000Y-130724998D01*
X154800000Y-129750000D01*
X154050001Y-129750000D01*
X154050001Y-130024986D01*
X141712000Y-130024986D01*
X141712000Y-128975013D01*
X154050000Y-128975013D01*
X154050000Y-129250000D01*
X154800000Y-129250000D01*
X154800000Y-128275000D01*
X154799999Y-128274999D01*
X154750029Y-128275000D01*
X154750011Y-128275001D01*
X154647302Y-128285494D01*
X154480880Y-128340641D01*
X154480875Y-128340643D01*
X154331654Y-128432684D01*
X154207684Y-128556654D01*
X154115643Y-128705875D01*
X154115641Y-128705880D01*
X154060494Y-128872302D01*
X154060493Y-128872309D01*
X154050000Y-128975013D01*
X141712000Y-128975013D01*
X141712000Y-126524986D01*
X154050001Y-126524986D01*
X154060494Y-126627697D01*
X154115641Y-126794119D01*
X154115643Y-126794124D01*
X154207684Y-126943345D01*
X154331654Y-127067315D01*
X154480875Y-127159356D01*
X154480880Y-127159358D01*
X154647302Y-127214505D01*
X154647309Y-127214506D01*
X154750019Y-127224999D01*
X154799999Y-127224998D01*
X154800000Y-127224998D01*
X154800000Y-126250000D01*
X154050001Y-126250000D01*
X154050001Y-126524986D01*
X141712000Y-126524986D01*
X141712000Y-125938597D01*
X141731685Y-125871558D01*
X141748319Y-125850916D01*
X142124222Y-125475013D01*
X154050000Y-125475013D01*
X154050000Y-125750000D01*
X154800000Y-125750000D01*
X154800000Y-124775000D01*
X154799999Y-124774999D01*
X154750029Y-124775000D01*
X154750011Y-124775001D01*
X154647302Y-124785494D01*
X154480880Y-124840641D01*
X154480875Y-124840643D01*
X154331654Y-124932684D01*
X154207684Y-125056654D01*
X154115643Y-125205875D01*
X154115641Y-125205880D01*
X154060494Y-125372302D01*
X154060493Y-125372309D01*
X154050000Y-125475013D01*
X142124222Y-125475013D01*
X144230519Y-123368716D01*
X144230759Y-123368476D01*
X144272179Y-123327055D01*
X144333500Y-123293570D01*
X144384052Y-123293119D01*
X144386320Y-123293570D01*
X144421157Y-123300500D01*
X144421158Y-123300500D01*
X144578844Y-123300500D01*
X144578845Y-123300499D01*
X144733497Y-123269737D01*
X144879179Y-123209394D01*
X145010289Y-123121789D01*
X145121789Y-123010289D01*
X145209394Y-122879179D01*
X145210276Y-122877051D01*
X145241984Y-122800499D01*
X145269737Y-122733497D01*
X145300500Y-122578842D01*
X145300500Y-122421158D01*
X145300500Y-122421155D01*
X145300499Y-122421153D01*
X145292148Y-122379172D01*
X145269737Y-122266503D01*
X145256062Y-122233489D01*
X145209397Y-122120827D01*
X145209390Y-122120814D01*
X145121789Y-121989711D01*
X145121786Y-121989707D01*
X145010292Y-121878213D01*
X145010288Y-121878210D01*
X144879185Y-121790609D01*
X144879172Y-121790602D01*
X144733501Y-121730264D01*
X144733491Y-121730261D01*
X144636463Y-121710961D01*
X144574552Y-121678576D01*
X144539978Y-121617860D01*
X144539038Y-121613535D01*
X144519738Y-121516510D01*
X144519737Y-121516503D01*
X144513425Y-121501264D01*
X144459397Y-121370827D01*
X144459390Y-121370814D01*
X144371789Y-121239711D01*
X144371786Y-121239707D01*
X144260292Y-121128213D01*
X144260288Y-121128210D01*
X144129185Y-121040609D01*
X144129172Y-121040602D01*
X143983501Y-120980264D01*
X143983489Y-120980261D01*
X143828845Y-120949500D01*
X143828842Y-120949500D01*
X143671158Y-120949500D01*
X143671153Y-120949500D01*
X143548063Y-120973984D01*
X143478471Y-120967757D01*
X143423294Y-120924893D01*
X143400050Y-120859004D01*
X143404096Y-120820278D01*
X143420501Y-120759057D01*
X143420501Y-120600943D01*
X143420501Y-120593348D01*
X143420500Y-120593330D01*
X143420500Y-120215093D01*
X143440185Y-120148054D01*
X143492989Y-120102299D01*
X143557754Y-120091804D01*
X143592127Y-120095500D01*
X144587872Y-120095499D01*
X144647483Y-120089091D01*
X144681667Y-120076340D01*
X144751358Y-120071357D01*
X144768335Y-120076342D01*
G37*
%TD.AperFunction*%
%TA.AperFunction,Conductor*%
G36*
X139598834Y-116852914D02*
G01*
X139654767Y-116894786D01*
X139679184Y-116960250D01*
X139679500Y-116969096D01*
X139679500Y-117475410D01*
X139659815Y-117542449D01*
X139607011Y-117588204D01*
X139542246Y-117598700D01*
X139507830Y-117595000D01*
X139260000Y-117595000D01*
X139260000Y-120095000D01*
X139506402Y-120095000D01*
X139573441Y-120114685D01*
X139619196Y-120167489D01*
X139629140Y-120236647D01*
X139600115Y-120300203D01*
X139594083Y-120306681D01*
X138735339Y-121165425D01*
X138674016Y-121198910D01*
X138671850Y-121199361D01*
X138516508Y-121230261D01*
X138516498Y-121230264D01*
X138370827Y-121290602D01*
X138370814Y-121290609D01*
X138239711Y-121378210D01*
X138239707Y-121378213D01*
X138128213Y-121489707D01*
X138128210Y-121489711D01*
X138040609Y-121620814D01*
X138040602Y-121620827D01*
X137980264Y-121766498D01*
X137980261Y-121766510D01*
X137949500Y-121921153D01*
X137949500Y-122078846D01*
X137980261Y-122233489D01*
X137980264Y-122233501D01*
X138040602Y-122379172D01*
X138040609Y-122379185D01*
X138128210Y-122510288D01*
X138128213Y-122510292D01*
X138239707Y-122621786D01*
X138239711Y-122621789D01*
X138370814Y-122709390D01*
X138370827Y-122709397D01*
X138516498Y-122769735D01*
X138516503Y-122769737D01*
X138671153Y-122800499D01*
X138671156Y-122800500D01*
X138671158Y-122800500D01*
X138675162Y-122800500D01*
X138677183Y-122801093D01*
X138677218Y-122801097D01*
X138677217Y-122801103D01*
X138742201Y-122820185D01*
X138787956Y-122872989D01*
X138789715Y-122877029D01*
X138790606Y-122879179D01*
X138790607Y-122879180D01*
X138790609Y-122879185D01*
X138878210Y-123010288D01*
X138878213Y-123010292D01*
X138989708Y-123121787D01*
X138989711Y-123121789D01*
X139037482Y-123153709D01*
X139050991Y-123169872D01*
X139067857Y-123182498D01*
X139072947Y-123196144D01*
X139082286Y-123207319D01*
X139084911Y-123228220D01*
X139092275Y-123247961D01*
X139089179Y-123262192D01*
X139090995Y-123276644D01*
X139081901Y-123295651D01*
X139077424Y-123316235D01*
X139062541Y-123336115D01*
X139060841Y-123339671D01*
X139056274Y-123344489D01*
X139032288Y-123368476D01*
X139032286Y-123368478D01*
X138920481Y-123480282D01*
X138920477Y-123480287D01*
X138875538Y-123558126D01*
X138875538Y-123558127D01*
X138841423Y-123617214D01*
X138841423Y-123617215D01*
X138800499Y-123769943D01*
X138800499Y-123769945D01*
X138800499Y-123938046D01*
X138800500Y-123938059D01*
X138800500Y-137325500D01*
X138780815Y-137392539D01*
X138728011Y-137438294D01*
X138676500Y-137449500D01*
X137352129Y-137449500D01*
X137352123Y-137449501D01*
X137292516Y-137455908D01*
X137157671Y-137506202D01*
X137157664Y-137506206D01*
X137042455Y-137592452D01*
X137042452Y-137592455D01*
X136956206Y-137707664D01*
X136956202Y-137707671D01*
X136905908Y-137842517D01*
X136899501Y-137902116D01*
X136899501Y-137902123D01*
X136899500Y-137902135D01*
X136899500Y-138075500D01*
X136879815Y-138142539D01*
X136827011Y-138188294D01*
X136775500Y-138199500D01*
X135134499Y-138199500D01*
X135067460Y-138179815D01*
X135021705Y-138127011D01*
X135010499Y-138075500D01*
X135010499Y-137902129D01*
X135010498Y-137902123D01*
X135010497Y-137902116D01*
X135004091Y-137842517D01*
X135000088Y-137831785D01*
X134953797Y-137707671D01*
X134953793Y-137707664D01*
X134867547Y-137592455D01*
X134867544Y-137592452D01*
X134752335Y-137506206D01*
X134752328Y-137506202D01*
X134617482Y-137455908D01*
X134617483Y-137455908D01*
X134557883Y-137449501D01*
X134557881Y-137449500D01*
X134557873Y-137449500D01*
X134557865Y-137449500D01*
X133224500Y-137449500D01*
X133157461Y-137429815D01*
X133111706Y-137377011D01*
X133100500Y-137325500D01*
X133100500Y-135974500D01*
X133120185Y-135907461D01*
X133172989Y-135861706D01*
X133224500Y-135850500D01*
X136163331Y-135850500D01*
X136163347Y-135850501D01*
X136170943Y-135850501D01*
X136329054Y-135850501D01*
X136329057Y-135850501D01*
X136481785Y-135809577D01*
X136531904Y-135780639D01*
X136618716Y-135730520D01*
X136730520Y-135618716D01*
X136730520Y-135618714D01*
X136740728Y-135608507D01*
X136740730Y-135608504D01*
X137347506Y-135001728D01*
X137347511Y-135001724D01*
X137357714Y-134991520D01*
X137357716Y-134991520D01*
X137469520Y-134879716D01*
X137533164Y-134769480D01*
X137548577Y-134742785D01*
X137589501Y-134590057D01*
X137589501Y-134431943D01*
X137589501Y-134424348D01*
X137589500Y-134424330D01*
X137589500Y-120219499D01*
X137609185Y-120152460D01*
X137661989Y-120106705D01*
X137713500Y-120095499D01*
X138237871Y-120095499D01*
X138237872Y-120095499D01*
X138297483Y-120089091D01*
X138332381Y-120076074D01*
X138402069Y-120071089D01*
X138419050Y-120076075D01*
X138452623Y-120088598D01*
X138512155Y-120094999D01*
X138512172Y-120095000D01*
X138760000Y-120095000D01*
X138760000Y-117640596D01*
X138779685Y-117573557D01*
X138796319Y-117552915D01*
X139467819Y-116881415D01*
X139529142Y-116847930D01*
X139598834Y-116852914D01*
G37*
%TD.AperFunction*%
%TA.AperFunction,Conductor*%
G36*
X163192539Y-81270185D02*
G01*
X163238294Y-81322989D01*
X163249500Y-81374500D01*
X163249500Y-122600902D01*
X163229815Y-122667941D01*
X163177011Y-122713696D01*
X163107853Y-122723640D01*
X163044297Y-122694615D01*
X163037819Y-122688583D01*
X161886818Y-121537582D01*
X161853333Y-121476259D01*
X161850499Y-121449901D01*
X161850499Y-120550097D01*
X161859144Y-120520653D01*
X161865667Y-120490671D01*
X161869421Y-120485655D01*
X161870184Y-120483058D01*
X161886812Y-120462421D01*
X162009509Y-120339724D01*
X162009514Y-120339721D01*
X162019714Y-120329520D01*
X162019716Y-120329520D01*
X162131520Y-120217716D01*
X162198255Y-120102127D01*
X162210577Y-120080785D01*
X162251501Y-119928057D01*
X162251501Y-119769942D01*
X162251501Y-119762347D01*
X162251500Y-119762329D01*
X162251500Y-110200060D01*
X162251501Y-110200047D01*
X162251501Y-110031945D01*
X162251501Y-110031943D01*
X162210577Y-109879215D01*
X162170763Y-109810256D01*
X162170763Y-109810254D01*
X162131524Y-109742290D01*
X162131521Y-109742286D01*
X162131520Y-109742284D01*
X162019716Y-109630480D01*
X162019715Y-109630479D01*
X162015385Y-109626149D01*
X162015374Y-109626139D01*
X161833757Y-109444522D01*
X161800272Y-109383199D01*
X161803507Y-109318523D01*
X161817246Y-109276243D01*
X161850500Y-109066287D01*
X161850500Y-108853713D01*
X161817246Y-108643757D01*
X161803506Y-108601473D01*
X161803072Y-108586262D01*
X161797754Y-108572003D01*
X161802095Y-108552047D01*
X161801512Y-108531635D01*
X161809599Y-108517548D01*
X161812606Y-108503730D01*
X161833754Y-108475479D01*
X162009506Y-108299728D01*
X162009511Y-108299724D01*
X162019714Y-108289520D01*
X162019716Y-108289520D01*
X162131520Y-108177716D01*
X162187816Y-108080208D01*
X162191765Y-108073369D01*
X162191766Y-108073366D01*
X162210576Y-108040787D01*
X162210577Y-108040785D01*
X162251501Y-107888057D01*
X162251501Y-107729942D01*
X162251501Y-107722347D01*
X162251500Y-107722329D01*
X162251500Y-100280060D01*
X162251501Y-100280047D01*
X162251501Y-100111945D01*
X162251501Y-100111943D01*
X162210577Y-99959215D01*
X162170282Y-99889423D01*
X162170282Y-99889421D01*
X162131524Y-99822290D01*
X162131521Y-99822286D01*
X162131520Y-99822284D01*
X162019716Y-99710480D01*
X162019715Y-99710479D01*
X162015385Y-99706149D01*
X162015374Y-99706139D01*
X161833757Y-99524522D01*
X161800272Y-99463199D01*
X161803507Y-99398523D01*
X161817246Y-99356243D01*
X161850500Y-99146287D01*
X161850500Y-98933713D01*
X161817246Y-98723757D01*
X161751557Y-98521588D01*
X161655051Y-98332184D01*
X161655049Y-98332181D01*
X161655048Y-98332179D01*
X161530109Y-98160213D01*
X161416569Y-98046673D01*
X161383084Y-97985350D01*
X161388068Y-97915658D01*
X161429940Y-97859725D01*
X161460915Y-97842810D01*
X161592331Y-97793796D01*
X161707546Y-97707546D01*
X161793796Y-97592331D01*
X161844091Y-97457483D01*
X161850500Y-97397873D01*
X161850499Y-95602128D01*
X161844091Y-95542517D01*
X161832490Y-95511414D01*
X161793797Y-95407671D01*
X161793793Y-95407664D01*
X161707547Y-95292455D01*
X161707544Y-95292452D01*
X161592335Y-95206206D01*
X161592328Y-95206202D01*
X161457482Y-95155908D01*
X161457483Y-95155908D01*
X161397883Y-95149501D01*
X161397881Y-95149500D01*
X161397873Y-95149500D01*
X161397864Y-95149500D01*
X159602129Y-95149500D01*
X159602123Y-95149501D01*
X159542516Y-95155908D01*
X159407671Y-95206202D01*
X159407664Y-95206206D01*
X159292455Y-95292452D01*
X159292452Y-95292455D01*
X159206206Y-95407664D01*
X159206202Y-95407671D01*
X159155908Y-95542517D01*
X159150029Y-95597203D01*
X159149501Y-95602123D01*
X159149500Y-95602135D01*
X159149500Y-96949902D01*
X159129815Y-97016941D01*
X159113181Y-97037583D01*
X156070481Y-100080282D01*
X156070475Y-100080290D01*
X156029535Y-100151202D01*
X156029535Y-100151204D01*
X155991423Y-100217214D01*
X155983310Y-100247491D01*
X155950499Y-100369943D01*
X155950499Y-100369945D01*
X155950499Y-100538046D01*
X155950500Y-100538059D01*
X155950500Y-102035500D01*
X155930815Y-102102539D01*
X155878011Y-102148294D01*
X155826500Y-102159500D01*
X155324500Y-102159500D01*
X155257461Y-102139815D01*
X155211706Y-102087011D01*
X155200500Y-102035500D01*
X155200499Y-100547129D01*
X155200498Y-100547123D01*
X155200497Y-100547116D01*
X155194091Y-100487517D01*
X155169089Y-100420484D01*
X155143797Y-100352671D01*
X155143793Y-100352664D01*
X155057547Y-100237455D01*
X155057544Y-100237452D01*
X154942335Y-100151206D01*
X154942328Y-100151202D01*
X154807482Y-100100908D01*
X154807483Y-100100908D01*
X154747883Y-100094501D01*
X154747881Y-100094500D01*
X154747873Y-100094500D01*
X154747865Y-100094500D01*
X154414258Y-100094500D01*
X154347219Y-100074815D01*
X154326577Y-100058181D01*
X153656750Y-99388355D01*
X153656748Y-99388352D01*
X153537877Y-99269481D01*
X153537876Y-99269480D01*
X153451064Y-99219360D01*
X153400945Y-99190423D01*
X153272938Y-99156123D01*
X153267750Y-99154224D01*
X153243926Y-99136615D01*
X153218619Y-99121190D01*
X153216133Y-99116074D01*
X153211562Y-99112695D01*
X153201038Y-99084998D01*
X153188090Y-99058343D01*
X153188564Y-99052169D01*
X153186745Y-99047381D01*
X153190183Y-99031096D01*
X153192667Y-98998775D01*
X153224505Y-98902694D01*
X153224506Y-98902690D01*
X153234999Y-98799986D01*
X153235000Y-98799973D01*
X153235000Y-98750000D01*
X150785001Y-98750000D01*
X150785001Y-98799986D01*
X150795493Y-98902695D01*
X150823263Y-98986495D01*
X150825665Y-99056324D01*
X150789934Y-99116366D01*
X150727413Y-99147559D01*
X150705557Y-99149500D01*
X150304443Y-99149500D01*
X150237404Y-99129815D01*
X150191649Y-99077011D01*
X150181705Y-99007853D01*
X150186737Y-98986496D01*
X150214505Y-98902697D01*
X150214506Y-98902690D01*
X150224999Y-98799986D01*
X150225000Y-98799973D01*
X150225000Y-98750000D01*
X147775001Y-98750000D01*
X147775001Y-98799986D01*
X147785493Y-98902695D01*
X147813263Y-98986495D01*
X147815665Y-99056324D01*
X147779934Y-99116366D01*
X147717413Y-99147559D01*
X147695557Y-99149500D01*
X147294443Y-99149500D01*
X147227404Y-99129815D01*
X147181649Y-99077011D01*
X147171705Y-99007853D01*
X147176737Y-98986496D01*
X147204505Y-98902697D01*
X147204506Y-98902690D01*
X147214999Y-98799986D01*
X147215000Y-98799973D01*
X147215000Y-98750000D01*
X144750598Y-98750000D01*
X144683559Y-98730315D01*
X144662917Y-98713681D01*
X143036818Y-97087582D01*
X143003333Y-97026259D01*
X143000499Y-96999901D01*
X143000499Y-95699998D01*
X143000498Y-95699981D01*
X142989999Y-95597203D01*
X142989998Y-95597200D01*
X142961571Y-95511414D01*
X142934814Y-95430666D01*
X142842712Y-95281344D01*
X142718656Y-95157288D01*
X142718655Y-95157287D01*
X142659402Y-95120739D01*
X142612678Y-95068791D01*
X142600500Y-95015201D01*
X142600500Y-92984797D01*
X142620185Y-92917758D01*
X142659403Y-92879258D01*
X142718656Y-92842712D01*
X142842712Y-92718656D01*
X142934814Y-92569334D01*
X142983916Y-92421153D01*
X143449500Y-92421153D01*
X143449500Y-92578846D01*
X143480261Y-92733489D01*
X143480264Y-92733501D01*
X143540602Y-92879172D01*
X143540609Y-92879185D01*
X143628210Y-93010288D01*
X143628213Y-93010292D01*
X143739707Y-93121786D01*
X143739711Y-93121789D01*
X143870814Y-93209390D01*
X143870827Y-93209397D01*
X144016498Y-93269735D01*
X144016503Y-93269737D01*
X144147439Y-93295782D01*
X144171153Y-93300499D01*
X144171156Y-93300500D01*
X144171158Y-93300500D01*
X144328844Y-93300500D01*
X144328845Y-93300499D01*
X144483497Y-93269737D01*
X144565687Y-93235693D01*
X144623161Y-93211887D01*
X144692630Y-93204418D01*
X144755109Y-93235693D01*
X144790761Y-93295782D01*
X144793971Y-93313846D01*
X144800494Y-93377696D01*
X144855641Y-93544119D01*
X144855643Y-93544124D01*
X144947684Y-93693345D01*
X145071654Y-93817315D01*
X145220875Y-93909356D01*
X145220880Y-93909358D01*
X145387302Y-93964505D01*
X145387309Y-93964506D01*
X145490019Y-93974999D01*
X145739999Y-93974999D01*
X145740000Y-93974998D01*
X145740000Y-93086500D01*
X145759685Y-93019461D01*
X145812489Y-92973706D01*
X145864000Y-92962500D01*
X146116000Y-92962500D01*
X146183039Y-92982185D01*
X146228794Y-93034989D01*
X146240000Y-93086500D01*
X146240000Y-93974999D01*
X146489972Y-93974999D01*
X146489986Y-93974998D01*
X146592697Y-93964505D01*
X146759119Y-93909358D01*
X146759124Y-93909356D01*
X146908345Y-93817315D01*
X147032317Y-93693343D01*
X147114146Y-93560677D01*
X147166094Y-93513952D01*
X147235056Y-93502729D01*
X147299139Y-93530572D01*
X147324929Y-93564091D01*
X147326395Y-93563187D01*
X147330185Y-93569332D01*
X147330186Y-93569334D01*
X147422288Y-93718656D01*
X147546344Y-93842712D01*
X147695666Y-93934814D01*
X147862203Y-93989999D01*
X147964991Y-94000500D01*
X148275500Y-94000499D01*
X148342539Y-94020183D01*
X148388294Y-94072987D01*
X148399500Y-94124499D01*
X148399500Y-95511414D01*
X148379815Y-95578453D01*
X148327011Y-95624208D01*
X148314505Y-95629120D01*
X148205666Y-95665186D01*
X148205663Y-95665187D01*
X148056342Y-95757289D01*
X147932289Y-95881342D01*
X147895741Y-95940597D01*
X147843793Y-95987321D01*
X147790202Y-95999500D01*
X147199798Y-95999500D01*
X147132759Y-95979815D01*
X147094259Y-95940597D01*
X147057712Y-95881344D01*
X146933656Y-95757288D01*
X146784334Y-95665186D01*
X146617797Y-95610001D01*
X146617795Y-95610000D01*
X146515010Y-95599500D01*
X145464998Y-95599500D01*
X145464980Y-95599501D01*
X145362203Y-95610000D01*
X145362200Y-95610001D01*
X145195668Y-95665185D01*
X145195663Y-95665187D01*
X145046342Y-95757289D01*
X144922289Y-95881342D01*
X144830187Y-96030663D01*
X144830186Y-96030666D01*
X144775001Y-96197203D01*
X144775001Y-96197204D01*
X144775000Y-96197204D01*
X144764500Y-96299983D01*
X144764500Y-96900001D01*
X144764501Y-96900019D01*
X144775000Y-97002796D01*
X144775001Y-97002799D01*
X144826953Y-97159577D01*
X144830186Y-97169334D01*
X144922288Y-97318656D01*
X145046344Y-97442712D01*
X145049628Y-97444737D01*
X145049653Y-97444753D01*
X145051445Y-97446746D01*
X145052011Y-97447193D01*
X145051934Y-97447289D01*
X145096379Y-97496699D01*
X145107603Y-97565661D01*
X145079761Y-97629744D01*
X145049665Y-97655826D01*
X145046660Y-97657679D01*
X145046655Y-97657683D01*
X144922684Y-97781654D01*
X144830643Y-97930875D01*
X144830641Y-97930880D01*
X144775494Y-98097302D01*
X144775493Y-98097309D01*
X144765000Y-98200013D01*
X144765000Y-98250000D01*
X147214999Y-98250000D01*
X147214999Y-98200028D01*
X147214998Y-98200013D01*
X147204505Y-98097302D01*
X147149358Y-97930880D01*
X147149356Y-97930875D01*
X147057315Y-97781654D01*
X146933344Y-97657683D01*
X146933341Y-97657681D01*
X146930339Y-97655829D01*
X146928713Y-97654021D01*
X146927677Y-97653202D01*
X146927817Y-97653024D01*
X146883617Y-97603880D01*
X146872397Y-97534917D01*
X146900243Y-97470836D01*
X146930344Y-97444754D01*
X146933656Y-97442712D01*
X147057712Y-97318656D01*
X147094259Y-97259402D01*
X147146207Y-97212679D01*
X147199798Y-97200500D01*
X147790202Y-97200500D01*
X147857241Y-97220185D01*
X147895739Y-97259401D01*
X147932288Y-97318656D01*
X148056344Y-97442712D01*
X148059628Y-97444737D01*
X148059653Y-97444753D01*
X148061445Y-97446746D01*
X148062011Y-97447193D01*
X148061934Y-97447289D01*
X148106379Y-97496699D01*
X148117603Y-97565661D01*
X148089761Y-97629744D01*
X148059665Y-97655826D01*
X148056660Y-97657679D01*
X148056655Y-97657683D01*
X147932684Y-97781654D01*
X147840643Y-97930875D01*
X147840641Y-97930880D01*
X147785494Y-98097302D01*
X147785493Y-98097309D01*
X147775000Y-98200013D01*
X147775000Y-98250000D01*
X150224999Y-98250000D01*
X150224999Y-98200028D01*
X150224998Y-98200013D01*
X150214505Y-98097302D01*
X150159358Y-97930880D01*
X150159356Y-97930875D01*
X150067315Y-97781654D01*
X149943344Y-97657683D01*
X149943341Y-97657681D01*
X149940339Y-97655829D01*
X149938713Y-97654021D01*
X149937677Y-97653202D01*
X149937817Y-97653024D01*
X149893617Y-97603880D01*
X149882397Y-97534917D01*
X149910243Y-97470836D01*
X149940344Y-97444754D01*
X149943656Y-97442712D01*
X150067712Y-97318656D01*
X150104259Y-97259402D01*
X150156207Y-97212679D01*
X150209798Y-97200500D01*
X150800202Y-97200500D01*
X150867241Y-97220185D01*
X150905739Y-97259401D01*
X150942288Y-97318656D01*
X151066344Y-97442712D01*
X151069628Y-97444737D01*
X151069653Y-97444753D01*
X151071445Y-97446746D01*
X151072011Y-97447193D01*
X151071934Y-97447289D01*
X151116379Y-97496699D01*
X151127603Y-97565661D01*
X151099761Y-97629744D01*
X151069665Y-97655826D01*
X151066660Y-97657679D01*
X151066655Y-97657683D01*
X150942684Y-97781654D01*
X150850643Y-97930875D01*
X150850641Y-97930880D01*
X150795494Y-98097302D01*
X150795493Y-98097309D01*
X150785000Y-98200013D01*
X150785000Y-98250000D01*
X153234999Y-98250000D01*
X153234999Y-98200028D01*
X153234998Y-98200013D01*
X153224505Y-98097302D01*
X153169358Y-97930880D01*
X153169356Y-97930875D01*
X153077315Y-97781654D01*
X152953344Y-97657683D01*
X152953341Y-97657681D01*
X152950339Y-97655829D01*
X152948713Y-97654021D01*
X152947677Y-97653202D01*
X152947817Y-97653024D01*
X152903617Y-97603880D01*
X152892397Y-97534917D01*
X152920243Y-97470836D01*
X152950344Y-97444754D01*
X152953656Y-97442712D01*
X153077712Y-97318656D01*
X153114259Y-97259402D01*
X153121846Y-97252578D01*
X153126085Y-97243297D01*
X153147384Y-97229608D01*
X153166207Y-97212679D01*
X153177842Y-97210034D01*
X153184863Y-97205523D01*
X153219798Y-97200500D01*
X153263331Y-97200500D01*
X153263347Y-97200501D01*
X153270943Y-97200501D01*
X153429054Y-97200501D01*
X153429057Y-97200501D01*
X153581785Y-97159577D01*
X153631904Y-97130639D01*
X153718716Y-97080520D01*
X153830520Y-96968716D01*
X153830520Y-96968714D01*
X153840728Y-96958507D01*
X153840730Y-96958504D01*
X155868713Y-94930521D01*
X155868716Y-94930520D01*
X155980520Y-94818716D01*
X156002351Y-94780902D01*
X156011100Y-94771197D01*
X156030172Y-94759461D01*
X156046380Y-94744007D01*
X156064203Y-94736513D01*
X156069334Y-94734814D01*
X156218656Y-94642712D01*
X156342712Y-94518656D01*
X156434814Y-94369334D01*
X156489999Y-94202797D01*
X156500500Y-94100009D01*
X156500499Y-91699992D01*
X156500388Y-91698910D01*
X156489999Y-91597203D01*
X156489998Y-91597200D01*
X156434814Y-91430666D01*
X156342712Y-91281344D01*
X156218656Y-91157288D01*
X156218655Y-91157287D01*
X156159402Y-91120739D01*
X156112678Y-91068791D01*
X156100500Y-91015201D01*
X156100500Y-90579765D01*
X156120185Y-90512726D01*
X156121398Y-90510874D01*
X156136907Y-90487664D01*
X156209394Y-90379179D01*
X156269737Y-90233497D01*
X156300500Y-90078842D01*
X156300500Y-89921158D01*
X156300500Y-89921155D01*
X156300499Y-89921153D01*
X156275844Y-89797204D01*
X156269737Y-89766503D01*
X156213471Y-89630663D01*
X156209397Y-89620827D01*
X156209390Y-89620814D01*
X156121398Y-89489125D01*
X156100520Y-89422447D01*
X156100500Y-89420234D01*
X156100500Y-88984797D01*
X156120185Y-88917758D01*
X156159403Y-88879258D01*
X156218656Y-88842712D01*
X156342712Y-88718656D01*
X156434814Y-88569334D01*
X156489999Y-88402797D01*
X156500500Y-88300009D01*
X156500499Y-85899992D01*
X156489999Y-85797203D01*
X156434814Y-85630666D01*
X156342712Y-85481344D01*
X156218656Y-85357288D01*
X156069334Y-85265186D01*
X155902797Y-85210001D01*
X155902795Y-85210000D01*
X155800010Y-85199500D01*
X155199998Y-85199500D01*
X155199980Y-85199501D01*
X155097203Y-85210000D01*
X155097200Y-85210001D01*
X154930668Y-85265185D01*
X154930663Y-85265187D01*
X154781342Y-85357289D01*
X154657289Y-85481342D01*
X154565187Y-85630663D01*
X154565186Y-85630666D01*
X154510001Y-85797203D01*
X154510001Y-85797204D01*
X154510000Y-85797204D01*
X154499500Y-85899983D01*
X154499500Y-88300001D01*
X154499501Y-88300018D01*
X154510000Y-88402796D01*
X154510001Y-88402799D01*
X154565185Y-88569331D01*
X154565186Y-88569334D01*
X154657288Y-88718656D01*
X154781344Y-88842712D01*
X154840596Y-88879258D01*
X154887321Y-88931204D01*
X154899500Y-88984797D01*
X154899500Y-89420234D01*
X154879815Y-89487273D01*
X154878602Y-89489125D01*
X154790609Y-89620814D01*
X154790602Y-89620827D01*
X154730264Y-89766498D01*
X154730261Y-89766510D01*
X154699500Y-89921153D01*
X154699500Y-90078846D01*
X154730261Y-90233489D01*
X154730264Y-90233501D01*
X154790602Y-90379172D01*
X154790609Y-90379185D01*
X154878602Y-90510874D01*
X154899480Y-90577551D01*
X154899500Y-90579765D01*
X154899500Y-91015201D01*
X154879815Y-91082240D01*
X154840598Y-91120739D01*
X154781344Y-91157287D01*
X154657289Y-91281342D01*
X154565187Y-91430663D01*
X154565186Y-91430666D01*
X154510001Y-91597203D01*
X154510001Y-91597204D01*
X154510000Y-91597204D01*
X154499500Y-91699983D01*
X154499500Y-94100001D01*
X154499501Y-94100018D01*
X154510000Y-94202796D01*
X154510001Y-94202799D01*
X154565185Y-94369331D01*
X154565190Y-94369342D01*
X154577135Y-94388707D01*
X154595576Y-94456099D01*
X154574654Y-94522763D01*
X154559278Y-94541485D01*
X153236247Y-95864517D01*
X153174924Y-95898002D01*
X153105232Y-95893018D01*
X153060885Y-95864517D01*
X152953657Y-95757289D01*
X152953656Y-95757288D01*
X152804334Y-95665186D01*
X152637797Y-95610001D01*
X152637795Y-95610000D01*
X152535010Y-95599500D01*
X151484998Y-95599500D01*
X151484980Y-95599501D01*
X151382203Y-95610000D01*
X151382200Y-95610001D01*
X151215668Y-95665185D01*
X151215663Y-95665187D01*
X151066342Y-95757289D01*
X150942289Y-95881342D01*
X150905741Y-95940597D01*
X150853793Y-95987321D01*
X150800202Y-95999500D01*
X150209798Y-95999500D01*
X150142759Y-95979815D01*
X150104259Y-95940597D01*
X150067712Y-95881344D01*
X149943656Y-95757288D01*
X149794334Y-95665186D01*
X149733301Y-95644961D01*
X149685495Y-95629120D01*
X149628050Y-95589347D01*
X149601228Y-95524831D01*
X149600500Y-95511414D01*
X149600500Y-94044836D01*
X149620185Y-93977797D01*
X149655609Y-93941734D01*
X149665969Y-93934812D01*
X149760289Y-93871789D01*
X149871789Y-93760289D01*
X149959394Y-93629179D01*
X149962854Y-93620827D01*
X149986354Y-93564091D01*
X150019737Y-93483497D01*
X150050500Y-93328842D01*
X150050500Y-93171158D01*
X150050500Y-93171155D01*
X150050499Y-93171153D01*
X150019738Y-93016510D01*
X150019737Y-93016503D01*
X150002010Y-92973706D01*
X149959397Y-92870827D01*
X149959390Y-92870814D01*
X149871789Y-92739711D01*
X149871786Y-92739707D01*
X149760291Y-92628212D01*
X149737889Y-92613244D01*
X149693083Y-92559632D01*
X149689073Y-92549144D01*
X149649814Y-92430666D01*
X149557712Y-92281344D01*
X149433656Y-92157288D01*
X149430819Y-92155538D01*
X149429283Y-92153830D01*
X149427989Y-92152807D01*
X149428163Y-92152585D01*
X149384096Y-92103594D01*
X149372872Y-92034632D01*
X149400713Y-91970549D01*
X149412255Y-91958475D01*
X149420876Y-91950594D01*
X149433656Y-91942712D01*
X149477868Y-91898499D01*
X149479905Y-91896638D01*
X149508889Y-91882459D01*
X149537207Y-91866997D01*
X149540080Y-91867202D01*
X149542668Y-91865937D01*
X149574707Y-91869678D01*
X149606898Y-91871981D01*
X149609669Y-91873762D01*
X149612066Y-91874042D01*
X149619129Y-91879841D01*
X149651247Y-91900482D01*
X150463181Y-92712416D01*
X150496666Y-92773739D01*
X150499500Y-92800097D01*
X150499500Y-94100001D01*
X150499501Y-94100018D01*
X150510000Y-94202796D01*
X150510001Y-94202799D01*
X150520175Y-94233501D01*
X150565186Y-94369334D01*
X150657288Y-94518656D01*
X150781344Y-94642712D01*
X150930666Y-94734814D01*
X151097203Y-94789999D01*
X151199991Y-94800500D01*
X151800008Y-94800499D01*
X151800016Y-94800498D01*
X151800019Y-94800498D01*
X151856302Y-94794748D01*
X151902797Y-94789999D01*
X152069334Y-94734814D01*
X152218656Y-94642712D01*
X152342712Y-94518656D01*
X152434814Y-94369334D01*
X152489999Y-94202797D01*
X152500500Y-94100009D01*
X152500499Y-91699992D01*
X152500388Y-91698910D01*
X152489999Y-91597203D01*
X152489998Y-91597200D01*
X152434814Y-91430666D01*
X152342712Y-91281344D01*
X152218656Y-91157288D01*
X152218655Y-91157287D01*
X152159402Y-91120739D01*
X152112678Y-91068791D01*
X152100500Y-91015201D01*
X152100500Y-88984797D01*
X152120185Y-88917758D01*
X152159403Y-88879258D01*
X152218656Y-88842712D01*
X152342712Y-88718656D01*
X152434814Y-88569334D01*
X152489999Y-88402797D01*
X152500500Y-88300009D01*
X152500499Y-85899992D01*
X152489999Y-85797203D01*
X152434814Y-85630666D01*
X152342712Y-85481344D01*
X152218656Y-85357288D01*
X152069334Y-85265186D01*
X151902797Y-85210001D01*
X151902795Y-85210000D01*
X151800010Y-85199500D01*
X151199998Y-85199500D01*
X151199980Y-85199501D01*
X151097203Y-85210000D01*
X151097200Y-85210001D01*
X150930668Y-85265185D01*
X150930663Y-85265187D01*
X150781342Y-85357289D01*
X150657289Y-85481342D01*
X150565187Y-85630663D01*
X150565186Y-85630666D01*
X150510001Y-85797203D01*
X150510001Y-85797204D01*
X150510000Y-85797204D01*
X150499500Y-85899983D01*
X150499500Y-88300001D01*
X150499501Y-88300018D01*
X150510000Y-88402796D01*
X150510001Y-88402799D01*
X150565185Y-88569331D01*
X150565186Y-88569334D01*
X150657288Y-88718656D01*
X150781344Y-88842712D01*
X150840596Y-88879258D01*
X150887321Y-88931204D01*
X150899500Y-88984797D01*
X150899500Y-91015201D01*
X150897208Y-91023006D01*
X150898484Y-91031039D01*
X150887508Y-91056040D01*
X150879815Y-91082240D01*
X150872945Y-91089211D01*
X150870398Y-91095015D01*
X150849174Y-91113335D01*
X150844068Y-91118518D01*
X150842326Y-91119674D01*
X150781344Y-91157288D01*
X150772846Y-91165785D01*
X150762500Y-91172652D01*
X150740489Y-91179468D01*
X150720265Y-91190507D01*
X150707746Y-91189609D01*
X150695758Y-91193322D01*
X150673557Y-91187156D01*
X150650574Y-91185508D01*
X150637608Y-91177173D01*
X150628436Y-91174626D01*
X150621421Y-91166768D01*
X150606251Y-91157016D01*
X150187590Y-90738355D01*
X150187588Y-90738352D01*
X150068717Y-90619481D01*
X150068716Y-90619480D01*
X149958187Y-90555666D01*
X149958187Y-90555665D01*
X149958184Y-90555665D01*
X149931785Y-90540423D01*
X149779057Y-90499499D01*
X149779054Y-90499499D01*
X149699797Y-90499499D01*
X149632758Y-90479814D01*
X149594258Y-90440595D01*
X149557712Y-90381344D01*
X149433657Y-90257289D01*
X149433656Y-90257288D01*
X149284334Y-90165186D01*
X149117797Y-90110001D01*
X149117795Y-90110000D01*
X149015010Y-90099500D01*
X147964998Y-90099500D01*
X147964980Y-90099501D01*
X147862203Y-90110000D01*
X147862200Y-90110001D01*
X147695668Y-90165185D01*
X147695663Y-90165187D01*
X147546342Y-90257289D01*
X147422289Y-90381342D01*
X147385741Y-90440597D01*
X147378153Y-90447421D01*
X147373915Y-90456703D01*
X147352615Y-90470391D01*
X147333793Y-90487321D01*
X147322157Y-90489965D01*
X147315137Y-90494477D01*
X147280202Y-90499500D01*
X147159378Y-90499500D01*
X147092339Y-90479815D01*
X147053839Y-90440597D01*
X147053838Y-90440595D01*
X147032712Y-90406344D01*
X146908656Y-90282288D01*
X146808115Y-90220274D01*
X146759336Y-90190187D01*
X146759331Y-90190185D01*
X146757862Y-90189698D01*
X146592797Y-90135001D01*
X146592795Y-90135000D01*
X146490010Y-90124500D01*
X145489998Y-90124500D01*
X145489980Y-90124501D01*
X145387203Y-90135000D01*
X145387200Y-90135001D01*
X145220668Y-90190185D01*
X145220663Y-90190187D01*
X145071342Y-90282289D01*
X144947289Y-90406342D01*
X144855187Y-90555663D01*
X144855187Y-90555664D01*
X144855186Y-90555666D01*
X144800001Y-90722203D01*
X144800001Y-90722204D01*
X144800000Y-90722204D01*
X144789500Y-90824983D01*
X144789500Y-91059902D01*
X144769815Y-91126941D01*
X144753181Y-91147583D01*
X144235339Y-91665425D01*
X144174016Y-91698910D01*
X144171850Y-91699361D01*
X144016508Y-91730261D01*
X144016498Y-91730264D01*
X143870827Y-91790602D01*
X143870814Y-91790609D01*
X143739711Y-91878210D01*
X143739707Y-91878213D01*
X143628213Y-91989707D01*
X143628210Y-91989711D01*
X143540609Y-92120814D01*
X143540602Y-92120827D01*
X143480264Y-92266498D01*
X143480261Y-92266510D01*
X143449500Y-92421153D01*
X142983916Y-92421153D01*
X142989999Y-92402797D01*
X143000500Y-92300009D01*
X143000499Y-89899992D01*
X142989999Y-89797203D01*
X142934814Y-89630666D01*
X142842712Y-89481344D01*
X142718656Y-89357288D01*
X142569334Y-89265186D01*
X142402797Y-89210001D01*
X142402795Y-89210000D01*
X142300010Y-89199500D01*
X141699998Y-89199500D01*
X141699980Y-89199501D01*
X141597203Y-89210000D01*
X141597200Y-89210001D01*
X141430668Y-89265185D01*
X141430663Y-89265187D01*
X141281342Y-89357289D01*
X141157289Y-89481342D01*
X141065187Y-89630663D01*
X141065186Y-89630666D01*
X141010001Y-89797203D01*
X141010001Y-89797204D01*
X141010000Y-89797204D01*
X140999500Y-89899983D01*
X140999500Y-92300001D01*
X140999501Y-92300018D01*
X141010000Y-92402796D01*
X141010001Y-92402799D01*
X141065185Y-92569331D01*
X141065187Y-92569336D01*
X141071053Y-92578846D01*
X141157288Y-92718656D01*
X141281344Y-92842712D01*
X141340596Y-92879258D01*
X141387321Y-92931204D01*
X141399500Y-92984797D01*
X141399500Y-95015201D01*
X141379815Y-95082240D01*
X141340598Y-95120739D01*
X141281344Y-95157287D01*
X141157289Y-95281342D01*
X141065187Y-95430663D01*
X141065186Y-95430666D01*
X141010001Y-95597203D01*
X141010001Y-95597204D01*
X141010000Y-95597204D01*
X140999500Y-95699983D01*
X140999500Y-98100001D01*
X140999501Y-98100018D01*
X141010000Y-98202796D01*
X141010001Y-98202799D01*
X141052874Y-98332179D01*
X141065186Y-98369334D01*
X141157288Y-98518656D01*
X141281344Y-98642712D01*
X141430666Y-98734814D01*
X141597203Y-98789999D01*
X141699991Y-98800500D01*
X142300008Y-98800499D01*
X142300016Y-98800498D01*
X142300019Y-98800498D01*
X142356302Y-98794748D01*
X142402797Y-98789999D01*
X142569334Y-98734814D01*
X142718656Y-98642712D01*
X142718661Y-98642707D01*
X142724324Y-98638231D01*
X142725159Y-98639287D01*
X142779695Y-98609501D01*
X142849388Y-98614478D01*
X142893747Y-98642983D01*
X144133583Y-99882819D01*
X144167068Y-99944142D01*
X144162084Y-100013834D01*
X144120212Y-100069767D01*
X144054748Y-100094184D01*
X144045902Y-100094500D01*
X143592129Y-100094500D01*
X143592123Y-100094501D01*
X143532518Y-100100908D01*
X143498331Y-100113659D01*
X143428639Y-100118642D01*
X143411669Y-100113659D01*
X143377480Y-100100908D01*
X143377482Y-100100908D01*
X143317883Y-100094501D01*
X143317881Y-100094500D01*
X143317873Y-100094500D01*
X143317864Y-100094500D01*
X142322129Y-100094500D01*
X142322123Y-100094501D01*
X142262518Y-100100908D01*
X142228331Y-100113659D01*
X142158639Y-100118642D01*
X142141669Y-100113659D01*
X142107480Y-100100908D01*
X142107482Y-100100908D01*
X142047883Y-100094501D01*
X142047881Y-100094500D01*
X142047873Y-100094500D01*
X142047864Y-100094500D01*
X141052129Y-100094500D01*
X141052123Y-100094501D01*
X140992518Y-100100908D01*
X140958331Y-100113659D01*
X140888639Y-100118642D01*
X140871669Y-100113659D01*
X140837480Y-100100908D01*
X140837482Y-100100908D01*
X140777883Y-100094501D01*
X140777881Y-100094500D01*
X140777873Y-100094500D01*
X140777864Y-100094500D01*
X139782129Y-100094500D01*
X139782123Y-100094501D01*
X139722518Y-100100908D01*
X139688331Y-100113659D01*
X139618639Y-100118642D01*
X139601669Y-100113659D01*
X139567480Y-100100908D01*
X139567482Y-100100908D01*
X139507883Y-100094501D01*
X139507881Y-100094500D01*
X139507873Y-100094500D01*
X139507864Y-100094500D01*
X138512129Y-100094500D01*
X138512123Y-100094501D01*
X138452518Y-100100908D01*
X138418331Y-100113659D01*
X138348639Y-100118642D01*
X138331669Y-100113659D01*
X138297480Y-100100908D01*
X138297482Y-100100908D01*
X138237883Y-100094501D01*
X138237881Y-100094500D01*
X138237873Y-100094500D01*
X138237864Y-100094500D01*
X137242129Y-100094500D01*
X137242123Y-100094501D01*
X137182516Y-100100908D01*
X137047671Y-100151202D01*
X137047664Y-100151206D01*
X136932455Y-100237452D01*
X136932452Y-100237455D01*
X136846206Y-100352664D01*
X136846202Y-100352671D01*
X136795908Y-100487517D01*
X136791550Y-100528057D01*
X136789501Y-100547123D01*
X136789500Y-100547135D01*
X136789500Y-102142870D01*
X136789501Y-102142876D01*
X136795908Y-102202483D01*
X136846202Y-102337328D01*
X136846206Y-102337335D01*
X136932452Y-102452544D01*
X136932455Y-102452547D01*
X137047665Y-102538794D01*
X137047667Y-102538794D01*
X137047669Y-102538796D01*
X137058830Y-102542958D01*
X137114764Y-102584826D01*
X137139184Y-102650289D01*
X137139500Y-102659141D01*
X137139500Y-105938330D01*
X137139499Y-105938348D01*
X137139499Y-106104054D01*
X137139498Y-106104054D01*
X137139499Y-106104057D01*
X137180423Y-106256785D01*
X137196713Y-106285000D01*
X137209358Y-106306900D01*
X137209359Y-106306904D01*
X137209360Y-106306904D01*
X137259479Y-106393714D01*
X137259481Y-106393717D01*
X137378349Y-106512585D01*
X137378355Y-106512590D01*
X141941510Y-111075746D01*
X141953734Y-111098133D01*
X141969334Y-111118321D01*
X141970200Y-111128288D01*
X141974995Y-111137069D01*
X141973175Y-111162515D01*
X141975384Y-111187928D01*
X141970724Y-111196780D01*
X141970011Y-111206761D01*
X141954722Y-111227183D01*
X141942842Y-111249756D01*
X141932632Y-111256691D01*
X141928139Y-111262694D01*
X141914914Y-111271337D01*
X141908294Y-111275083D01*
X141870821Y-111290606D01*
X141815084Y-111327848D01*
X141811085Y-111330112D01*
X141781351Y-111337058D01*
X141752214Y-111346182D01*
X141747653Y-111344931D01*
X141743048Y-111346007D01*
X141714278Y-111335775D01*
X141684833Y-111327698D01*
X141681109Y-111325304D01*
X141629185Y-111290609D01*
X141629172Y-111290602D01*
X141483501Y-111230264D01*
X141483489Y-111230261D01*
X141328845Y-111199500D01*
X141328842Y-111199500D01*
X141171158Y-111199500D01*
X141171155Y-111199500D01*
X141016510Y-111230261D01*
X141016498Y-111230264D01*
X140870827Y-111290602D01*
X140870814Y-111290609D01*
X140739711Y-111378210D01*
X140739707Y-111378213D01*
X140628213Y-111489707D01*
X140628210Y-111489711D01*
X140540609Y-111620814D01*
X140540602Y-111620827D01*
X140480264Y-111766498D01*
X140480261Y-111766510D01*
X140449500Y-111921153D01*
X140449500Y-111921158D01*
X140449500Y-112078842D01*
X140449500Y-112078844D01*
X140449499Y-112078844D01*
X140456880Y-112115945D01*
X140450653Y-112185537D01*
X140422944Y-112227818D01*
X136461681Y-116189082D01*
X136400358Y-116222567D01*
X136330666Y-116217583D01*
X136274733Y-116175711D01*
X136250316Y-116110247D01*
X136250000Y-116101401D01*
X136250000Y-89899983D01*
X136999500Y-89899983D01*
X136999500Y-92300001D01*
X136999501Y-92300018D01*
X137010000Y-92402796D01*
X137010001Y-92402799D01*
X137065185Y-92569331D01*
X137065187Y-92569336D01*
X137071053Y-92578846D01*
X137157288Y-92718656D01*
X137281344Y-92842712D01*
X137340596Y-92879258D01*
X137387321Y-92931204D01*
X137399500Y-92984797D01*
X137399500Y-93420234D01*
X137379815Y-93487273D01*
X137378602Y-93489125D01*
X137290609Y-93620814D01*
X137290602Y-93620827D01*
X137230264Y-93766498D01*
X137230261Y-93766510D01*
X137199500Y-93921153D01*
X137199500Y-94078846D01*
X137230261Y-94233489D01*
X137230264Y-94233501D01*
X137290602Y-94379172D01*
X137290609Y-94379185D01*
X137378602Y-94510874D01*
X137399480Y-94577551D01*
X137399500Y-94579765D01*
X137399500Y-95015201D01*
X137379815Y-95082240D01*
X137340598Y-95120739D01*
X137281344Y-95157287D01*
X137157289Y-95281342D01*
X137065187Y-95430663D01*
X137065186Y-95430666D01*
X137010001Y-95597203D01*
X137010001Y-95597204D01*
X137010000Y-95597204D01*
X136999500Y-95699983D01*
X136999500Y-98100001D01*
X136999501Y-98100018D01*
X137010000Y-98202796D01*
X137010001Y-98202799D01*
X137052874Y-98332179D01*
X137065186Y-98369334D01*
X137157288Y-98518656D01*
X137281344Y-98642712D01*
X137430666Y-98734814D01*
X137597203Y-98789999D01*
X137699991Y-98800500D01*
X138300008Y-98800499D01*
X138300016Y-98800498D01*
X138300019Y-98800498D01*
X138356302Y-98794748D01*
X138402797Y-98789999D01*
X138569334Y-98734814D01*
X138718656Y-98642712D01*
X138842712Y-98518656D01*
X138934814Y-98369334D01*
X138989999Y-98202797D01*
X139000500Y-98100009D01*
X139000499Y-95699992D01*
X138996943Y-95665185D01*
X138989999Y-95597203D01*
X138989998Y-95597200D01*
X138961571Y-95511414D01*
X138934814Y-95430666D01*
X138842712Y-95281344D01*
X138718656Y-95157288D01*
X138718655Y-95157287D01*
X138659402Y-95120739D01*
X138612678Y-95068791D01*
X138600500Y-95015201D01*
X138600500Y-94579765D01*
X138620185Y-94512726D01*
X138621398Y-94510874D01*
X138709390Y-94379185D01*
X138709390Y-94379184D01*
X138709394Y-94379179D01*
X138769737Y-94233497D01*
X138800500Y-94078842D01*
X138800500Y-93921158D01*
X138800500Y-93921155D01*
X138800499Y-93921153D01*
X138784896Y-93842712D01*
X138769737Y-93766503D01*
X138739434Y-93693345D01*
X138709397Y-93620827D01*
X138709390Y-93620814D01*
X138621398Y-93489125D01*
X138600520Y-93422447D01*
X138600500Y-93420234D01*
X138600500Y-92984797D01*
X138620185Y-92917758D01*
X138659403Y-92879258D01*
X138718656Y-92842712D01*
X138842712Y-92718656D01*
X138934814Y-92569334D01*
X138989999Y-92402797D01*
X139000500Y-92300009D01*
X139000499Y-89899992D01*
X138989999Y-89797203D01*
X138934814Y-89630666D01*
X138842712Y-89481344D01*
X138718656Y-89357288D01*
X138569334Y-89265186D01*
X138402797Y-89210001D01*
X138402795Y-89210000D01*
X138300010Y-89199500D01*
X137699998Y-89199500D01*
X137699980Y-89199501D01*
X137597203Y-89210000D01*
X137597200Y-89210001D01*
X137430668Y-89265185D01*
X137430663Y-89265187D01*
X137281342Y-89357289D01*
X137157289Y-89481342D01*
X137065187Y-89630663D01*
X137065186Y-89630666D01*
X137010001Y-89797203D01*
X137010001Y-89797204D01*
X137010000Y-89797204D01*
X136999500Y-89899983D01*
X136250000Y-89899983D01*
X136250000Y-86095000D01*
X130374500Y-86095000D01*
X130307461Y-86075315D01*
X130261706Y-86022511D01*
X130250500Y-85971000D01*
X130250500Y-82102155D01*
X136260000Y-82102155D01*
X136260000Y-82750000D01*
X137176988Y-82750000D01*
X137144075Y-82807007D01*
X137110000Y-82934174D01*
X137110000Y-83065826D01*
X137144075Y-83192993D01*
X137176988Y-83250000D01*
X136260000Y-83250000D01*
X136260000Y-83897844D01*
X136266401Y-83957372D01*
X136266403Y-83957379D01*
X136316645Y-84092086D01*
X136316649Y-84092093D01*
X136402809Y-84207187D01*
X136402812Y-84207190D01*
X136517906Y-84293350D01*
X136517913Y-84293354D01*
X136652620Y-84343596D01*
X136652627Y-84343598D01*
X136712155Y-84349999D01*
X136712172Y-84350000D01*
X137360000Y-84350000D01*
X137360000Y-83433012D01*
X137417007Y-83465925D01*
X137544174Y-83500000D01*
X137675826Y-83500000D01*
X137802993Y-83465925D01*
X137860000Y-83433012D01*
X137860000Y-84350000D01*
X138507828Y-84350000D01*
X138507844Y-84349999D01*
X138567372Y-84343598D01*
X138567379Y-84343596D01*
X138702086Y-84293354D01*
X138702093Y-84293350D01*
X138817187Y-84207190D01*
X138817190Y-84207187D01*
X138903350Y-84092093D01*
X138903354Y-84092086D01*
X138952422Y-83960529D01*
X138994293Y-83904595D01*
X139059757Y-83880178D01*
X139128030Y-83895030D01*
X139156285Y-83916181D01*
X139270213Y-84030109D01*
X139442179Y-84155048D01*
X139442181Y-84155049D01*
X139442184Y-84155051D01*
X139631588Y-84251557D01*
X139833757Y-84317246D01*
X140043713Y-84350500D01*
X140043714Y-84350500D01*
X140256286Y-84350500D01*
X140256287Y-84350500D01*
X140466243Y-84317246D01*
X140668412Y-84251557D01*
X140857816Y-84155051D01*
X140944471Y-84092093D01*
X141029786Y-84030109D01*
X141029788Y-84030106D01*
X141029792Y-84030104D01*
X141180104Y-83879792D01*
X141180106Y-83879788D01*
X141180109Y-83879786D01*
X141305048Y-83707820D01*
X141305047Y-83707820D01*
X141305051Y-83707816D01*
X141309514Y-83699054D01*
X141357488Y-83648259D01*
X141425308Y-83631463D01*
X141491444Y-83653999D01*
X141530486Y-83699056D01*
X141534951Y-83707820D01*
X141659890Y-83879786D01*
X141810213Y-84030109D01*
X141982179Y-84155048D01*
X141982181Y-84155049D01*
X141982184Y-84155051D01*
X142171588Y-84251557D01*
X142373757Y-84317246D01*
X142583713Y-84350500D01*
X142583714Y-84350500D01*
X142796286Y-84350500D01*
X142796287Y-84350500D01*
X143006243Y-84317246D01*
X143208412Y-84251557D01*
X143397816Y-84155051D01*
X143484471Y-84092093D01*
X143569786Y-84030109D01*
X143569788Y-84030106D01*
X143569792Y-84030104D01*
X143720104Y-83879792D01*
X143720106Y-83879788D01*
X143720109Y-83879786D01*
X143845048Y-83707820D01*
X143845047Y-83707820D01*
X143845051Y-83707816D01*
X143849514Y-83699054D01*
X143897488Y-83648259D01*
X143965308Y-83631463D01*
X144031444Y-83653999D01*
X144070486Y-83699056D01*
X144074951Y-83707820D01*
X144199890Y-83879786D01*
X144350213Y-84030109D01*
X144522179Y-84155048D01*
X144522181Y-84155049D01*
X144522184Y-84155051D01*
X144711588Y-84251557D01*
X144913757Y-84317246D01*
X145123713Y-84350500D01*
X145123714Y-84350500D01*
X145336286Y-84350500D01*
X145336287Y-84350500D01*
X145546243Y-84317246D01*
X145748412Y-84251557D01*
X145937816Y-84155051D01*
X146024471Y-84092093D01*
X146109786Y-84030109D01*
X146109788Y-84030106D01*
X146109792Y-84030104D01*
X146260104Y-83879792D01*
X146260106Y-83879788D01*
X146260109Y-83879786D01*
X146385048Y-83707820D01*
X146385047Y-83707820D01*
X146385051Y-83707816D01*
X146389514Y-83699054D01*
X146437488Y-83648259D01*
X146505308Y-83631463D01*
X146571444Y-83653999D01*
X146610486Y-83699056D01*
X146614951Y-83707820D01*
X146739890Y-83879786D01*
X146890213Y-84030109D01*
X147062179Y-84155048D01*
X147062181Y-84155049D01*
X147062184Y-84155051D01*
X147251588Y-84251557D01*
X147453757Y-84317246D01*
X147663713Y-84350500D01*
X147663714Y-84350500D01*
X147876286Y-84350500D01*
X147876287Y-84350500D01*
X148086243Y-84317246D01*
X148288412Y-84251557D01*
X148477816Y-84155051D01*
X148564471Y-84092093D01*
X148649786Y-84030109D01*
X148649788Y-84030106D01*
X148649792Y-84030104D01*
X148800104Y-83879792D01*
X148800106Y-83879788D01*
X148800109Y-83879786D01*
X148925048Y-83707820D01*
X148925047Y-83707820D01*
X148925051Y-83707816D01*
X148929514Y-83699054D01*
X148977488Y-83648259D01*
X149045308Y-83631463D01*
X149111444Y-83653999D01*
X149150486Y-83699056D01*
X149154951Y-83707820D01*
X149279890Y-83879786D01*
X149430213Y-84030109D01*
X149602179Y-84155048D01*
X149602181Y-84155049D01*
X149602184Y-84155051D01*
X149791588Y-84251557D01*
X149993757Y-84317246D01*
X150203713Y-84350500D01*
X150203714Y-84350500D01*
X150416286Y-84350500D01*
X150416287Y-84350500D01*
X150626243Y-84317246D01*
X150828412Y-84251557D01*
X151017816Y-84155051D01*
X151104471Y-84092093D01*
X151189786Y-84030109D01*
X151189788Y-84030106D01*
X151189792Y-84030104D01*
X151340104Y-83879792D01*
X151340106Y-83879788D01*
X151340109Y-83879786D01*
X151465048Y-83707820D01*
X151465047Y-83707820D01*
X151465051Y-83707816D01*
X151469514Y-83699054D01*
X151517488Y-83648259D01*
X151585308Y-83631463D01*
X151651444Y-83653999D01*
X151690486Y-83699056D01*
X151694951Y-83707820D01*
X151819890Y-83879786D01*
X151970213Y-84030109D01*
X152142179Y-84155048D01*
X152142181Y-84155049D01*
X152142184Y-84155051D01*
X152331588Y-84251557D01*
X152533757Y-84317246D01*
X152743713Y-84350500D01*
X152743714Y-84350500D01*
X152956286Y-84350500D01*
X152956287Y-84350500D01*
X153166243Y-84317246D01*
X153368412Y-84251557D01*
X153557816Y-84155051D01*
X153644471Y-84092093D01*
X153729786Y-84030109D01*
X153729788Y-84030106D01*
X153729792Y-84030104D01*
X153880104Y-83879792D01*
X153880106Y-83879788D01*
X153880109Y-83879786D01*
X154005048Y-83707820D01*
X154005047Y-83707820D01*
X154005051Y-83707816D01*
X154009514Y-83699054D01*
X154057488Y-83648259D01*
X154125308Y-83631463D01*
X154191444Y-83653999D01*
X154230486Y-83699056D01*
X154234951Y-83707820D01*
X154359890Y-83879786D01*
X154510213Y-84030109D01*
X154682179Y-84155048D01*
X154682181Y-84155049D01*
X154682184Y-84155051D01*
X154871588Y-84251557D01*
X155073757Y-84317246D01*
X155283713Y-84350500D01*
X155283714Y-84350500D01*
X155496286Y-84350500D01*
X155496287Y-84350500D01*
X155706243Y-84317246D01*
X155908412Y-84251557D01*
X156097816Y-84155051D01*
X156184471Y-84092093D01*
X156269786Y-84030109D01*
X156269788Y-84030106D01*
X156269792Y-84030104D01*
X156420104Y-83879792D01*
X156439051Y-83853713D01*
X159149500Y-83853713D01*
X159149500Y-84066286D01*
X159178843Y-84251555D01*
X159182754Y-84276243D01*
X159206719Y-84350000D01*
X159248444Y-84478414D01*
X159344951Y-84667820D01*
X159469890Y-84839786D01*
X159620213Y-84990109D01*
X159792182Y-85115050D01*
X159800946Y-85119516D01*
X159851742Y-85167491D01*
X159868536Y-85235312D01*
X159845998Y-85301447D01*
X159800946Y-85340484D01*
X159792182Y-85344949D01*
X159620213Y-85469890D01*
X159469890Y-85620213D01*
X159344951Y-85792179D01*
X159248444Y-85981585D01*
X159182753Y-86183760D01*
X159149500Y-86393713D01*
X159149500Y-86606286D01*
X159182753Y-86816239D01*
X159248444Y-87018414D01*
X159344951Y-87207820D01*
X159469890Y-87379786D01*
X159620213Y-87530109D01*
X159792182Y-87655050D01*
X159800946Y-87659516D01*
X159851742Y-87707491D01*
X159868536Y-87775312D01*
X159845998Y-87841447D01*
X159800946Y-87880484D01*
X159792182Y-87884949D01*
X159620213Y-88009890D01*
X159469890Y-88160213D01*
X159344951Y-88332179D01*
X159248444Y-88521585D01*
X159182753Y-88723760D01*
X159163913Y-88842711D01*
X159149500Y-88933713D01*
X159149500Y-89146287D01*
X159182754Y-89356243D01*
X159225930Y-89489125D01*
X159248444Y-89558414D01*
X159344951Y-89747820D01*
X159469890Y-89919786D01*
X159583430Y-90033326D01*
X159616915Y-90094649D01*
X159611931Y-90164341D01*
X159570059Y-90220274D01*
X159539083Y-90237189D01*
X159407669Y-90286203D01*
X159407664Y-90286206D01*
X159292455Y-90372452D01*
X159292452Y-90372455D01*
X159206206Y-90487664D01*
X159206202Y-90487671D01*
X159155908Y-90622517D01*
X159149501Y-90682116D01*
X159149501Y-90682123D01*
X159149500Y-90682135D01*
X159149500Y-92477870D01*
X159149501Y-92477876D01*
X159155908Y-92537483D01*
X159206202Y-92672328D01*
X159206206Y-92672335D01*
X159292452Y-92787544D01*
X159292455Y-92787547D01*
X159407664Y-92873793D01*
X159407671Y-92873797D01*
X159542517Y-92924091D01*
X159542516Y-92924091D01*
X159549444Y-92924835D01*
X159602127Y-92930500D01*
X161397872Y-92930499D01*
X161457483Y-92924091D01*
X161592331Y-92873796D01*
X161707546Y-92787546D01*
X161793796Y-92672331D01*
X161844091Y-92537483D01*
X161850500Y-92477873D01*
X161850499Y-90682128D01*
X161844091Y-90622517D01*
X161842958Y-90619480D01*
X161793797Y-90487671D01*
X161793793Y-90487664D01*
X161707547Y-90372455D01*
X161707544Y-90372452D01*
X161592335Y-90286206D01*
X161592328Y-90286202D01*
X161460917Y-90237189D01*
X161404983Y-90195318D01*
X161380566Y-90129853D01*
X161395418Y-90061580D01*
X161416563Y-90033332D01*
X161530104Y-89919792D01*
X161544490Y-89899992D01*
X161655048Y-89747820D01*
X161655047Y-89747820D01*
X161655051Y-89747816D01*
X161751557Y-89558412D01*
X161817246Y-89356243D01*
X161850500Y-89146287D01*
X161850500Y-88933713D01*
X161817246Y-88723757D01*
X161751557Y-88521588D01*
X161655051Y-88332184D01*
X161655049Y-88332181D01*
X161655048Y-88332179D01*
X161530109Y-88160213D01*
X161379786Y-88009890D01*
X161207820Y-87884951D01*
X161207115Y-87884591D01*
X161199054Y-87880485D01*
X161148259Y-87832512D01*
X161131463Y-87764692D01*
X161153999Y-87698556D01*
X161199054Y-87659515D01*
X161207816Y-87655051D01*
X161229789Y-87639086D01*
X161379786Y-87530109D01*
X161379788Y-87530106D01*
X161379792Y-87530104D01*
X161530104Y-87379792D01*
X161530106Y-87379788D01*
X161530109Y-87379786D01*
X161655048Y-87207820D01*
X161655047Y-87207820D01*
X161655051Y-87207816D01*
X161751557Y-87018412D01*
X161817246Y-86816243D01*
X161850500Y-86606287D01*
X161850500Y-86393713D01*
X161817246Y-86183757D01*
X161751557Y-85981588D01*
X161655051Y-85792184D01*
X161655049Y-85792181D01*
X161655048Y-85792179D01*
X161530109Y-85620213D01*
X161379786Y-85469890D01*
X161207820Y-85344951D01*
X161207115Y-85344591D01*
X161199054Y-85340485D01*
X161148259Y-85292512D01*
X161131463Y-85224692D01*
X161153999Y-85158556D01*
X161199054Y-85119515D01*
X161207816Y-85115051D01*
X161229789Y-85099086D01*
X161379786Y-84990109D01*
X161379788Y-84990106D01*
X161379792Y-84990104D01*
X161530104Y-84839792D01*
X161530106Y-84839788D01*
X161530109Y-84839786D01*
X161655048Y-84667820D01*
X161655047Y-84667820D01*
X161655051Y-84667816D01*
X161751557Y-84478412D01*
X161817246Y-84276243D01*
X161850500Y-84066287D01*
X161850500Y-83853713D01*
X161817246Y-83643757D01*
X161751557Y-83441588D01*
X161655051Y-83252184D01*
X161655049Y-83252181D01*
X161655048Y-83252179D01*
X161530109Y-83080213D01*
X161379786Y-82929890D01*
X161207820Y-82804951D01*
X161018414Y-82708444D01*
X161018413Y-82708443D01*
X161018412Y-82708443D01*
X160816243Y-82642754D01*
X160816241Y-82642753D01*
X160816240Y-82642753D01*
X160654957Y-82617208D01*
X160606287Y-82609500D01*
X160393713Y-82609500D01*
X160345042Y-82617208D01*
X160183760Y-82642753D01*
X159981585Y-82708444D01*
X159792179Y-82804951D01*
X159620213Y-82929890D01*
X159469890Y-83080213D01*
X159344951Y-83252179D01*
X159248444Y-83441585D01*
X159182753Y-83643760D01*
X159149500Y-83853713D01*
X156439051Y-83853713D01*
X156545051Y-83707816D01*
X156641557Y-83518412D01*
X156707246Y-83316243D01*
X156740500Y-83106287D01*
X156740500Y-82893713D01*
X156707246Y-82683757D01*
X156641557Y-82481588D01*
X156545051Y-82292184D01*
X156545049Y-82292181D01*
X156545048Y-82292179D01*
X156420109Y-82120213D01*
X156269786Y-81969890D01*
X156097820Y-81844951D01*
X155908414Y-81748444D01*
X155908413Y-81748443D01*
X155908412Y-81748443D01*
X155706243Y-81682754D01*
X155706241Y-81682753D01*
X155706240Y-81682753D01*
X155544957Y-81657208D01*
X155496287Y-81649500D01*
X155283713Y-81649500D01*
X155235042Y-81657208D01*
X155073760Y-81682753D01*
X154871585Y-81748444D01*
X154682179Y-81844951D01*
X154510213Y-81969890D01*
X154359890Y-82120213D01*
X154234949Y-82292182D01*
X154230484Y-82300946D01*
X154182509Y-82351742D01*
X154114688Y-82368536D01*
X154048553Y-82345998D01*
X154009516Y-82300946D01*
X154005050Y-82292182D01*
X153880109Y-82120213D01*
X153729786Y-81969890D01*
X153557820Y-81844951D01*
X153368414Y-81748444D01*
X153368413Y-81748443D01*
X153368412Y-81748443D01*
X153166243Y-81682754D01*
X153166241Y-81682753D01*
X153166240Y-81682753D01*
X153004957Y-81657208D01*
X152956287Y-81649500D01*
X152743713Y-81649500D01*
X152695042Y-81657208D01*
X152533760Y-81682753D01*
X152331585Y-81748444D01*
X152142179Y-81844951D01*
X151970213Y-81969890D01*
X151819890Y-82120213D01*
X151694949Y-82292182D01*
X151690484Y-82300946D01*
X151642509Y-82351742D01*
X151574688Y-82368536D01*
X151508553Y-82345998D01*
X151469516Y-82300946D01*
X151465050Y-82292182D01*
X151340109Y-82120213D01*
X151189786Y-81969890D01*
X151017820Y-81844951D01*
X150828414Y-81748444D01*
X150828413Y-81748443D01*
X150828412Y-81748443D01*
X150626243Y-81682754D01*
X150626241Y-81682753D01*
X150626240Y-81682753D01*
X150464957Y-81657208D01*
X150416287Y-81649500D01*
X150203713Y-81649500D01*
X150155042Y-81657208D01*
X149993760Y-81682753D01*
X149791585Y-81748444D01*
X149602179Y-81844951D01*
X149430213Y-81969890D01*
X149279890Y-82120213D01*
X149154949Y-82292182D01*
X149150484Y-82300946D01*
X149102509Y-82351742D01*
X149034688Y-82368536D01*
X148968553Y-82345998D01*
X148929516Y-82300946D01*
X148925050Y-82292182D01*
X148800109Y-82120213D01*
X148649786Y-81969890D01*
X148477820Y-81844951D01*
X148288414Y-81748444D01*
X148288413Y-81748443D01*
X148288412Y-81748443D01*
X148086243Y-81682754D01*
X148086241Y-81682753D01*
X148086240Y-81682753D01*
X147924957Y-81657208D01*
X147876287Y-81649500D01*
X147663713Y-81649500D01*
X147615042Y-81657208D01*
X147453760Y-81682753D01*
X147251585Y-81748444D01*
X147062179Y-81844951D01*
X146890213Y-81969890D01*
X146739890Y-82120213D01*
X146614949Y-82292182D01*
X146610484Y-82300946D01*
X146562509Y-82351742D01*
X146494688Y-82368536D01*
X146428553Y-82345998D01*
X146389516Y-82300946D01*
X146385050Y-82292182D01*
X146260109Y-82120213D01*
X146109786Y-81969890D01*
X145937820Y-81844951D01*
X145748414Y-81748444D01*
X145748413Y-81748443D01*
X145748412Y-81748443D01*
X145546243Y-81682754D01*
X145546241Y-81682753D01*
X145546240Y-81682753D01*
X145384957Y-81657208D01*
X145336287Y-81649500D01*
X145123713Y-81649500D01*
X145075042Y-81657208D01*
X144913760Y-81682753D01*
X144711585Y-81748444D01*
X144522179Y-81844951D01*
X144350213Y-81969890D01*
X144199890Y-82120213D01*
X144074949Y-82292182D01*
X144070484Y-82300946D01*
X144022509Y-82351742D01*
X143954688Y-82368536D01*
X143888553Y-82345998D01*
X143849516Y-82300946D01*
X143845050Y-82292182D01*
X143720109Y-82120213D01*
X143569786Y-81969890D01*
X143397820Y-81844951D01*
X143208414Y-81748444D01*
X143208413Y-81748443D01*
X143208412Y-81748443D01*
X143006243Y-81682754D01*
X143006241Y-81682753D01*
X143006240Y-81682753D01*
X142844957Y-81657208D01*
X142796287Y-81649500D01*
X142583713Y-81649500D01*
X142535042Y-81657208D01*
X142373760Y-81682753D01*
X142171585Y-81748444D01*
X141982179Y-81844951D01*
X141810213Y-81969890D01*
X141659890Y-82120213D01*
X141534949Y-82292182D01*
X141530484Y-82300946D01*
X141482509Y-82351742D01*
X141414688Y-82368536D01*
X141348553Y-82345998D01*
X141309516Y-82300946D01*
X141305050Y-82292182D01*
X141180109Y-82120213D01*
X141029786Y-81969890D01*
X140857820Y-81844951D01*
X140668414Y-81748444D01*
X140668413Y-81748443D01*
X140668412Y-81748443D01*
X140466243Y-81682754D01*
X140466241Y-81682753D01*
X140466240Y-81682753D01*
X140304957Y-81657208D01*
X140256287Y-81649500D01*
X140043713Y-81649500D01*
X139995042Y-81657208D01*
X139833760Y-81682753D01*
X139631585Y-81748444D01*
X139442179Y-81844951D01*
X139270215Y-81969889D01*
X139156285Y-82083819D01*
X139094962Y-82117303D01*
X139025270Y-82112319D01*
X138969337Y-82070447D01*
X138952422Y-82039470D01*
X138903354Y-81907913D01*
X138903350Y-81907906D01*
X138817190Y-81792812D01*
X138817187Y-81792809D01*
X138702093Y-81706649D01*
X138702086Y-81706645D01*
X138567379Y-81656403D01*
X138567372Y-81656401D01*
X138507844Y-81650000D01*
X137860000Y-81650000D01*
X137860000Y-82566988D01*
X137802993Y-82534075D01*
X137675826Y-82500000D01*
X137544174Y-82500000D01*
X137417007Y-82534075D01*
X137360000Y-82566988D01*
X137360000Y-81650000D01*
X136712155Y-81650000D01*
X136652627Y-81656401D01*
X136652620Y-81656403D01*
X136517913Y-81706645D01*
X136517906Y-81706649D01*
X136402812Y-81792809D01*
X136402809Y-81792812D01*
X136316649Y-81907906D01*
X136316645Y-81907913D01*
X136266403Y-82042620D01*
X136266401Y-82042627D01*
X136260000Y-82102155D01*
X130250500Y-82102155D01*
X130250500Y-81374500D01*
X130270185Y-81307461D01*
X130322989Y-81261706D01*
X130374500Y-81250500D01*
X163125500Y-81250500D01*
X163192539Y-81270185D01*
G37*
%TD.AperFunction*%
%TD*%
M02*
