%TF.GenerationSoftware,KiCad,Pcbnew,9.0.4*%
%TF.CreationDate,2025-12-16T10:37:17-05:00*%
%TF.ProjectId,TARS,54415253-2e6b-4696-9361-645f70636258,rev?*%
%TF.SameCoordinates,Original*%
%TF.FileFunction,Legend,Top*%
%TF.FilePolarity,Positive*%
%FSLAX46Y46*%
G04 Gerber Fmt 4.6, Leading zero omitted, Abs format (unit mm)*
G04 Created by KiCad (PCBNEW 9.0.4) date 2025-12-16 10:37:17*
%MOMM*%
%LPD*%
G01*
G04 APERTURE LIST*
%ADD10C,0.150000*%
%ADD11C,0.120000*%
G04 APERTURE END LIST*
D10*
X175601905Y-151881819D02*
X175601905Y-150881819D01*
X175601905Y-150881819D02*
X175840000Y-150881819D01*
X175840000Y-150881819D02*
X175982857Y-150929438D01*
X175982857Y-150929438D02*
X176078095Y-151024676D01*
X176078095Y-151024676D02*
X176125714Y-151119914D01*
X176125714Y-151119914D02*
X176173333Y-151310390D01*
X176173333Y-151310390D02*
X176173333Y-151453247D01*
X176173333Y-151453247D02*
X176125714Y-151643723D01*
X176125714Y-151643723D02*
X176078095Y-151738961D01*
X176078095Y-151738961D02*
X175982857Y-151834200D01*
X175982857Y-151834200D02*
X175840000Y-151881819D01*
X175840000Y-151881819D02*
X175601905Y-151881819D01*
X177125714Y-151881819D02*
X176554286Y-151881819D01*
X176840000Y-151881819D02*
X176840000Y-150881819D01*
X176840000Y-150881819D02*
X176744762Y-151024676D01*
X176744762Y-151024676D02*
X176649524Y-151119914D01*
X176649524Y-151119914D02*
X176554286Y-151167533D01*
X171421714Y-127782819D02*
X171421714Y-126782819D01*
X171421714Y-126782819D02*
X171659809Y-126782819D01*
X171659809Y-126782819D02*
X171802666Y-126830438D01*
X171802666Y-126830438D02*
X171897904Y-126925676D01*
X171897904Y-126925676D02*
X171945523Y-127020914D01*
X171945523Y-127020914D02*
X171993142Y-127211390D01*
X171993142Y-127211390D02*
X171993142Y-127354247D01*
X171993142Y-127354247D02*
X171945523Y-127544723D01*
X171945523Y-127544723D02*
X171897904Y-127639961D01*
X171897904Y-127639961D02*
X171802666Y-127735200D01*
X171802666Y-127735200D02*
X171659809Y-127782819D01*
X171659809Y-127782819D02*
X171421714Y-127782819D01*
X172945523Y-127782819D02*
X172374095Y-127782819D01*
X172659809Y-127782819D02*
X172659809Y-126782819D01*
X172659809Y-126782819D02*
X172564571Y-126925676D01*
X172564571Y-126925676D02*
X172469333Y-127020914D01*
X172469333Y-127020914D02*
X172374095Y-127068533D01*
X173564571Y-126782819D02*
X173659809Y-126782819D01*
X173659809Y-126782819D02*
X173755047Y-126830438D01*
X173755047Y-126830438D02*
X173802666Y-126878057D01*
X173802666Y-126878057D02*
X173850285Y-126973295D01*
X173850285Y-126973295D02*
X173897904Y-127163771D01*
X173897904Y-127163771D02*
X173897904Y-127401866D01*
X173897904Y-127401866D02*
X173850285Y-127592342D01*
X173850285Y-127592342D02*
X173802666Y-127687580D01*
X173802666Y-127687580D02*
X173755047Y-127735200D01*
X173755047Y-127735200D02*
X173659809Y-127782819D01*
X173659809Y-127782819D02*
X173564571Y-127782819D01*
X173564571Y-127782819D02*
X173469333Y-127735200D01*
X173469333Y-127735200D02*
X173421714Y-127687580D01*
X173421714Y-127687580D02*
X173374095Y-127592342D01*
X173374095Y-127592342D02*
X173326476Y-127401866D01*
X173326476Y-127401866D02*
X173326476Y-127163771D01*
X173326476Y-127163771D02*
X173374095Y-126973295D01*
X173374095Y-126973295D02*
X173421714Y-126878057D01*
X173421714Y-126878057D02*
X173469333Y-126830438D01*
X173469333Y-126830438D02*
X173564571Y-126782819D01*
X159690476Y-122834819D02*
X159690476Y-123549104D01*
X159690476Y-123549104D02*
X159642857Y-123691961D01*
X159642857Y-123691961D02*
X159547619Y-123787200D01*
X159547619Y-123787200D02*
X159404762Y-123834819D01*
X159404762Y-123834819D02*
X159309524Y-123834819D01*
X160690476Y-123834819D02*
X160119048Y-123834819D01*
X160404762Y-123834819D02*
X160404762Y-122834819D01*
X160404762Y-122834819D02*
X160309524Y-122977676D01*
X160309524Y-122977676D02*
X160214286Y-123072914D01*
X160214286Y-123072914D02*
X160119048Y-123120533D01*
X161642857Y-123834819D02*
X161071429Y-123834819D01*
X161357143Y-123834819D02*
X161357143Y-122834819D01*
X161357143Y-122834819D02*
X161261905Y-122977676D01*
X161261905Y-122977676D02*
X161166667Y-123072914D01*
X161166667Y-123072914D02*
X161071429Y-123120533D01*
X137440476Y-135874819D02*
X137440476Y-136589104D01*
X137440476Y-136589104D02*
X137392857Y-136731961D01*
X137392857Y-136731961D02*
X137297619Y-136827200D01*
X137297619Y-136827200D02*
X137154762Y-136874819D01*
X137154762Y-136874819D02*
X137059524Y-136874819D01*
X138440476Y-136874819D02*
X137869048Y-136874819D01*
X138154762Y-136874819D02*
X138154762Y-135874819D01*
X138154762Y-135874819D02*
X138059524Y-136017676D01*
X138059524Y-136017676D02*
X137964286Y-136112914D01*
X137964286Y-136112914D02*
X137869048Y-136160533D01*
X139345238Y-135874819D02*
X138869048Y-135874819D01*
X138869048Y-135874819D02*
X138821429Y-136351009D01*
X138821429Y-136351009D02*
X138869048Y-136303390D01*
X138869048Y-136303390D02*
X138964286Y-136255771D01*
X138964286Y-136255771D02*
X139202381Y-136255771D01*
X139202381Y-136255771D02*
X139297619Y-136303390D01*
X139297619Y-136303390D02*
X139345238Y-136351009D01*
X139345238Y-136351009D02*
X139392857Y-136446247D01*
X139392857Y-136446247D02*
X139392857Y-136684342D01*
X139392857Y-136684342D02*
X139345238Y-136779580D01*
X139345238Y-136779580D02*
X139297619Y-136827200D01*
X139297619Y-136827200D02*
X139202381Y-136874819D01*
X139202381Y-136874819D02*
X138964286Y-136874819D01*
X138964286Y-136874819D02*
X138869048Y-136827200D01*
X138869048Y-136827200D02*
X138821429Y-136779580D01*
X146440476Y-140954819D02*
X146440476Y-141669104D01*
X146440476Y-141669104D02*
X146392857Y-141811961D01*
X146392857Y-141811961D02*
X146297619Y-141907200D01*
X146297619Y-141907200D02*
X146154762Y-141954819D01*
X146154762Y-141954819D02*
X146059524Y-141954819D01*
X147440476Y-141954819D02*
X146869048Y-141954819D01*
X147154762Y-141954819D02*
X147154762Y-140954819D01*
X147154762Y-140954819D02*
X147059524Y-141097676D01*
X147059524Y-141097676D02*
X146964286Y-141192914D01*
X146964286Y-141192914D02*
X146869048Y-141240533D01*
X147773810Y-140954819D02*
X148440476Y-140954819D01*
X148440476Y-140954819D02*
X148011905Y-141954819D01*
X151823333Y-100409580D02*
X151775714Y-100457200D01*
X151775714Y-100457200D02*
X151632857Y-100504819D01*
X151632857Y-100504819D02*
X151537619Y-100504819D01*
X151537619Y-100504819D02*
X151394762Y-100457200D01*
X151394762Y-100457200D02*
X151299524Y-100361961D01*
X151299524Y-100361961D02*
X151251905Y-100266723D01*
X151251905Y-100266723D02*
X151204286Y-100076247D01*
X151204286Y-100076247D02*
X151204286Y-99933390D01*
X151204286Y-99933390D02*
X151251905Y-99742914D01*
X151251905Y-99742914D02*
X151299524Y-99647676D01*
X151299524Y-99647676D02*
X151394762Y-99552438D01*
X151394762Y-99552438D02*
X151537619Y-99504819D01*
X151537619Y-99504819D02*
X151632857Y-99504819D01*
X151632857Y-99504819D02*
X151775714Y-99552438D01*
X151775714Y-99552438D02*
X151823333Y-99600057D01*
X152156667Y-99504819D02*
X152823333Y-99504819D01*
X152823333Y-99504819D02*
X152394762Y-100504819D01*
X168595642Y-96028819D02*
X168262309Y-95552628D01*
X168024214Y-96028819D02*
X168024214Y-95028819D01*
X168024214Y-95028819D02*
X168405166Y-95028819D01*
X168405166Y-95028819D02*
X168500404Y-95076438D01*
X168500404Y-95076438D02*
X168548023Y-95124057D01*
X168548023Y-95124057D02*
X168595642Y-95219295D01*
X168595642Y-95219295D02*
X168595642Y-95362152D01*
X168595642Y-95362152D02*
X168548023Y-95457390D01*
X168548023Y-95457390D02*
X168500404Y-95505009D01*
X168500404Y-95505009D02*
X168405166Y-95552628D01*
X168405166Y-95552628D02*
X168024214Y-95552628D01*
X169548023Y-96028819D02*
X168976595Y-96028819D01*
X169262309Y-96028819D02*
X169262309Y-95028819D01*
X169262309Y-95028819D02*
X169167071Y-95171676D01*
X169167071Y-95171676D02*
X169071833Y-95266914D01*
X169071833Y-95266914D02*
X168976595Y-95314533D01*
X170452785Y-95028819D02*
X169976595Y-95028819D01*
X169976595Y-95028819D02*
X169928976Y-95505009D01*
X169928976Y-95505009D02*
X169976595Y-95457390D01*
X169976595Y-95457390D02*
X170071833Y-95409771D01*
X170071833Y-95409771D02*
X170309928Y-95409771D01*
X170309928Y-95409771D02*
X170405166Y-95457390D01*
X170405166Y-95457390D02*
X170452785Y-95505009D01*
X170452785Y-95505009D02*
X170500404Y-95600247D01*
X170500404Y-95600247D02*
X170500404Y-95838342D01*
X170500404Y-95838342D02*
X170452785Y-95933580D01*
X170452785Y-95933580D02*
X170405166Y-95981200D01*
X170405166Y-95981200D02*
X170309928Y-96028819D01*
X170309928Y-96028819D02*
X170071833Y-96028819D01*
X170071833Y-96028819D02*
X169976595Y-95981200D01*
X169976595Y-95981200D02*
X169928976Y-95933580D01*
X155161904Y-121140180D02*
X155161904Y-120330657D01*
X155161904Y-120330657D02*
X155114285Y-120235419D01*
X155114285Y-120235419D02*
X155066666Y-120187800D01*
X155066666Y-120187800D02*
X154971428Y-120140180D01*
X154971428Y-120140180D02*
X154780952Y-120140180D01*
X154780952Y-120140180D02*
X154685714Y-120187800D01*
X154685714Y-120187800D02*
X154638095Y-120235419D01*
X154638095Y-120235419D02*
X154590476Y-120330657D01*
X154590476Y-120330657D02*
X154590476Y-121140180D01*
X153590476Y-120140180D02*
X154161904Y-120140180D01*
X153876190Y-120140180D02*
X153876190Y-121140180D01*
X153876190Y-121140180D02*
X153971428Y-120997323D01*
X153971428Y-120997323D02*
X154066666Y-120902085D01*
X154066666Y-120902085D02*
X154161904Y-120854466D01*
X155833333Y-124679580D02*
X155785714Y-124727200D01*
X155785714Y-124727200D02*
X155642857Y-124774819D01*
X155642857Y-124774819D02*
X155547619Y-124774819D01*
X155547619Y-124774819D02*
X155404762Y-124727200D01*
X155404762Y-124727200D02*
X155309524Y-124631961D01*
X155309524Y-124631961D02*
X155261905Y-124536723D01*
X155261905Y-124536723D02*
X155214286Y-124346247D01*
X155214286Y-124346247D02*
X155214286Y-124203390D01*
X155214286Y-124203390D02*
X155261905Y-124012914D01*
X155261905Y-124012914D02*
X155309524Y-123917676D01*
X155309524Y-123917676D02*
X155404762Y-123822438D01*
X155404762Y-123822438D02*
X155547619Y-123774819D01*
X155547619Y-123774819D02*
X155642857Y-123774819D01*
X155642857Y-123774819D02*
X155785714Y-123822438D01*
X155785714Y-123822438D02*
X155833333Y-123870057D01*
X156166667Y-123774819D02*
X156785714Y-123774819D01*
X156785714Y-123774819D02*
X156452381Y-124155771D01*
X156452381Y-124155771D02*
X156595238Y-124155771D01*
X156595238Y-124155771D02*
X156690476Y-124203390D01*
X156690476Y-124203390D02*
X156738095Y-124251009D01*
X156738095Y-124251009D02*
X156785714Y-124346247D01*
X156785714Y-124346247D02*
X156785714Y-124584342D01*
X156785714Y-124584342D02*
X156738095Y-124679580D01*
X156738095Y-124679580D02*
X156690476Y-124727200D01*
X156690476Y-124727200D02*
X156595238Y-124774819D01*
X156595238Y-124774819D02*
X156309524Y-124774819D01*
X156309524Y-124774819D02*
X156214286Y-124727200D01*
X156214286Y-124727200D02*
X156166667Y-124679580D01*
X159857142Y-131454819D02*
X159380952Y-131454819D01*
X159380952Y-131454819D02*
X159380952Y-130454819D01*
X160142857Y-131407200D02*
X160285714Y-131454819D01*
X160285714Y-131454819D02*
X160523809Y-131454819D01*
X160523809Y-131454819D02*
X160619047Y-131407200D01*
X160619047Y-131407200D02*
X160666666Y-131359580D01*
X160666666Y-131359580D02*
X160714285Y-131264342D01*
X160714285Y-131264342D02*
X160714285Y-131169104D01*
X160714285Y-131169104D02*
X160666666Y-131073866D01*
X160666666Y-131073866D02*
X160619047Y-131026247D01*
X160619047Y-131026247D02*
X160523809Y-130978628D01*
X160523809Y-130978628D02*
X160333333Y-130931009D01*
X160333333Y-130931009D02*
X160238095Y-130883390D01*
X160238095Y-130883390D02*
X160190476Y-130835771D01*
X160190476Y-130835771D02*
X160142857Y-130740533D01*
X160142857Y-130740533D02*
X160142857Y-130645295D01*
X160142857Y-130645295D02*
X160190476Y-130550057D01*
X160190476Y-130550057D02*
X160238095Y-130502438D01*
X160238095Y-130502438D02*
X160333333Y-130454819D01*
X160333333Y-130454819D02*
X160571428Y-130454819D01*
X160571428Y-130454819D02*
X160714285Y-130502438D01*
X161666666Y-131454819D02*
X161095238Y-131454819D01*
X161380952Y-131454819D02*
X161380952Y-130454819D01*
X161380952Y-130454819D02*
X161285714Y-130597676D01*
X161285714Y-130597676D02*
X161190476Y-130692914D01*
X161190476Y-130692914D02*
X161095238Y-130740533D01*
X145823333Y-100409580D02*
X145775714Y-100457200D01*
X145775714Y-100457200D02*
X145632857Y-100504819D01*
X145632857Y-100504819D02*
X145537619Y-100504819D01*
X145537619Y-100504819D02*
X145394762Y-100457200D01*
X145394762Y-100457200D02*
X145299524Y-100361961D01*
X145299524Y-100361961D02*
X145251905Y-100266723D01*
X145251905Y-100266723D02*
X145204286Y-100076247D01*
X145204286Y-100076247D02*
X145204286Y-99933390D01*
X145204286Y-99933390D02*
X145251905Y-99742914D01*
X145251905Y-99742914D02*
X145299524Y-99647676D01*
X145299524Y-99647676D02*
X145394762Y-99552438D01*
X145394762Y-99552438D02*
X145537619Y-99504819D01*
X145537619Y-99504819D02*
X145632857Y-99504819D01*
X145632857Y-99504819D02*
X145775714Y-99552438D01*
X145775714Y-99552438D02*
X145823333Y-99600057D01*
X146728095Y-99504819D02*
X146251905Y-99504819D01*
X146251905Y-99504819D02*
X146204286Y-99981009D01*
X146204286Y-99981009D02*
X146251905Y-99933390D01*
X146251905Y-99933390D02*
X146347143Y-99885771D01*
X146347143Y-99885771D02*
X146585238Y-99885771D01*
X146585238Y-99885771D02*
X146680476Y-99933390D01*
X146680476Y-99933390D02*
X146728095Y-99981009D01*
X146728095Y-99981009D02*
X146775714Y-100076247D01*
X146775714Y-100076247D02*
X146775714Y-100314342D01*
X146775714Y-100314342D02*
X146728095Y-100409580D01*
X146728095Y-100409580D02*
X146680476Y-100457200D01*
X146680476Y-100457200D02*
X146585238Y-100504819D01*
X146585238Y-100504819D02*
X146347143Y-100504819D01*
X146347143Y-100504819D02*
X146251905Y-100457200D01*
X146251905Y-100457200D02*
X146204286Y-100409580D01*
X159690476Y-94574819D02*
X159690476Y-93574819D01*
X159690476Y-93574819D02*
X160023809Y-94289104D01*
X160023809Y-94289104D02*
X160357142Y-93574819D01*
X160357142Y-93574819D02*
X160357142Y-94574819D01*
X160785714Y-93670057D02*
X160833333Y-93622438D01*
X160833333Y-93622438D02*
X160928571Y-93574819D01*
X160928571Y-93574819D02*
X161166666Y-93574819D01*
X161166666Y-93574819D02*
X161261904Y-93622438D01*
X161261904Y-93622438D02*
X161309523Y-93670057D01*
X161309523Y-93670057D02*
X161357142Y-93765295D01*
X161357142Y-93765295D02*
X161357142Y-93860533D01*
X161357142Y-93860533D02*
X161309523Y-94003390D01*
X161309523Y-94003390D02*
X160738095Y-94574819D01*
X160738095Y-94574819D02*
X161357142Y-94574819D01*
X175600905Y-143495819D02*
X175600905Y-142495819D01*
X175600905Y-142495819D02*
X175839000Y-142495819D01*
X175839000Y-142495819D02*
X175981857Y-142543438D01*
X175981857Y-142543438D02*
X176077095Y-142638676D01*
X176077095Y-142638676D02*
X176124714Y-142733914D01*
X176124714Y-142733914D02*
X176172333Y-142924390D01*
X176172333Y-142924390D02*
X176172333Y-143067247D01*
X176172333Y-143067247D02*
X176124714Y-143257723D01*
X176124714Y-143257723D02*
X176077095Y-143352961D01*
X176077095Y-143352961D02*
X175981857Y-143448200D01*
X175981857Y-143448200D02*
X175839000Y-143495819D01*
X175839000Y-143495819D02*
X175600905Y-143495819D01*
X177077095Y-142495819D02*
X176600905Y-142495819D01*
X176600905Y-142495819D02*
X176553286Y-142972009D01*
X176553286Y-142972009D02*
X176600905Y-142924390D01*
X176600905Y-142924390D02*
X176696143Y-142876771D01*
X176696143Y-142876771D02*
X176934238Y-142876771D01*
X176934238Y-142876771D02*
X177029476Y-142924390D01*
X177029476Y-142924390D02*
X177077095Y-142972009D01*
X177077095Y-142972009D02*
X177124714Y-143067247D01*
X177124714Y-143067247D02*
X177124714Y-143305342D01*
X177124714Y-143305342D02*
X177077095Y-143400580D01*
X177077095Y-143400580D02*
X177029476Y-143448200D01*
X177029476Y-143448200D02*
X176934238Y-143495819D01*
X176934238Y-143495819D02*
X176696143Y-143495819D01*
X176696143Y-143495819D02*
X176600905Y-143448200D01*
X176600905Y-143448200D02*
X176553286Y-143400580D01*
X157190476Y-141954819D02*
X157190476Y-142669104D01*
X157190476Y-142669104D02*
X157142857Y-142811961D01*
X157142857Y-142811961D02*
X157047619Y-142907200D01*
X157047619Y-142907200D02*
X156904762Y-142954819D01*
X156904762Y-142954819D02*
X156809524Y-142954819D01*
X158190476Y-142954819D02*
X157619048Y-142954819D01*
X157904762Y-142954819D02*
X157904762Y-141954819D01*
X157904762Y-141954819D02*
X157809524Y-142097676D01*
X157809524Y-142097676D02*
X157714286Y-142192914D01*
X157714286Y-142192914D02*
X157619048Y-142240533D01*
X158523810Y-141954819D02*
X159142857Y-141954819D01*
X159142857Y-141954819D02*
X158809524Y-142335771D01*
X158809524Y-142335771D02*
X158952381Y-142335771D01*
X158952381Y-142335771D02*
X159047619Y-142383390D01*
X159047619Y-142383390D02*
X159095238Y-142431009D01*
X159095238Y-142431009D02*
X159142857Y-142526247D01*
X159142857Y-142526247D02*
X159142857Y-142764342D01*
X159142857Y-142764342D02*
X159095238Y-142859580D01*
X159095238Y-142859580D02*
X159047619Y-142907200D01*
X159047619Y-142907200D02*
X158952381Y-142954819D01*
X158952381Y-142954819D02*
X158666667Y-142954819D01*
X158666667Y-142954819D02*
X158571429Y-142907200D01*
X158571429Y-142907200D02*
X158523810Y-142859580D01*
X171376214Y-119150819D02*
X171376214Y-118150819D01*
X171376214Y-118150819D02*
X171614309Y-118150819D01*
X171614309Y-118150819D02*
X171757166Y-118198438D01*
X171757166Y-118198438D02*
X171852404Y-118293676D01*
X171852404Y-118293676D02*
X171900023Y-118388914D01*
X171900023Y-118388914D02*
X171947642Y-118579390D01*
X171947642Y-118579390D02*
X171947642Y-118722247D01*
X171947642Y-118722247D02*
X171900023Y-118912723D01*
X171900023Y-118912723D02*
X171852404Y-119007961D01*
X171852404Y-119007961D02*
X171757166Y-119103200D01*
X171757166Y-119103200D02*
X171614309Y-119150819D01*
X171614309Y-119150819D02*
X171376214Y-119150819D01*
X172900023Y-119150819D02*
X172328595Y-119150819D01*
X172614309Y-119150819D02*
X172614309Y-118150819D01*
X172614309Y-118150819D02*
X172519071Y-118293676D01*
X172519071Y-118293676D02*
X172423833Y-118388914D01*
X172423833Y-118388914D02*
X172328595Y-118436533D01*
X173852404Y-119150819D02*
X173280976Y-119150819D01*
X173566690Y-119150819D02*
X173566690Y-118150819D01*
X173566690Y-118150819D02*
X173471452Y-118293676D01*
X173471452Y-118293676D02*
X173376214Y-118388914D01*
X173376214Y-118388914D02*
X173280976Y-118436533D01*
X171826905Y-152988819D02*
X171826905Y-151988819D01*
X171826905Y-151988819D02*
X172065000Y-151988819D01*
X172065000Y-151988819D02*
X172207857Y-152036438D01*
X172207857Y-152036438D02*
X172303095Y-152131676D01*
X172303095Y-152131676D02*
X172350714Y-152226914D01*
X172350714Y-152226914D02*
X172398333Y-152417390D01*
X172398333Y-152417390D02*
X172398333Y-152560247D01*
X172398333Y-152560247D02*
X172350714Y-152750723D01*
X172350714Y-152750723D02*
X172303095Y-152845961D01*
X172303095Y-152845961D02*
X172207857Y-152941200D01*
X172207857Y-152941200D02*
X172065000Y-152988819D01*
X172065000Y-152988819D02*
X171826905Y-152988819D01*
X172779286Y-152084057D02*
X172826905Y-152036438D01*
X172826905Y-152036438D02*
X172922143Y-151988819D01*
X172922143Y-151988819D02*
X173160238Y-151988819D01*
X173160238Y-151988819D02*
X173255476Y-152036438D01*
X173255476Y-152036438D02*
X173303095Y-152084057D01*
X173303095Y-152084057D02*
X173350714Y-152179295D01*
X173350714Y-152179295D02*
X173350714Y-152274533D01*
X173350714Y-152274533D02*
X173303095Y-152417390D01*
X173303095Y-152417390D02*
X172731667Y-152988819D01*
X172731667Y-152988819D02*
X173350714Y-152988819D01*
X134684819Y-83333333D02*
X135399104Y-83333333D01*
X135399104Y-83333333D02*
X135541961Y-83380952D01*
X135541961Y-83380952D02*
X135637200Y-83476190D01*
X135637200Y-83476190D02*
X135684819Y-83619047D01*
X135684819Y-83619047D02*
X135684819Y-83714285D01*
X135684819Y-82333333D02*
X135684819Y-82904761D01*
X135684819Y-82619047D02*
X134684819Y-82619047D01*
X134684819Y-82619047D02*
X134827676Y-82714285D01*
X134827676Y-82714285D02*
X134922914Y-82809523D01*
X134922914Y-82809523D02*
X134970533Y-82904761D01*
X158583333Y-138109580D02*
X158535714Y-138157200D01*
X158535714Y-138157200D02*
X158392857Y-138204819D01*
X158392857Y-138204819D02*
X158297619Y-138204819D01*
X158297619Y-138204819D02*
X158154762Y-138157200D01*
X158154762Y-138157200D02*
X158059524Y-138061961D01*
X158059524Y-138061961D02*
X158011905Y-137966723D01*
X158011905Y-137966723D02*
X157964286Y-137776247D01*
X157964286Y-137776247D02*
X157964286Y-137633390D01*
X157964286Y-137633390D02*
X158011905Y-137442914D01*
X158011905Y-137442914D02*
X158059524Y-137347676D01*
X158059524Y-137347676D02*
X158154762Y-137252438D01*
X158154762Y-137252438D02*
X158297619Y-137204819D01*
X158297619Y-137204819D02*
X158392857Y-137204819D01*
X158392857Y-137204819D02*
X158535714Y-137252438D01*
X158535714Y-137252438D02*
X158583333Y-137300057D01*
X159535714Y-138204819D02*
X158964286Y-138204819D01*
X159250000Y-138204819D02*
X159250000Y-137204819D01*
X159250000Y-137204819D02*
X159154762Y-137347676D01*
X159154762Y-137347676D02*
X159059524Y-137442914D01*
X159059524Y-137442914D02*
X158964286Y-137490533D01*
X148823333Y-100409580D02*
X148775714Y-100457200D01*
X148775714Y-100457200D02*
X148632857Y-100504819D01*
X148632857Y-100504819D02*
X148537619Y-100504819D01*
X148537619Y-100504819D02*
X148394762Y-100457200D01*
X148394762Y-100457200D02*
X148299524Y-100361961D01*
X148299524Y-100361961D02*
X148251905Y-100266723D01*
X148251905Y-100266723D02*
X148204286Y-100076247D01*
X148204286Y-100076247D02*
X148204286Y-99933390D01*
X148204286Y-99933390D02*
X148251905Y-99742914D01*
X148251905Y-99742914D02*
X148299524Y-99647676D01*
X148299524Y-99647676D02*
X148394762Y-99552438D01*
X148394762Y-99552438D02*
X148537619Y-99504819D01*
X148537619Y-99504819D02*
X148632857Y-99504819D01*
X148632857Y-99504819D02*
X148775714Y-99552438D01*
X148775714Y-99552438D02*
X148823333Y-99600057D01*
X149680476Y-99504819D02*
X149490000Y-99504819D01*
X149490000Y-99504819D02*
X149394762Y-99552438D01*
X149394762Y-99552438D02*
X149347143Y-99600057D01*
X149347143Y-99600057D02*
X149251905Y-99742914D01*
X149251905Y-99742914D02*
X149204286Y-99933390D01*
X149204286Y-99933390D02*
X149204286Y-100314342D01*
X149204286Y-100314342D02*
X149251905Y-100409580D01*
X149251905Y-100409580D02*
X149299524Y-100457200D01*
X149299524Y-100457200D02*
X149394762Y-100504819D01*
X149394762Y-100504819D02*
X149585238Y-100504819D01*
X149585238Y-100504819D02*
X149680476Y-100457200D01*
X149680476Y-100457200D02*
X149728095Y-100409580D01*
X149728095Y-100409580D02*
X149775714Y-100314342D01*
X149775714Y-100314342D02*
X149775714Y-100076247D01*
X149775714Y-100076247D02*
X149728095Y-99981009D01*
X149728095Y-99981009D02*
X149680476Y-99933390D01*
X149680476Y-99933390D02*
X149585238Y-99885771D01*
X149585238Y-99885771D02*
X149394762Y-99885771D01*
X149394762Y-99885771D02*
X149299524Y-99933390D01*
X149299524Y-99933390D02*
X149251905Y-99981009D01*
X149251905Y-99981009D02*
X149204286Y-100076247D01*
X175563905Y-122896819D02*
X175563905Y-121896819D01*
X175563905Y-121896819D02*
X175802000Y-121896819D01*
X175802000Y-121896819D02*
X175944857Y-121944438D01*
X175944857Y-121944438D02*
X176040095Y-122039676D01*
X176040095Y-122039676D02*
X176087714Y-122134914D01*
X176087714Y-122134914D02*
X176135333Y-122325390D01*
X176135333Y-122325390D02*
X176135333Y-122468247D01*
X176135333Y-122468247D02*
X176087714Y-122658723D01*
X176087714Y-122658723D02*
X176040095Y-122753961D01*
X176040095Y-122753961D02*
X175944857Y-122849200D01*
X175944857Y-122849200D02*
X175802000Y-122896819D01*
X175802000Y-122896819D02*
X175563905Y-122896819D01*
X176611524Y-122896819D02*
X176802000Y-122896819D01*
X176802000Y-122896819D02*
X176897238Y-122849200D01*
X176897238Y-122849200D02*
X176944857Y-122801580D01*
X176944857Y-122801580D02*
X177040095Y-122658723D01*
X177040095Y-122658723D02*
X177087714Y-122468247D01*
X177087714Y-122468247D02*
X177087714Y-122087295D01*
X177087714Y-122087295D02*
X177040095Y-121992057D01*
X177040095Y-121992057D02*
X176992476Y-121944438D01*
X176992476Y-121944438D02*
X176897238Y-121896819D01*
X176897238Y-121896819D02*
X176706762Y-121896819D01*
X176706762Y-121896819D02*
X176611524Y-121944438D01*
X176611524Y-121944438D02*
X176563905Y-121992057D01*
X176563905Y-121992057D02*
X176516286Y-122087295D01*
X176516286Y-122087295D02*
X176516286Y-122325390D01*
X176516286Y-122325390D02*
X176563905Y-122420628D01*
X176563905Y-122420628D02*
X176611524Y-122468247D01*
X176611524Y-122468247D02*
X176706762Y-122515866D01*
X176706762Y-122515866D02*
X176897238Y-122515866D01*
X176897238Y-122515866D02*
X176992476Y-122468247D01*
X176992476Y-122468247D02*
X177040095Y-122420628D01*
X177040095Y-122420628D02*
X177087714Y-122325390D01*
X171605819Y-108557333D02*
X172320104Y-108557333D01*
X172320104Y-108557333D02*
X172462961Y-108604952D01*
X172462961Y-108604952D02*
X172558200Y-108700190D01*
X172558200Y-108700190D02*
X172605819Y-108843047D01*
X172605819Y-108843047D02*
X172605819Y-108938285D01*
X171605819Y-108176380D02*
X171605819Y-107557333D01*
X171605819Y-107557333D02*
X171986771Y-107890666D01*
X171986771Y-107890666D02*
X171986771Y-107747809D01*
X171986771Y-107747809D02*
X172034390Y-107652571D01*
X172034390Y-107652571D02*
X172082009Y-107604952D01*
X172082009Y-107604952D02*
X172177247Y-107557333D01*
X172177247Y-107557333D02*
X172415342Y-107557333D01*
X172415342Y-107557333D02*
X172510580Y-107604952D01*
X172510580Y-107604952D02*
X172558200Y-107652571D01*
X172558200Y-107652571D02*
X172605819Y-107747809D01*
X172605819Y-107747809D02*
X172605819Y-108033523D01*
X172605819Y-108033523D02*
X172558200Y-108128761D01*
X172558200Y-108128761D02*
X172510580Y-108176380D01*
X142670833Y-138304819D02*
X142337500Y-137828628D01*
X142099405Y-138304819D02*
X142099405Y-137304819D01*
X142099405Y-137304819D02*
X142480357Y-137304819D01*
X142480357Y-137304819D02*
X142575595Y-137352438D01*
X142575595Y-137352438D02*
X142623214Y-137400057D01*
X142623214Y-137400057D02*
X142670833Y-137495295D01*
X142670833Y-137495295D02*
X142670833Y-137638152D01*
X142670833Y-137638152D02*
X142623214Y-137733390D01*
X142623214Y-137733390D02*
X142575595Y-137781009D01*
X142575595Y-137781009D02*
X142480357Y-137828628D01*
X142480357Y-137828628D02*
X142099405Y-137828628D01*
X143527976Y-137638152D02*
X143527976Y-138304819D01*
X143289881Y-137257200D02*
X143051786Y-137971485D01*
X143051786Y-137971485D02*
X143670833Y-137971485D01*
X176066666Y-118994819D02*
X176066666Y-119709104D01*
X176066666Y-119709104D02*
X176019047Y-119851961D01*
X176019047Y-119851961D02*
X175923809Y-119947200D01*
X175923809Y-119947200D02*
X175780952Y-119994819D01*
X175780952Y-119994819D02*
X175685714Y-119994819D01*
X177019047Y-118994819D02*
X176542857Y-118994819D01*
X176542857Y-118994819D02*
X176495238Y-119471009D01*
X176495238Y-119471009D02*
X176542857Y-119423390D01*
X176542857Y-119423390D02*
X176638095Y-119375771D01*
X176638095Y-119375771D02*
X176876190Y-119375771D01*
X176876190Y-119375771D02*
X176971428Y-119423390D01*
X176971428Y-119423390D02*
X177019047Y-119471009D01*
X177019047Y-119471009D02*
X177066666Y-119566247D01*
X177066666Y-119566247D02*
X177066666Y-119804342D01*
X177066666Y-119804342D02*
X177019047Y-119899580D01*
X177019047Y-119899580D02*
X176971428Y-119947200D01*
X176971428Y-119947200D02*
X176876190Y-119994819D01*
X176876190Y-119994819D02*
X176638095Y-119994819D01*
X176638095Y-119994819D02*
X176542857Y-119947200D01*
X176542857Y-119947200D02*
X176495238Y-119899580D01*
X155833333Y-128179580D02*
X155785714Y-128227200D01*
X155785714Y-128227200D02*
X155642857Y-128274819D01*
X155642857Y-128274819D02*
X155547619Y-128274819D01*
X155547619Y-128274819D02*
X155404762Y-128227200D01*
X155404762Y-128227200D02*
X155309524Y-128131961D01*
X155309524Y-128131961D02*
X155261905Y-128036723D01*
X155261905Y-128036723D02*
X155214286Y-127846247D01*
X155214286Y-127846247D02*
X155214286Y-127703390D01*
X155214286Y-127703390D02*
X155261905Y-127512914D01*
X155261905Y-127512914D02*
X155309524Y-127417676D01*
X155309524Y-127417676D02*
X155404762Y-127322438D01*
X155404762Y-127322438D02*
X155547619Y-127274819D01*
X155547619Y-127274819D02*
X155642857Y-127274819D01*
X155642857Y-127274819D02*
X155785714Y-127322438D01*
X155785714Y-127322438D02*
X155833333Y-127370057D01*
X156690476Y-127608152D02*
X156690476Y-128274819D01*
X156452381Y-127227200D02*
X156214286Y-127941485D01*
X156214286Y-127941485D02*
X156833333Y-127941485D01*
X154600595Y-137204819D02*
X154600595Y-138014342D01*
X154600595Y-138014342D02*
X154648214Y-138109580D01*
X154648214Y-138109580D02*
X154695833Y-138157200D01*
X154695833Y-138157200D02*
X154791071Y-138204819D01*
X154791071Y-138204819D02*
X154981547Y-138204819D01*
X154981547Y-138204819D02*
X155076785Y-138157200D01*
X155076785Y-138157200D02*
X155124404Y-138109580D01*
X155124404Y-138109580D02*
X155172023Y-138014342D01*
X155172023Y-138014342D02*
X155172023Y-137204819D01*
X155600595Y-137300057D02*
X155648214Y-137252438D01*
X155648214Y-137252438D02*
X155743452Y-137204819D01*
X155743452Y-137204819D02*
X155981547Y-137204819D01*
X155981547Y-137204819D02*
X156076785Y-137252438D01*
X156076785Y-137252438D02*
X156124404Y-137300057D01*
X156124404Y-137300057D02*
X156172023Y-137395295D01*
X156172023Y-137395295D02*
X156172023Y-137490533D01*
X156172023Y-137490533D02*
X156124404Y-137633390D01*
X156124404Y-137633390D02*
X155552976Y-138204819D01*
X155552976Y-138204819D02*
X156172023Y-138204819D01*
X138666667Y-88907200D02*
X138809524Y-88954819D01*
X138809524Y-88954819D02*
X139047619Y-88954819D01*
X139047619Y-88954819D02*
X139142857Y-88907200D01*
X139142857Y-88907200D02*
X139190476Y-88859580D01*
X139190476Y-88859580D02*
X139238095Y-88764342D01*
X139238095Y-88764342D02*
X139238095Y-88669104D01*
X139238095Y-88669104D02*
X139190476Y-88573866D01*
X139190476Y-88573866D02*
X139142857Y-88526247D01*
X139142857Y-88526247D02*
X139047619Y-88478628D01*
X139047619Y-88478628D02*
X138857143Y-88431009D01*
X138857143Y-88431009D02*
X138761905Y-88383390D01*
X138761905Y-88383390D02*
X138714286Y-88335771D01*
X138714286Y-88335771D02*
X138666667Y-88240533D01*
X138666667Y-88240533D02*
X138666667Y-88145295D01*
X138666667Y-88145295D02*
X138714286Y-88050057D01*
X138714286Y-88050057D02*
X138761905Y-88002438D01*
X138761905Y-88002438D02*
X138857143Y-87954819D01*
X138857143Y-87954819D02*
X139095238Y-87954819D01*
X139095238Y-87954819D02*
X139238095Y-88002438D01*
X139571429Y-87954819D02*
X139809524Y-88954819D01*
X139809524Y-88954819D02*
X140000000Y-88240533D01*
X140000000Y-88240533D02*
X140190476Y-88954819D01*
X140190476Y-88954819D02*
X140428572Y-87954819D01*
X141238095Y-87954819D02*
X141047619Y-87954819D01*
X141047619Y-87954819D02*
X140952381Y-88002438D01*
X140952381Y-88002438D02*
X140904762Y-88050057D01*
X140904762Y-88050057D02*
X140809524Y-88192914D01*
X140809524Y-88192914D02*
X140761905Y-88383390D01*
X140761905Y-88383390D02*
X140761905Y-88764342D01*
X140761905Y-88764342D02*
X140809524Y-88859580D01*
X140809524Y-88859580D02*
X140857143Y-88907200D01*
X140857143Y-88907200D02*
X140952381Y-88954819D01*
X140952381Y-88954819D02*
X141142857Y-88954819D01*
X141142857Y-88954819D02*
X141238095Y-88907200D01*
X141238095Y-88907200D02*
X141285714Y-88859580D01*
X141285714Y-88859580D02*
X141333333Y-88764342D01*
X141333333Y-88764342D02*
X141333333Y-88526247D01*
X141333333Y-88526247D02*
X141285714Y-88431009D01*
X141285714Y-88431009D02*
X141238095Y-88383390D01*
X141238095Y-88383390D02*
X141142857Y-88335771D01*
X141142857Y-88335771D02*
X140952381Y-88335771D01*
X140952381Y-88335771D02*
X140857143Y-88383390D01*
X140857143Y-88383390D02*
X140809524Y-88431009D01*
X140809524Y-88431009D02*
X140761905Y-88526247D01*
X159690476Y-104494819D02*
X159690476Y-103494819D01*
X159690476Y-103494819D02*
X160023809Y-104209104D01*
X160023809Y-104209104D02*
X160357142Y-103494819D01*
X160357142Y-103494819D02*
X160357142Y-104494819D01*
X161357142Y-104494819D02*
X160785714Y-104494819D01*
X161071428Y-104494819D02*
X161071428Y-103494819D01*
X161071428Y-103494819D02*
X160976190Y-103637676D01*
X160976190Y-103637676D02*
X160880952Y-103732914D01*
X160880952Y-103732914D02*
X160785714Y-103780533D01*
X171879905Y-146954819D02*
X171879905Y-145954819D01*
X171879905Y-145954819D02*
X172118000Y-145954819D01*
X172118000Y-145954819D02*
X172260857Y-146002438D01*
X172260857Y-146002438D02*
X172356095Y-146097676D01*
X172356095Y-146097676D02*
X172403714Y-146192914D01*
X172403714Y-146192914D02*
X172451333Y-146383390D01*
X172451333Y-146383390D02*
X172451333Y-146526247D01*
X172451333Y-146526247D02*
X172403714Y-146716723D01*
X172403714Y-146716723D02*
X172356095Y-146811961D01*
X172356095Y-146811961D02*
X172260857Y-146907200D01*
X172260857Y-146907200D02*
X172118000Y-146954819D01*
X172118000Y-146954819D02*
X171879905Y-146954819D01*
X173308476Y-146288152D02*
X173308476Y-146954819D01*
X173070381Y-145907200D02*
X172832286Y-146621485D01*
X172832286Y-146621485D02*
X173451333Y-146621485D01*
X161083333Y-138204819D02*
X160750000Y-137728628D01*
X160511905Y-138204819D02*
X160511905Y-137204819D01*
X160511905Y-137204819D02*
X160892857Y-137204819D01*
X160892857Y-137204819D02*
X160988095Y-137252438D01*
X160988095Y-137252438D02*
X161035714Y-137300057D01*
X161035714Y-137300057D02*
X161083333Y-137395295D01*
X161083333Y-137395295D02*
X161083333Y-137538152D01*
X161083333Y-137538152D02*
X161035714Y-137633390D01*
X161035714Y-137633390D02*
X160988095Y-137681009D01*
X160988095Y-137681009D02*
X160892857Y-137728628D01*
X160892857Y-137728628D02*
X160511905Y-137728628D01*
X161464286Y-137300057D02*
X161511905Y-137252438D01*
X161511905Y-137252438D02*
X161607143Y-137204819D01*
X161607143Y-137204819D02*
X161845238Y-137204819D01*
X161845238Y-137204819D02*
X161940476Y-137252438D01*
X161940476Y-137252438D02*
X161988095Y-137300057D01*
X161988095Y-137300057D02*
X162035714Y-137395295D01*
X162035714Y-137395295D02*
X162035714Y-137490533D01*
X162035714Y-137490533D02*
X161988095Y-137633390D01*
X161988095Y-137633390D02*
X161416667Y-138204819D01*
X161416667Y-138204819D02*
X162035714Y-138204819D01*
X145823333Y-95417319D02*
X145490000Y-94941128D01*
X145251905Y-95417319D02*
X145251905Y-94417319D01*
X145251905Y-94417319D02*
X145632857Y-94417319D01*
X145632857Y-94417319D02*
X145728095Y-94464938D01*
X145728095Y-94464938D02*
X145775714Y-94512557D01*
X145775714Y-94512557D02*
X145823333Y-94607795D01*
X145823333Y-94607795D02*
X145823333Y-94750652D01*
X145823333Y-94750652D02*
X145775714Y-94845890D01*
X145775714Y-94845890D02*
X145728095Y-94893509D01*
X145728095Y-94893509D02*
X145632857Y-94941128D01*
X145632857Y-94941128D02*
X145251905Y-94941128D01*
X146775714Y-95417319D02*
X146204286Y-95417319D01*
X146490000Y-95417319D02*
X146490000Y-94417319D01*
X146490000Y-94417319D02*
X146394762Y-94560176D01*
X146394762Y-94560176D02*
X146299524Y-94655414D01*
X146299524Y-94655414D02*
X146204286Y-94703033D01*
X167699714Y-124263319D02*
X167699714Y-123263319D01*
X167699714Y-123263319D02*
X167937809Y-123263319D01*
X167937809Y-123263319D02*
X168080666Y-123310938D01*
X168080666Y-123310938D02*
X168175904Y-123406176D01*
X168175904Y-123406176D02*
X168223523Y-123501414D01*
X168223523Y-123501414D02*
X168271142Y-123691890D01*
X168271142Y-123691890D02*
X168271142Y-123834747D01*
X168271142Y-123834747D02*
X168223523Y-124025223D01*
X168223523Y-124025223D02*
X168175904Y-124120461D01*
X168175904Y-124120461D02*
X168080666Y-124215700D01*
X168080666Y-124215700D02*
X167937809Y-124263319D01*
X167937809Y-124263319D02*
X167699714Y-124263319D01*
X169223523Y-124263319D02*
X168652095Y-124263319D01*
X168937809Y-124263319D02*
X168937809Y-123263319D01*
X168937809Y-123263319D02*
X168842571Y-123406176D01*
X168842571Y-123406176D02*
X168747333Y-123501414D01*
X168747333Y-123501414D02*
X168652095Y-123549033D01*
X169604476Y-123358557D02*
X169652095Y-123310938D01*
X169652095Y-123310938D02*
X169747333Y-123263319D01*
X169747333Y-123263319D02*
X169985428Y-123263319D01*
X169985428Y-123263319D02*
X170080666Y-123310938D01*
X170080666Y-123310938D02*
X170128285Y-123358557D01*
X170128285Y-123358557D02*
X170175904Y-123453795D01*
X170175904Y-123453795D02*
X170175904Y-123549033D01*
X170175904Y-123549033D02*
X170128285Y-123691890D01*
X170128285Y-123691890D02*
X169556857Y-124263319D01*
X169556857Y-124263319D02*
X170175904Y-124263319D01*
X147170833Y-138304819D02*
X146837500Y-137828628D01*
X146599405Y-138304819D02*
X146599405Y-137304819D01*
X146599405Y-137304819D02*
X146980357Y-137304819D01*
X146980357Y-137304819D02*
X147075595Y-137352438D01*
X147075595Y-137352438D02*
X147123214Y-137400057D01*
X147123214Y-137400057D02*
X147170833Y-137495295D01*
X147170833Y-137495295D02*
X147170833Y-137638152D01*
X147170833Y-137638152D02*
X147123214Y-137733390D01*
X147123214Y-137733390D02*
X147075595Y-137781009D01*
X147075595Y-137781009D02*
X146980357Y-137828628D01*
X146980357Y-137828628D02*
X146599405Y-137828628D01*
X148075595Y-137304819D02*
X147599405Y-137304819D01*
X147599405Y-137304819D02*
X147551786Y-137781009D01*
X147551786Y-137781009D02*
X147599405Y-137733390D01*
X147599405Y-137733390D02*
X147694643Y-137685771D01*
X147694643Y-137685771D02*
X147932738Y-137685771D01*
X147932738Y-137685771D02*
X148027976Y-137733390D01*
X148027976Y-137733390D02*
X148075595Y-137781009D01*
X148075595Y-137781009D02*
X148123214Y-137876247D01*
X148123214Y-137876247D02*
X148123214Y-138114342D01*
X148123214Y-138114342D02*
X148075595Y-138209580D01*
X148075595Y-138209580D02*
X148027976Y-138257200D01*
X148027976Y-138257200D02*
X147932738Y-138304819D01*
X147932738Y-138304819D02*
X147694643Y-138304819D01*
X147694643Y-138304819D02*
X147599405Y-138257200D01*
X147599405Y-138257200D02*
X147551786Y-138209580D01*
X160166666Y-81034819D02*
X160166666Y-81749104D01*
X160166666Y-81749104D02*
X160119047Y-81891961D01*
X160119047Y-81891961D02*
X160023809Y-81987200D01*
X160023809Y-81987200D02*
X159880952Y-82034819D01*
X159880952Y-82034819D02*
X159785714Y-82034819D01*
X160595238Y-81130057D02*
X160642857Y-81082438D01*
X160642857Y-81082438D02*
X160738095Y-81034819D01*
X160738095Y-81034819D02*
X160976190Y-81034819D01*
X160976190Y-81034819D02*
X161071428Y-81082438D01*
X161071428Y-81082438D02*
X161119047Y-81130057D01*
X161119047Y-81130057D02*
X161166666Y-81225295D01*
X161166666Y-81225295D02*
X161166666Y-81320533D01*
X161166666Y-81320533D02*
X161119047Y-81463390D01*
X161119047Y-81463390D02*
X160547619Y-82034819D01*
X160547619Y-82034819D02*
X161166666Y-82034819D01*
X168210905Y-143533819D02*
X168210905Y-142533819D01*
X168210905Y-142533819D02*
X168449000Y-142533819D01*
X168449000Y-142533819D02*
X168591857Y-142581438D01*
X168591857Y-142581438D02*
X168687095Y-142676676D01*
X168687095Y-142676676D02*
X168734714Y-142771914D01*
X168734714Y-142771914D02*
X168782333Y-142962390D01*
X168782333Y-142962390D02*
X168782333Y-143105247D01*
X168782333Y-143105247D02*
X168734714Y-143295723D01*
X168734714Y-143295723D02*
X168687095Y-143390961D01*
X168687095Y-143390961D02*
X168591857Y-143486200D01*
X168591857Y-143486200D02*
X168449000Y-143533819D01*
X168449000Y-143533819D02*
X168210905Y-143533819D01*
X169639476Y-142533819D02*
X169449000Y-142533819D01*
X169449000Y-142533819D02*
X169353762Y-142581438D01*
X169353762Y-142581438D02*
X169306143Y-142629057D01*
X169306143Y-142629057D02*
X169210905Y-142771914D01*
X169210905Y-142771914D02*
X169163286Y-142962390D01*
X169163286Y-142962390D02*
X169163286Y-143343342D01*
X169163286Y-143343342D02*
X169210905Y-143438580D01*
X169210905Y-143438580D02*
X169258524Y-143486200D01*
X169258524Y-143486200D02*
X169353762Y-143533819D01*
X169353762Y-143533819D02*
X169544238Y-143533819D01*
X169544238Y-143533819D02*
X169639476Y-143486200D01*
X169639476Y-143486200D02*
X169687095Y-143438580D01*
X169687095Y-143438580D02*
X169734714Y-143343342D01*
X169734714Y-143343342D02*
X169734714Y-143105247D01*
X169734714Y-143105247D02*
X169687095Y-143010009D01*
X169687095Y-143010009D02*
X169639476Y-142962390D01*
X169639476Y-142962390D02*
X169544238Y-142914771D01*
X169544238Y-142914771D02*
X169353762Y-142914771D01*
X169353762Y-142914771D02*
X169258524Y-142962390D01*
X169258524Y-142962390D02*
X169210905Y-143010009D01*
X169210905Y-143010009D02*
X169163286Y-143105247D01*
X149667200Y-89333332D02*
X149714819Y-89190475D01*
X149714819Y-89190475D02*
X149714819Y-88952380D01*
X149714819Y-88952380D02*
X149667200Y-88857142D01*
X149667200Y-88857142D02*
X149619580Y-88809523D01*
X149619580Y-88809523D02*
X149524342Y-88761904D01*
X149524342Y-88761904D02*
X149429104Y-88761904D01*
X149429104Y-88761904D02*
X149333866Y-88809523D01*
X149333866Y-88809523D02*
X149286247Y-88857142D01*
X149286247Y-88857142D02*
X149238628Y-88952380D01*
X149238628Y-88952380D02*
X149191009Y-89142856D01*
X149191009Y-89142856D02*
X149143390Y-89238094D01*
X149143390Y-89238094D02*
X149095771Y-89285713D01*
X149095771Y-89285713D02*
X149000533Y-89333332D01*
X149000533Y-89333332D02*
X148905295Y-89333332D01*
X148905295Y-89333332D02*
X148810057Y-89285713D01*
X148810057Y-89285713D02*
X148762438Y-89238094D01*
X148762438Y-89238094D02*
X148714819Y-89142856D01*
X148714819Y-89142856D02*
X148714819Y-88904761D01*
X148714819Y-88904761D02*
X148762438Y-88761904D01*
X148714819Y-88428570D02*
X149714819Y-88190475D01*
X149714819Y-88190475D02*
X149000533Y-87999999D01*
X149000533Y-87999999D02*
X149714819Y-87809523D01*
X149714819Y-87809523D02*
X148714819Y-87571428D01*
X148714819Y-86714285D02*
X148714819Y-87190475D01*
X148714819Y-87190475D02*
X149191009Y-87238094D01*
X149191009Y-87238094D02*
X149143390Y-87190475D01*
X149143390Y-87190475D02*
X149095771Y-87095237D01*
X149095771Y-87095237D02*
X149095771Y-86857142D01*
X149095771Y-86857142D02*
X149143390Y-86761904D01*
X149143390Y-86761904D02*
X149191009Y-86714285D01*
X149191009Y-86714285D02*
X149286247Y-86666666D01*
X149286247Y-86666666D02*
X149524342Y-86666666D01*
X149524342Y-86666666D02*
X149619580Y-86714285D01*
X149619580Y-86714285D02*
X149667200Y-86761904D01*
X149667200Y-86761904D02*
X149714819Y-86857142D01*
X149714819Y-86857142D02*
X149714819Y-87095237D01*
X149714819Y-87095237D02*
X149667200Y-87190475D01*
X149667200Y-87190475D02*
X149619580Y-87238094D01*
X168249905Y-152994819D02*
X168249905Y-151994819D01*
X168249905Y-151994819D02*
X168488000Y-151994819D01*
X168488000Y-151994819D02*
X168630857Y-152042438D01*
X168630857Y-152042438D02*
X168726095Y-152137676D01*
X168726095Y-152137676D02*
X168773714Y-152232914D01*
X168773714Y-152232914D02*
X168821333Y-152423390D01*
X168821333Y-152423390D02*
X168821333Y-152566247D01*
X168821333Y-152566247D02*
X168773714Y-152756723D01*
X168773714Y-152756723D02*
X168726095Y-152851961D01*
X168726095Y-152851961D02*
X168630857Y-152947200D01*
X168630857Y-152947200D02*
X168488000Y-152994819D01*
X168488000Y-152994819D02*
X168249905Y-152994819D01*
X169154667Y-151994819D02*
X169773714Y-151994819D01*
X169773714Y-151994819D02*
X169440381Y-152375771D01*
X169440381Y-152375771D02*
X169583238Y-152375771D01*
X169583238Y-152375771D02*
X169678476Y-152423390D01*
X169678476Y-152423390D02*
X169726095Y-152471009D01*
X169726095Y-152471009D02*
X169773714Y-152566247D01*
X169773714Y-152566247D02*
X169773714Y-152804342D01*
X169773714Y-152804342D02*
X169726095Y-152899580D01*
X169726095Y-152899580D02*
X169678476Y-152947200D01*
X169678476Y-152947200D02*
X169583238Y-152994819D01*
X169583238Y-152994819D02*
X169297524Y-152994819D01*
X169297524Y-152994819D02*
X169202286Y-152947200D01*
X169202286Y-152947200D02*
X169154667Y-152899580D01*
X148323333Y-95159580D02*
X148275714Y-95207200D01*
X148275714Y-95207200D02*
X148132857Y-95254819D01*
X148132857Y-95254819D02*
X148037619Y-95254819D01*
X148037619Y-95254819D02*
X147894762Y-95207200D01*
X147894762Y-95207200D02*
X147799524Y-95111961D01*
X147799524Y-95111961D02*
X147751905Y-95016723D01*
X147751905Y-95016723D02*
X147704286Y-94826247D01*
X147704286Y-94826247D02*
X147704286Y-94683390D01*
X147704286Y-94683390D02*
X147751905Y-94492914D01*
X147751905Y-94492914D02*
X147799524Y-94397676D01*
X147799524Y-94397676D02*
X147894762Y-94302438D01*
X147894762Y-94302438D02*
X148037619Y-94254819D01*
X148037619Y-94254819D02*
X148132857Y-94254819D01*
X148132857Y-94254819D02*
X148275714Y-94302438D01*
X148275714Y-94302438D02*
X148323333Y-94350057D01*
X148894762Y-94683390D02*
X148799524Y-94635771D01*
X148799524Y-94635771D02*
X148751905Y-94588152D01*
X148751905Y-94588152D02*
X148704286Y-94492914D01*
X148704286Y-94492914D02*
X148704286Y-94445295D01*
X148704286Y-94445295D02*
X148751905Y-94350057D01*
X148751905Y-94350057D02*
X148799524Y-94302438D01*
X148799524Y-94302438D02*
X148894762Y-94254819D01*
X148894762Y-94254819D02*
X149085238Y-94254819D01*
X149085238Y-94254819D02*
X149180476Y-94302438D01*
X149180476Y-94302438D02*
X149228095Y-94350057D01*
X149228095Y-94350057D02*
X149275714Y-94445295D01*
X149275714Y-94445295D02*
X149275714Y-94492914D01*
X149275714Y-94492914D02*
X149228095Y-94588152D01*
X149228095Y-94588152D02*
X149180476Y-94635771D01*
X149180476Y-94635771D02*
X149085238Y-94683390D01*
X149085238Y-94683390D02*
X148894762Y-94683390D01*
X148894762Y-94683390D02*
X148799524Y-94731009D01*
X148799524Y-94731009D02*
X148751905Y-94778628D01*
X148751905Y-94778628D02*
X148704286Y-94873866D01*
X148704286Y-94873866D02*
X148704286Y-95064342D01*
X148704286Y-95064342D02*
X148751905Y-95159580D01*
X148751905Y-95159580D02*
X148799524Y-95207200D01*
X148799524Y-95207200D02*
X148894762Y-95254819D01*
X148894762Y-95254819D02*
X149085238Y-95254819D01*
X149085238Y-95254819D02*
X149180476Y-95207200D01*
X149180476Y-95207200D02*
X149228095Y-95159580D01*
X149228095Y-95159580D02*
X149275714Y-95064342D01*
X149275714Y-95064342D02*
X149275714Y-94873866D01*
X149275714Y-94873866D02*
X149228095Y-94778628D01*
X149228095Y-94778628D02*
X149180476Y-94731009D01*
X149180476Y-94731009D02*
X149085238Y-94683390D01*
X155800595Y-136004819D02*
X155800595Y-136814342D01*
X155800595Y-136814342D02*
X155848214Y-136909580D01*
X155848214Y-136909580D02*
X155895833Y-136957200D01*
X155895833Y-136957200D02*
X155991071Y-137004819D01*
X155991071Y-137004819D02*
X156181547Y-137004819D01*
X156181547Y-137004819D02*
X156276785Y-136957200D01*
X156276785Y-136957200D02*
X156324404Y-136909580D01*
X156324404Y-136909580D02*
X156372023Y-136814342D01*
X156372023Y-136814342D02*
X156372023Y-136004819D01*
X156752976Y-136004819D02*
X157372023Y-136004819D01*
X157372023Y-136004819D02*
X157038690Y-136385771D01*
X157038690Y-136385771D02*
X157181547Y-136385771D01*
X157181547Y-136385771D02*
X157276785Y-136433390D01*
X157276785Y-136433390D02*
X157324404Y-136481009D01*
X157324404Y-136481009D02*
X157372023Y-136576247D01*
X157372023Y-136576247D02*
X157372023Y-136814342D01*
X157372023Y-136814342D02*
X157324404Y-136909580D01*
X157324404Y-136909580D02*
X157276785Y-136957200D01*
X157276785Y-136957200D02*
X157181547Y-137004819D01*
X157181547Y-137004819D02*
X156895833Y-137004819D01*
X156895833Y-137004819D02*
X156800595Y-136957200D01*
X156800595Y-136957200D02*
X156752976Y-136909580D01*
X151833333Y-138109580D02*
X151785714Y-138157200D01*
X151785714Y-138157200D02*
X151642857Y-138204819D01*
X151642857Y-138204819D02*
X151547619Y-138204819D01*
X151547619Y-138204819D02*
X151404762Y-138157200D01*
X151404762Y-138157200D02*
X151309524Y-138061961D01*
X151309524Y-138061961D02*
X151261905Y-137966723D01*
X151261905Y-137966723D02*
X151214286Y-137776247D01*
X151214286Y-137776247D02*
X151214286Y-137633390D01*
X151214286Y-137633390D02*
X151261905Y-137442914D01*
X151261905Y-137442914D02*
X151309524Y-137347676D01*
X151309524Y-137347676D02*
X151404762Y-137252438D01*
X151404762Y-137252438D02*
X151547619Y-137204819D01*
X151547619Y-137204819D02*
X151642857Y-137204819D01*
X151642857Y-137204819D02*
X151785714Y-137252438D01*
X151785714Y-137252438D02*
X151833333Y-137300057D01*
X152214286Y-137300057D02*
X152261905Y-137252438D01*
X152261905Y-137252438D02*
X152357143Y-137204819D01*
X152357143Y-137204819D02*
X152595238Y-137204819D01*
X152595238Y-137204819D02*
X152690476Y-137252438D01*
X152690476Y-137252438D02*
X152738095Y-137300057D01*
X152738095Y-137300057D02*
X152785714Y-137395295D01*
X152785714Y-137395295D02*
X152785714Y-137490533D01*
X152785714Y-137490533D02*
X152738095Y-137633390D01*
X152738095Y-137633390D02*
X152166667Y-138204819D01*
X152166667Y-138204819D02*
X152785714Y-138204819D01*
X132850476Y-135874819D02*
X132850476Y-136589104D01*
X132850476Y-136589104D02*
X132802857Y-136731961D01*
X132802857Y-136731961D02*
X132707619Y-136827200D01*
X132707619Y-136827200D02*
X132564762Y-136874819D01*
X132564762Y-136874819D02*
X132469524Y-136874819D01*
X133850476Y-136874819D02*
X133279048Y-136874819D01*
X133564762Y-136874819D02*
X133564762Y-135874819D01*
X133564762Y-135874819D02*
X133469524Y-136017676D01*
X133469524Y-136017676D02*
X133374286Y-136112914D01*
X133374286Y-136112914D02*
X133279048Y-136160533D01*
X134707619Y-136208152D02*
X134707619Y-136874819D01*
X134469524Y-135827200D02*
X134231429Y-136541485D01*
X134231429Y-136541485D02*
X134850476Y-136541485D01*
X168595642Y-98978819D02*
X168262309Y-98502628D01*
X168024214Y-98978819D02*
X168024214Y-97978819D01*
X168024214Y-97978819D02*
X168405166Y-97978819D01*
X168405166Y-97978819D02*
X168500404Y-98026438D01*
X168500404Y-98026438D02*
X168548023Y-98074057D01*
X168548023Y-98074057D02*
X168595642Y-98169295D01*
X168595642Y-98169295D02*
X168595642Y-98312152D01*
X168595642Y-98312152D02*
X168548023Y-98407390D01*
X168548023Y-98407390D02*
X168500404Y-98455009D01*
X168500404Y-98455009D02*
X168405166Y-98502628D01*
X168405166Y-98502628D02*
X168024214Y-98502628D01*
X169548023Y-98978819D02*
X168976595Y-98978819D01*
X169262309Y-98978819D02*
X169262309Y-97978819D01*
X169262309Y-97978819D02*
X169167071Y-98121676D01*
X169167071Y-98121676D02*
X169071833Y-98216914D01*
X169071833Y-98216914D02*
X168976595Y-98264533D01*
X170405166Y-97978819D02*
X170214690Y-97978819D01*
X170214690Y-97978819D02*
X170119452Y-98026438D01*
X170119452Y-98026438D02*
X170071833Y-98074057D01*
X170071833Y-98074057D02*
X169976595Y-98216914D01*
X169976595Y-98216914D02*
X169928976Y-98407390D01*
X169928976Y-98407390D02*
X169928976Y-98788342D01*
X169928976Y-98788342D02*
X169976595Y-98883580D01*
X169976595Y-98883580D02*
X170024214Y-98931200D01*
X170024214Y-98931200D02*
X170119452Y-98978819D01*
X170119452Y-98978819D02*
X170309928Y-98978819D01*
X170309928Y-98978819D02*
X170405166Y-98931200D01*
X170405166Y-98931200D02*
X170452785Y-98883580D01*
X170452785Y-98883580D02*
X170500404Y-98788342D01*
X170500404Y-98788342D02*
X170500404Y-98550247D01*
X170500404Y-98550247D02*
X170452785Y-98455009D01*
X170452785Y-98455009D02*
X170405166Y-98407390D01*
X170405166Y-98407390D02*
X170309928Y-98359771D01*
X170309928Y-98359771D02*
X170119452Y-98359771D01*
X170119452Y-98359771D02*
X170024214Y-98407390D01*
X170024214Y-98407390D02*
X169976595Y-98455009D01*
X169976595Y-98455009D02*
X169928976Y-98550247D01*
X175549905Y-129027819D02*
X175549905Y-128027819D01*
X175549905Y-128027819D02*
X175788000Y-128027819D01*
X175788000Y-128027819D02*
X175930857Y-128075438D01*
X175930857Y-128075438D02*
X176026095Y-128170676D01*
X176026095Y-128170676D02*
X176073714Y-128265914D01*
X176073714Y-128265914D02*
X176121333Y-128456390D01*
X176121333Y-128456390D02*
X176121333Y-128599247D01*
X176121333Y-128599247D02*
X176073714Y-128789723D01*
X176073714Y-128789723D02*
X176026095Y-128884961D01*
X176026095Y-128884961D02*
X175930857Y-128980200D01*
X175930857Y-128980200D02*
X175788000Y-129027819D01*
X175788000Y-129027819D02*
X175549905Y-129027819D01*
X176692762Y-128456390D02*
X176597524Y-128408771D01*
X176597524Y-128408771D02*
X176549905Y-128361152D01*
X176549905Y-128361152D02*
X176502286Y-128265914D01*
X176502286Y-128265914D02*
X176502286Y-128218295D01*
X176502286Y-128218295D02*
X176549905Y-128123057D01*
X176549905Y-128123057D02*
X176597524Y-128075438D01*
X176597524Y-128075438D02*
X176692762Y-128027819D01*
X176692762Y-128027819D02*
X176883238Y-128027819D01*
X176883238Y-128027819D02*
X176978476Y-128075438D01*
X176978476Y-128075438D02*
X177026095Y-128123057D01*
X177026095Y-128123057D02*
X177073714Y-128218295D01*
X177073714Y-128218295D02*
X177073714Y-128265914D01*
X177073714Y-128265914D02*
X177026095Y-128361152D01*
X177026095Y-128361152D02*
X176978476Y-128408771D01*
X176978476Y-128408771D02*
X176883238Y-128456390D01*
X176883238Y-128456390D02*
X176692762Y-128456390D01*
X176692762Y-128456390D02*
X176597524Y-128504009D01*
X176597524Y-128504009D02*
X176549905Y-128551628D01*
X176549905Y-128551628D02*
X176502286Y-128646866D01*
X176502286Y-128646866D02*
X176502286Y-128837342D01*
X176502286Y-128837342D02*
X176549905Y-128932580D01*
X176549905Y-128932580D02*
X176597524Y-128980200D01*
X176597524Y-128980200D02*
X176692762Y-129027819D01*
X176692762Y-129027819D02*
X176883238Y-129027819D01*
X176883238Y-129027819D02*
X176978476Y-128980200D01*
X176978476Y-128980200D02*
X177026095Y-128932580D01*
X177026095Y-128932580D02*
X177073714Y-128837342D01*
X177073714Y-128837342D02*
X177073714Y-128646866D01*
X177073714Y-128646866D02*
X177026095Y-128551628D01*
X177026095Y-128551628D02*
X176978476Y-128504009D01*
X176978476Y-128504009D02*
X176883238Y-128456390D01*
X171901905Y-138319819D02*
X171901905Y-137319819D01*
X171901905Y-137319819D02*
X172140000Y-137319819D01*
X172140000Y-137319819D02*
X172282857Y-137367438D01*
X172282857Y-137367438D02*
X172378095Y-137462676D01*
X172378095Y-137462676D02*
X172425714Y-137557914D01*
X172425714Y-137557914D02*
X172473333Y-137748390D01*
X172473333Y-137748390D02*
X172473333Y-137891247D01*
X172473333Y-137891247D02*
X172425714Y-138081723D01*
X172425714Y-138081723D02*
X172378095Y-138176961D01*
X172378095Y-138176961D02*
X172282857Y-138272200D01*
X172282857Y-138272200D02*
X172140000Y-138319819D01*
X172140000Y-138319819D02*
X171901905Y-138319819D01*
X172806667Y-137319819D02*
X173473333Y-137319819D01*
X173473333Y-137319819D02*
X173044762Y-138319819D01*
X170105819Y-86533523D02*
X170820104Y-86533523D01*
X170820104Y-86533523D02*
X170962961Y-86581142D01*
X170962961Y-86581142D02*
X171058200Y-86676380D01*
X171058200Y-86676380D02*
X171105819Y-86819237D01*
X171105819Y-86819237D02*
X171105819Y-86914475D01*
X171105819Y-85533523D02*
X171105819Y-86104951D01*
X171105819Y-85819237D02*
X170105819Y-85819237D01*
X170105819Y-85819237D02*
X170248676Y-85914475D01*
X170248676Y-85914475D02*
X170343914Y-86009713D01*
X170343914Y-86009713D02*
X170391533Y-86104951D01*
X170201057Y-85152570D02*
X170153438Y-85104951D01*
X170153438Y-85104951D02*
X170105819Y-85009713D01*
X170105819Y-85009713D02*
X170105819Y-84771618D01*
X170105819Y-84771618D02*
X170153438Y-84676380D01*
X170153438Y-84676380D02*
X170201057Y-84628761D01*
X170201057Y-84628761D02*
X170296295Y-84581142D01*
X170296295Y-84581142D02*
X170391533Y-84581142D01*
X170391533Y-84581142D02*
X170534390Y-84628761D01*
X170534390Y-84628761D02*
X171105819Y-85200189D01*
X171105819Y-85200189D02*
X171105819Y-84581142D01*
X160705833Y-136954819D02*
X160372500Y-136478628D01*
X160134405Y-136954819D02*
X160134405Y-135954819D01*
X160134405Y-135954819D02*
X160515357Y-135954819D01*
X160515357Y-135954819D02*
X160610595Y-136002438D01*
X160610595Y-136002438D02*
X160658214Y-136050057D01*
X160658214Y-136050057D02*
X160705833Y-136145295D01*
X160705833Y-136145295D02*
X160705833Y-136288152D01*
X160705833Y-136288152D02*
X160658214Y-136383390D01*
X160658214Y-136383390D02*
X160610595Y-136431009D01*
X160610595Y-136431009D02*
X160515357Y-136478628D01*
X160515357Y-136478628D02*
X160134405Y-136478628D01*
X161039167Y-135954819D02*
X161658214Y-135954819D01*
X161658214Y-135954819D02*
X161324881Y-136335771D01*
X161324881Y-136335771D02*
X161467738Y-136335771D01*
X161467738Y-136335771D02*
X161562976Y-136383390D01*
X161562976Y-136383390D02*
X161610595Y-136431009D01*
X161610595Y-136431009D02*
X161658214Y-136526247D01*
X161658214Y-136526247D02*
X161658214Y-136764342D01*
X161658214Y-136764342D02*
X161610595Y-136859580D01*
X161610595Y-136859580D02*
X161562976Y-136907200D01*
X161562976Y-136907200D02*
X161467738Y-136954819D01*
X161467738Y-136954819D02*
X161182024Y-136954819D01*
X161182024Y-136954819D02*
X161086786Y-136907200D01*
X161086786Y-136907200D02*
X161039167Y-136859580D01*
X141940476Y-140954819D02*
X141940476Y-141669104D01*
X141940476Y-141669104D02*
X141892857Y-141811961D01*
X141892857Y-141811961D02*
X141797619Y-141907200D01*
X141797619Y-141907200D02*
X141654762Y-141954819D01*
X141654762Y-141954819D02*
X141559524Y-141954819D01*
X142940476Y-141954819D02*
X142369048Y-141954819D01*
X142654762Y-141954819D02*
X142654762Y-140954819D01*
X142654762Y-140954819D02*
X142559524Y-141097676D01*
X142559524Y-141097676D02*
X142464286Y-141192914D01*
X142464286Y-141192914D02*
X142369048Y-141240533D01*
X143797619Y-140954819D02*
X143607143Y-140954819D01*
X143607143Y-140954819D02*
X143511905Y-141002438D01*
X143511905Y-141002438D02*
X143464286Y-141050057D01*
X143464286Y-141050057D02*
X143369048Y-141192914D01*
X143369048Y-141192914D02*
X143321429Y-141383390D01*
X143321429Y-141383390D02*
X143321429Y-141764342D01*
X143321429Y-141764342D02*
X143369048Y-141859580D01*
X143369048Y-141859580D02*
X143416667Y-141907200D01*
X143416667Y-141907200D02*
X143511905Y-141954819D01*
X143511905Y-141954819D02*
X143702381Y-141954819D01*
X143702381Y-141954819D02*
X143797619Y-141907200D01*
X143797619Y-141907200D02*
X143845238Y-141859580D01*
X143845238Y-141859580D02*
X143892857Y-141764342D01*
X143892857Y-141764342D02*
X143892857Y-141526247D01*
X143892857Y-141526247D02*
X143845238Y-141431009D01*
X143845238Y-141431009D02*
X143797619Y-141383390D01*
X143797619Y-141383390D02*
X143702381Y-141335771D01*
X143702381Y-141335771D02*
X143511905Y-141335771D01*
X143511905Y-141335771D02*
X143416667Y-141383390D01*
X143416667Y-141383390D02*
X143369048Y-141431009D01*
X143369048Y-141431009D02*
X143321429Y-141526247D01*
D11*
%TO.C,D1*%
X175360000Y-152790000D02*
X175360000Y-155475000D01*
X175360000Y-155475000D02*
X177280000Y-155475000D01*
X177280000Y-155475000D02*
X177280000Y-152790000D01*
%TO.C,D10*%
X171673000Y-123206000D02*
X171673000Y-125891000D01*
X173593000Y-123206000D02*
X171673000Y-123206000D01*
X173593000Y-125891000D02*
X173593000Y-123206000D01*
%TO.C,J11*%
X159120000Y-119730000D02*
X159120000Y-114540000D01*
X161880000Y-114540000D02*
X159120000Y-114540000D01*
X161880000Y-119730000D02*
X159120000Y-119730000D01*
X161880000Y-119730000D02*
X161880000Y-114540000D01*
X161880000Y-121000000D02*
X161880000Y-122380000D01*
X161880000Y-122380000D02*
X160500000Y-122380000D01*
%TO.C,J15*%
X136870000Y-137420000D02*
X138250000Y-137420000D01*
X136870000Y-138800000D02*
X136870000Y-137420000D01*
X136870000Y-140070000D02*
X136870000Y-152880000D01*
X136870000Y-140070000D02*
X139630000Y-140070000D01*
X136870000Y-152880000D02*
X139630000Y-152880000D01*
X139630000Y-140070000D02*
X139630000Y-152880000D01*
%TO.C,J17*%
X145870000Y-142500000D02*
X147250000Y-142500000D01*
X145870000Y-143880000D02*
X145870000Y-142500000D01*
X145870000Y-145150000D02*
X145870000Y-152880000D01*
X145870000Y-145150000D02*
X148630000Y-145150000D01*
X145870000Y-152880000D02*
X148630000Y-152880000D01*
X148630000Y-145150000D02*
X148630000Y-152880000D01*
%TO.C,C7*%
X151275000Y-97811252D02*
X151275000Y-97288748D01*
X152745000Y-97811252D02*
X152745000Y-97288748D01*
%TO.C,R15*%
X169011436Y-96489000D02*
X169465564Y-96489000D01*
X169011436Y-97959000D02*
X169465564Y-97959000D01*
%TO.C,U1*%
X130100000Y-100895000D02*
X136300000Y-100895000D01*
X130100000Y-119295000D02*
X130100000Y-100895000D01*
X130100000Y-119295000D02*
X136300000Y-119295000D01*
X154950000Y-119295000D02*
X155950000Y-119295000D01*
X155950000Y-100895000D02*
X154950000Y-100895000D01*
X155950000Y-100895000D02*
X155950000Y-102395000D01*
X155950000Y-119295000D02*
X155950000Y-117795000D01*
X136975000Y-119795000D02*
X136475000Y-119295000D01*
X136975000Y-119295000D01*
X136975000Y-119795000D01*
G36*
X136975000Y-119795000D02*
G01*
X136475000Y-119295000D01*
X136975000Y-119295000D01*
X136975000Y-119795000D01*
G37*
%TO.C,C3*%
X155738748Y-125265000D02*
X156261252Y-125265000D01*
X155738748Y-126735000D02*
X156261252Y-126735000D01*
%TO.C,LS1*%
X159120000Y-124345000D02*
X160500000Y-124345000D01*
X159120000Y-125725000D02*
X159120000Y-124345000D01*
X159120000Y-126995000D02*
X159120000Y-129645000D01*
X159120000Y-126995000D02*
X161880000Y-126995000D01*
X159120000Y-129645000D02*
X161880000Y-129645000D01*
X161880000Y-126995000D02*
X161880000Y-129645000D01*
%TO.C,C5*%
X145255000Y-97811252D02*
X145255000Y-97288748D01*
X146725000Y-97811252D02*
X146725000Y-97288748D01*
%TO.C,M2*%
X159120000Y-95120000D02*
X160500000Y-95120000D01*
X159120000Y-96500000D02*
X159120000Y-95120000D01*
X159120000Y-97770000D02*
X159120000Y-102960000D01*
X159120000Y-97770000D02*
X161880000Y-97770000D01*
X159120000Y-102960000D02*
X161880000Y-102960000D01*
X161880000Y-97770000D02*
X161880000Y-102960000D01*
%TO.C,D5*%
X175340000Y-138813000D02*
X175340000Y-141498000D01*
X177260000Y-138813000D02*
X175340000Y-138813000D01*
X177260000Y-141498000D02*
X177260000Y-138813000D01*
%TO.C,J13*%
X152800000Y-146400000D02*
X152800000Y-149160000D01*
X152800000Y-149160000D02*
X163180000Y-149160000D01*
X153750000Y-146087358D02*
X153750000Y-146400000D01*
X153750000Y-155160000D02*
X153750000Y-149160000D01*
X154610000Y-146087358D02*
X154610000Y-146400000D01*
X154610000Y-149160000D02*
X154610000Y-155160000D01*
X154610000Y-155160000D02*
X153750000Y-155160000D01*
X155450000Y-146400000D02*
X155450000Y-149160000D01*
X156290000Y-146087358D02*
X156290000Y-146400000D01*
X156290000Y-155160000D02*
X156290000Y-149160000D01*
X157150000Y-146087358D02*
X157150000Y-146400000D01*
X157150000Y-149160000D02*
X157150000Y-155160000D01*
X157150000Y-155160000D02*
X156290000Y-155160000D01*
X157990000Y-146400000D02*
X157990000Y-149160000D01*
X158830000Y-146087358D02*
X158830000Y-146400000D01*
X158830000Y-155160000D02*
X158830000Y-149160000D01*
X159690000Y-146087358D02*
X159690000Y-146400000D01*
X159690000Y-149160000D02*
X159690000Y-155160000D01*
X159690000Y-155160000D02*
X158830000Y-155160000D01*
X160530000Y-146400000D02*
X160530000Y-149160000D01*
X161370000Y-146170000D02*
X161370000Y-146400000D01*
X161800000Y-143740000D02*
X163070000Y-143740000D01*
X162230000Y-146170000D02*
X162230000Y-146400000D01*
X163070000Y-143740000D02*
X163070000Y-145010000D01*
X163180000Y-146400000D02*
X152800000Y-146400000D01*
X163180000Y-149160000D02*
X163180000Y-146400000D01*
X162230000Y-149160000D02*
X161370000Y-149160000D01*
X161370000Y-155160000D01*
X162230000Y-155160000D01*
X162230000Y-149160000D01*
G36*
X162230000Y-149160000D02*
G01*
X161370000Y-149160000D01*
X161370000Y-155160000D01*
X162230000Y-155160000D01*
X162230000Y-149160000D01*
G37*
%TO.C,D11*%
X171673000Y-120184000D02*
X171673000Y-122869000D01*
X171673000Y-122869000D02*
X173593000Y-122869000D01*
X173593000Y-122869000D02*
X173593000Y-120184000D01*
%TO.C,D2*%
X171674000Y-148439000D02*
X171674000Y-151124000D01*
X173594000Y-148439000D02*
X171674000Y-148439000D01*
X173594000Y-151124000D02*
X173594000Y-148439000D01*
%TO.C,J1*%
X136230000Y-84380000D02*
X136230000Y-83000000D01*
X137610000Y-84380000D02*
X136230000Y-84380000D01*
X138880000Y-81620000D02*
X156770000Y-81620000D01*
X138880000Y-84380000D02*
X138880000Y-81620000D01*
X138880000Y-84380000D02*
X156770000Y-84380000D01*
X156770000Y-84380000D02*
X156770000Y-81620000D01*
%TO.C,C1*%
X158015000Y-140561252D02*
X158015000Y-140038748D01*
X159485000Y-140561252D02*
X159485000Y-140038748D01*
%TO.C,C6*%
X148265000Y-97811252D02*
X148265000Y-97288748D01*
X149735000Y-97811252D02*
X149735000Y-97288748D01*
%TO.C,D9*%
X175340000Y-123871000D02*
X175340000Y-126556000D01*
X175340000Y-126556000D02*
X177260000Y-126556000D01*
X177260000Y-126556000D02*
X177260000Y-123871000D01*
%TO.C,J3*%
X167446000Y-112699000D02*
X167446000Y-103749000D01*
X170526000Y-103629000D02*
X171426000Y-103629000D01*
X170526000Y-112819000D02*
X171426000Y-112819000D01*
X174126000Y-103629000D02*
X176856000Y-103629000D01*
X174126000Y-112819000D02*
X176856000Y-112819000D01*
X176856000Y-112819000D02*
X176856000Y-103629000D01*
%TO.C,R4*%
X142610436Y-138765000D02*
X143064564Y-138765000D01*
X142610436Y-140235000D02*
X143064564Y-140235000D01*
%TO.C,J5*%
X166960000Y-115660000D02*
X166960000Y-118420000D01*
X174690000Y-115660000D02*
X166960000Y-115660000D01*
X174690000Y-115660000D02*
X174690000Y-118420000D01*
X174690000Y-118420000D02*
X166960000Y-118420000D01*
X175960000Y-115660000D02*
X177340000Y-115660000D01*
X177340000Y-115660000D02*
X177340000Y-117040000D01*
%TO.C,C4*%
X155738748Y-128765000D02*
X156261252Y-128765000D01*
X155738748Y-130235000D02*
X156261252Y-130235000D01*
%TO.C,U2*%
X155362500Y-138640000D02*
X154562500Y-138640000D01*
X155362500Y-138640000D02*
X156162500Y-138640000D01*
X155362500Y-141760000D02*
X154562500Y-141760000D01*
X155362500Y-141760000D02*
X156162500Y-141760000D01*
X156902500Y-142040000D02*
X156422500Y-142040000D01*
X156662500Y-141710000D01*
X156902500Y-142040000D01*
G36*
X156902500Y-142040000D02*
G01*
X156422500Y-142040000D01*
X156662500Y-141710000D01*
X156902500Y-142040000D01*
G37*
%TO.C,SW6*%
X136765000Y-90790000D02*
X136765000Y-97210000D01*
X136765000Y-97210000D02*
X137200000Y-97210000D01*
X137200000Y-90790000D02*
X136765000Y-90790000D01*
X138800000Y-97210000D02*
X141200000Y-97210000D01*
X141200000Y-90790000D02*
X138800000Y-90790000D01*
X142800000Y-97210000D02*
X143235000Y-97210000D01*
X143235000Y-90790000D02*
X142930000Y-90790000D01*
X143235000Y-97210000D02*
X143235000Y-90790000D01*
%TO.C,M1*%
X159120000Y-105040000D02*
X160500000Y-105040000D01*
X159120000Y-106420000D02*
X159120000Y-105040000D01*
X159120000Y-107690000D02*
X159120000Y-112880000D01*
X159120000Y-107690000D02*
X161880000Y-107690000D01*
X159120000Y-112880000D02*
X161880000Y-112880000D01*
X161880000Y-107690000D02*
X161880000Y-112880000D01*
%TO.C,D4*%
X171674000Y-142459000D02*
X171674000Y-145144000D01*
X173594000Y-142459000D02*
X171674000Y-142459000D01*
X173594000Y-145144000D02*
X173594000Y-142459000D01*
%TO.C,R2*%
X160515000Y-140564564D02*
X160515000Y-140110436D01*
X161985000Y-140564564D02*
X161985000Y-140110436D01*
%TO.C,R1*%
X145255000Y-92277064D02*
X145255000Y-91822936D01*
X146725000Y-92277064D02*
X146725000Y-91822936D01*
%TO.C,D12*%
X168006000Y-119539000D02*
X168006000Y-122224000D01*
X169926000Y-119539000D02*
X168006000Y-119539000D01*
X169926000Y-122224000D02*
X169926000Y-119539000D01*
%TO.C,R5*%
X147110436Y-138765000D02*
X147564564Y-138765000D01*
X147110436Y-140235000D02*
X147564564Y-140235000D01*
%TO.C,J2*%
X159120000Y-90310000D02*
X159120000Y-82580000D01*
X161880000Y-82580000D02*
X159120000Y-82580000D01*
X161880000Y-90310000D02*
X159120000Y-90310000D01*
X161880000Y-90310000D02*
X161880000Y-82580000D01*
X161880000Y-91580000D02*
X161880000Y-92960000D01*
X161880000Y-92960000D02*
X160500000Y-92960000D01*
%TO.C,D6*%
X168008000Y-138813000D02*
X168008000Y-141498000D01*
X169928000Y-138813000D02*
X168008000Y-138813000D01*
X169928000Y-141498000D02*
X169928000Y-138813000D01*
%TO.C,SW5*%
X150265000Y-86790000D02*
X150265000Y-93210000D01*
X150265000Y-93210000D02*
X150570000Y-93210000D01*
X150700000Y-86790000D02*
X150265000Y-86790000D01*
X152300000Y-93210000D02*
X154700000Y-93210000D01*
X154700000Y-86790000D02*
X152300000Y-86790000D01*
X156300000Y-93210000D02*
X156735000Y-93210000D01*
X156735000Y-86790000D02*
X156300000Y-86790000D01*
X156735000Y-93210000D02*
X156735000Y-86790000D01*
%TO.C,D3*%
X168007000Y-149124000D02*
X168007000Y-151809000D01*
X168007000Y-151809000D02*
X169927000Y-151809000D01*
X169927000Y-151809000D02*
X169927000Y-149124000D01*
%TO.C,C8*%
X147755000Y-91788748D02*
X147755000Y-92311252D01*
X149225000Y-91788748D02*
X149225000Y-92311252D01*
%TO.C,U3*%
X154952500Y-132140000D02*
X154952500Y-132615000D01*
X154952500Y-135360000D02*
X154952500Y-134885000D01*
X155427500Y-132140000D02*
X154952500Y-132140000D01*
X155427500Y-135360000D02*
X154952500Y-135360000D01*
X157697500Y-132140000D02*
X158172500Y-132140000D01*
X157697500Y-135360000D02*
X157872500Y-135360000D01*
X158172500Y-132140000D02*
X158172500Y-132615000D01*
X158172500Y-134885000D02*
X158172500Y-135120000D01*
X158412500Y-135690000D02*
X157932500Y-135690000D01*
X158172500Y-135360000D01*
X158412500Y-135690000D01*
G36*
X158412500Y-135690000D02*
G01*
X157932500Y-135690000D01*
X158172500Y-135360000D01*
X158412500Y-135690000D01*
G37*
%TO.C,C2*%
X151265000Y-140561252D02*
X151265000Y-140038748D01*
X152735000Y-140561252D02*
X152735000Y-140038748D01*
%TO.C,J14*%
X132280000Y-137420000D02*
X133660000Y-137420000D01*
X132280000Y-138800000D02*
X132280000Y-137420000D01*
X132280000Y-140070000D02*
X132280000Y-152880000D01*
X132280000Y-140070000D02*
X135040000Y-140070000D01*
X132280000Y-152880000D02*
X135040000Y-152880000D01*
X135040000Y-140070000D02*
X135040000Y-152880000D01*
%TO.C,R16*%
X169011436Y-99439000D02*
X169465564Y-99439000D01*
X169011436Y-100909000D02*
X169465564Y-100909000D01*
%TO.C,D8*%
X175340000Y-129851000D02*
X175340000Y-132536000D01*
X175340000Y-132536000D02*
X177260000Y-132536000D01*
X177260000Y-132536000D02*
X177260000Y-129851000D01*
%TO.C,D7*%
X171674000Y-138812000D02*
X171674000Y-141497000D01*
X173594000Y-138812000D02*
X171674000Y-138812000D01*
X173594000Y-141497000D02*
X173594000Y-138812000D01*
%TO.C,J12*%
X166771000Y-80764000D02*
X168151000Y-80764000D01*
X166771000Y-82144000D02*
X166771000Y-80764000D01*
X166771000Y-83414000D02*
X166771000Y-91144000D01*
X166771000Y-83414000D02*
X169531000Y-83414000D01*
X166771000Y-91144000D02*
X169531000Y-91144000D01*
X169531000Y-83414000D02*
X169531000Y-91144000D01*
%TO.C,R3*%
X160137500Y-133582936D02*
X160137500Y-134037064D01*
X161607500Y-133582936D02*
X161607500Y-134037064D01*
%TO.C,J16*%
X141370000Y-142500000D02*
X142750000Y-142500000D01*
X141370000Y-143880000D02*
X141370000Y-142500000D01*
X141370000Y-145150000D02*
X141370000Y-152880000D01*
X141370000Y-145150000D02*
X144130000Y-145150000D01*
X141370000Y-152880000D02*
X144130000Y-152880000D01*
X144130000Y-145150000D02*
X144130000Y-152880000D01*
%TD*%
M02*
