%TF.GenerationSoftware,KiCad,Pcbnew,9.0.4*%
%TF.CreationDate,2026-01-05T16:40:05-05:00*%
%TF.ProjectId,TARS,54415253-2e6b-4696-9361-645f70636258,rev?*%
%TF.SameCoordinates,Original*%
%TF.FileFunction,Legend,Top*%
%TF.FilePolarity,Positive*%
%FSLAX46Y46*%
G04 Gerber Fmt 4.6, Leading zero omitted, Abs format (unit mm)*
G04 Created by KiCad (PCBNEW 9.0.4) date 2026-01-05 16:40:05*
%MOMM*%
%LPD*%
G01*
G04 APERTURE LIST*
%ADD10C,0.100000*%
%ADD11C,0.150000*%
%ADD12C,0.120000*%
G04 APERTURE END LIST*
D10*
X163774000Y-114715926D02*
X175774000Y-114715926D01*
X171774000Y-114731926D02*
X163774000Y-114731926D01*
X163750000Y-80750000D02*
X163750000Y-155750000D01*
D11*
X165323714Y-124205245D02*
X165323714Y-123205245D01*
X165323714Y-123205245D02*
X165561809Y-123205245D01*
X165561809Y-123205245D02*
X165704666Y-123252864D01*
X165704666Y-123252864D02*
X165799904Y-123348102D01*
X165799904Y-123348102D02*
X165847523Y-123443340D01*
X165847523Y-123443340D02*
X165895142Y-123633816D01*
X165895142Y-123633816D02*
X165895142Y-123776673D01*
X165895142Y-123776673D02*
X165847523Y-123967149D01*
X165847523Y-123967149D02*
X165799904Y-124062387D01*
X165799904Y-124062387D02*
X165704666Y-124157626D01*
X165704666Y-124157626D02*
X165561809Y-124205245D01*
X165561809Y-124205245D02*
X165323714Y-124205245D01*
X166847523Y-124205245D02*
X166276095Y-124205245D01*
X166561809Y-124205245D02*
X166561809Y-123205245D01*
X166561809Y-123205245D02*
X166466571Y-123348102D01*
X166466571Y-123348102D02*
X166371333Y-123443340D01*
X166371333Y-123443340D02*
X166276095Y-123490959D01*
X167228476Y-123300483D02*
X167276095Y-123252864D01*
X167276095Y-123252864D02*
X167371333Y-123205245D01*
X167371333Y-123205245D02*
X167609428Y-123205245D01*
X167609428Y-123205245D02*
X167704666Y-123252864D01*
X167704666Y-123252864D02*
X167752285Y-123300483D01*
X167752285Y-123300483D02*
X167799904Y-123395721D01*
X167799904Y-123395721D02*
X167799904Y-123490959D01*
X167799904Y-123490959D02*
X167752285Y-123633816D01*
X167752285Y-123633816D02*
X167180857Y-124205245D01*
X167180857Y-124205245D02*
X167799904Y-124205245D01*
X165834905Y-143475745D02*
X165834905Y-142475745D01*
X165834905Y-142475745D02*
X166073000Y-142475745D01*
X166073000Y-142475745D02*
X166215857Y-142523364D01*
X166215857Y-142523364D02*
X166311095Y-142618602D01*
X166311095Y-142618602D02*
X166358714Y-142713840D01*
X166358714Y-142713840D02*
X166406333Y-142904316D01*
X166406333Y-142904316D02*
X166406333Y-143047173D01*
X166406333Y-143047173D02*
X166358714Y-143237649D01*
X166358714Y-143237649D02*
X166311095Y-143332887D01*
X166311095Y-143332887D02*
X166215857Y-143428126D01*
X166215857Y-143428126D02*
X166073000Y-143475745D01*
X166073000Y-143475745D02*
X165834905Y-143475745D01*
X167263476Y-142475745D02*
X167073000Y-142475745D01*
X167073000Y-142475745D02*
X166977762Y-142523364D01*
X166977762Y-142523364D02*
X166930143Y-142570983D01*
X166930143Y-142570983D02*
X166834905Y-142713840D01*
X166834905Y-142713840D02*
X166787286Y-142904316D01*
X166787286Y-142904316D02*
X166787286Y-143285268D01*
X166787286Y-143285268D02*
X166834905Y-143380506D01*
X166834905Y-143380506D02*
X166882524Y-143428126D01*
X166882524Y-143428126D02*
X166977762Y-143475745D01*
X166977762Y-143475745D02*
X167168238Y-143475745D01*
X167168238Y-143475745D02*
X167263476Y-143428126D01*
X167263476Y-143428126D02*
X167311095Y-143380506D01*
X167311095Y-143380506D02*
X167358714Y-143285268D01*
X167358714Y-143285268D02*
X167358714Y-143047173D01*
X167358714Y-143047173D02*
X167311095Y-142951935D01*
X167311095Y-142951935D02*
X167263476Y-142904316D01*
X167263476Y-142904316D02*
X167168238Y-142856697D01*
X167168238Y-142856697D02*
X166977762Y-142856697D01*
X166977762Y-142856697D02*
X166882524Y-142904316D01*
X166882524Y-142904316D02*
X166834905Y-142951935D01*
X166834905Y-142951935D02*
X166787286Y-143047173D01*
X165873905Y-152936745D02*
X165873905Y-151936745D01*
X165873905Y-151936745D02*
X166112000Y-151936745D01*
X166112000Y-151936745D02*
X166254857Y-151984364D01*
X166254857Y-151984364D02*
X166350095Y-152079602D01*
X166350095Y-152079602D02*
X166397714Y-152174840D01*
X166397714Y-152174840D02*
X166445333Y-152365316D01*
X166445333Y-152365316D02*
X166445333Y-152508173D01*
X166445333Y-152508173D02*
X166397714Y-152698649D01*
X166397714Y-152698649D02*
X166350095Y-152793887D01*
X166350095Y-152793887D02*
X166254857Y-152889126D01*
X166254857Y-152889126D02*
X166112000Y-152936745D01*
X166112000Y-152936745D02*
X165873905Y-152936745D01*
X166778667Y-151936745D02*
X167397714Y-151936745D01*
X167397714Y-151936745D02*
X167064381Y-152317697D01*
X167064381Y-152317697D02*
X167207238Y-152317697D01*
X167207238Y-152317697D02*
X167302476Y-152365316D01*
X167302476Y-152365316D02*
X167350095Y-152412935D01*
X167350095Y-152412935D02*
X167397714Y-152508173D01*
X167397714Y-152508173D02*
X167397714Y-152746268D01*
X167397714Y-152746268D02*
X167350095Y-152841506D01*
X167350095Y-152841506D02*
X167302476Y-152889126D01*
X167302476Y-152889126D02*
X167207238Y-152936745D01*
X167207238Y-152936745D02*
X166921524Y-152936745D01*
X166921524Y-152936745D02*
X166826286Y-152889126D01*
X166826286Y-152889126D02*
X166778667Y-152841506D01*
X173173905Y-128969745D02*
X173173905Y-127969745D01*
X173173905Y-127969745D02*
X173412000Y-127969745D01*
X173412000Y-127969745D02*
X173554857Y-128017364D01*
X173554857Y-128017364D02*
X173650095Y-128112602D01*
X173650095Y-128112602D02*
X173697714Y-128207840D01*
X173697714Y-128207840D02*
X173745333Y-128398316D01*
X173745333Y-128398316D02*
X173745333Y-128541173D01*
X173745333Y-128541173D02*
X173697714Y-128731649D01*
X173697714Y-128731649D02*
X173650095Y-128826887D01*
X173650095Y-128826887D02*
X173554857Y-128922126D01*
X173554857Y-128922126D02*
X173412000Y-128969745D01*
X173412000Y-128969745D02*
X173173905Y-128969745D01*
X174316762Y-128398316D02*
X174221524Y-128350697D01*
X174221524Y-128350697D02*
X174173905Y-128303078D01*
X174173905Y-128303078D02*
X174126286Y-128207840D01*
X174126286Y-128207840D02*
X174126286Y-128160221D01*
X174126286Y-128160221D02*
X174173905Y-128064983D01*
X174173905Y-128064983D02*
X174221524Y-128017364D01*
X174221524Y-128017364D02*
X174316762Y-127969745D01*
X174316762Y-127969745D02*
X174507238Y-127969745D01*
X174507238Y-127969745D02*
X174602476Y-128017364D01*
X174602476Y-128017364D02*
X174650095Y-128064983D01*
X174650095Y-128064983D02*
X174697714Y-128160221D01*
X174697714Y-128160221D02*
X174697714Y-128207840D01*
X174697714Y-128207840D02*
X174650095Y-128303078D01*
X174650095Y-128303078D02*
X174602476Y-128350697D01*
X174602476Y-128350697D02*
X174507238Y-128398316D01*
X174507238Y-128398316D02*
X174316762Y-128398316D01*
X174316762Y-128398316D02*
X174221524Y-128445935D01*
X174221524Y-128445935D02*
X174173905Y-128493554D01*
X174173905Y-128493554D02*
X174126286Y-128588792D01*
X174126286Y-128588792D02*
X174126286Y-128779268D01*
X174126286Y-128779268D02*
X174173905Y-128874506D01*
X174173905Y-128874506D02*
X174221524Y-128922126D01*
X174221524Y-128922126D02*
X174316762Y-128969745D01*
X174316762Y-128969745D02*
X174507238Y-128969745D01*
X174507238Y-128969745D02*
X174602476Y-128922126D01*
X174602476Y-128922126D02*
X174650095Y-128874506D01*
X174650095Y-128874506D02*
X174697714Y-128779268D01*
X174697714Y-128779268D02*
X174697714Y-128588792D01*
X174697714Y-128588792D02*
X174650095Y-128493554D01*
X174650095Y-128493554D02*
X174602476Y-128445935D01*
X174602476Y-128445935D02*
X174507238Y-128398316D01*
X169525905Y-138261745D02*
X169525905Y-137261745D01*
X169525905Y-137261745D02*
X169764000Y-137261745D01*
X169764000Y-137261745D02*
X169906857Y-137309364D01*
X169906857Y-137309364D02*
X170002095Y-137404602D01*
X170002095Y-137404602D02*
X170049714Y-137499840D01*
X170049714Y-137499840D02*
X170097333Y-137690316D01*
X170097333Y-137690316D02*
X170097333Y-137833173D01*
X170097333Y-137833173D02*
X170049714Y-138023649D01*
X170049714Y-138023649D02*
X170002095Y-138118887D01*
X170002095Y-138118887D02*
X169906857Y-138214126D01*
X169906857Y-138214126D02*
X169764000Y-138261745D01*
X169764000Y-138261745D02*
X169525905Y-138261745D01*
X170430667Y-137261745D02*
X171097333Y-137261745D01*
X171097333Y-137261745D02*
X170668762Y-138261745D01*
X169045714Y-127724745D02*
X169045714Y-126724745D01*
X169045714Y-126724745D02*
X169283809Y-126724745D01*
X169283809Y-126724745D02*
X169426666Y-126772364D01*
X169426666Y-126772364D02*
X169521904Y-126867602D01*
X169521904Y-126867602D02*
X169569523Y-126962840D01*
X169569523Y-126962840D02*
X169617142Y-127153316D01*
X169617142Y-127153316D02*
X169617142Y-127296173D01*
X169617142Y-127296173D02*
X169569523Y-127486649D01*
X169569523Y-127486649D02*
X169521904Y-127581887D01*
X169521904Y-127581887D02*
X169426666Y-127677126D01*
X169426666Y-127677126D02*
X169283809Y-127724745D01*
X169283809Y-127724745D02*
X169045714Y-127724745D01*
X170569523Y-127724745D02*
X169998095Y-127724745D01*
X170283809Y-127724745D02*
X170283809Y-126724745D01*
X170283809Y-126724745D02*
X170188571Y-126867602D01*
X170188571Y-126867602D02*
X170093333Y-126962840D01*
X170093333Y-126962840D02*
X169998095Y-127010459D01*
X171188571Y-126724745D02*
X171283809Y-126724745D01*
X171283809Y-126724745D02*
X171379047Y-126772364D01*
X171379047Y-126772364D02*
X171426666Y-126819983D01*
X171426666Y-126819983D02*
X171474285Y-126915221D01*
X171474285Y-126915221D02*
X171521904Y-127105697D01*
X171521904Y-127105697D02*
X171521904Y-127343792D01*
X171521904Y-127343792D02*
X171474285Y-127534268D01*
X171474285Y-127534268D02*
X171426666Y-127629506D01*
X171426666Y-127629506D02*
X171379047Y-127677126D01*
X171379047Y-127677126D02*
X171283809Y-127724745D01*
X171283809Y-127724745D02*
X171188571Y-127724745D01*
X171188571Y-127724745D02*
X171093333Y-127677126D01*
X171093333Y-127677126D02*
X171045714Y-127629506D01*
X171045714Y-127629506D02*
X170998095Y-127534268D01*
X170998095Y-127534268D02*
X170950476Y-127343792D01*
X170950476Y-127343792D02*
X170950476Y-127105697D01*
X170950476Y-127105697D02*
X170998095Y-126915221D01*
X170998095Y-126915221D02*
X171045714Y-126819983D01*
X171045714Y-126819983D02*
X171093333Y-126772364D01*
X171093333Y-126772364D02*
X171188571Y-126724745D01*
X173224905Y-143437745D02*
X173224905Y-142437745D01*
X173224905Y-142437745D02*
X173463000Y-142437745D01*
X173463000Y-142437745D02*
X173605857Y-142485364D01*
X173605857Y-142485364D02*
X173701095Y-142580602D01*
X173701095Y-142580602D02*
X173748714Y-142675840D01*
X173748714Y-142675840D02*
X173796333Y-142866316D01*
X173796333Y-142866316D02*
X173796333Y-143009173D01*
X173796333Y-143009173D02*
X173748714Y-143199649D01*
X173748714Y-143199649D02*
X173701095Y-143294887D01*
X173701095Y-143294887D02*
X173605857Y-143390126D01*
X173605857Y-143390126D02*
X173463000Y-143437745D01*
X173463000Y-143437745D02*
X173224905Y-143437745D01*
X174701095Y-142437745D02*
X174224905Y-142437745D01*
X174224905Y-142437745D02*
X174177286Y-142913935D01*
X174177286Y-142913935D02*
X174224905Y-142866316D01*
X174224905Y-142866316D02*
X174320143Y-142818697D01*
X174320143Y-142818697D02*
X174558238Y-142818697D01*
X174558238Y-142818697D02*
X174653476Y-142866316D01*
X174653476Y-142866316D02*
X174701095Y-142913935D01*
X174701095Y-142913935D02*
X174748714Y-143009173D01*
X174748714Y-143009173D02*
X174748714Y-143247268D01*
X174748714Y-143247268D02*
X174701095Y-143342506D01*
X174701095Y-143342506D02*
X174653476Y-143390126D01*
X174653476Y-143390126D02*
X174558238Y-143437745D01*
X174558238Y-143437745D02*
X174320143Y-143437745D01*
X174320143Y-143437745D02*
X174224905Y-143390126D01*
X174224905Y-143390126D02*
X174177286Y-143342506D01*
X169000214Y-119092745D02*
X169000214Y-118092745D01*
X169000214Y-118092745D02*
X169238309Y-118092745D01*
X169238309Y-118092745D02*
X169381166Y-118140364D01*
X169381166Y-118140364D02*
X169476404Y-118235602D01*
X169476404Y-118235602D02*
X169524023Y-118330840D01*
X169524023Y-118330840D02*
X169571642Y-118521316D01*
X169571642Y-118521316D02*
X169571642Y-118664173D01*
X169571642Y-118664173D02*
X169524023Y-118854649D01*
X169524023Y-118854649D02*
X169476404Y-118949887D01*
X169476404Y-118949887D02*
X169381166Y-119045126D01*
X169381166Y-119045126D02*
X169238309Y-119092745D01*
X169238309Y-119092745D02*
X169000214Y-119092745D01*
X170524023Y-119092745D02*
X169952595Y-119092745D01*
X170238309Y-119092745D02*
X170238309Y-118092745D01*
X170238309Y-118092745D02*
X170143071Y-118235602D01*
X170143071Y-118235602D02*
X170047833Y-118330840D01*
X170047833Y-118330840D02*
X169952595Y-118378459D01*
X171476404Y-119092745D02*
X170904976Y-119092745D01*
X171190690Y-119092745D02*
X171190690Y-118092745D01*
X171190690Y-118092745D02*
X171095452Y-118235602D01*
X171095452Y-118235602D02*
X171000214Y-118330840D01*
X171000214Y-118330840D02*
X170904976Y-118378459D01*
X169450905Y-152930745D02*
X169450905Y-151930745D01*
X169450905Y-151930745D02*
X169689000Y-151930745D01*
X169689000Y-151930745D02*
X169831857Y-151978364D01*
X169831857Y-151978364D02*
X169927095Y-152073602D01*
X169927095Y-152073602D02*
X169974714Y-152168840D01*
X169974714Y-152168840D02*
X170022333Y-152359316D01*
X170022333Y-152359316D02*
X170022333Y-152502173D01*
X170022333Y-152502173D02*
X169974714Y-152692649D01*
X169974714Y-152692649D02*
X169927095Y-152787887D01*
X169927095Y-152787887D02*
X169831857Y-152883126D01*
X169831857Y-152883126D02*
X169689000Y-152930745D01*
X169689000Y-152930745D02*
X169450905Y-152930745D01*
X170403286Y-152025983D02*
X170450905Y-151978364D01*
X170450905Y-151978364D02*
X170546143Y-151930745D01*
X170546143Y-151930745D02*
X170784238Y-151930745D01*
X170784238Y-151930745D02*
X170879476Y-151978364D01*
X170879476Y-151978364D02*
X170927095Y-152025983D01*
X170927095Y-152025983D02*
X170974714Y-152121221D01*
X170974714Y-152121221D02*
X170974714Y-152216459D01*
X170974714Y-152216459D02*
X170927095Y-152359316D01*
X170927095Y-152359316D02*
X170355667Y-152930745D01*
X170355667Y-152930745D02*
X170974714Y-152930745D01*
X173187905Y-122838745D02*
X173187905Y-121838745D01*
X173187905Y-121838745D02*
X173426000Y-121838745D01*
X173426000Y-121838745D02*
X173568857Y-121886364D01*
X173568857Y-121886364D02*
X173664095Y-121981602D01*
X173664095Y-121981602D02*
X173711714Y-122076840D01*
X173711714Y-122076840D02*
X173759333Y-122267316D01*
X173759333Y-122267316D02*
X173759333Y-122410173D01*
X173759333Y-122410173D02*
X173711714Y-122600649D01*
X173711714Y-122600649D02*
X173664095Y-122695887D01*
X173664095Y-122695887D02*
X173568857Y-122791126D01*
X173568857Y-122791126D02*
X173426000Y-122838745D01*
X173426000Y-122838745D02*
X173187905Y-122838745D01*
X174235524Y-122838745D02*
X174426000Y-122838745D01*
X174426000Y-122838745D02*
X174521238Y-122791126D01*
X174521238Y-122791126D02*
X174568857Y-122743506D01*
X174568857Y-122743506D02*
X174664095Y-122600649D01*
X174664095Y-122600649D02*
X174711714Y-122410173D01*
X174711714Y-122410173D02*
X174711714Y-122029221D01*
X174711714Y-122029221D02*
X174664095Y-121933983D01*
X174664095Y-121933983D02*
X174616476Y-121886364D01*
X174616476Y-121886364D02*
X174521238Y-121838745D01*
X174521238Y-121838745D02*
X174330762Y-121838745D01*
X174330762Y-121838745D02*
X174235524Y-121886364D01*
X174235524Y-121886364D02*
X174187905Y-121933983D01*
X174187905Y-121933983D02*
X174140286Y-122029221D01*
X174140286Y-122029221D02*
X174140286Y-122267316D01*
X174140286Y-122267316D02*
X174187905Y-122362554D01*
X174187905Y-122362554D02*
X174235524Y-122410173D01*
X174235524Y-122410173D02*
X174330762Y-122457792D01*
X174330762Y-122457792D02*
X174521238Y-122457792D01*
X174521238Y-122457792D02*
X174616476Y-122410173D01*
X174616476Y-122410173D02*
X174664095Y-122362554D01*
X174664095Y-122362554D02*
X174711714Y-122267316D01*
X173690666Y-118936745D02*
X173690666Y-119651030D01*
X173690666Y-119651030D02*
X173643047Y-119793887D01*
X173643047Y-119793887D02*
X173547809Y-119889126D01*
X173547809Y-119889126D02*
X173404952Y-119936745D01*
X173404952Y-119936745D02*
X173309714Y-119936745D01*
X174643047Y-118936745D02*
X174166857Y-118936745D01*
X174166857Y-118936745D02*
X174119238Y-119412935D01*
X174119238Y-119412935D02*
X174166857Y-119365316D01*
X174166857Y-119365316D02*
X174262095Y-119317697D01*
X174262095Y-119317697D02*
X174500190Y-119317697D01*
X174500190Y-119317697D02*
X174595428Y-119365316D01*
X174595428Y-119365316D02*
X174643047Y-119412935D01*
X174643047Y-119412935D02*
X174690666Y-119508173D01*
X174690666Y-119508173D02*
X174690666Y-119746268D01*
X174690666Y-119746268D02*
X174643047Y-119841506D01*
X174643047Y-119841506D02*
X174595428Y-119889126D01*
X174595428Y-119889126D02*
X174500190Y-119936745D01*
X174500190Y-119936745D02*
X174262095Y-119936745D01*
X174262095Y-119936745D02*
X174166857Y-119889126D01*
X174166857Y-119889126D02*
X174119238Y-119841506D01*
X169503905Y-146896745D02*
X169503905Y-145896745D01*
X169503905Y-145896745D02*
X169742000Y-145896745D01*
X169742000Y-145896745D02*
X169884857Y-145944364D01*
X169884857Y-145944364D02*
X169980095Y-146039602D01*
X169980095Y-146039602D02*
X170027714Y-146134840D01*
X170027714Y-146134840D02*
X170075333Y-146325316D01*
X170075333Y-146325316D02*
X170075333Y-146468173D01*
X170075333Y-146468173D02*
X170027714Y-146658649D01*
X170027714Y-146658649D02*
X169980095Y-146753887D01*
X169980095Y-146753887D02*
X169884857Y-146849126D01*
X169884857Y-146849126D02*
X169742000Y-146896745D01*
X169742000Y-146896745D02*
X169503905Y-146896745D01*
X170932476Y-146230078D02*
X170932476Y-146896745D01*
X170694381Y-145849126D02*
X170456286Y-146563411D01*
X170456286Y-146563411D02*
X171075333Y-146563411D01*
X173225905Y-151823745D02*
X173225905Y-150823745D01*
X173225905Y-150823745D02*
X173464000Y-150823745D01*
X173464000Y-150823745D02*
X173606857Y-150871364D01*
X173606857Y-150871364D02*
X173702095Y-150966602D01*
X173702095Y-150966602D02*
X173749714Y-151061840D01*
X173749714Y-151061840D02*
X173797333Y-151252316D01*
X173797333Y-151252316D02*
X173797333Y-151395173D01*
X173797333Y-151395173D02*
X173749714Y-151585649D01*
X173749714Y-151585649D02*
X173702095Y-151680887D01*
X173702095Y-151680887D02*
X173606857Y-151776126D01*
X173606857Y-151776126D02*
X173464000Y-151823745D01*
X173464000Y-151823745D02*
X173225905Y-151823745D01*
X174749714Y-151823745D02*
X174178286Y-151823745D01*
X174464000Y-151823745D02*
X174464000Y-150823745D01*
X174464000Y-150823745D02*
X174368762Y-150966602D01*
X174368762Y-150966602D02*
X174273524Y-151061840D01*
X174273524Y-151061840D02*
X174178286Y-151109459D01*
X166219642Y-99486745D02*
X165886309Y-99010554D01*
X165648214Y-99486745D02*
X165648214Y-98486745D01*
X165648214Y-98486745D02*
X166029166Y-98486745D01*
X166029166Y-98486745D02*
X166124404Y-98534364D01*
X166124404Y-98534364D02*
X166172023Y-98581983D01*
X166172023Y-98581983D02*
X166219642Y-98677221D01*
X166219642Y-98677221D02*
X166219642Y-98820078D01*
X166219642Y-98820078D02*
X166172023Y-98915316D01*
X166172023Y-98915316D02*
X166124404Y-98962935D01*
X166124404Y-98962935D02*
X166029166Y-99010554D01*
X166029166Y-99010554D02*
X165648214Y-99010554D01*
X167172023Y-99486745D02*
X166600595Y-99486745D01*
X166886309Y-99486745D02*
X166886309Y-98486745D01*
X166886309Y-98486745D02*
X166791071Y-98629602D01*
X166791071Y-98629602D02*
X166695833Y-98724840D01*
X166695833Y-98724840D02*
X166600595Y-98772459D01*
X168029166Y-98486745D02*
X167838690Y-98486745D01*
X167838690Y-98486745D02*
X167743452Y-98534364D01*
X167743452Y-98534364D02*
X167695833Y-98581983D01*
X167695833Y-98581983D02*
X167600595Y-98724840D01*
X167600595Y-98724840D02*
X167552976Y-98915316D01*
X167552976Y-98915316D02*
X167552976Y-99296268D01*
X167552976Y-99296268D02*
X167600595Y-99391506D01*
X167600595Y-99391506D02*
X167648214Y-99439126D01*
X167648214Y-99439126D02*
X167743452Y-99486745D01*
X167743452Y-99486745D02*
X167933928Y-99486745D01*
X167933928Y-99486745D02*
X168029166Y-99439126D01*
X168029166Y-99439126D02*
X168076785Y-99391506D01*
X168076785Y-99391506D02*
X168124404Y-99296268D01*
X168124404Y-99296268D02*
X168124404Y-99058173D01*
X168124404Y-99058173D02*
X168076785Y-98962935D01*
X168076785Y-98962935D02*
X168029166Y-98915316D01*
X168029166Y-98915316D02*
X167933928Y-98867697D01*
X167933928Y-98867697D02*
X167743452Y-98867697D01*
X167743452Y-98867697D02*
X167648214Y-98915316D01*
X167648214Y-98915316D02*
X167600595Y-98962935D01*
X167600595Y-98962935D02*
X167552976Y-99058173D01*
X167729819Y-87041449D02*
X168444104Y-87041449D01*
X168444104Y-87041449D02*
X168586961Y-87089068D01*
X168586961Y-87089068D02*
X168682200Y-87184306D01*
X168682200Y-87184306D02*
X168729819Y-87327163D01*
X168729819Y-87327163D02*
X168729819Y-87422401D01*
X168729819Y-86041449D02*
X168729819Y-86612877D01*
X168729819Y-86327163D02*
X167729819Y-86327163D01*
X167729819Y-86327163D02*
X167872676Y-86422401D01*
X167872676Y-86422401D02*
X167967914Y-86517639D01*
X167967914Y-86517639D02*
X168015533Y-86612877D01*
X167825057Y-85660496D02*
X167777438Y-85612877D01*
X167777438Y-85612877D02*
X167729819Y-85517639D01*
X167729819Y-85517639D02*
X167729819Y-85279544D01*
X167729819Y-85279544D02*
X167777438Y-85184306D01*
X167777438Y-85184306D02*
X167825057Y-85136687D01*
X167825057Y-85136687D02*
X167920295Y-85089068D01*
X167920295Y-85089068D02*
X168015533Y-85089068D01*
X168015533Y-85089068D02*
X168158390Y-85136687D01*
X168158390Y-85136687D02*
X168729819Y-85708115D01*
X168729819Y-85708115D02*
X168729819Y-85089068D01*
X166219642Y-96536745D02*
X165886309Y-96060554D01*
X165648214Y-96536745D02*
X165648214Y-95536745D01*
X165648214Y-95536745D02*
X166029166Y-95536745D01*
X166029166Y-95536745D02*
X166124404Y-95584364D01*
X166124404Y-95584364D02*
X166172023Y-95631983D01*
X166172023Y-95631983D02*
X166219642Y-95727221D01*
X166219642Y-95727221D02*
X166219642Y-95870078D01*
X166219642Y-95870078D02*
X166172023Y-95965316D01*
X166172023Y-95965316D02*
X166124404Y-96012935D01*
X166124404Y-96012935D02*
X166029166Y-96060554D01*
X166029166Y-96060554D02*
X165648214Y-96060554D01*
X167172023Y-96536745D02*
X166600595Y-96536745D01*
X166886309Y-96536745D02*
X166886309Y-95536745D01*
X166886309Y-95536745D02*
X166791071Y-95679602D01*
X166791071Y-95679602D02*
X166695833Y-95774840D01*
X166695833Y-95774840D02*
X166600595Y-95822459D01*
X168076785Y-95536745D02*
X167600595Y-95536745D01*
X167600595Y-95536745D02*
X167552976Y-96012935D01*
X167552976Y-96012935D02*
X167600595Y-95965316D01*
X167600595Y-95965316D02*
X167695833Y-95917697D01*
X167695833Y-95917697D02*
X167933928Y-95917697D01*
X167933928Y-95917697D02*
X168029166Y-95965316D01*
X168029166Y-95965316D02*
X168076785Y-96012935D01*
X168076785Y-96012935D02*
X168124404Y-96108173D01*
X168124404Y-96108173D02*
X168124404Y-96346268D01*
X168124404Y-96346268D02*
X168076785Y-96441506D01*
X168076785Y-96441506D02*
X168029166Y-96489126D01*
X168029166Y-96489126D02*
X167933928Y-96536745D01*
X167933928Y-96536745D02*
X167695833Y-96536745D01*
X167695833Y-96536745D02*
X167600595Y-96489126D01*
X167600595Y-96489126D02*
X167552976Y-96441506D01*
X169229819Y-109065259D02*
X169944104Y-109065259D01*
X169944104Y-109065259D02*
X170086961Y-109112878D01*
X170086961Y-109112878D02*
X170182200Y-109208116D01*
X170182200Y-109208116D02*
X170229819Y-109350973D01*
X170229819Y-109350973D02*
X170229819Y-109446211D01*
X169229819Y-108684306D02*
X169229819Y-108065259D01*
X169229819Y-108065259D02*
X169610771Y-108398592D01*
X169610771Y-108398592D02*
X169610771Y-108255735D01*
X169610771Y-108255735D02*
X169658390Y-108160497D01*
X169658390Y-108160497D02*
X169706009Y-108112878D01*
X169706009Y-108112878D02*
X169801247Y-108065259D01*
X169801247Y-108065259D02*
X170039342Y-108065259D01*
X170039342Y-108065259D02*
X170134580Y-108112878D01*
X170134580Y-108112878D02*
X170182200Y-108160497D01*
X170182200Y-108160497D02*
X170229819Y-108255735D01*
X170229819Y-108255735D02*
X170229819Y-108541449D01*
X170229819Y-108541449D02*
X170182200Y-108636687D01*
X170182200Y-108636687D02*
X170134580Y-108684306D01*
X159690476Y-122834819D02*
X159690476Y-123549104D01*
X159690476Y-123549104D02*
X159642857Y-123691961D01*
X159642857Y-123691961D02*
X159547619Y-123787200D01*
X159547619Y-123787200D02*
X159404762Y-123834819D01*
X159404762Y-123834819D02*
X159309524Y-123834819D01*
X160690476Y-123834819D02*
X160119048Y-123834819D01*
X160404762Y-123834819D02*
X160404762Y-122834819D01*
X160404762Y-122834819D02*
X160309524Y-122977676D01*
X160309524Y-122977676D02*
X160214286Y-123072914D01*
X160214286Y-123072914D02*
X160119048Y-123120533D01*
X161642857Y-123834819D02*
X161071429Y-123834819D01*
X161357143Y-123834819D02*
X161357143Y-122834819D01*
X161357143Y-122834819D02*
X161261905Y-122977676D01*
X161261905Y-122977676D02*
X161166667Y-123072914D01*
X161166667Y-123072914D02*
X161071429Y-123120533D01*
X137440476Y-135874819D02*
X137440476Y-136589104D01*
X137440476Y-136589104D02*
X137392857Y-136731961D01*
X137392857Y-136731961D02*
X137297619Y-136827200D01*
X137297619Y-136827200D02*
X137154762Y-136874819D01*
X137154762Y-136874819D02*
X137059524Y-136874819D01*
X138440476Y-136874819D02*
X137869048Y-136874819D01*
X138154762Y-136874819D02*
X138154762Y-135874819D01*
X138154762Y-135874819D02*
X138059524Y-136017676D01*
X138059524Y-136017676D02*
X137964286Y-136112914D01*
X137964286Y-136112914D02*
X137869048Y-136160533D01*
X139345238Y-135874819D02*
X138869048Y-135874819D01*
X138869048Y-135874819D02*
X138821429Y-136351009D01*
X138821429Y-136351009D02*
X138869048Y-136303390D01*
X138869048Y-136303390D02*
X138964286Y-136255771D01*
X138964286Y-136255771D02*
X139202381Y-136255771D01*
X139202381Y-136255771D02*
X139297619Y-136303390D01*
X139297619Y-136303390D02*
X139345238Y-136351009D01*
X139345238Y-136351009D02*
X139392857Y-136446247D01*
X139392857Y-136446247D02*
X139392857Y-136684342D01*
X139392857Y-136684342D02*
X139345238Y-136779580D01*
X139345238Y-136779580D02*
X139297619Y-136827200D01*
X139297619Y-136827200D02*
X139202381Y-136874819D01*
X139202381Y-136874819D02*
X138964286Y-136874819D01*
X138964286Y-136874819D02*
X138869048Y-136827200D01*
X138869048Y-136827200D02*
X138821429Y-136779580D01*
X146440476Y-140954819D02*
X146440476Y-141669104D01*
X146440476Y-141669104D02*
X146392857Y-141811961D01*
X146392857Y-141811961D02*
X146297619Y-141907200D01*
X146297619Y-141907200D02*
X146154762Y-141954819D01*
X146154762Y-141954819D02*
X146059524Y-141954819D01*
X147440476Y-141954819D02*
X146869048Y-141954819D01*
X147154762Y-141954819D02*
X147154762Y-140954819D01*
X147154762Y-140954819D02*
X147059524Y-141097676D01*
X147059524Y-141097676D02*
X146964286Y-141192914D01*
X146964286Y-141192914D02*
X146869048Y-141240533D01*
X147773810Y-140954819D02*
X148440476Y-140954819D01*
X148440476Y-140954819D02*
X148011905Y-141954819D01*
X151823333Y-100409580D02*
X151775714Y-100457200D01*
X151775714Y-100457200D02*
X151632857Y-100504819D01*
X151632857Y-100504819D02*
X151537619Y-100504819D01*
X151537619Y-100504819D02*
X151394762Y-100457200D01*
X151394762Y-100457200D02*
X151299524Y-100361961D01*
X151299524Y-100361961D02*
X151251905Y-100266723D01*
X151251905Y-100266723D02*
X151204286Y-100076247D01*
X151204286Y-100076247D02*
X151204286Y-99933390D01*
X151204286Y-99933390D02*
X151251905Y-99742914D01*
X151251905Y-99742914D02*
X151299524Y-99647676D01*
X151299524Y-99647676D02*
X151394762Y-99552438D01*
X151394762Y-99552438D02*
X151537619Y-99504819D01*
X151537619Y-99504819D02*
X151632857Y-99504819D01*
X151632857Y-99504819D02*
X151775714Y-99552438D01*
X151775714Y-99552438D02*
X151823333Y-99600057D01*
X152156667Y-99504819D02*
X152823333Y-99504819D01*
X152823333Y-99504819D02*
X152394762Y-100504819D01*
X155161904Y-121140180D02*
X155161904Y-120330657D01*
X155161904Y-120330657D02*
X155114285Y-120235419D01*
X155114285Y-120235419D02*
X155066666Y-120187800D01*
X155066666Y-120187800D02*
X154971428Y-120140180D01*
X154971428Y-120140180D02*
X154780952Y-120140180D01*
X154780952Y-120140180D02*
X154685714Y-120187800D01*
X154685714Y-120187800D02*
X154638095Y-120235419D01*
X154638095Y-120235419D02*
X154590476Y-120330657D01*
X154590476Y-120330657D02*
X154590476Y-121140180D01*
X153590476Y-120140180D02*
X154161904Y-120140180D01*
X153876190Y-120140180D02*
X153876190Y-121140180D01*
X153876190Y-121140180D02*
X153971428Y-120997323D01*
X153971428Y-120997323D02*
X154066666Y-120902085D01*
X154066666Y-120902085D02*
X154161904Y-120854466D01*
X155833333Y-124679580D02*
X155785714Y-124727200D01*
X155785714Y-124727200D02*
X155642857Y-124774819D01*
X155642857Y-124774819D02*
X155547619Y-124774819D01*
X155547619Y-124774819D02*
X155404762Y-124727200D01*
X155404762Y-124727200D02*
X155309524Y-124631961D01*
X155309524Y-124631961D02*
X155261905Y-124536723D01*
X155261905Y-124536723D02*
X155214286Y-124346247D01*
X155214286Y-124346247D02*
X155214286Y-124203390D01*
X155214286Y-124203390D02*
X155261905Y-124012914D01*
X155261905Y-124012914D02*
X155309524Y-123917676D01*
X155309524Y-123917676D02*
X155404762Y-123822438D01*
X155404762Y-123822438D02*
X155547619Y-123774819D01*
X155547619Y-123774819D02*
X155642857Y-123774819D01*
X155642857Y-123774819D02*
X155785714Y-123822438D01*
X155785714Y-123822438D02*
X155833333Y-123870057D01*
X156166667Y-123774819D02*
X156785714Y-123774819D01*
X156785714Y-123774819D02*
X156452381Y-124155771D01*
X156452381Y-124155771D02*
X156595238Y-124155771D01*
X156595238Y-124155771D02*
X156690476Y-124203390D01*
X156690476Y-124203390D02*
X156738095Y-124251009D01*
X156738095Y-124251009D02*
X156785714Y-124346247D01*
X156785714Y-124346247D02*
X156785714Y-124584342D01*
X156785714Y-124584342D02*
X156738095Y-124679580D01*
X156738095Y-124679580D02*
X156690476Y-124727200D01*
X156690476Y-124727200D02*
X156595238Y-124774819D01*
X156595238Y-124774819D02*
X156309524Y-124774819D01*
X156309524Y-124774819D02*
X156214286Y-124727200D01*
X156214286Y-124727200D02*
X156166667Y-124679580D01*
X159857142Y-131454819D02*
X159380952Y-131454819D01*
X159380952Y-131454819D02*
X159380952Y-130454819D01*
X160142857Y-131407200D02*
X160285714Y-131454819D01*
X160285714Y-131454819D02*
X160523809Y-131454819D01*
X160523809Y-131454819D02*
X160619047Y-131407200D01*
X160619047Y-131407200D02*
X160666666Y-131359580D01*
X160666666Y-131359580D02*
X160714285Y-131264342D01*
X160714285Y-131264342D02*
X160714285Y-131169104D01*
X160714285Y-131169104D02*
X160666666Y-131073866D01*
X160666666Y-131073866D02*
X160619047Y-131026247D01*
X160619047Y-131026247D02*
X160523809Y-130978628D01*
X160523809Y-130978628D02*
X160333333Y-130931009D01*
X160333333Y-130931009D02*
X160238095Y-130883390D01*
X160238095Y-130883390D02*
X160190476Y-130835771D01*
X160190476Y-130835771D02*
X160142857Y-130740533D01*
X160142857Y-130740533D02*
X160142857Y-130645295D01*
X160142857Y-130645295D02*
X160190476Y-130550057D01*
X160190476Y-130550057D02*
X160238095Y-130502438D01*
X160238095Y-130502438D02*
X160333333Y-130454819D01*
X160333333Y-130454819D02*
X160571428Y-130454819D01*
X160571428Y-130454819D02*
X160714285Y-130502438D01*
X161666666Y-131454819D02*
X161095238Y-131454819D01*
X161380952Y-131454819D02*
X161380952Y-130454819D01*
X161380952Y-130454819D02*
X161285714Y-130597676D01*
X161285714Y-130597676D02*
X161190476Y-130692914D01*
X161190476Y-130692914D02*
X161095238Y-130740533D01*
X145823333Y-100409580D02*
X145775714Y-100457200D01*
X145775714Y-100457200D02*
X145632857Y-100504819D01*
X145632857Y-100504819D02*
X145537619Y-100504819D01*
X145537619Y-100504819D02*
X145394762Y-100457200D01*
X145394762Y-100457200D02*
X145299524Y-100361961D01*
X145299524Y-100361961D02*
X145251905Y-100266723D01*
X145251905Y-100266723D02*
X145204286Y-100076247D01*
X145204286Y-100076247D02*
X145204286Y-99933390D01*
X145204286Y-99933390D02*
X145251905Y-99742914D01*
X145251905Y-99742914D02*
X145299524Y-99647676D01*
X145299524Y-99647676D02*
X145394762Y-99552438D01*
X145394762Y-99552438D02*
X145537619Y-99504819D01*
X145537619Y-99504819D02*
X145632857Y-99504819D01*
X145632857Y-99504819D02*
X145775714Y-99552438D01*
X145775714Y-99552438D02*
X145823333Y-99600057D01*
X146728095Y-99504819D02*
X146251905Y-99504819D01*
X146251905Y-99504819D02*
X146204286Y-99981009D01*
X146204286Y-99981009D02*
X146251905Y-99933390D01*
X146251905Y-99933390D02*
X146347143Y-99885771D01*
X146347143Y-99885771D02*
X146585238Y-99885771D01*
X146585238Y-99885771D02*
X146680476Y-99933390D01*
X146680476Y-99933390D02*
X146728095Y-99981009D01*
X146728095Y-99981009D02*
X146775714Y-100076247D01*
X146775714Y-100076247D02*
X146775714Y-100314342D01*
X146775714Y-100314342D02*
X146728095Y-100409580D01*
X146728095Y-100409580D02*
X146680476Y-100457200D01*
X146680476Y-100457200D02*
X146585238Y-100504819D01*
X146585238Y-100504819D02*
X146347143Y-100504819D01*
X146347143Y-100504819D02*
X146251905Y-100457200D01*
X146251905Y-100457200D02*
X146204286Y-100409580D01*
X159690476Y-94574819D02*
X159690476Y-93574819D01*
X159690476Y-93574819D02*
X160023809Y-94289104D01*
X160023809Y-94289104D02*
X160357142Y-93574819D01*
X160357142Y-93574819D02*
X160357142Y-94574819D01*
X160785714Y-93670057D02*
X160833333Y-93622438D01*
X160833333Y-93622438D02*
X160928571Y-93574819D01*
X160928571Y-93574819D02*
X161166666Y-93574819D01*
X161166666Y-93574819D02*
X161261904Y-93622438D01*
X161261904Y-93622438D02*
X161309523Y-93670057D01*
X161309523Y-93670057D02*
X161357142Y-93765295D01*
X161357142Y-93765295D02*
X161357142Y-93860533D01*
X161357142Y-93860533D02*
X161309523Y-94003390D01*
X161309523Y-94003390D02*
X160738095Y-94574819D01*
X160738095Y-94574819D02*
X161357142Y-94574819D01*
X157190476Y-141954819D02*
X157190476Y-142669104D01*
X157190476Y-142669104D02*
X157142857Y-142811961D01*
X157142857Y-142811961D02*
X157047619Y-142907200D01*
X157047619Y-142907200D02*
X156904762Y-142954819D01*
X156904762Y-142954819D02*
X156809524Y-142954819D01*
X158190476Y-142954819D02*
X157619048Y-142954819D01*
X157904762Y-142954819D02*
X157904762Y-141954819D01*
X157904762Y-141954819D02*
X157809524Y-142097676D01*
X157809524Y-142097676D02*
X157714286Y-142192914D01*
X157714286Y-142192914D02*
X157619048Y-142240533D01*
X158523810Y-141954819D02*
X159142857Y-141954819D01*
X159142857Y-141954819D02*
X158809524Y-142335771D01*
X158809524Y-142335771D02*
X158952381Y-142335771D01*
X158952381Y-142335771D02*
X159047619Y-142383390D01*
X159047619Y-142383390D02*
X159095238Y-142431009D01*
X159095238Y-142431009D02*
X159142857Y-142526247D01*
X159142857Y-142526247D02*
X159142857Y-142764342D01*
X159142857Y-142764342D02*
X159095238Y-142859580D01*
X159095238Y-142859580D02*
X159047619Y-142907200D01*
X159047619Y-142907200D02*
X158952381Y-142954819D01*
X158952381Y-142954819D02*
X158666667Y-142954819D01*
X158666667Y-142954819D02*
X158571429Y-142907200D01*
X158571429Y-142907200D02*
X158523810Y-142859580D01*
X134684819Y-83333333D02*
X135399104Y-83333333D01*
X135399104Y-83333333D02*
X135541961Y-83380952D01*
X135541961Y-83380952D02*
X135637200Y-83476190D01*
X135637200Y-83476190D02*
X135684819Y-83619047D01*
X135684819Y-83619047D02*
X135684819Y-83714285D01*
X135684819Y-82333333D02*
X135684819Y-82904761D01*
X135684819Y-82619047D02*
X134684819Y-82619047D01*
X134684819Y-82619047D02*
X134827676Y-82714285D01*
X134827676Y-82714285D02*
X134922914Y-82809523D01*
X134922914Y-82809523D02*
X134970533Y-82904761D01*
X158583333Y-138109580D02*
X158535714Y-138157200D01*
X158535714Y-138157200D02*
X158392857Y-138204819D01*
X158392857Y-138204819D02*
X158297619Y-138204819D01*
X158297619Y-138204819D02*
X158154762Y-138157200D01*
X158154762Y-138157200D02*
X158059524Y-138061961D01*
X158059524Y-138061961D02*
X158011905Y-137966723D01*
X158011905Y-137966723D02*
X157964286Y-137776247D01*
X157964286Y-137776247D02*
X157964286Y-137633390D01*
X157964286Y-137633390D02*
X158011905Y-137442914D01*
X158011905Y-137442914D02*
X158059524Y-137347676D01*
X158059524Y-137347676D02*
X158154762Y-137252438D01*
X158154762Y-137252438D02*
X158297619Y-137204819D01*
X158297619Y-137204819D02*
X158392857Y-137204819D01*
X158392857Y-137204819D02*
X158535714Y-137252438D01*
X158535714Y-137252438D02*
X158583333Y-137300057D01*
X159535714Y-138204819D02*
X158964286Y-138204819D01*
X159250000Y-138204819D02*
X159250000Y-137204819D01*
X159250000Y-137204819D02*
X159154762Y-137347676D01*
X159154762Y-137347676D02*
X159059524Y-137442914D01*
X159059524Y-137442914D02*
X158964286Y-137490533D01*
X148823333Y-100409580D02*
X148775714Y-100457200D01*
X148775714Y-100457200D02*
X148632857Y-100504819D01*
X148632857Y-100504819D02*
X148537619Y-100504819D01*
X148537619Y-100504819D02*
X148394762Y-100457200D01*
X148394762Y-100457200D02*
X148299524Y-100361961D01*
X148299524Y-100361961D02*
X148251905Y-100266723D01*
X148251905Y-100266723D02*
X148204286Y-100076247D01*
X148204286Y-100076247D02*
X148204286Y-99933390D01*
X148204286Y-99933390D02*
X148251905Y-99742914D01*
X148251905Y-99742914D02*
X148299524Y-99647676D01*
X148299524Y-99647676D02*
X148394762Y-99552438D01*
X148394762Y-99552438D02*
X148537619Y-99504819D01*
X148537619Y-99504819D02*
X148632857Y-99504819D01*
X148632857Y-99504819D02*
X148775714Y-99552438D01*
X148775714Y-99552438D02*
X148823333Y-99600057D01*
X149680476Y-99504819D02*
X149490000Y-99504819D01*
X149490000Y-99504819D02*
X149394762Y-99552438D01*
X149394762Y-99552438D02*
X149347143Y-99600057D01*
X149347143Y-99600057D02*
X149251905Y-99742914D01*
X149251905Y-99742914D02*
X149204286Y-99933390D01*
X149204286Y-99933390D02*
X149204286Y-100314342D01*
X149204286Y-100314342D02*
X149251905Y-100409580D01*
X149251905Y-100409580D02*
X149299524Y-100457200D01*
X149299524Y-100457200D02*
X149394762Y-100504819D01*
X149394762Y-100504819D02*
X149585238Y-100504819D01*
X149585238Y-100504819D02*
X149680476Y-100457200D01*
X149680476Y-100457200D02*
X149728095Y-100409580D01*
X149728095Y-100409580D02*
X149775714Y-100314342D01*
X149775714Y-100314342D02*
X149775714Y-100076247D01*
X149775714Y-100076247D02*
X149728095Y-99981009D01*
X149728095Y-99981009D02*
X149680476Y-99933390D01*
X149680476Y-99933390D02*
X149585238Y-99885771D01*
X149585238Y-99885771D02*
X149394762Y-99885771D01*
X149394762Y-99885771D02*
X149299524Y-99933390D01*
X149299524Y-99933390D02*
X149251905Y-99981009D01*
X149251905Y-99981009D02*
X149204286Y-100076247D01*
X142670833Y-138304819D02*
X142337500Y-137828628D01*
X142099405Y-138304819D02*
X142099405Y-137304819D01*
X142099405Y-137304819D02*
X142480357Y-137304819D01*
X142480357Y-137304819D02*
X142575595Y-137352438D01*
X142575595Y-137352438D02*
X142623214Y-137400057D01*
X142623214Y-137400057D02*
X142670833Y-137495295D01*
X142670833Y-137495295D02*
X142670833Y-137638152D01*
X142670833Y-137638152D02*
X142623214Y-137733390D01*
X142623214Y-137733390D02*
X142575595Y-137781009D01*
X142575595Y-137781009D02*
X142480357Y-137828628D01*
X142480357Y-137828628D02*
X142099405Y-137828628D01*
X143527976Y-137638152D02*
X143527976Y-138304819D01*
X143289881Y-137257200D02*
X143051786Y-137971485D01*
X143051786Y-137971485D02*
X143670833Y-137971485D01*
X155833333Y-128179580D02*
X155785714Y-128227200D01*
X155785714Y-128227200D02*
X155642857Y-128274819D01*
X155642857Y-128274819D02*
X155547619Y-128274819D01*
X155547619Y-128274819D02*
X155404762Y-128227200D01*
X155404762Y-128227200D02*
X155309524Y-128131961D01*
X155309524Y-128131961D02*
X155261905Y-128036723D01*
X155261905Y-128036723D02*
X155214286Y-127846247D01*
X155214286Y-127846247D02*
X155214286Y-127703390D01*
X155214286Y-127703390D02*
X155261905Y-127512914D01*
X155261905Y-127512914D02*
X155309524Y-127417676D01*
X155309524Y-127417676D02*
X155404762Y-127322438D01*
X155404762Y-127322438D02*
X155547619Y-127274819D01*
X155547619Y-127274819D02*
X155642857Y-127274819D01*
X155642857Y-127274819D02*
X155785714Y-127322438D01*
X155785714Y-127322438D02*
X155833333Y-127370057D01*
X156690476Y-127608152D02*
X156690476Y-128274819D01*
X156452381Y-127227200D02*
X156214286Y-127941485D01*
X156214286Y-127941485D02*
X156833333Y-127941485D01*
X154600595Y-137204819D02*
X154600595Y-138014342D01*
X154600595Y-138014342D02*
X154648214Y-138109580D01*
X154648214Y-138109580D02*
X154695833Y-138157200D01*
X154695833Y-138157200D02*
X154791071Y-138204819D01*
X154791071Y-138204819D02*
X154981547Y-138204819D01*
X154981547Y-138204819D02*
X155076785Y-138157200D01*
X155076785Y-138157200D02*
X155124404Y-138109580D01*
X155124404Y-138109580D02*
X155172023Y-138014342D01*
X155172023Y-138014342D02*
X155172023Y-137204819D01*
X155600595Y-137300057D02*
X155648214Y-137252438D01*
X155648214Y-137252438D02*
X155743452Y-137204819D01*
X155743452Y-137204819D02*
X155981547Y-137204819D01*
X155981547Y-137204819D02*
X156076785Y-137252438D01*
X156076785Y-137252438D02*
X156124404Y-137300057D01*
X156124404Y-137300057D02*
X156172023Y-137395295D01*
X156172023Y-137395295D02*
X156172023Y-137490533D01*
X156172023Y-137490533D02*
X156124404Y-137633390D01*
X156124404Y-137633390D02*
X155552976Y-138204819D01*
X155552976Y-138204819D02*
X156172023Y-138204819D01*
X138666667Y-88907200D02*
X138809524Y-88954819D01*
X138809524Y-88954819D02*
X139047619Y-88954819D01*
X139047619Y-88954819D02*
X139142857Y-88907200D01*
X139142857Y-88907200D02*
X139190476Y-88859580D01*
X139190476Y-88859580D02*
X139238095Y-88764342D01*
X139238095Y-88764342D02*
X139238095Y-88669104D01*
X139238095Y-88669104D02*
X139190476Y-88573866D01*
X139190476Y-88573866D02*
X139142857Y-88526247D01*
X139142857Y-88526247D02*
X139047619Y-88478628D01*
X139047619Y-88478628D02*
X138857143Y-88431009D01*
X138857143Y-88431009D02*
X138761905Y-88383390D01*
X138761905Y-88383390D02*
X138714286Y-88335771D01*
X138714286Y-88335771D02*
X138666667Y-88240533D01*
X138666667Y-88240533D02*
X138666667Y-88145295D01*
X138666667Y-88145295D02*
X138714286Y-88050057D01*
X138714286Y-88050057D02*
X138761905Y-88002438D01*
X138761905Y-88002438D02*
X138857143Y-87954819D01*
X138857143Y-87954819D02*
X139095238Y-87954819D01*
X139095238Y-87954819D02*
X139238095Y-88002438D01*
X139571429Y-87954819D02*
X139809524Y-88954819D01*
X139809524Y-88954819D02*
X140000000Y-88240533D01*
X140000000Y-88240533D02*
X140190476Y-88954819D01*
X140190476Y-88954819D02*
X140428572Y-87954819D01*
X141238095Y-87954819D02*
X141047619Y-87954819D01*
X141047619Y-87954819D02*
X140952381Y-88002438D01*
X140952381Y-88002438D02*
X140904762Y-88050057D01*
X140904762Y-88050057D02*
X140809524Y-88192914D01*
X140809524Y-88192914D02*
X140761905Y-88383390D01*
X140761905Y-88383390D02*
X140761905Y-88764342D01*
X140761905Y-88764342D02*
X140809524Y-88859580D01*
X140809524Y-88859580D02*
X140857143Y-88907200D01*
X140857143Y-88907200D02*
X140952381Y-88954819D01*
X140952381Y-88954819D02*
X141142857Y-88954819D01*
X141142857Y-88954819D02*
X141238095Y-88907200D01*
X141238095Y-88907200D02*
X141285714Y-88859580D01*
X141285714Y-88859580D02*
X141333333Y-88764342D01*
X141333333Y-88764342D02*
X141333333Y-88526247D01*
X141333333Y-88526247D02*
X141285714Y-88431009D01*
X141285714Y-88431009D02*
X141238095Y-88383390D01*
X141238095Y-88383390D02*
X141142857Y-88335771D01*
X141142857Y-88335771D02*
X140952381Y-88335771D01*
X140952381Y-88335771D02*
X140857143Y-88383390D01*
X140857143Y-88383390D02*
X140809524Y-88431009D01*
X140809524Y-88431009D02*
X140761905Y-88526247D01*
X159690476Y-104494819D02*
X159690476Y-103494819D01*
X159690476Y-103494819D02*
X160023809Y-104209104D01*
X160023809Y-104209104D02*
X160357142Y-103494819D01*
X160357142Y-103494819D02*
X160357142Y-104494819D01*
X161357142Y-104494819D02*
X160785714Y-104494819D01*
X161071428Y-104494819D02*
X161071428Y-103494819D01*
X161071428Y-103494819D02*
X160976190Y-103637676D01*
X160976190Y-103637676D02*
X160880952Y-103732914D01*
X160880952Y-103732914D02*
X160785714Y-103780533D01*
X161083333Y-138204819D02*
X160750000Y-137728628D01*
X160511905Y-138204819D02*
X160511905Y-137204819D01*
X160511905Y-137204819D02*
X160892857Y-137204819D01*
X160892857Y-137204819D02*
X160988095Y-137252438D01*
X160988095Y-137252438D02*
X161035714Y-137300057D01*
X161035714Y-137300057D02*
X161083333Y-137395295D01*
X161083333Y-137395295D02*
X161083333Y-137538152D01*
X161083333Y-137538152D02*
X161035714Y-137633390D01*
X161035714Y-137633390D02*
X160988095Y-137681009D01*
X160988095Y-137681009D02*
X160892857Y-137728628D01*
X160892857Y-137728628D02*
X160511905Y-137728628D01*
X161464286Y-137300057D02*
X161511905Y-137252438D01*
X161511905Y-137252438D02*
X161607143Y-137204819D01*
X161607143Y-137204819D02*
X161845238Y-137204819D01*
X161845238Y-137204819D02*
X161940476Y-137252438D01*
X161940476Y-137252438D02*
X161988095Y-137300057D01*
X161988095Y-137300057D02*
X162035714Y-137395295D01*
X162035714Y-137395295D02*
X162035714Y-137490533D01*
X162035714Y-137490533D02*
X161988095Y-137633390D01*
X161988095Y-137633390D02*
X161416667Y-138204819D01*
X161416667Y-138204819D02*
X162035714Y-138204819D01*
X145823333Y-95417319D02*
X145490000Y-94941128D01*
X145251905Y-95417319D02*
X145251905Y-94417319D01*
X145251905Y-94417319D02*
X145632857Y-94417319D01*
X145632857Y-94417319D02*
X145728095Y-94464938D01*
X145728095Y-94464938D02*
X145775714Y-94512557D01*
X145775714Y-94512557D02*
X145823333Y-94607795D01*
X145823333Y-94607795D02*
X145823333Y-94750652D01*
X145823333Y-94750652D02*
X145775714Y-94845890D01*
X145775714Y-94845890D02*
X145728095Y-94893509D01*
X145728095Y-94893509D02*
X145632857Y-94941128D01*
X145632857Y-94941128D02*
X145251905Y-94941128D01*
X146775714Y-95417319D02*
X146204286Y-95417319D01*
X146490000Y-95417319D02*
X146490000Y-94417319D01*
X146490000Y-94417319D02*
X146394762Y-94560176D01*
X146394762Y-94560176D02*
X146299524Y-94655414D01*
X146299524Y-94655414D02*
X146204286Y-94703033D01*
X147170833Y-138304819D02*
X146837500Y-137828628D01*
X146599405Y-138304819D02*
X146599405Y-137304819D01*
X146599405Y-137304819D02*
X146980357Y-137304819D01*
X146980357Y-137304819D02*
X147075595Y-137352438D01*
X147075595Y-137352438D02*
X147123214Y-137400057D01*
X147123214Y-137400057D02*
X147170833Y-137495295D01*
X147170833Y-137495295D02*
X147170833Y-137638152D01*
X147170833Y-137638152D02*
X147123214Y-137733390D01*
X147123214Y-137733390D02*
X147075595Y-137781009D01*
X147075595Y-137781009D02*
X146980357Y-137828628D01*
X146980357Y-137828628D02*
X146599405Y-137828628D01*
X148075595Y-137304819D02*
X147599405Y-137304819D01*
X147599405Y-137304819D02*
X147551786Y-137781009D01*
X147551786Y-137781009D02*
X147599405Y-137733390D01*
X147599405Y-137733390D02*
X147694643Y-137685771D01*
X147694643Y-137685771D02*
X147932738Y-137685771D01*
X147932738Y-137685771D02*
X148027976Y-137733390D01*
X148027976Y-137733390D02*
X148075595Y-137781009D01*
X148075595Y-137781009D02*
X148123214Y-137876247D01*
X148123214Y-137876247D02*
X148123214Y-138114342D01*
X148123214Y-138114342D02*
X148075595Y-138209580D01*
X148075595Y-138209580D02*
X148027976Y-138257200D01*
X148027976Y-138257200D02*
X147932738Y-138304819D01*
X147932738Y-138304819D02*
X147694643Y-138304819D01*
X147694643Y-138304819D02*
X147599405Y-138257200D01*
X147599405Y-138257200D02*
X147551786Y-138209580D01*
X160166666Y-81034819D02*
X160166666Y-81749104D01*
X160166666Y-81749104D02*
X160119047Y-81891961D01*
X160119047Y-81891961D02*
X160023809Y-81987200D01*
X160023809Y-81987200D02*
X159880952Y-82034819D01*
X159880952Y-82034819D02*
X159785714Y-82034819D01*
X160595238Y-81130057D02*
X160642857Y-81082438D01*
X160642857Y-81082438D02*
X160738095Y-81034819D01*
X160738095Y-81034819D02*
X160976190Y-81034819D01*
X160976190Y-81034819D02*
X161071428Y-81082438D01*
X161071428Y-81082438D02*
X161119047Y-81130057D01*
X161119047Y-81130057D02*
X161166666Y-81225295D01*
X161166666Y-81225295D02*
X161166666Y-81320533D01*
X161166666Y-81320533D02*
X161119047Y-81463390D01*
X161119047Y-81463390D02*
X160547619Y-82034819D01*
X160547619Y-82034819D02*
X161166666Y-82034819D01*
X149667200Y-89333332D02*
X149714819Y-89190475D01*
X149714819Y-89190475D02*
X149714819Y-88952380D01*
X149714819Y-88952380D02*
X149667200Y-88857142D01*
X149667200Y-88857142D02*
X149619580Y-88809523D01*
X149619580Y-88809523D02*
X149524342Y-88761904D01*
X149524342Y-88761904D02*
X149429104Y-88761904D01*
X149429104Y-88761904D02*
X149333866Y-88809523D01*
X149333866Y-88809523D02*
X149286247Y-88857142D01*
X149286247Y-88857142D02*
X149238628Y-88952380D01*
X149238628Y-88952380D02*
X149191009Y-89142856D01*
X149191009Y-89142856D02*
X149143390Y-89238094D01*
X149143390Y-89238094D02*
X149095771Y-89285713D01*
X149095771Y-89285713D02*
X149000533Y-89333332D01*
X149000533Y-89333332D02*
X148905295Y-89333332D01*
X148905295Y-89333332D02*
X148810057Y-89285713D01*
X148810057Y-89285713D02*
X148762438Y-89238094D01*
X148762438Y-89238094D02*
X148714819Y-89142856D01*
X148714819Y-89142856D02*
X148714819Y-88904761D01*
X148714819Y-88904761D02*
X148762438Y-88761904D01*
X148714819Y-88428570D02*
X149714819Y-88190475D01*
X149714819Y-88190475D02*
X149000533Y-87999999D01*
X149000533Y-87999999D02*
X149714819Y-87809523D01*
X149714819Y-87809523D02*
X148714819Y-87571428D01*
X148714819Y-86714285D02*
X148714819Y-87190475D01*
X148714819Y-87190475D02*
X149191009Y-87238094D01*
X149191009Y-87238094D02*
X149143390Y-87190475D01*
X149143390Y-87190475D02*
X149095771Y-87095237D01*
X149095771Y-87095237D02*
X149095771Y-86857142D01*
X149095771Y-86857142D02*
X149143390Y-86761904D01*
X149143390Y-86761904D02*
X149191009Y-86714285D01*
X149191009Y-86714285D02*
X149286247Y-86666666D01*
X149286247Y-86666666D02*
X149524342Y-86666666D01*
X149524342Y-86666666D02*
X149619580Y-86714285D01*
X149619580Y-86714285D02*
X149667200Y-86761904D01*
X149667200Y-86761904D02*
X149714819Y-86857142D01*
X149714819Y-86857142D02*
X149714819Y-87095237D01*
X149714819Y-87095237D02*
X149667200Y-87190475D01*
X149667200Y-87190475D02*
X149619580Y-87238094D01*
X148323333Y-95159580D02*
X148275714Y-95207200D01*
X148275714Y-95207200D02*
X148132857Y-95254819D01*
X148132857Y-95254819D02*
X148037619Y-95254819D01*
X148037619Y-95254819D02*
X147894762Y-95207200D01*
X147894762Y-95207200D02*
X147799524Y-95111961D01*
X147799524Y-95111961D02*
X147751905Y-95016723D01*
X147751905Y-95016723D02*
X147704286Y-94826247D01*
X147704286Y-94826247D02*
X147704286Y-94683390D01*
X147704286Y-94683390D02*
X147751905Y-94492914D01*
X147751905Y-94492914D02*
X147799524Y-94397676D01*
X147799524Y-94397676D02*
X147894762Y-94302438D01*
X147894762Y-94302438D02*
X148037619Y-94254819D01*
X148037619Y-94254819D02*
X148132857Y-94254819D01*
X148132857Y-94254819D02*
X148275714Y-94302438D01*
X148275714Y-94302438D02*
X148323333Y-94350057D01*
X148894762Y-94683390D02*
X148799524Y-94635771D01*
X148799524Y-94635771D02*
X148751905Y-94588152D01*
X148751905Y-94588152D02*
X148704286Y-94492914D01*
X148704286Y-94492914D02*
X148704286Y-94445295D01*
X148704286Y-94445295D02*
X148751905Y-94350057D01*
X148751905Y-94350057D02*
X148799524Y-94302438D01*
X148799524Y-94302438D02*
X148894762Y-94254819D01*
X148894762Y-94254819D02*
X149085238Y-94254819D01*
X149085238Y-94254819D02*
X149180476Y-94302438D01*
X149180476Y-94302438D02*
X149228095Y-94350057D01*
X149228095Y-94350057D02*
X149275714Y-94445295D01*
X149275714Y-94445295D02*
X149275714Y-94492914D01*
X149275714Y-94492914D02*
X149228095Y-94588152D01*
X149228095Y-94588152D02*
X149180476Y-94635771D01*
X149180476Y-94635771D02*
X149085238Y-94683390D01*
X149085238Y-94683390D02*
X148894762Y-94683390D01*
X148894762Y-94683390D02*
X148799524Y-94731009D01*
X148799524Y-94731009D02*
X148751905Y-94778628D01*
X148751905Y-94778628D02*
X148704286Y-94873866D01*
X148704286Y-94873866D02*
X148704286Y-95064342D01*
X148704286Y-95064342D02*
X148751905Y-95159580D01*
X148751905Y-95159580D02*
X148799524Y-95207200D01*
X148799524Y-95207200D02*
X148894762Y-95254819D01*
X148894762Y-95254819D02*
X149085238Y-95254819D01*
X149085238Y-95254819D02*
X149180476Y-95207200D01*
X149180476Y-95207200D02*
X149228095Y-95159580D01*
X149228095Y-95159580D02*
X149275714Y-95064342D01*
X149275714Y-95064342D02*
X149275714Y-94873866D01*
X149275714Y-94873866D02*
X149228095Y-94778628D01*
X149228095Y-94778628D02*
X149180476Y-94731009D01*
X149180476Y-94731009D02*
X149085238Y-94683390D01*
X155800595Y-136004819D02*
X155800595Y-136814342D01*
X155800595Y-136814342D02*
X155848214Y-136909580D01*
X155848214Y-136909580D02*
X155895833Y-136957200D01*
X155895833Y-136957200D02*
X155991071Y-137004819D01*
X155991071Y-137004819D02*
X156181547Y-137004819D01*
X156181547Y-137004819D02*
X156276785Y-136957200D01*
X156276785Y-136957200D02*
X156324404Y-136909580D01*
X156324404Y-136909580D02*
X156372023Y-136814342D01*
X156372023Y-136814342D02*
X156372023Y-136004819D01*
X156752976Y-136004819D02*
X157372023Y-136004819D01*
X157372023Y-136004819D02*
X157038690Y-136385771D01*
X157038690Y-136385771D02*
X157181547Y-136385771D01*
X157181547Y-136385771D02*
X157276785Y-136433390D01*
X157276785Y-136433390D02*
X157324404Y-136481009D01*
X157324404Y-136481009D02*
X157372023Y-136576247D01*
X157372023Y-136576247D02*
X157372023Y-136814342D01*
X157372023Y-136814342D02*
X157324404Y-136909580D01*
X157324404Y-136909580D02*
X157276785Y-136957200D01*
X157276785Y-136957200D02*
X157181547Y-137004819D01*
X157181547Y-137004819D02*
X156895833Y-137004819D01*
X156895833Y-137004819D02*
X156800595Y-136957200D01*
X156800595Y-136957200D02*
X156752976Y-136909580D01*
X151833333Y-138109580D02*
X151785714Y-138157200D01*
X151785714Y-138157200D02*
X151642857Y-138204819D01*
X151642857Y-138204819D02*
X151547619Y-138204819D01*
X151547619Y-138204819D02*
X151404762Y-138157200D01*
X151404762Y-138157200D02*
X151309524Y-138061961D01*
X151309524Y-138061961D02*
X151261905Y-137966723D01*
X151261905Y-137966723D02*
X151214286Y-137776247D01*
X151214286Y-137776247D02*
X151214286Y-137633390D01*
X151214286Y-137633390D02*
X151261905Y-137442914D01*
X151261905Y-137442914D02*
X151309524Y-137347676D01*
X151309524Y-137347676D02*
X151404762Y-137252438D01*
X151404762Y-137252438D02*
X151547619Y-137204819D01*
X151547619Y-137204819D02*
X151642857Y-137204819D01*
X151642857Y-137204819D02*
X151785714Y-137252438D01*
X151785714Y-137252438D02*
X151833333Y-137300057D01*
X152214286Y-137300057D02*
X152261905Y-137252438D01*
X152261905Y-137252438D02*
X152357143Y-137204819D01*
X152357143Y-137204819D02*
X152595238Y-137204819D01*
X152595238Y-137204819D02*
X152690476Y-137252438D01*
X152690476Y-137252438D02*
X152738095Y-137300057D01*
X152738095Y-137300057D02*
X152785714Y-137395295D01*
X152785714Y-137395295D02*
X152785714Y-137490533D01*
X152785714Y-137490533D02*
X152738095Y-137633390D01*
X152738095Y-137633390D02*
X152166667Y-138204819D01*
X152166667Y-138204819D02*
X152785714Y-138204819D01*
X132850476Y-135874819D02*
X132850476Y-136589104D01*
X132850476Y-136589104D02*
X132802857Y-136731961D01*
X132802857Y-136731961D02*
X132707619Y-136827200D01*
X132707619Y-136827200D02*
X132564762Y-136874819D01*
X132564762Y-136874819D02*
X132469524Y-136874819D01*
X133850476Y-136874819D02*
X133279048Y-136874819D01*
X133564762Y-136874819D02*
X133564762Y-135874819D01*
X133564762Y-135874819D02*
X133469524Y-136017676D01*
X133469524Y-136017676D02*
X133374286Y-136112914D01*
X133374286Y-136112914D02*
X133279048Y-136160533D01*
X134707619Y-136208152D02*
X134707619Y-136874819D01*
X134469524Y-135827200D02*
X134231429Y-136541485D01*
X134231429Y-136541485D02*
X134850476Y-136541485D01*
X160705833Y-136954819D02*
X160372500Y-136478628D01*
X160134405Y-136954819D02*
X160134405Y-135954819D01*
X160134405Y-135954819D02*
X160515357Y-135954819D01*
X160515357Y-135954819D02*
X160610595Y-136002438D01*
X160610595Y-136002438D02*
X160658214Y-136050057D01*
X160658214Y-136050057D02*
X160705833Y-136145295D01*
X160705833Y-136145295D02*
X160705833Y-136288152D01*
X160705833Y-136288152D02*
X160658214Y-136383390D01*
X160658214Y-136383390D02*
X160610595Y-136431009D01*
X160610595Y-136431009D02*
X160515357Y-136478628D01*
X160515357Y-136478628D02*
X160134405Y-136478628D01*
X161039167Y-135954819D02*
X161658214Y-135954819D01*
X161658214Y-135954819D02*
X161324881Y-136335771D01*
X161324881Y-136335771D02*
X161467738Y-136335771D01*
X161467738Y-136335771D02*
X161562976Y-136383390D01*
X161562976Y-136383390D02*
X161610595Y-136431009D01*
X161610595Y-136431009D02*
X161658214Y-136526247D01*
X161658214Y-136526247D02*
X161658214Y-136764342D01*
X161658214Y-136764342D02*
X161610595Y-136859580D01*
X161610595Y-136859580D02*
X161562976Y-136907200D01*
X161562976Y-136907200D02*
X161467738Y-136954819D01*
X161467738Y-136954819D02*
X161182024Y-136954819D01*
X161182024Y-136954819D02*
X161086786Y-136907200D01*
X161086786Y-136907200D02*
X161039167Y-136859580D01*
X141940476Y-140954819D02*
X141940476Y-141669104D01*
X141940476Y-141669104D02*
X141892857Y-141811961D01*
X141892857Y-141811961D02*
X141797619Y-141907200D01*
X141797619Y-141907200D02*
X141654762Y-141954819D01*
X141654762Y-141954819D02*
X141559524Y-141954819D01*
X142940476Y-141954819D02*
X142369048Y-141954819D01*
X142654762Y-141954819D02*
X142654762Y-140954819D01*
X142654762Y-140954819D02*
X142559524Y-141097676D01*
X142559524Y-141097676D02*
X142464286Y-141192914D01*
X142464286Y-141192914D02*
X142369048Y-141240533D01*
X143797619Y-140954819D02*
X143607143Y-140954819D01*
X143607143Y-140954819D02*
X143511905Y-141002438D01*
X143511905Y-141002438D02*
X143464286Y-141050057D01*
X143464286Y-141050057D02*
X143369048Y-141192914D01*
X143369048Y-141192914D02*
X143321429Y-141383390D01*
X143321429Y-141383390D02*
X143321429Y-141764342D01*
X143321429Y-141764342D02*
X143369048Y-141859580D01*
X143369048Y-141859580D02*
X143416667Y-141907200D01*
X143416667Y-141907200D02*
X143511905Y-141954819D01*
X143511905Y-141954819D02*
X143702381Y-141954819D01*
X143702381Y-141954819D02*
X143797619Y-141907200D01*
X143797619Y-141907200D02*
X143845238Y-141859580D01*
X143845238Y-141859580D02*
X143892857Y-141764342D01*
X143892857Y-141764342D02*
X143892857Y-141526247D01*
X143892857Y-141526247D02*
X143845238Y-141431009D01*
X143845238Y-141431009D02*
X143797619Y-141383390D01*
X143797619Y-141383390D02*
X143702381Y-141335771D01*
X143702381Y-141335771D02*
X143511905Y-141335771D01*
X143511905Y-141335771D02*
X143416667Y-141383390D01*
X143416667Y-141383390D02*
X143369048Y-141431009D01*
X143369048Y-141431009D02*
X143321429Y-141526247D01*
D12*
%TO.C,D12*%
X167550000Y-122165926D02*
X167550000Y-119480926D01*
X167550000Y-119480926D02*
X165630000Y-119480926D01*
X165630000Y-119480926D02*
X165630000Y-122165926D01*
%TO.C,D6*%
X167552000Y-141439926D02*
X167552000Y-138754926D01*
X167552000Y-138754926D02*
X165632000Y-138754926D01*
X165632000Y-138754926D02*
X165632000Y-141439926D01*
%TO.C,D3*%
X167551000Y-151750926D02*
X167551000Y-149065926D01*
X165631000Y-151750926D02*
X167551000Y-151750926D01*
X165631000Y-149065926D02*
X165631000Y-151750926D01*
%TO.C,D8*%
X174884000Y-132477926D02*
X174884000Y-129792926D01*
X172964000Y-132477926D02*
X174884000Y-132477926D01*
X172964000Y-129792926D02*
X172964000Y-132477926D01*
%TO.C,D7*%
X171218000Y-141438926D02*
X171218000Y-138753926D01*
X171218000Y-138753926D02*
X169298000Y-138753926D01*
X169298000Y-138753926D02*
X169298000Y-141438926D01*
%TO.C,D10*%
X171217000Y-125832926D02*
X171217000Y-123147926D01*
X171217000Y-123147926D02*
X169297000Y-123147926D01*
X169297000Y-123147926D02*
X169297000Y-125832926D01*
%TO.C,D5*%
X174884000Y-141439926D02*
X174884000Y-138754926D01*
X174884000Y-138754926D02*
X172964000Y-138754926D01*
X172964000Y-138754926D02*
X172964000Y-141439926D01*
%TO.C,D11*%
X171217000Y-122810926D02*
X171217000Y-120125926D01*
X169297000Y-122810926D02*
X171217000Y-122810926D01*
X169297000Y-120125926D02*
X169297000Y-122810926D01*
%TO.C,D2*%
X171218000Y-151065926D02*
X171218000Y-148380926D01*
X171218000Y-148380926D02*
X169298000Y-148380926D01*
X169298000Y-148380926D02*
X169298000Y-151065926D01*
%TO.C,D9*%
X174884000Y-126497926D02*
X174884000Y-123812926D01*
X172964000Y-126497926D02*
X174884000Y-126497926D01*
X172964000Y-123812926D02*
X172964000Y-126497926D01*
%TO.C,J5*%
X174964000Y-115601926D02*
X174964000Y-116981926D01*
X173584000Y-115601926D02*
X174964000Y-115601926D01*
X172314000Y-118361926D02*
X164584000Y-118361926D01*
X172314000Y-115601926D02*
X172314000Y-118361926D01*
X172314000Y-115601926D02*
X164584000Y-115601926D01*
X164584000Y-115601926D02*
X164584000Y-118361926D01*
%TO.C,D4*%
X171218000Y-145085926D02*
X171218000Y-142400926D01*
X171218000Y-142400926D02*
X169298000Y-142400926D01*
X169298000Y-142400926D02*
X169298000Y-145085926D01*
%TO.C,D1*%
X174904000Y-155416926D02*
X174904000Y-152731926D01*
X172984000Y-155416926D02*
X174904000Y-155416926D01*
X172984000Y-152731926D02*
X172984000Y-155416926D01*
%TO.C,R16*%
X166635436Y-101416926D02*
X167089564Y-101416926D01*
X166635436Y-99946926D02*
X167089564Y-99946926D01*
%TO.C,J12*%
X167155000Y-83921926D02*
X167155000Y-91651926D01*
X164395000Y-91651926D02*
X167155000Y-91651926D01*
X164395000Y-83921926D02*
X167155000Y-83921926D01*
X164395000Y-83921926D02*
X164395000Y-91651926D01*
X164395000Y-82651926D02*
X164395000Y-81271926D01*
X164395000Y-81271926D02*
X165775000Y-81271926D01*
%TO.C,R15*%
X166635436Y-98466926D02*
X167089564Y-98466926D01*
X166635436Y-96996926D02*
X167089564Y-96996926D01*
%TO.C,J3*%
X174480000Y-113326926D02*
X174480000Y-104136926D01*
X171750000Y-113326926D02*
X174480000Y-113326926D01*
X171750000Y-104136926D02*
X174480000Y-104136926D01*
X168150000Y-113326926D02*
X169050000Y-113326926D01*
X168150000Y-104136926D02*
X169050000Y-104136926D01*
X165070000Y-113206926D02*
X165070000Y-104256926D01*
%TO.C,J11*%
X159120000Y-119730000D02*
X159120000Y-114540000D01*
X161880000Y-114540000D02*
X159120000Y-114540000D01*
X161880000Y-119730000D02*
X159120000Y-119730000D01*
X161880000Y-119730000D02*
X161880000Y-114540000D01*
X161880000Y-121000000D02*
X161880000Y-122380000D01*
X161880000Y-122380000D02*
X160500000Y-122380000D01*
%TO.C,J15*%
X136870000Y-137420000D02*
X138250000Y-137420000D01*
X136870000Y-138800000D02*
X136870000Y-137420000D01*
X136870000Y-140070000D02*
X136870000Y-152880000D01*
X136870000Y-140070000D02*
X139630000Y-140070000D01*
X136870000Y-152880000D02*
X139630000Y-152880000D01*
X139630000Y-140070000D02*
X139630000Y-152880000D01*
%TO.C,J17*%
X145870000Y-142500000D02*
X147250000Y-142500000D01*
X145870000Y-143880000D02*
X145870000Y-142500000D01*
X145870000Y-145150000D02*
X145870000Y-152880000D01*
X145870000Y-145150000D02*
X148630000Y-145150000D01*
X145870000Y-152880000D02*
X148630000Y-152880000D01*
X148630000Y-145150000D02*
X148630000Y-152880000D01*
%TO.C,C7*%
X151275000Y-97811252D02*
X151275000Y-97288748D01*
X152745000Y-97811252D02*
X152745000Y-97288748D01*
%TO.C,U1*%
X130100000Y-100895000D02*
X136300000Y-100895000D01*
X130100000Y-119295000D02*
X130100000Y-100895000D01*
X130100000Y-119295000D02*
X136300000Y-119295000D01*
X154950000Y-119295000D02*
X155950000Y-119295000D01*
X155950000Y-100895000D02*
X154950000Y-100895000D01*
X155950000Y-100895000D02*
X155950000Y-102395000D01*
X155950000Y-119295000D02*
X155950000Y-117795000D01*
X136975000Y-119795000D02*
X136475000Y-119295000D01*
X136975000Y-119295000D01*
X136975000Y-119795000D01*
G36*
X136975000Y-119795000D02*
G01*
X136475000Y-119295000D01*
X136975000Y-119295000D01*
X136975000Y-119795000D01*
G37*
%TO.C,C3*%
X155738748Y-125265000D02*
X156261252Y-125265000D01*
X155738748Y-126735000D02*
X156261252Y-126735000D01*
%TO.C,LS1*%
X159120000Y-124345000D02*
X160500000Y-124345000D01*
X159120000Y-125725000D02*
X159120000Y-124345000D01*
X159120000Y-126995000D02*
X159120000Y-129645000D01*
X159120000Y-126995000D02*
X161880000Y-126995000D01*
X159120000Y-129645000D02*
X161880000Y-129645000D01*
X161880000Y-126995000D02*
X161880000Y-129645000D01*
%TO.C,C5*%
X145255000Y-97811252D02*
X145255000Y-97288748D01*
X146725000Y-97811252D02*
X146725000Y-97288748D01*
%TO.C,M2*%
X159120000Y-95120000D02*
X160500000Y-95120000D01*
X159120000Y-96500000D02*
X159120000Y-95120000D01*
X159120000Y-97770000D02*
X159120000Y-102960000D01*
X159120000Y-97770000D02*
X161880000Y-97770000D01*
X159120000Y-102960000D02*
X161880000Y-102960000D01*
X161880000Y-97770000D02*
X161880000Y-102960000D01*
%TO.C,J13*%
X152800000Y-146400000D02*
X152800000Y-149160000D01*
X152800000Y-149160000D02*
X163180000Y-149160000D01*
X153750000Y-146087358D02*
X153750000Y-146400000D01*
X153750000Y-155160000D02*
X153750000Y-149160000D01*
X154610000Y-146087358D02*
X154610000Y-146400000D01*
X154610000Y-149160000D02*
X154610000Y-155160000D01*
X154610000Y-155160000D02*
X153750000Y-155160000D01*
X155450000Y-146400000D02*
X155450000Y-149160000D01*
X156290000Y-146087358D02*
X156290000Y-146400000D01*
X156290000Y-155160000D02*
X156290000Y-149160000D01*
X157150000Y-146087358D02*
X157150000Y-146400000D01*
X157150000Y-149160000D02*
X157150000Y-155160000D01*
X157150000Y-155160000D02*
X156290000Y-155160000D01*
X157990000Y-146400000D02*
X157990000Y-149160000D01*
X158830000Y-146087358D02*
X158830000Y-146400000D01*
X158830000Y-155160000D02*
X158830000Y-149160000D01*
X159690000Y-146087358D02*
X159690000Y-146400000D01*
X159690000Y-149160000D02*
X159690000Y-155160000D01*
X159690000Y-155160000D02*
X158830000Y-155160000D01*
X160530000Y-146400000D02*
X160530000Y-149160000D01*
X161370000Y-146170000D02*
X161370000Y-146400000D01*
X161800000Y-143740000D02*
X163070000Y-143740000D01*
X162230000Y-146170000D02*
X162230000Y-146400000D01*
X163070000Y-143740000D02*
X163070000Y-145010000D01*
X163180000Y-146400000D02*
X152800000Y-146400000D01*
X163180000Y-149160000D02*
X163180000Y-146400000D01*
X162230000Y-149160000D02*
X161370000Y-149160000D01*
X161370000Y-155160000D01*
X162230000Y-155160000D01*
X162230000Y-149160000D01*
G36*
X162230000Y-149160000D02*
G01*
X161370000Y-149160000D01*
X161370000Y-155160000D01*
X162230000Y-155160000D01*
X162230000Y-149160000D01*
G37*
%TO.C,J1*%
X136230000Y-84380000D02*
X136230000Y-83000000D01*
X137610000Y-84380000D02*
X136230000Y-84380000D01*
X138880000Y-81620000D02*
X156770000Y-81620000D01*
X138880000Y-84380000D02*
X138880000Y-81620000D01*
X138880000Y-84380000D02*
X156770000Y-84380000D01*
X156770000Y-84380000D02*
X156770000Y-81620000D01*
%TO.C,C1*%
X158015000Y-140561252D02*
X158015000Y-140038748D01*
X159485000Y-140561252D02*
X159485000Y-140038748D01*
%TO.C,C6*%
X148265000Y-97811252D02*
X148265000Y-97288748D01*
X149735000Y-97811252D02*
X149735000Y-97288748D01*
%TO.C,R4*%
X142610436Y-138765000D02*
X143064564Y-138765000D01*
X142610436Y-140235000D02*
X143064564Y-140235000D01*
%TO.C,C4*%
X155738748Y-128765000D02*
X156261252Y-128765000D01*
X155738748Y-130235000D02*
X156261252Y-130235000D01*
%TO.C,U2*%
X155362500Y-138640000D02*
X154562500Y-138640000D01*
X155362500Y-138640000D02*
X156162500Y-138640000D01*
X155362500Y-141760000D02*
X154562500Y-141760000D01*
X155362500Y-141760000D02*
X156162500Y-141760000D01*
X156902500Y-142040000D02*
X156422500Y-142040000D01*
X156662500Y-141710000D01*
X156902500Y-142040000D01*
G36*
X156902500Y-142040000D02*
G01*
X156422500Y-142040000D01*
X156662500Y-141710000D01*
X156902500Y-142040000D01*
G37*
%TO.C,SW6*%
X136765000Y-90790000D02*
X136765000Y-97210000D01*
X136765000Y-97210000D02*
X137200000Y-97210000D01*
X137200000Y-90790000D02*
X136765000Y-90790000D01*
X138800000Y-97210000D02*
X141200000Y-97210000D01*
X141200000Y-90790000D02*
X138800000Y-90790000D01*
X142800000Y-97210000D02*
X143235000Y-97210000D01*
X143235000Y-90790000D02*
X142930000Y-90790000D01*
X143235000Y-97210000D02*
X143235000Y-90790000D01*
%TO.C,M1*%
X159120000Y-105040000D02*
X160500000Y-105040000D01*
X159120000Y-106420000D02*
X159120000Y-105040000D01*
X159120000Y-107690000D02*
X159120000Y-112880000D01*
X159120000Y-107690000D02*
X161880000Y-107690000D01*
X159120000Y-112880000D02*
X161880000Y-112880000D01*
X161880000Y-107690000D02*
X161880000Y-112880000D01*
%TO.C,R2*%
X160515000Y-140564564D02*
X160515000Y-140110436D01*
X161985000Y-140564564D02*
X161985000Y-140110436D01*
%TO.C,R1*%
X145255000Y-92277064D02*
X145255000Y-91822936D01*
X146725000Y-92277064D02*
X146725000Y-91822936D01*
%TO.C,R5*%
X147110436Y-138765000D02*
X147564564Y-138765000D01*
X147110436Y-140235000D02*
X147564564Y-140235000D01*
%TO.C,J2*%
X159120000Y-90310000D02*
X159120000Y-82580000D01*
X161880000Y-82580000D02*
X159120000Y-82580000D01*
X161880000Y-90310000D02*
X159120000Y-90310000D01*
X161880000Y-90310000D02*
X161880000Y-82580000D01*
X161880000Y-91580000D02*
X161880000Y-92960000D01*
X161880000Y-92960000D02*
X160500000Y-92960000D01*
%TO.C,SW5*%
X150265000Y-86790000D02*
X150265000Y-93210000D01*
X150265000Y-93210000D02*
X150570000Y-93210000D01*
X150700000Y-86790000D02*
X150265000Y-86790000D01*
X152300000Y-93210000D02*
X154700000Y-93210000D01*
X154700000Y-86790000D02*
X152300000Y-86790000D01*
X156300000Y-93210000D02*
X156735000Y-93210000D01*
X156735000Y-86790000D02*
X156300000Y-86790000D01*
X156735000Y-93210000D02*
X156735000Y-86790000D01*
%TO.C,C8*%
X147755000Y-91788748D02*
X147755000Y-92311252D01*
X149225000Y-91788748D02*
X149225000Y-92311252D01*
%TO.C,U3*%
X154952500Y-132140000D02*
X154952500Y-132615000D01*
X154952500Y-135360000D02*
X154952500Y-134885000D01*
X155427500Y-132140000D02*
X154952500Y-132140000D01*
X155427500Y-135360000D02*
X154952500Y-135360000D01*
X157697500Y-132140000D02*
X158172500Y-132140000D01*
X157697500Y-135360000D02*
X157872500Y-135360000D01*
X158172500Y-132140000D02*
X158172500Y-132615000D01*
X158172500Y-134885000D02*
X158172500Y-135120000D01*
X158412500Y-135690000D02*
X157932500Y-135690000D01*
X158172500Y-135360000D01*
X158412500Y-135690000D01*
G36*
X158412500Y-135690000D02*
G01*
X157932500Y-135690000D01*
X158172500Y-135360000D01*
X158412500Y-135690000D01*
G37*
%TO.C,C2*%
X151265000Y-140561252D02*
X151265000Y-140038748D01*
X152735000Y-140561252D02*
X152735000Y-140038748D01*
%TO.C,J14*%
X132280000Y-137420000D02*
X133660000Y-137420000D01*
X132280000Y-138800000D02*
X132280000Y-137420000D01*
X132280000Y-140070000D02*
X132280000Y-152880000D01*
X132280000Y-140070000D02*
X135040000Y-140070000D01*
X132280000Y-152880000D02*
X135040000Y-152880000D01*
X135040000Y-140070000D02*
X135040000Y-152880000D01*
%TO.C,R3*%
X160137500Y-133582936D02*
X160137500Y-134037064D01*
X161607500Y-133582936D02*
X161607500Y-134037064D01*
%TO.C,J16*%
X141370000Y-142500000D02*
X142750000Y-142500000D01*
X141370000Y-143880000D02*
X141370000Y-142500000D01*
X141370000Y-145150000D02*
X141370000Y-152880000D01*
X141370000Y-145150000D02*
X144130000Y-145150000D01*
X141370000Y-152880000D02*
X144130000Y-152880000D01*
X144130000Y-145150000D02*
X144130000Y-152880000D01*
%TD*%
M02*
