%TF.GenerationSoftware,KiCad,Pcbnew,9.0.4*%
%TF.CreationDate,2025-12-16T11:42:33-05:00*%
%TF.ProjectId,TARS,54415253-2e6b-4696-9361-645f70636258,rev?*%
%TF.SameCoordinates,Original*%
%TF.FileFunction,Legend,Top*%
%TF.FilePolarity,Positive*%
%FSLAX46Y46*%
G04 Gerber Fmt 4.6, Leading zero omitted, Abs format (unit mm)*
G04 Created by KiCad (PCBNEW 9.0.4) date 2025-12-16 11:42:33*
%MOMM*%
%LPD*%
G01*
G04 APERTURE LIST*
%ADD10C,0.150000*%
%ADD11C,0.120000*%
%ADD12C,0.100000*%
G04 APERTURE END LIST*
D10*
X175201905Y-152407819D02*
X175201905Y-151407819D01*
X175201905Y-151407819D02*
X175440000Y-151407819D01*
X175440000Y-151407819D02*
X175582857Y-151455438D01*
X175582857Y-151455438D02*
X175678095Y-151550676D01*
X175678095Y-151550676D02*
X175725714Y-151645914D01*
X175725714Y-151645914D02*
X175773333Y-151836390D01*
X175773333Y-151836390D02*
X175773333Y-151979247D01*
X175773333Y-151979247D02*
X175725714Y-152169723D01*
X175725714Y-152169723D02*
X175678095Y-152264961D01*
X175678095Y-152264961D02*
X175582857Y-152360200D01*
X175582857Y-152360200D02*
X175440000Y-152407819D01*
X175440000Y-152407819D02*
X175201905Y-152407819D01*
X176725714Y-152407819D02*
X176154286Y-152407819D01*
X176440000Y-152407819D02*
X176440000Y-151407819D01*
X176440000Y-151407819D02*
X176344762Y-151550676D01*
X176344762Y-151550676D02*
X176249524Y-151645914D01*
X176249524Y-151645914D02*
X176154286Y-151693533D01*
X171021714Y-128308819D02*
X171021714Y-127308819D01*
X171021714Y-127308819D02*
X171259809Y-127308819D01*
X171259809Y-127308819D02*
X171402666Y-127356438D01*
X171402666Y-127356438D02*
X171497904Y-127451676D01*
X171497904Y-127451676D02*
X171545523Y-127546914D01*
X171545523Y-127546914D02*
X171593142Y-127737390D01*
X171593142Y-127737390D02*
X171593142Y-127880247D01*
X171593142Y-127880247D02*
X171545523Y-128070723D01*
X171545523Y-128070723D02*
X171497904Y-128165961D01*
X171497904Y-128165961D02*
X171402666Y-128261200D01*
X171402666Y-128261200D02*
X171259809Y-128308819D01*
X171259809Y-128308819D02*
X171021714Y-128308819D01*
X172545523Y-128308819D02*
X171974095Y-128308819D01*
X172259809Y-128308819D02*
X172259809Y-127308819D01*
X172259809Y-127308819D02*
X172164571Y-127451676D01*
X172164571Y-127451676D02*
X172069333Y-127546914D01*
X172069333Y-127546914D02*
X171974095Y-127594533D01*
X173164571Y-127308819D02*
X173259809Y-127308819D01*
X173259809Y-127308819D02*
X173355047Y-127356438D01*
X173355047Y-127356438D02*
X173402666Y-127404057D01*
X173402666Y-127404057D02*
X173450285Y-127499295D01*
X173450285Y-127499295D02*
X173497904Y-127689771D01*
X173497904Y-127689771D02*
X173497904Y-127927866D01*
X173497904Y-127927866D02*
X173450285Y-128118342D01*
X173450285Y-128118342D02*
X173402666Y-128213580D01*
X173402666Y-128213580D02*
X173355047Y-128261200D01*
X173355047Y-128261200D02*
X173259809Y-128308819D01*
X173259809Y-128308819D02*
X173164571Y-128308819D01*
X173164571Y-128308819D02*
X173069333Y-128261200D01*
X173069333Y-128261200D02*
X173021714Y-128213580D01*
X173021714Y-128213580D02*
X172974095Y-128118342D01*
X172974095Y-128118342D02*
X172926476Y-127927866D01*
X172926476Y-127927866D02*
X172926476Y-127689771D01*
X172926476Y-127689771D02*
X172974095Y-127499295D01*
X172974095Y-127499295D02*
X173021714Y-127404057D01*
X173021714Y-127404057D02*
X173069333Y-127356438D01*
X173069333Y-127356438D02*
X173164571Y-127308819D01*
X159690476Y-122834819D02*
X159690476Y-123549104D01*
X159690476Y-123549104D02*
X159642857Y-123691961D01*
X159642857Y-123691961D02*
X159547619Y-123787200D01*
X159547619Y-123787200D02*
X159404762Y-123834819D01*
X159404762Y-123834819D02*
X159309524Y-123834819D01*
X160690476Y-123834819D02*
X160119048Y-123834819D01*
X160404762Y-123834819D02*
X160404762Y-122834819D01*
X160404762Y-122834819D02*
X160309524Y-122977676D01*
X160309524Y-122977676D02*
X160214286Y-123072914D01*
X160214286Y-123072914D02*
X160119048Y-123120533D01*
X161642857Y-123834819D02*
X161071429Y-123834819D01*
X161357143Y-123834819D02*
X161357143Y-122834819D01*
X161357143Y-122834819D02*
X161261905Y-122977676D01*
X161261905Y-122977676D02*
X161166667Y-123072914D01*
X161166667Y-123072914D02*
X161071429Y-123120533D01*
X137440476Y-135874819D02*
X137440476Y-136589104D01*
X137440476Y-136589104D02*
X137392857Y-136731961D01*
X137392857Y-136731961D02*
X137297619Y-136827200D01*
X137297619Y-136827200D02*
X137154762Y-136874819D01*
X137154762Y-136874819D02*
X137059524Y-136874819D01*
X138440476Y-136874819D02*
X137869048Y-136874819D01*
X138154762Y-136874819D02*
X138154762Y-135874819D01*
X138154762Y-135874819D02*
X138059524Y-136017676D01*
X138059524Y-136017676D02*
X137964286Y-136112914D01*
X137964286Y-136112914D02*
X137869048Y-136160533D01*
X139345238Y-135874819D02*
X138869048Y-135874819D01*
X138869048Y-135874819D02*
X138821429Y-136351009D01*
X138821429Y-136351009D02*
X138869048Y-136303390D01*
X138869048Y-136303390D02*
X138964286Y-136255771D01*
X138964286Y-136255771D02*
X139202381Y-136255771D01*
X139202381Y-136255771D02*
X139297619Y-136303390D01*
X139297619Y-136303390D02*
X139345238Y-136351009D01*
X139345238Y-136351009D02*
X139392857Y-136446247D01*
X139392857Y-136446247D02*
X139392857Y-136684342D01*
X139392857Y-136684342D02*
X139345238Y-136779580D01*
X139345238Y-136779580D02*
X139297619Y-136827200D01*
X139297619Y-136827200D02*
X139202381Y-136874819D01*
X139202381Y-136874819D02*
X138964286Y-136874819D01*
X138964286Y-136874819D02*
X138869048Y-136827200D01*
X138869048Y-136827200D02*
X138821429Y-136779580D01*
X146440476Y-140954819D02*
X146440476Y-141669104D01*
X146440476Y-141669104D02*
X146392857Y-141811961D01*
X146392857Y-141811961D02*
X146297619Y-141907200D01*
X146297619Y-141907200D02*
X146154762Y-141954819D01*
X146154762Y-141954819D02*
X146059524Y-141954819D01*
X147440476Y-141954819D02*
X146869048Y-141954819D01*
X147154762Y-141954819D02*
X147154762Y-140954819D01*
X147154762Y-140954819D02*
X147059524Y-141097676D01*
X147059524Y-141097676D02*
X146964286Y-141192914D01*
X146964286Y-141192914D02*
X146869048Y-141240533D01*
X147773810Y-140954819D02*
X148440476Y-140954819D01*
X148440476Y-140954819D02*
X148011905Y-141954819D01*
X151823333Y-100409580D02*
X151775714Y-100457200D01*
X151775714Y-100457200D02*
X151632857Y-100504819D01*
X151632857Y-100504819D02*
X151537619Y-100504819D01*
X151537619Y-100504819D02*
X151394762Y-100457200D01*
X151394762Y-100457200D02*
X151299524Y-100361961D01*
X151299524Y-100361961D02*
X151251905Y-100266723D01*
X151251905Y-100266723D02*
X151204286Y-100076247D01*
X151204286Y-100076247D02*
X151204286Y-99933390D01*
X151204286Y-99933390D02*
X151251905Y-99742914D01*
X151251905Y-99742914D02*
X151299524Y-99647676D01*
X151299524Y-99647676D02*
X151394762Y-99552438D01*
X151394762Y-99552438D02*
X151537619Y-99504819D01*
X151537619Y-99504819D02*
X151632857Y-99504819D01*
X151632857Y-99504819D02*
X151775714Y-99552438D01*
X151775714Y-99552438D02*
X151823333Y-99600057D01*
X152156667Y-99504819D02*
X152823333Y-99504819D01*
X152823333Y-99504819D02*
X152394762Y-100504819D01*
X168195642Y-96554819D02*
X167862309Y-96078628D01*
X167624214Y-96554819D02*
X167624214Y-95554819D01*
X167624214Y-95554819D02*
X168005166Y-95554819D01*
X168005166Y-95554819D02*
X168100404Y-95602438D01*
X168100404Y-95602438D02*
X168148023Y-95650057D01*
X168148023Y-95650057D02*
X168195642Y-95745295D01*
X168195642Y-95745295D02*
X168195642Y-95888152D01*
X168195642Y-95888152D02*
X168148023Y-95983390D01*
X168148023Y-95983390D02*
X168100404Y-96031009D01*
X168100404Y-96031009D02*
X168005166Y-96078628D01*
X168005166Y-96078628D02*
X167624214Y-96078628D01*
X169148023Y-96554819D02*
X168576595Y-96554819D01*
X168862309Y-96554819D02*
X168862309Y-95554819D01*
X168862309Y-95554819D02*
X168767071Y-95697676D01*
X168767071Y-95697676D02*
X168671833Y-95792914D01*
X168671833Y-95792914D02*
X168576595Y-95840533D01*
X170052785Y-95554819D02*
X169576595Y-95554819D01*
X169576595Y-95554819D02*
X169528976Y-96031009D01*
X169528976Y-96031009D02*
X169576595Y-95983390D01*
X169576595Y-95983390D02*
X169671833Y-95935771D01*
X169671833Y-95935771D02*
X169909928Y-95935771D01*
X169909928Y-95935771D02*
X170005166Y-95983390D01*
X170005166Y-95983390D02*
X170052785Y-96031009D01*
X170052785Y-96031009D02*
X170100404Y-96126247D01*
X170100404Y-96126247D02*
X170100404Y-96364342D01*
X170100404Y-96364342D02*
X170052785Y-96459580D01*
X170052785Y-96459580D02*
X170005166Y-96507200D01*
X170005166Y-96507200D02*
X169909928Y-96554819D01*
X169909928Y-96554819D02*
X169671833Y-96554819D01*
X169671833Y-96554819D02*
X169576595Y-96507200D01*
X169576595Y-96507200D02*
X169528976Y-96459580D01*
X155161904Y-121140180D02*
X155161904Y-120330657D01*
X155161904Y-120330657D02*
X155114285Y-120235419D01*
X155114285Y-120235419D02*
X155066666Y-120187800D01*
X155066666Y-120187800D02*
X154971428Y-120140180D01*
X154971428Y-120140180D02*
X154780952Y-120140180D01*
X154780952Y-120140180D02*
X154685714Y-120187800D01*
X154685714Y-120187800D02*
X154638095Y-120235419D01*
X154638095Y-120235419D02*
X154590476Y-120330657D01*
X154590476Y-120330657D02*
X154590476Y-121140180D01*
X153590476Y-120140180D02*
X154161904Y-120140180D01*
X153876190Y-120140180D02*
X153876190Y-121140180D01*
X153876190Y-121140180D02*
X153971428Y-120997323D01*
X153971428Y-120997323D02*
X154066666Y-120902085D01*
X154066666Y-120902085D02*
X154161904Y-120854466D01*
X155833333Y-124679580D02*
X155785714Y-124727200D01*
X155785714Y-124727200D02*
X155642857Y-124774819D01*
X155642857Y-124774819D02*
X155547619Y-124774819D01*
X155547619Y-124774819D02*
X155404762Y-124727200D01*
X155404762Y-124727200D02*
X155309524Y-124631961D01*
X155309524Y-124631961D02*
X155261905Y-124536723D01*
X155261905Y-124536723D02*
X155214286Y-124346247D01*
X155214286Y-124346247D02*
X155214286Y-124203390D01*
X155214286Y-124203390D02*
X155261905Y-124012914D01*
X155261905Y-124012914D02*
X155309524Y-123917676D01*
X155309524Y-123917676D02*
X155404762Y-123822438D01*
X155404762Y-123822438D02*
X155547619Y-123774819D01*
X155547619Y-123774819D02*
X155642857Y-123774819D01*
X155642857Y-123774819D02*
X155785714Y-123822438D01*
X155785714Y-123822438D02*
X155833333Y-123870057D01*
X156166667Y-123774819D02*
X156785714Y-123774819D01*
X156785714Y-123774819D02*
X156452381Y-124155771D01*
X156452381Y-124155771D02*
X156595238Y-124155771D01*
X156595238Y-124155771D02*
X156690476Y-124203390D01*
X156690476Y-124203390D02*
X156738095Y-124251009D01*
X156738095Y-124251009D02*
X156785714Y-124346247D01*
X156785714Y-124346247D02*
X156785714Y-124584342D01*
X156785714Y-124584342D02*
X156738095Y-124679580D01*
X156738095Y-124679580D02*
X156690476Y-124727200D01*
X156690476Y-124727200D02*
X156595238Y-124774819D01*
X156595238Y-124774819D02*
X156309524Y-124774819D01*
X156309524Y-124774819D02*
X156214286Y-124727200D01*
X156214286Y-124727200D02*
X156166667Y-124679580D01*
X159857142Y-131454819D02*
X159380952Y-131454819D01*
X159380952Y-131454819D02*
X159380952Y-130454819D01*
X160142857Y-131407200D02*
X160285714Y-131454819D01*
X160285714Y-131454819D02*
X160523809Y-131454819D01*
X160523809Y-131454819D02*
X160619047Y-131407200D01*
X160619047Y-131407200D02*
X160666666Y-131359580D01*
X160666666Y-131359580D02*
X160714285Y-131264342D01*
X160714285Y-131264342D02*
X160714285Y-131169104D01*
X160714285Y-131169104D02*
X160666666Y-131073866D01*
X160666666Y-131073866D02*
X160619047Y-131026247D01*
X160619047Y-131026247D02*
X160523809Y-130978628D01*
X160523809Y-130978628D02*
X160333333Y-130931009D01*
X160333333Y-130931009D02*
X160238095Y-130883390D01*
X160238095Y-130883390D02*
X160190476Y-130835771D01*
X160190476Y-130835771D02*
X160142857Y-130740533D01*
X160142857Y-130740533D02*
X160142857Y-130645295D01*
X160142857Y-130645295D02*
X160190476Y-130550057D01*
X160190476Y-130550057D02*
X160238095Y-130502438D01*
X160238095Y-130502438D02*
X160333333Y-130454819D01*
X160333333Y-130454819D02*
X160571428Y-130454819D01*
X160571428Y-130454819D02*
X160714285Y-130502438D01*
X161666666Y-131454819D02*
X161095238Y-131454819D01*
X161380952Y-131454819D02*
X161380952Y-130454819D01*
X161380952Y-130454819D02*
X161285714Y-130597676D01*
X161285714Y-130597676D02*
X161190476Y-130692914D01*
X161190476Y-130692914D02*
X161095238Y-130740533D01*
X145823333Y-100409580D02*
X145775714Y-100457200D01*
X145775714Y-100457200D02*
X145632857Y-100504819D01*
X145632857Y-100504819D02*
X145537619Y-100504819D01*
X145537619Y-100504819D02*
X145394762Y-100457200D01*
X145394762Y-100457200D02*
X145299524Y-100361961D01*
X145299524Y-100361961D02*
X145251905Y-100266723D01*
X145251905Y-100266723D02*
X145204286Y-100076247D01*
X145204286Y-100076247D02*
X145204286Y-99933390D01*
X145204286Y-99933390D02*
X145251905Y-99742914D01*
X145251905Y-99742914D02*
X145299524Y-99647676D01*
X145299524Y-99647676D02*
X145394762Y-99552438D01*
X145394762Y-99552438D02*
X145537619Y-99504819D01*
X145537619Y-99504819D02*
X145632857Y-99504819D01*
X145632857Y-99504819D02*
X145775714Y-99552438D01*
X145775714Y-99552438D02*
X145823333Y-99600057D01*
X146728095Y-99504819D02*
X146251905Y-99504819D01*
X146251905Y-99504819D02*
X146204286Y-99981009D01*
X146204286Y-99981009D02*
X146251905Y-99933390D01*
X146251905Y-99933390D02*
X146347143Y-99885771D01*
X146347143Y-99885771D02*
X146585238Y-99885771D01*
X146585238Y-99885771D02*
X146680476Y-99933390D01*
X146680476Y-99933390D02*
X146728095Y-99981009D01*
X146728095Y-99981009D02*
X146775714Y-100076247D01*
X146775714Y-100076247D02*
X146775714Y-100314342D01*
X146775714Y-100314342D02*
X146728095Y-100409580D01*
X146728095Y-100409580D02*
X146680476Y-100457200D01*
X146680476Y-100457200D02*
X146585238Y-100504819D01*
X146585238Y-100504819D02*
X146347143Y-100504819D01*
X146347143Y-100504819D02*
X146251905Y-100457200D01*
X146251905Y-100457200D02*
X146204286Y-100409580D01*
X159690476Y-94574819D02*
X159690476Y-93574819D01*
X159690476Y-93574819D02*
X160023809Y-94289104D01*
X160023809Y-94289104D02*
X160357142Y-93574819D01*
X160357142Y-93574819D02*
X160357142Y-94574819D01*
X160785714Y-93670057D02*
X160833333Y-93622438D01*
X160833333Y-93622438D02*
X160928571Y-93574819D01*
X160928571Y-93574819D02*
X161166666Y-93574819D01*
X161166666Y-93574819D02*
X161261904Y-93622438D01*
X161261904Y-93622438D02*
X161309523Y-93670057D01*
X161309523Y-93670057D02*
X161357142Y-93765295D01*
X161357142Y-93765295D02*
X161357142Y-93860533D01*
X161357142Y-93860533D02*
X161309523Y-94003390D01*
X161309523Y-94003390D02*
X160738095Y-94574819D01*
X160738095Y-94574819D02*
X161357142Y-94574819D01*
X175200905Y-144021819D02*
X175200905Y-143021819D01*
X175200905Y-143021819D02*
X175439000Y-143021819D01*
X175439000Y-143021819D02*
X175581857Y-143069438D01*
X175581857Y-143069438D02*
X175677095Y-143164676D01*
X175677095Y-143164676D02*
X175724714Y-143259914D01*
X175724714Y-143259914D02*
X175772333Y-143450390D01*
X175772333Y-143450390D02*
X175772333Y-143593247D01*
X175772333Y-143593247D02*
X175724714Y-143783723D01*
X175724714Y-143783723D02*
X175677095Y-143878961D01*
X175677095Y-143878961D02*
X175581857Y-143974200D01*
X175581857Y-143974200D02*
X175439000Y-144021819D01*
X175439000Y-144021819D02*
X175200905Y-144021819D01*
X176677095Y-143021819D02*
X176200905Y-143021819D01*
X176200905Y-143021819D02*
X176153286Y-143498009D01*
X176153286Y-143498009D02*
X176200905Y-143450390D01*
X176200905Y-143450390D02*
X176296143Y-143402771D01*
X176296143Y-143402771D02*
X176534238Y-143402771D01*
X176534238Y-143402771D02*
X176629476Y-143450390D01*
X176629476Y-143450390D02*
X176677095Y-143498009D01*
X176677095Y-143498009D02*
X176724714Y-143593247D01*
X176724714Y-143593247D02*
X176724714Y-143831342D01*
X176724714Y-143831342D02*
X176677095Y-143926580D01*
X176677095Y-143926580D02*
X176629476Y-143974200D01*
X176629476Y-143974200D02*
X176534238Y-144021819D01*
X176534238Y-144021819D02*
X176296143Y-144021819D01*
X176296143Y-144021819D02*
X176200905Y-143974200D01*
X176200905Y-143974200D02*
X176153286Y-143926580D01*
X157190476Y-141954819D02*
X157190476Y-142669104D01*
X157190476Y-142669104D02*
X157142857Y-142811961D01*
X157142857Y-142811961D02*
X157047619Y-142907200D01*
X157047619Y-142907200D02*
X156904762Y-142954819D01*
X156904762Y-142954819D02*
X156809524Y-142954819D01*
X158190476Y-142954819D02*
X157619048Y-142954819D01*
X157904762Y-142954819D02*
X157904762Y-141954819D01*
X157904762Y-141954819D02*
X157809524Y-142097676D01*
X157809524Y-142097676D02*
X157714286Y-142192914D01*
X157714286Y-142192914D02*
X157619048Y-142240533D01*
X158523810Y-141954819D02*
X159142857Y-141954819D01*
X159142857Y-141954819D02*
X158809524Y-142335771D01*
X158809524Y-142335771D02*
X158952381Y-142335771D01*
X158952381Y-142335771D02*
X159047619Y-142383390D01*
X159047619Y-142383390D02*
X159095238Y-142431009D01*
X159095238Y-142431009D02*
X159142857Y-142526247D01*
X159142857Y-142526247D02*
X159142857Y-142764342D01*
X159142857Y-142764342D02*
X159095238Y-142859580D01*
X159095238Y-142859580D02*
X159047619Y-142907200D01*
X159047619Y-142907200D02*
X158952381Y-142954819D01*
X158952381Y-142954819D02*
X158666667Y-142954819D01*
X158666667Y-142954819D02*
X158571429Y-142907200D01*
X158571429Y-142907200D02*
X158523810Y-142859580D01*
X170976214Y-119676819D02*
X170976214Y-118676819D01*
X170976214Y-118676819D02*
X171214309Y-118676819D01*
X171214309Y-118676819D02*
X171357166Y-118724438D01*
X171357166Y-118724438D02*
X171452404Y-118819676D01*
X171452404Y-118819676D02*
X171500023Y-118914914D01*
X171500023Y-118914914D02*
X171547642Y-119105390D01*
X171547642Y-119105390D02*
X171547642Y-119248247D01*
X171547642Y-119248247D02*
X171500023Y-119438723D01*
X171500023Y-119438723D02*
X171452404Y-119533961D01*
X171452404Y-119533961D02*
X171357166Y-119629200D01*
X171357166Y-119629200D02*
X171214309Y-119676819D01*
X171214309Y-119676819D02*
X170976214Y-119676819D01*
X172500023Y-119676819D02*
X171928595Y-119676819D01*
X172214309Y-119676819D02*
X172214309Y-118676819D01*
X172214309Y-118676819D02*
X172119071Y-118819676D01*
X172119071Y-118819676D02*
X172023833Y-118914914D01*
X172023833Y-118914914D02*
X171928595Y-118962533D01*
X173452404Y-119676819D02*
X172880976Y-119676819D01*
X173166690Y-119676819D02*
X173166690Y-118676819D01*
X173166690Y-118676819D02*
X173071452Y-118819676D01*
X173071452Y-118819676D02*
X172976214Y-118914914D01*
X172976214Y-118914914D02*
X172880976Y-118962533D01*
X171426905Y-153514819D02*
X171426905Y-152514819D01*
X171426905Y-152514819D02*
X171665000Y-152514819D01*
X171665000Y-152514819D02*
X171807857Y-152562438D01*
X171807857Y-152562438D02*
X171903095Y-152657676D01*
X171903095Y-152657676D02*
X171950714Y-152752914D01*
X171950714Y-152752914D02*
X171998333Y-152943390D01*
X171998333Y-152943390D02*
X171998333Y-153086247D01*
X171998333Y-153086247D02*
X171950714Y-153276723D01*
X171950714Y-153276723D02*
X171903095Y-153371961D01*
X171903095Y-153371961D02*
X171807857Y-153467200D01*
X171807857Y-153467200D02*
X171665000Y-153514819D01*
X171665000Y-153514819D02*
X171426905Y-153514819D01*
X172379286Y-152610057D02*
X172426905Y-152562438D01*
X172426905Y-152562438D02*
X172522143Y-152514819D01*
X172522143Y-152514819D02*
X172760238Y-152514819D01*
X172760238Y-152514819D02*
X172855476Y-152562438D01*
X172855476Y-152562438D02*
X172903095Y-152610057D01*
X172903095Y-152610057D02*
X172950714Y-152705295D01*
X172950714Y-152705295D02*
X172950714Y-152800533D01*
X172950714Y-152800533D02*
X172903095Y-152943390D01*
X172903095Y-152943390D02*
X172331667Y-153514819D01*
X172331667Y-153514819D02*
X172950714Y-153514819D01*
X134684819Y-83333333D02*
X135399104Y-83333333D01*
X135399104Y-83333333D02*
X135541961Y-83380952D01*
X135541961Y-83380952D02*
X135637200Y-83476190D01*
X135637200Y-83476190D02*
X135684819Y-83619047D01*
X135684819Y-83619047D02*
X135684819Y-83714285D01*
X135684819Y-82333333D02*
X135684819Y-82904761D01*
X135684819Y-82619047D02*
X134684819Y-82619047D01*
X134684819Y-82619047D02*
X134827676Y-82714285D01*
X134827676Y-82714285D02*
X134922914Y-82809523D01*
X134922914Y-82809523D02*
X134970533Y-82904761D01*
X158583333Y-138109580D02*
X158535714Y-138157200D01*
X158535714Y-138157200D02*
X158392857Y-138204819D01*
X158392857Y-138204819D02*
X158297619Y-138204819D01*
X158297619Y-138204819D02*
X158154762Y-138157200D01*
X158154762Y-138157200D02*
X158059524Y-138061961D01*
X158059524Y-138061961D02*
X158011905Y-137966723D01*
X158011905Y-137966723D02*
X157964286Y-137776247D01*
X157964286Y-137776247D02*
X157964286Y-137633390D01*
X157964286Y-137633390D02*
X158011905Y-137442914D01*
X158011905Y-137442914D02*
X158059524Y-137347676D01*
X158059524Y-137347676D02*
X158154762Y-137252438D01*
X158154762Y-137252438D02*
X158297619Y-137204819D01*
X158297619Y-137204819D02*
X158392857Y-137204819D01*
X158392857Y-137204819D02*
X158535714Y-137252438D01*
X158535714Y-137252438D02*
X158583333Y-137300057D01*
X159535714Y-138204819D02*
X158964286Y-138204819D01*
X159250000Y-138204819D02*
X159250000Y-137204819D01*
X159250000Y-137204819D02*
X159154762Y-137347676D01*
X159154762Y-137347676D02*
X159059524Y-137442914D01*
X159059524Y-137442914D02*
X158964286Y-137490533D01*
X148823333Y-100409580D02*
X148775714Y-100457200D01*
X148775714Y-100457200D02*
X148632857Y-100504819D01*
X148632857Y-100504819D02*
X148537619Y-100504819D01*
X148537619Y-100504819D02*
X148394762Y-100457200D01*
X148394762Y-100457200D02*
X148299524Y-100361961D01*
X148299524Y-100361961D02*
X148251905Y-100266723D01*
X148251905Y-100266723D02*
X148204286Y-100076247D01*
X148204286Y-100076247D02*
X148204286Y-99933390D01*
X148204286Y-99933390D02*
X148251905Y-99742914D01*
X148251905Y-99742914D02*
X148299524Y-99647676D01*
X148299524Y-99647676D02*
X148394762Y-99552438D01*
X148394762Y-99552438D02*
X148537619Y-99504819D01*
X148537619Y-99504819D02*
X148632857Y-99504819D01*
X148632857Y-99504819D02*
X148775714Y-99552438D01*
X148775714Y-99552438D02*
X148823333Y-99600057D01*
X149680476Y-99504819D02*
X149490000Y-99504819D01*
X149490000Y-99504819D02*
X149394762Y-99552438D01*
X149394762Y-99552438D02*
X149347143Y-99600057D01*
X149347143Y-99600057D02*
X149251905Y-99742914D01*
X149251905Y-99742914D02*
X149204286Y-99933390D01*
X149204286Y-99933390D02*
X149204286Y-100314342D01*
X149204286Y-100314342D02*
X149251905Y-100409580D01*
X149251905Y-100409580D02*
X149299524Y-100457200D01*
X149299524Y-100457200D02*
X149394762Y-100504819D01*
X149394762Y-100504819D02*
X149585238Y-100504819D01*
X149585238Y-100504819D02*
X149680476Y-100457200D01*
X149680476Y-100457200D02*
X149728095Y-100409580D01*
X149728095Y-100409580D02*
X149775714Y-100314342D01*
X149775714Y-100314342D02*
X149775714Y-100076247D01*
X149775714Y-100076247D02*
X149728095Y-99981009D01*
X149728095Y-99981009D02*
X149680476Y-99933390D01*
X149680476Y-99933390D02*
X149585238Y-99885771D01*
X149585238Y-99885771D02*
X149394762Y-99885771D01*
X149394762Y-99885771D02*
X149299524Y-99933390D01*
X149299524Y-99933390D02*
X149251905Y-99981009D01*
X149251905Y-99981009D02*
X149204286Y-100076247D01*
X175163905Y-123422819D02*
X175163905Y-122422819D01*
X175163905Y-122422819D02*
X175402000Y-122422819D01*
X175402000Y-122422819D02*
X175544857Y-122470438D01*
X175544857Y-122470438D02*
X175640095Y-122565676D01*
X175640095Y-122565676D02*
X175687714Y-122660914D01*
X175687714Y-122660914D02*
X175735333Y-122851390D01*
X175735333Y-122851390D02*
X175735333Y-122994247D01*
X175735333Y-122994247D02*
X175687714Y-123184723D01*
X175687714Y-123184723D02*
X175640095Y-123279961D01*
X175640095Y-123279961D02*
X175544857Y-123375200D01*
X175544857Y-123375200D02*
X175402000Y-123422819D01*
X175402000Y-123422819D02*
X175163905Y-123422819D01*
X176211524Y-123422819D02*
X176402000Y-123422819D01*
X176402000Y-123422819D02*
X176497238Y-123375200D01*
X176497238Y-123375200D02*
X176544857Y-123327580D01*
X176544857Y-123327580D02*
X176640095Y-123184723D01*
X176640095Y-123184723D02*
X176687714Y-122994247D01*
X176687714Y-122994247D02*
X176687714Y-122613295D01*
X176687714Y-122613295D02*
X176640095Y-122518057D01*
X176640095Y-122518057D02*
X176592476Y-122470438D01*
X176592476Y-122470438D02*
X176497238Y-122422819D01*
X176497238Y-122422819D02*
X176306762Y-122422819D01*
X176306762Y-122422819D02*
X176211524Y-122470438D01*
X176211524Y-122470438D02*
X176163905Y-122518057D01*
X176163905Y-122518057D02*
X176116286Y-122613295D01*
X176116286Y-122613295D02*
X176116286Y-122851390D01*
X176116286Y-122851390D02*
X176163905Y-122946628D01*
X176163905Y-122946628D02*
X176211524Y-122994247D01*
X176211524Y-122994247D02*
X176306762Y-123041866D01*
X176306762Y-123041866D02*
X176497238Y-123041866D01*
X176497238Y-123041866D02*
X176592476Y-122994247D01*
X176592476Y-122994247D02*
X176640095Y-122946628D01*
X176640095Y-122946628D02*
X176687714Y-122851390D01*
X171205819Y-109083333D02*
X171920104Y-109083333D01*
X171920104Y-109083333D02*
X172062961Y-109130952D01*
X172062961Y-109130952D02*
X172158200Y-109226190D01*
X172158200Y-109226190D02*
X172205819Y-109369047D01*
X172205819Y-109369047D02*
X172205819Y-109464285D01*
X171205819Y-108702380D02*
X171205819Y-108083333D01*
X171205819Y-108083333D02*
X171586771Y-108416666D01*
X171586771Y-108416666D02*
X171586771Y-108273809D01*
X171586771Y-108273809D02*
X171634390Y-108178571D01*
X171634390Y-108178571D02*
X171682009Y-108130952D01*
X171682009Y-108130952D02*
X171777247Y-108083333D01*
X171777247Y-108083333D02*
X172015342Y-108083333D01*
X172015342Y-108083333D02*
X172110580Y-108130952D01*
X172110580Y-108130952D02*
X172158200Y-108178571D01*
X172158200Y-108178571D02*
X172205819Y-108273809D01*
X172205819Y-108273809D02*
X172205819Y-108559523D01*
X172205819Y-108559523D02*
X172158200Y-108654761D01*
X172158200Y-108654761D02*
X172110580Y-108702380D01*
X142670833Y-138304819D02*
X142337500Y-137828628D01*
X142099405Y-138304819D02*
X142099405Y-137304819D01*
X142099405Y-137304819D02*
X142480357Y-137304819D01*
X142480357Y-137304819D02*
X142575595Y-137352438D01*
X142575595Y-137352438D02*
X142623214Y-137400057D01*
X142623214Y-137400057D02*
X142670833Y-137495295D01*
X142670833Y-137495295D02*
X142670833Y-137638152D01*
X142670833Y-137638152D02*
X142623214Y-137733390D01*
X142623214Y-137733390D02*
X142575595Y-137781009D01*
X142575595Y-137781009D02*
X142480357Y-137828628D01*
X142480357Y-137828628D02*
X142099405Y-137828628D01*
X143527976Y-137638152D02*
X143527976Y-138304819D01*
X143289881Y-137257200D02*
X143051786Y-137971485D01*
X143051786Y-137971485D02*
X143670833Y-137971485D01*
X175666666Y-119520819D02*
X175666666Y-120235104D01*
X175666666Y-120235104D02*
X175619047Y-120377961D01*
X175619047Y-120377961D02*
X175523809Y-120473200D01*
X175523809Y-120473200D02*
X175380952Y-120520819D01*
X175380952Y-120520819D02*
X175285714Y-120520819D01*
X176619047Y-119520819D02*
X176142857Y-119520819D01*
X176142857Y-119520819D02*
X176095238Y-119997009D01*
X176095238Y-119997009D02*
X176142857Y-119949390D01*
X176142857Y-119949390D02*
X176238095Y-119901771D01*
X176238095Y-119901771D02*
X176476190Y-119901771D01*
X176476190Y-119901771D02*
X176571428Y-119949390D01*
X176571428Y-119949390D02*
X176619047Y-119997009D01*
X176619047Y-119997009D02*
X176666666Y-120092247D01*
X176666666Y-120092247D02*
X176666666Y-120330342D01*
X176666666Y-120330342D02*
X176619047Y-120425580D01*
X176619047Y-120425580D02*
X176571428Y-120473200D01*
X176571428Y-120473200D02*
X176476190Y-120520819D01*
X176476190Y-120520819D02*
X176238095Y-120520819D01*
X176238095Y-120520819D02*
X176142857Y-120473200D01*
X176142857Y-120473200D02*
X176095238Y-120425580D01*
X155833333Y-128179580D02*
X155785714Y-128227200D01*
X155785714Y-128227200D02*
X155642857Y-128274819D01*
X155642857Y-128274819D02*
X155547619Y-128274819D01*
X155547619Y-128274819D02*
X155404762Y-128227200D01*
X155404762Y-128227200D02*
X155309524Y-128131961D01*
X155309524Y-128131961D02*
X155261905Y-128036723D01*
X155261905Y-128036723D02*
X155214286Y-127846247D01*
X155214286Y-127846247D02*
X155214286Y-127703390D01*
X155214286Y-127703390D02*
X155261905Y-127512914D01*
X155261905Y-127512914D02*
X155309524Y-127417676D01*
X155309524Y-127417676D02*
X155404762Y-127322438D01*
X155404762Y-127322438D02*
X155547619Y-127274819D01*
X155547619Y-127274819D02*
X155642857Y-127274819D01*
X155642857Y-127274819D02*
X155785714Y-127322438D01*
X155785714Y-127322438D02*
X155833333Y-127370057D01*
X156690476Y-127608152D02*
X156690476Y-128274819D01*
X156452381Y-127227200D02*
X156214286Y-127941485D01*
X156214286Y-127941485D02*
X156833333Y-127941485D01*
X154600595Y-137204819D02*
X154600595Y-138014342D01*
X154600595Y-138014342D02*
X154648214Y-138109580D01*
X154648214Y-138109580D02*
X154695833Y-138157200D01*
X154695833Y-138157200D02*
X154791071Y-138204819D01*
X154791071Y-138204819D02*
X154981547Y-138204819D01*
X154981547Y-138204819D02*
X155076785Y-138157200D01*
X155076785Y-138157200D02*
X155124404Y-138109580D01*
X155124404Y-138109580D02*
X155172023Y-138014342D01*
X155172023Y-138014342D02*
X155172023Y-137204819D01*
X155600595Y-137300057D02*
X155648214Y-137252438D01*
X155648214Y-137252438D02*
X155743452Y-137204819D01*
X155743452Y-137204819D02*
X155981547Y-137204819D01*
X155981547Y-137204819D02*
X156076785Y-137252438D01*
X156076785Y-137252438D02*
X156124404Y-137300057D01*
X156124404Y-137300057D02*
X156172023Y-137395295D01*
X156172023Y-137395295D02*
X156172023Y-137490533D01*
X156172023Y-137490533D02*
X156124404Y-137633390D01*
X156124404Y-137633390D02*
X155552976Y-138204819D01*
X155552976Y-138204819D02*
X156172023Y-138204819D01*
X138666667Y-88907200D02*
X138809524Y-88954819D01*
X138809524Y-88954819D02*
X139047619Y-88954819D01*
X139047619Y-88954819D02*
X139142857Y-88907200D01*
X139142857Y-88907200D02*
X139190476Y-88859580D01*
X139190476Y-88859580D02*
X139238095Y-88764342D01*
X139238095Y-88764342D02*
X139238095Y-88669104D01*
X139238095Y-88669104D02*
X139190476Y-88573866D01*
X139190476Y-88573866D02*
X139142857Y-88526247D01*
X139142857Y-88526247D02*
X139047619Y-88478628D01*
X139047619Y-88478628D02*
X138857143Y-88431009D01*
X138857143Y-88431009D02*
X138761905Y-88383390D01*
X138761905Y-88383390D02*
X138714286Y-88335771D01*
X138714286Y-88335771D02*
X138666667Y-88240533D01*
X138666667Y-88240533D02*
X138666667Y-88145295D01*
X138666667Y-88145295D02*
X138714286Y-88050057D01*
X138714286Y-88050057D02*
X138761905Y-88002438D01*
X138761905Y-88002438D02*
X138857143Y-87954819D01*
X138857143Y-87954819D02*
X139095238Y-87954819D01*
X139095238Y-87954819D02*
X139238095Y-88002438D01*
X139571429Y-87954819D02*
X139809524Y-88954819D01*
X139809524Y-88954819D02*
X140000000Y-88240533D01*
X140000000Y-88240533D02*
X140190476Y-88954819D01*
X140190476Y-88954819D02*
X140428572Y-87954819D01*
X141238095Y-87954819D02*
X141047619Y-87954819D01*
X141047619Y-87954819D02*
X140952381Y-88002438D01*
X140952381Y-88002438D02*
X140904762Y-88050057D01*
X140904762Y-88050057D02*
X140809524Y-88192914D01*
X140809524Y-88192914D02*
X140761905Y-88383390D01*
X140761905Y-88383390D02*
X140761905Y-88764342D01*
X140761905Y-88764342D02*
X140809524Y-88859580D01*
X140809524Y-88859580D02*
X140857143Y-88907200D01*
X140857143Y-88907200D02*
X140952381Y-88954819D01*
X140952381Y-88954819D02*
X141142857Y-88954819D01*
X141142857Y-88954819D02*
X141238095Y-88907200D01*
X141238095Y-88907200D02*
X141285714Y-88859580D01*
X141285714Y-88859580D02*
X141333333Y-88764342D01*
X141333333Y-88764342D02*
X141333333Y-88526247D01*
X141333333Y-88526247D02*
X141285714Y-88431009D01*
X141285714Y-88431009D02*
X141238095Y-88383390D01*
X141238095Y-88383390D02*
X141142857Y-88335771D01*
X141142857Y-88335771D02*
X140952381Y-88335771D01*
X140952381Y-88335771D02*
X140857143Y-88383390D01*
X140857143Y-88383390D02*
X140809524Y-88431009D01*
X140809524Y-88431009D02*
X140761905Y-88526247D01*
X159690476Y-104494819D02*
X159690476Y-103494819D01*
X159690476Y-103494819D02*
X160023809Y-104209104D01*
X160023809Y-104209104D02*
X160357142Y-103494819D01*
X160357142Y-103494819D02*
X160357142Y-104494819D01*
X161357142Y-104494819D02*
X160785714Y-104494819D01*
X161071428Y-104494819D02*
X161071428Y-103494819D01*
X161071428Y-103494819D02*
X160976190Y-103637676D01*
X160976190Y-103637676D02*
X160880952Y-103732914D01*
X160880952Y-103732914D02*
X160785714Y-103780533D01*
X171479905Y-147480819D02*
X171479905Y-146480819D01*
X171479905Y-146480819D02*
X171718000Y-146480819D01*
X171718000Y-146480819D02*
X171860857Y-146528438D01*
X171860857Y-146528438D02*
X171956095Y-146623676D01*
X171956095Y-146623676D02*
X172003714Y-146718914D01*
X172003714Y-146718914D02*
X172051333Y-146909390D01*
X172051333Y-146909390D02*
X172051333Y-147052247D01*
X172051333Y-147052247D02*
X172003714Y-147242723D01*
X172003714Y-147242723D02*
X171956095Y-147337961D01*
X171956095Y-147337961D02*
X171860857Y-147433200D01*
X171860857Y-147433200D02*
X171718000Y-147480819D01*
X171718000Y-147480819D02*
X171479905Y-147480819D01*
X172908476Y-146814152D02*
X172908476Y-147480819D01*
X172670381Y-146433200D02*
X172432286Y-147147485D01*
X172432286Y-147147485D02*
X173051333Y-147147485D01*
X161083333Y-138204819D02*
X160750000Y-137728628D01*
X160511905Y-138204819D02*
X160511905Y-137204819D01*
X160511905Y-137204819D02*
X160892857Y-137204819D01*
X160892857Y-137204819D02*
X160988095Y-137252438D01*
X160988095Y-137252438D02*
X161035714Y-137300057D01*
X161035714Y-137300057D02*
X161083333Y-137395295D01*
X161083333Y-137395295D02*
X161083333Y-137538152D01*
X161083333Y-137538152D02*
X161035714Y-137633390D01*
X161035714Y-137633390D02*
X160988095Y-137681009D01*
X160988095Y-137681009D02*
X160892857Y-137728628D01*
X160892857Y-137728628D02*
X160511905Y-137728628D01*
X161464286Y-137300057D02*
X161511905Y-137252438D01*
X161511905Y-137252438D02*
X161607143Y-137204819D01*
X161607143Y-137204819D02*
X161845238Y-137204819D01*
X161845238Y-137204819D02*
X161940476Y-137252438D01*
X161940476Y-137252438D02*
X161988095Y-137300057D01*
X161988095Y-137300057D02*
X162035714Y-137395295D01*
X162035714Y-137395295D02*
X162035714Y-137490533D01*
X162035714Y-137490533D02*
X161988095Y-137633390D01*
X161988095Y-137633390D02*
X161416667Y-138204819D01*
X161416667Y-138204819D02*
X162035714Y-138204819D01*
X145823333Y-95417319D02*
X145490000Y-94941128D01*
X145251905Y-95417319D02*
X145251905Y-94417319D01*
X145251905Y-94417319D02*
X145632857Y-94417319D01*
X145632857Y-94417319D02*
X145728095Y-94464938D01*
X145728095Y-94464938D02*
X145775714Y-94512557D01*
X145775714Y-94512557D02*
X145823333Y-94607795D01*
X145823333Y-94607795D02*
X145823333Y-94750652D01*
X145823333Y-94750652D02*
X145775714Y-94845890D01*
X145775714Y-94845890D02*
X145728095Y-94893509D01*
X145728095Y-94893509D02*
X145632857Y-94941128D01*
X145632857Y-94941128D02*
X145251905Y-94941128D01*
X146775714Y-95417319D02*
X146204286Y-95417319D01*
X146490000Y-95417319D02*
X146490000Y-94417319D01*
X146490000Y-94417319D02*
X146394762Y-94560176D01*
X146394762Y-94560176D02*
X146299524Y-94655414D01*
X146299524Y-94655414D02*
X146204286Y-94703033D01*
X167299714Y-124789319D02*
X167299714Y-123789319D01*
X167299714Y-123789319D02*
X167537809Y-123789319D01*
X167537809Y-123789319D02*
X167680666Y-123836938D01*
X167680666Y-123836938D02*
X167775904Y-123932176D01*
X167775904Y-123932176D02*
X167823523Y-124027414D01*
X167823523Y-124027414D02*
X167871142Y-124217890D01*
X167871142Y-124217890D02*
X167871142Y-124360747D01*
X167871142Y-124360747D02*
X167823523Y-124551223D01*
X167823523Y-124551223D02*
X167775904Y-124646461D01*
X167775904Y-124646461D02*
X167680666Y-124741700D01*
X167680666Y-124741700D02*
X167537809Y-124789319D01*
X167537809Y-124789319D02*
X167299714Y-124789319D01*
X168823523Y-124789319D02*
X168252095Y-124789319D01*
X168537809Y-124789319D02*
X168537809Y-123789319D01*
X168537809Y-123789319D02*
X168442571Y-123932176D01*
X168442571Y-123932176D02*
X168347333Y-124027414D01*
X168347333Y-124027414D02*
X168252095Y-124075033D01*
X169204476Y-123884557D02*
X169252095Y-123836938D01*
X169252095Y-123836938D02*
X169347333Y-123789319D01*
X169347333Y-123789319D02*
X169585428Y-123789319D01*
X169585428Y-123789319D02*
X169680666Y-123836938D01*
X169680666Y-123836938D02*
X169728285Y-123884557D01*
X169728285Y-123884557D02*
X169775904Y-123979795D01*
X169775904Y-123979795D02*
X169775904Y-124075033D01*
X169775904Y-124075033D02*
X169728285Y-124217890D01*
X169728285Y-124217890D02*
X169156857Y-124789319D01*
X169156857Y-124789319D02*
X169775904Y-124789319D01*
X147170833Y-138304819D02*
X146837500Y-137828628D01*
X146599405Y-138304819D02*
X146599405Y-137304819D01*
X146599405Y-137304819D02*
X146980357Y-137304819D01*
X146980357Y-137304819D02*
X147075595Y-137352438D01*
X147075595Y-137352438D02*
X147123214Y-137400057D01*
X147123214Y-137400057D02*
X147170833Y-137495295D01*
X147170833Y-137495295D02*
X147170833Y-137638152D01*
X147170833Y-137638152D02*
X147123214Y-137733390D01*
X147123214Y-137733390D02*
X147075595Y-137781009D01*
X147075595Y-137781009D02*
X146980357Y-137828628D01*
X146980357Y-137828628D02*
X146599405Y-137828628D01*
X148075595Y-137304819D02*
X147599405Y-137304819D01*
X147599405Y-137304819D02*
X147551786Y-137781009D01*
X147551786Y-137781009D02*
X147599405Y-137733390D01*
X147599405Y-137733390D02*
X147694643Y-137685771D01*
X147694643Y-137685771D02*
X147932738Y-137685771D01*
X147932738Y-137685771D02*
X148027976Y-137733390D01*
X148027976Y-137733390D02*
X148075595Y-137781009D01*
X148075595Y-137781009D02*
X148123214Y-137876247D01*
X148123214Y-137876247D02*
X148123214Y-138114342D01*
X148123214Y-138114342D02*
X148075595Y-138209580D01*
X148075595Y-138209580D02*
X148027976Y-138257200D01*
X148027976Y-138257200D02*
X147932738Y-138304819D01*
X147932738Y-138304819D02*
X147694643Y-138304819D01*
X147694643Y-138304819D02*
X147599405Y-138257200D01*
X147599405Y-138257200D02*
X147551786Y-138209580D01*
X160166666Y-81034819D02*
X160166666Y-81749104D01*
X160166666Y-81749104D02*
X160119047Y-81891961D01*
X160119047Y-81891961D02*
X160023809Y-81987200D01*
X160023809Y-81987200D02*
X159880952Y-82034819D01*
X159880952Y-82034819D02*
X159785714Y-82034819D01*
X160595238Y-81130057D02*
X160642857Y-81082438D01*
X160642857Y-81082438D02*
X160738095Y-81034819D01*
X160738095Y-81034819D02*
X160976190Y-81034819D01*
X160976190Y-81034819D02*
X161071428Y-81082438D01*
X161071428Y-81082438D02*
X161119047Y-81130057D01*
X161119047Y-81130057D02*
X161166666Y-81225295D01*
X161166666Y-81225295D02*
X161166666Y-81320533D01*
X161166666Y-81320533D02*
X161119047Y-81463390D01*
X161119047Y-81463390D02*
X160547619Y-82034819D01*
X160547619Y-82034819D02*
X161166666Y-82034819D01*
X167810905Y-144059819D02*
X167810905Y-143059819D01*
X167810905Y-143059819D02*
X168049000Y-143059819D01*
X168049000Y-143059819D02*
X168191857Y-143107438D01*
X168191857Y-143107438D02*
X168287095Y-143202676D01*
X168287095Y-143202676D02*
X168334714Y-143297914D01*
X168334714Y-143297914D02*
X168382333Y-143488390D01*
X168382333Y-143488390D02*
X168382333Y-143631247D01*
X168382333Y-143631247D02*
X168334714Y-143821723D01*
X168334714Y-143821723D02*
X168287095Y-143916961D01*
X168287095Y-143916961D02*
X168191857Y-144012200D01*
X168191857Y-144012200D02*
X168049000Y-144059819D01*
X168049000Y-144059819D02*
X167810905Y-144059819D01*
X169239476Y-143059819D02*
X169049000Y-143059819D01*
X169049000Y-143059819D02*
X168953762Y-143107438D01*
X168953762Y-143107438D02*
X168906143Y-143155057D01*
X168906143Y-143155057D02*
X168810905Y-143297914D01*
X168810905Y-143297914D02*
X168763286Y-143488390D01*
X168763286Y-143488390D02*
X168763286Y-143869342D01*
X168763286Y-143869342D02*
X168810905Y-143964580D01*
X168810905Y-143964580D02*
X168858524Y-144012200D01*
X168858524Y-144012200D02*
X168953762Y-144059819D01*
X168953762Y-144059819D02*
X169144238Y-144059819D01*
X169144238Y-144059819D02*
X169239476Y-144012200D01*
X169239476Y-144012200D02*
X169287095Y-143964580D01*
X169287095Y-143964580D02*
X169334714Y-143869342D01*
X169334714Y-143869342D02*
X169334714Y-143631247D01*
X169334714Y-143631247D02*
X169287095Y-143536009D01*
X169287095Y-143536009D02*
X169239476Y-143488390D01*
X169239476Y-143488390D02*
X169144238Y-143440771D01*
X169144238Y-143440771D02*
X168953762Y-143440771D01*
X168953762Y-143440771D02*
X168858524Y-143488390D01*
X168858524Y-143488390D02*
X168810905Y-143536009D01*
X168810905Y-143536009D02*
X168763286Y-143631247D01*
X149667200Y-89333332D02*
X149714819Y-89190475D01*
X149714819Y-89190475D02*
X149714819Y-88952380D01*
X149714819Y-88952380D02*
X149667200Y-88857142D01*
X149667200Y-88857142D02*
X149619580Y-88809523D01*
X149619580Y-88809523D02*
X149524342Y-88761904D01*
X149524342Y-88761904D02*
X149429104Y-88761904D01*
X149429104Y-88761904D02*
X149333866Y-88809523D01*
X149333866Y-88809523D02*
X149286247Y-88857142D01*
X149286247Y-88857142D02*
X149238628Y-88952380D01*
X149238628Y-88952380D02*
X149191009Y-89142856D01*
X149191009Y-89142856D02*
X149143390Y-89238094D01*
X149143390Y-89238094D02*
X149095771Y-89285713D01*
X149095771Y-89285713D02*
X149000533Y-89333332D01*
X149000533Y-89333332D02*
X148905295Y-89333332D01*
X148905295Y-89333332D02*
X148810057Y-89285713D01*
X148810057Y-89285713D02*
X148762438Y-89238094D01*
X148762438Y-89238094D02*
X148714819Y-89142856D01*
X148714819Y-89142856D02*
X148714819Y-88904761D01*
X148714819Y-88904761D02*
X148762438Y-88761904D01*
X148714819Y-88428570D02*
X149714819Y-88190475D01*
X149714819Y-88190475D02*
X149000533Y-87999999D01*
X149000533Y-87999999D02*
X149714819Y-87809523D01*
X149714819Y-87809523D02*
X148714819Y-87571428D01*
X148714819Y-86714285D02*
X148714819Y-87190475D01*
X148714819Y-87190475D02*
X149191009Y-87238094D01*
X149191009Y-87238094D02*
X149143390Y-87190475D01*
X149143390Y-87190475D02*
X149095771Y-87095237D01*
X149095771Y-87095237D02*
X149095771Y-86857142D01*
X149095771Y-86857142D02*
X149143390Y-86761904D01*
X149143390Y-86761904D02*
X149191009Y-86714285D01*
X149191009Y-86714285D02*
X149286247Y-86666666D01*
X149286247Y-86666666D02*
X149524342Y-86666666D01*
X149524342Y-86666666D02*
X149619580Y-86714285D01*
X149619580Y-86714285D02*
X149667200Y-86761904D01*
X149667200Y-86761904D02*
X149714819Y-86857142D01*
X149714819Y-86857142D02*
X149714819Y-87095237D01*
X149714819Y-87095237D02*
X149667200Y-87190475D01*
X149667200Y-87190475D02*
X149619580Y-87238094D01*
X167849905Y-153520819D02*
X167849905Y-152520819D01*
X167849905Y-152520819D02*
X168088000Y-152520819D01*
X168088000Y-152520819D02*
X168230857Y-152568438D01*
X168230857Y-152568438D02*
X168326095Y-152663676D01*
X168326095Y-152663676D02*
X168373714Y-152758914D01*
X168373714Y-152758914D02*
X168421333Y-152949390D01*
X168421333Y-152949390D02*
X168421333Y-153092247D01*
X168421333Y-153092247D02*
X168373714Y-153282723D01*
X168373714Y-153282723D02*
X168326095Y-153377961D01*
X168326095Y-153377961D02*
X168230857Y-153473200D01*
X168230857Y-153473200D02*
X168088000Y-153520819D01*
X168088000Y-153520819D02*
X167849905Y-153520819D01*
X168754667Y-152520819D02*
X169373714Y-152520819D01*
X169373714Y-152520819D02*
X169040381Y-152901771D01*
X169040381Y-152901771D02*
X169183238Y-152901771D01*
X169183238Y-152901771D02*
X169278476Y-152949390D01*
X169278476Y-152949390D02*
X169326095Y-152997009D01*
X169326095Y-152997009D02*
X169373714Y-153092247D01*
X169373714Y-153092247D02*
X169373714Y-153330342D01*
X169373714Y-153330342D02*
X169326095Y-153425580D01*
X169326095Y-153425580D02*
X169278476Y-153473200D01*
X169278476Y-153473200D02*
X169183238Y-153520819D01*
X169183238Y-153520819D02*
X168897524Y-153520819D01*
X168897524Y-153520819D02*
X168802286Y-153473200D01*
X168802286Y-153473200D02*
X168754667Y-153425580D01*
X148323333Y-95159580D02*
X148275714Y-95207200D01*
X148275714Y-95207200D02*
X148132857Y-95254819D01*
X148132857Y-95254819D02*
X148037619Y-95254819D01*
X148037619Y-95254819D02*
X147894762Y-95207200D01*
X147894762Y-95207200D02*
X147799524Y-95111961D01*
X147799524Y-95111961D02*
X147751905Y-95016723D01*
X147751905Y-95016723D02*
X147704286Y-94826247D01*
X147704286Y-94826247D02*
X147704286Y-94683390D01*
X147704286Y-94683390D02*
X147751905Y-94492914D01*
X147751905Y-94492914D02*
X147799524Y-94397676D01*
X147799524Y-94397676D02*
X147894762Y-94302438D01*
X147894762Y-94302438D02*
X148037619Y-94254819D01*
X148037619Y-94254819D02*
X148132857Y-94254819D01*
X148132857Y-94254819D02*
X148275714Y-94302438D01*
X148275714Y-94302438D02*
X148323333Y-94350057D01*
X148894762Y-94683390D02*
X148799524Y-94635771D01*
X148799524Y-94635771D02*
X148751905Y-94588152D01*
X148751905Y-94588152D02*
X148704286Y-94492914D01*
X148704286Y-94492914D02*
X148704286Y-94445295D01*
X148704286Y-94445295D02*
X148751905Y-94350057D01*
X148751905Y-94350057D02*
X148799524Y-94302438D01*
X148799524Y-94302438D02*
X148894762Y-94254819D01*
X148894762Y-94254819D02*
X149085238Y-94254819D01*
X149085238Y-94254819D02*
X149180476Y-94302438D01*
X149180476Y-94302438D02*
X149228095Y-94350057D01*
X149228095Y-94350057D02*
X149275714Y-94445295D01*
X149275714Y-94445295D02*
X149275714Y-94492914D01*
X149275714Y-94492914D02*
X149228095Y-94588152D01*
X149228095Y-94588152D02*
X149180476Y-94635771D01*
X149180476Y-94635771D02*
X149085238Y-94683390D01*
X149085238Y-94683390D02*
X148894762Y-94683390D01*
X148894762Y-94683390D02*
X148799524Y-94731009D01*
X148799524Y-94731009D02*
X148751905Y-94778628D01*
X148751905Y-94778628D02*
X148704286Y-94873866D01*
X148704286Y-94873866D02*
X148704286Y-95064342D01*
X148704286Y-95064342D02*
X148751905Y-95159580D01*
X148751905Y-95159580D02*
X148799524Y-95207200D01*
X148799524Y-95207200D02*
X148894762Y-95254819D01*
X148894762Y-95254819D02*
X149085238Y-95254819D01*
X149085238Y-95254819D02*
X149180476Y-95207200D01*
X149180476Y-95207200D02*
X149228095Y-95159580D01*
X149228095Y-95159580D02*
X149275714Y-95064342D01*
X149275714Y-95064342D02*
X149275714Y-94873866D01*
X149275714Y-94873866D02*
X149228095Y-94778628D01*
X149228095Y-94778628D02*
X149180476Y-94731009D01*
X149180476Y-94731009D02*
X149085238Y-94683390D01*
X155800595Y-136004819D02*
X155800595Y-136814342D01*
X155800595Y-136814342D02*
X155848214Y-136909580D01*
X155848214Y-136909580D02*
X155895833Y-136957200D01*
X155895833Y-136957200D02*
X155991071Y-137004819D01*
X155991071Y-137004819D02*
X156181547Y-137004819D01*
X156181547Y-137004819D02*
X156276785Y-136957200D01*
X156276785Y-136957200D02*
X156324404Y-136909580D01*
X156324404Y-136909580D02*
X156372023Y-136814342D01*
X156372023Y-136814342D02*
X156372023Y-136004819D01*
X156752976Y-136004819D02*
X157372023Y-136004819D01*
X157372023Y-136004819D02*
X157038690Y-136385771D01*
X157038690Y-136385771D02*
X157181547Y-136385771D01*
X157181547Y-136385771D02*
X157276785Y-136433390D01*
X157276785Y-136433390D02*
X157324404Y-136481009D01*
X157324404Y-136481009D02*
X157372023Y-136576247D01*
X157372023Y-136576247D02*
X157372023Y-136814342D01*
X157372023Y-136814342D02*
X157324404Y-136909580D01*
X157324404Y-136909580D02*
X157276785Y-136957200D01*
X157276785Y-136957200D02*
X157181547Y-137004819D01*
X157181547Y-137004819D02*
X156895833Y-137004819D01*
X156895833Y-137004819D02*
X156800595Y-136957200D01*
X156800595Y-136957200D02*
X156752976Y-136909580D01*
X151833333Y-138109580D02*
X151785714Y-138157200D01*
X151785714Y-138157200D02*
X151642857Y-138204819D01*
X151642857Y-138204819D02*
X151547619Y-138204819D01*
X151547619Y-138204819D02*
X151404762Y-138157200D01*
X151404762Y-138157200D02*
X151309524Y-138061961D01*
X151309524Y-138061961D02*
X151261905Y-137966723D01*
X151261905Y-137966723D02*
X151214286Y-137776247D01*
X151214286Y-137776247D02*
X151214286Y-137633390D01*
X151214286Y-137633390D02*
X151261905Y-137442914D01*
X151261905Y-137442914D02*
X151309524Y-137347676D01*
X151309524Y-137347676D02*
X151404762Y-137252438D01*
X151404762Y-137252438D02*
X151547619Y-137204819D01*
X151547619Y-137204819D02*
X151642857Y-137204819D01*
X151642857Y-137204819D02*
X151785714Y-137252438D01*
X151785714Y-137252438D02*
X151833333Y-137300057D01*
X152214286Y-137300057D02*
X152261905Y-137252438D01*
X152261905Y-137252438D02*
X152357143Y-137204819D01*
X152357143Y-137204819D02*
X152595238Y-137204819D01*
X152595238Y-137204819D02*
X152690476Y-137252438D01*
X152690476Y-137252438D02*
X152738095Y-137300057D01*
X152738095Y-137300057D02*
X152785714Y-137395295D01*
X152785714Y-137395295D02*
X152785714Y-137490533D01*
X152785714Y-137490533D02*
X152738095Y-137633390D01*
X152738095Y-137633390D02*
X152166667Y-138204819D01*
X152166667Y-138204819D02*
X152785714Y-138204819D01*
X132850476Y-135874819D02*
X132850476Y-136589104D01*
X132850476Y-136589104D02*
X132802857Y-136731961D01*
X132802857Y-136731961D02*
X132707619Y-136827200D01*
X132707619Y-136827200D02*
X132564762Y-136874819D01*
X132564762Y-136874819D02*
X132469524Y-136874819D01*
X133850476Y-136874819D02*
X133279048Y-136874819D01*
X133564762Y-136874819D02*
X133564762Y-135874819D01*
X133564762Y-135874819D02*
X133469524Y-136017676D01*
X133469524Y-136017676D02*
X133374286Y-136112914D01*
X133374286Y-136112914D02*
X133279048Y-136160533D01*
X134707619Y-136208152D02*
X134707619Y-136874819D01*
X134469524Y-135827200D02*
X134231429Y-136541485D01*
X134231429Y-136541485D02*
X134850476Y-136541485D01*
X168195642Y-99504819D02*
X167862309Y-99028628D01*
X167624214Y-99504819D02*
X167624214Y-98504819D01*
X167624214Y-98504819D02*
X168005166Y-98504819D01*
X168005166Y-98504819D02*
X168100404Y-98552438D01*
X168100404Y-98552438D02*
X168148023Y-98600057D01*
X168148023Y-98600057D02*
X168195642Y-98695295D01*
X168195642Y-98695295D02*
X168195642Y-98838152D01*
X168195642Y-98838152D02*
X168148023Y-98933390D01*
X168148023Y-98933390D02*
X168100404Y-98981009D01*
X168100404Y-98981009D02*
X168005166Y-99028628D01*
X168005166Y-99028628D02*
X167624214Y-99028628D01*
X169148023Y-99504819D02*
X168576595Y-99504819D01*
X168862309Y-99504819D02*
X168862309Y-98504819D01*
X168862309Y-98504819D02*
X168767071Y-98647676D01*
X168767071Y-98647676D02*
X168671833Y-98742914D01*
X168671833Y-98742914D02*
X168576595Y-98790533D01*
X170005166Y-98504819D02*
X169814690Y-98504819D01*
X169814690Y-98504819D02*
X169719452Y-98552438D01*
X169719452Y-98552438D02*
X169671833Y-98600057D01*
X169671833Y-98600057D02*
X169576595Y-98742914D01*
X169576595Y-98742914D02*
X169528976Y-98933390D01*
X169528976Y-98933390D02*
X169528976Y-99314342D01*
X169528976Y-99314342D02*
X169576595Y-99409580D01*
X169576595Y-99409580D02*
X169624214Y-99457200D01*
X169624214Y-99457200D02*
X169719452Y-99504819D01*
X169719452Y-99504819D02*
X169909928Y-99504819D01*
X169909928Y-99504819D02*
X170005166Y-99457200D01*
X170005166Y-99457200D02*
X170052785Y-99409580D01*
X170052785Y-99409580D02*
X170100404Y-99314342D01*
X170100404Y-99314342D02*
X170100404Y-99076247D01*
X170100404Y-99076247D02*
X170052785Y-98981009D01*
X170052785Y-98981009D02*
X170005166Y-98933390D01*
X170005166Y-98933390D02*
X169909928Y-98885771D01*
X169909928Y-98885771D02*
X169719452Y-98885771D01*
X169719452Y-98885771D02*
X169624214Y-98933390D01*
X169624214Y-98933390D02*
X169576595Y-98981009D01*
X169576595Y-98981009D02*
X169528976Y-99076247D01*
X175149905Y-129553819D02*
X175149905Y-128553819D01*
X175149905Y-128553819D02*
X175388000Y-128553819D01*
X175388000Y-128553819D02*
X175530857Y-128601438D01*
X175530857Y-128601438D02*
X175626095Y-128696676D01*
X175626095Y-128696676D02*
X175673714Y-128791914D01*
X175673714Y-128791914D02*
X175721333Y-128982390D01*
X175721333Y-128982390D02*
X175721333Y-129125247D01*
X175721333Y-129125247D02*
X175673714Y-129315723D01*
X175673714Y-129315723D02*
X175626095Y-129410961D01*
X175626095Y-129410961D02*
X175530857Y-129506200D01*
X175530857Y-129506200D02*
X175388000Y-129553819D01*
X175388000Y-129553819D02*
X175149905Y-129553819D01*
X176292762Y-128982390D02*
X176197524Y-128934771D01*
X176197524Y-128934771D02*
X176149905Y-128887152D01*
X176149905Y-128887152D02*
X176102286Y-128791914D01*
X176102286Y-128791914D02*
X176102286Y-128744295D01*
X176102286Y-128744295D02*
X176149905Y-128649057D01*
X176149905Y-128649057D02*
X176197524Y-128601438D01*
X176197524Y-128601438D02*
X176292762Y-128553819D01*
X176292762Y-128553819D02*
X176483238Y-128553819D01*
X176483238Y-128553819D02*
X176578476Y-128601438D01*
X176578476Y-128601438D02*
X176626095Y-128649057D01*
X176626095Y-128649057D02*
X176673714Y-128744295D01*
X176673714Y-128744295D02*
X176673714Y-128791914D01*
X176673714Y-128791914D02*
X176626095Y-128887152D01*
X176626095Y-128887152D02*
X176578476Y-128934771D01*
X176578476Y-128934771D02*
X176483238Y-128982390D01*
X176483238Y-128982390D02*
X176292762Y-128982390D01*
X176292762Y-128982390D02*
X176197524Y-129030009D01*
X176197524Y-129030009D02*
X176149905Y-129077628D01*
X176149905Y-129077628D02*
X176102286Y-129172866D01*
X176102286Y-129172866D02*
X176102286Y-129363342D01*
X176102286Y-129363342D02*
X176149905Y-129458580D01*
X176149905Y-129458580D02*
X176197524Y-129506200D01*
X176197524Y-129506200D02*
X176292762Y-129553819D01*
X176292762Y-129553819D02*
X176483238Y-129553819D01*
X176483238Y-129553819D02*
X176578476Y-129506200D01*
X176578476Y-129506200D02*
X176626095Y-129458580D01*
X176626095Y-129458580D02*
X176673714Y-129363342D01*
X176673714Y-129363342D02*
X176673714Y-129172866D01*
X176673714Y-129172866D02*
X176626095Y-129077628D01*
X176626095Y-129077628D02*
X176578476Y-129030009D01*
X176578476Y-129030009D02*
X176483238Y-128982390D01*
X171501905Y-138845819D02*
X171501905Y-137845819D01*
X171501905Y-137845819D02*
X171740000Y-137845819D01*
X171740000Y-137845819D02*
X171882857Y-137893438D01*
X171882857Y-137893438D02*
X171978095Y-137988676D01*
X171978095Y-137988676D02*
X172025714Y-138083914D01*
X172025714Y-138083914D02*
X172073333Y-138274390D01*
X172073333Y-138274390D02*
X172073333Y-138417247D01*
X172073333Y-138417247D02*
X172025714Y-138607723D01*
X172025714Y-138607723D02*
X171978095Y-138702961D01*
X171978095Y-138702961D02*
X171882857Y-138798200D01*
X171882857Y-138798200D02*
X171740000Y-138845819D01*
X171740000Y-138845819D02*
X171501905Y-138845819D01*
X172406667Y-137845819D02*
X173073333Y-137845819D01*
X173073333Y-137845819D02*
X172644762Y-138845819D01*
X169705819Y-87059523D02*
X170420104Y-87059523D01*
X170420104Y-87059523D02*
X170562961Y-87107142D01*
X170562961Y-87107142D02*
X170658200Y-87202380D01*
X170658200Y-87202380D02*
X170705819Y-87345237D01*
X170705819Y-87345237D02*
X170705819Y-87440475D01*
X170705819Y-86059523D02*
X170705819Y-86630951D01*
X170705819Y-86345237D02*
X169705819Y-86345237D01*
X169705819Y-86345237D02*
X169848676Y-86440475D01*
X169848676Y-86440475D02*
X169943914Y-86535713D01*
X169943914Y-86535713D02*
X169991533Y-86630951D01*
X169801057Y-85678570D02*
X169753438Y-85630951D01*
X169753438Y-85630951D02*
X169705819Y-85535713D01*
X169705819Y-85535713D02*
X169705819Y-85297618D01*
X169705819Y-85297618D02*
X169753438Y-85202380D01*
X169753438Y-85202380D02*
X169801057Y-85154761D01*
X169801057Y-85154761D02*
X169896295Y-85107142D01*
X169896295Y-85107142D02*
X169991533Y-85107142D01*
X169991533Y-85107142D02*
X170134390Y-85154761D01*
X170134390Y-85154761D02*
X170705819Y-85726189D01*
X170705819Y-85726189D02*
X170705819Y-85107142D01*
X160705833Y-136954819D02*
X160372500Y-136478628D01*
X160134405Y-136954819D02*
X160134405Y-135954819D01*
X160134405Y-135954819D02*
X160515357Y-135954819D01*
X160515357Y-135954819D02*
X160610595Y-136002438D01*
X160610595Y-136002438D02*
X160658214Y-136050057D01*
X160658214Y-136050057D02*
X160705833Y-136145295D01*
X160705833Y-136145295D02*
X160705833Y-136288152D01*
X160705833Y-136288152D02*
X160658214Y-136383390D01*
X160658214Y-136383390D02*
X160610595Y-136431009D01*
X160610595Y-136431009D02*
X160515357Y-136478628D01*
X160515357Y-136478628D02*
X160134405Y-136478628D01*
X161039167Y-135954819D02*
X161658214Y-135954819D01*
X161658214Y-135954819D02*
X161324881Y-136335771D01*
X161324881Y-136335771D02*
X161467738Y-136335771D01*
X161467738Y-136335771D02*
X161562976Y-136383390D01*
X161562976Y-136383390D02*
X161610595Y-136431009D01*
X161610595Y-136431009D02*
X161658214Y-136526247D01*
X161658214Y-136526247D02*
X161658214Y-136764342D01*
X161658214Y-136764342D02*
X161610595Y-136859580D01*
X161610595Y-136859580D02*
X161562976Y-136907200D01*
X161562976Y-136907200D02*
X161467738Y-136954819D01*
X161467738Y-136954819D02*
X161182024Y-136954819D01*
X161182024Y-136954819D02*
X161086786Y-136907200D01*
X161086786Y-136907200D02*
X161039167Y-136859580D01*
X141940476Y-140954819D02*
X141940476Y-141669104D01*
X141940476Y-141669104D02*
X141892857Y-141811961D01*
X141892857Y-141811961D02*
X141797619Y-141907200D01*
X141797619Y-141907200D02*
X141654762Y-141954819D01*
X141654762Y-141954819D02*
X141559524Y-141954819D01*
X142940476Y-141954819D02*
X142369048Y-141954819D01*
X142654762Y-141954819D02*
X142654762Y-140954819D01*
X142654762Y-140954819D02*
X142559524Y-141097676D01*
X142559524Y-141097676D02*
X142464286Y-141192914D01*
X142464286Y-141192914D02*
X142369048Y-141240533D01*
X143797619Y-140954819D02*
X143607143Y-140954819D01*
X143607143Y-140954819D02*
X143511905Y-141002438D01*
X143511905Y-141002438D02*
X143464286Y-141050057D01*
X143464286Y-141050057D02*
X143369048Y-141192914D01*
X143369048Y-141192914D02*
X143321429Y-141383390D01*
X143321429Y-141383390D02*
X143321429Y-141764342D01*
X143321429Y-141764342D02*
X143369048Y-141859580D01*
X143369048Y-141859580D02*
X143416667Y-141907200D01*
X143416667Y-141907200D02*
X143511905Y-141954819D01*
X143511905Y-141954819D02*
X143702381Y-141954819D01*
X143702381Y-141954819D02*
X143797619Y-141907200D01*
X143797619Y-141907200D02*
X143845238Y-141859580D01*
X143845238Y-141859580D02*
X143892857Y-141764342D01*
X143892857Y-141764342D02*
X143892857Y-141526247D01*
X143892857Y-141526247D02*
X143845238Y-141431009D01*
X143845238Y-141431009D02*
X143797619Y-141383390D01*
X143797619Y-141383390D02*
X143702381Y-141335771D01*
X143702381Y-141335771D02*
X143511905Y-141335771D01*
X143511905Y-141335771D02*
X143416667Y-141383390D01*
X143416667Y-141383390D02*
X143369048Y-141431009D01*
X143369048Y-141431009D02*
X143321429Y-141526247D01*
D11*
%TO.C,D1*%
X174960000Y-153316000D02*
X174960000Y-156001000D01*
X174960000Y-156001000D02*
X176880000Y-156001000D01*
X176880000Y-156001000D02*
X176880000Y-153316000D01*
%TO.C,D10*%
X171273000Y-123732000D02*
X171273000Y-126417000D01*
X173193000Y-123732000D02*
X171273000Y-123732000D01*
X173193000Y-126417000D02*
X173193000Y-123732000D01*
D12*
%TO.C,mouse-bite-2mm-slot*%
X163750000Y-107500000D02*
G75*
G02*
X165750000Y-107500000I1000000J0D01*
G01*
X165750000Y-103500000D02*
G75*
G02*
X163750000Y-103500000I-1000000J0D01*
G01*
D11*
%TO.C,J11*%
X159120000Y-119730000D02*
X159120000Y-114540000D01*
X161880000Y-114540000D02*
X159120000Y-114540000D01*
X161880000Y-119730000D02*
X159120000Y-119730000D01*
X161880000Y-119730000D02*
X161880000Y-114540000D01*
X161880000Y-121000000D02*
X161880000Y-122380000D01*
X161880000Y-122380000D02*
X160500000Y-122380000D01*
%TO.C,J15*%
X136870000Y-137420000D02*
X138250000Y-137420000D01*
X136870000Y-138800000D02*
X136870000Y-137420000D01*
X136870000Y-140070000D02*
X136870000Y-152880000D01*
X136870000Y-140070000D02*
X139630000Y-140070000D01*
X136870000Y-152880000D02*
X139630000Y-152880000D01*
X139630000Y-140070000D02*
X139630000Y-152880000D01*
%TO.C,J17*%
X145870000Y-142500000D02*
X147250000Y-142500000D01*
X145870000Y-143880000D02*
X145870000Y-142500000D01*
X145870000Y-145150000D02*
X145870000Y-152880000D01*
X145870000Y-145150000D02*
X148630000Y-145150000D01*
X145870000Y-152880000D02*
X148630000Y-152880000D01*
X148630000Y-145150000D02*
X148630000Y-152880000D01*
%TO.C,C7*%
X151275000Y-97811252D02*
X151275000Y-97288748D01*
X152745000Y-97811252D02*
X152745000Y-97288748D01*
%TO.C,R15*%
X168611436Y-97015000D02*
X169065564Y-97015000D01*
X168611436Y-98485000D02*
X169065564Y-98485000D01*
%TO.C,U1*%
X130100000Y-100895000D02*
X136300000Y-100895000D01*
X130100000Y-119295000D02*
X130100000Y-100895000D01*
X130100000Y-119295000D02*
X136300000Y-119295000D01*
X154950000Y-119295000D02*
X155950000Y-119295000D01*
X155950000Y-100895000D02*
X154950000Y-100895000D01*
X155950000Y-100895000D02*
X155950000Y-102395000D01*
X155950000Y-119295000D02*
X155950000Y-117795000D01*
X136975000Y-119795000D02*
X136475000Y-119295000D01*
X136975000Y-119295000D01*
X136975000Y-119795000D01*
G36*
X136975000Y-119795000D02*
G01*
X136475000Y-119295000D01*
X136975000Y-119295000D01*
X136975000Y-119795000D01*
G37*
D12*
%TO.C,mouse-bite-2mm-slot*%
X163750000Y-124000000D02*
G75*
G02*
X165750000Y-124000000I1000000J0D01*
G01*
X165750000Y-120000000D02*
G75*
G02*
X163750000Y-120000000I-1000000J0D01*
G01*
D11*
%TO.C,C3*%
X155738748Y-125265000D02*
X156261252Y-125265000D01*
X155738748Y-126735000D02*
X156261252Y-126735000D01*
%TO.C,LS1*%
X159120000Y-124345000D02*
X160500000Y-124345000D01*
X159120000Y-125725000D02*
X159120000Y-124345000D01*
X159120000Y-126995000D02*
X159120000Y-129645000D01*
X159120000Y-126995000D02*
X161880000Y-126995000D01*
X159120000Y-129645000D02*
X161880000Y-129645000D01*
X161880000Y-126995000D02*
X161880000Y-129645000D01*
%TO.C,C5*%
X145255000Y-97811252D02*
X145255000Y-97288748D01*
X146725000Y-97811252D02*
X146725000Y-97288748D01*
%TO.C,M2*%
X159120000Y-95120000D02*
X160500000Y-95120000D01*
X159120000Y-96500000D02*
X159120000Y-95120000D01*
X159120000Y-97770000D02*
X159120000Y-102960000D01*
X159120000Y-97770000D02*
X161880000Y-97770000D01*
X159120000Y-102960000D02*
X161880000Y-102960000D01*
X161880000Y-97770000D02*
X161880000Y-102960000D01*
%TO.C,D5*%
X174940000Y-139339000D02*
X174940000Y-142024000D01*
X176860000Y-139339000D02*
X174940000Y-139339000D01*
X176860000Y-142024000D02*
X176860000Y-139339000D01*
%TO.C,J13*%
X152800000Y-146400000D02*
X152800000Y-149160000D01*
X152800000Y-149160000D02*
X163180000Y-149160000D01*
X153750000Y-146087358D02*
X153750000Y-146400000D01*
X153750000Y-155160000D02*
X153750000Y-149160000D01*
X154610000Y-146087358D02*
X154610000Y-146400000D01*
X154610000Y-149160000D02*
X154610000Y-155160000D01*
X154610000Y-155160000D02*
X153750000Y-155160000D01*
X155450000Y-146400000D02*
X155450000Y-149160000D01*
X156290000Y-146087358D02*
X156290000Y-146400000D01*
X156290000Y-155160000D02*
X156290000Y-149160000D01*
X157150000Y-146087358D02*
X157150000Y-146400000D01*
X157150000Y-149160000D02*
X157150000Y-155160000D01*
X157150000Y-155160000D02*
X156290000Y-155160000D01*
X157990000Y-146400000D02*
X157990000Y-149160000D01*
X158830000Y-146087358D02*
X158830000Y-146400000D01*
X158830000Y-155160000D02*
X158830000Y-149160000D01*
X159690000Y-146087358D02*
X159690000Y-146400000D01*
X159690000Y-149160000D02*
X159690000Y-155160000D01*
X159690000Y-155160000D02*
X158830000Y-155160000D01*
X160530000Y-146400000D02*
X160530000Y-149160000D01*
X161370000Y-146170000D02*
X161370000Y-146400000D01*
X161800000Y-143740000D02*
X163070000Y-143740000D01*
X162230000Y-146170000D02*
X162230000Y-146400000D01*
X163070000Y-143740000D02*
X163070000Y-145010000D01*
X163180000Y-146400000D02*
X152800000Y-146400000D01*
X163180000Y-149160000D02*
X163180000Y-146400000D01*
X162230000Y-149160000D02*
X161370000Y-149160000D01*
X161370000Y-155160000D01*
X162230000Y-155160000D01*
X162230000Y-149160000D01*
G36*
X162230000Y-149160000D02*
G01*
X161370000Y-149160000D01*
X161370000Y-155160000D01*
X162230000Y-155160000D01*
X162230000Y-149160000D01*
G37*
%TO.C,D11*%
X171273000Y-120710000D02*
X171273000Y-123395000D01*
X171273000Y-123395000D02*
X173193000Y-123395000D01*
X173193000Y-123395000D02*
X173193000Y-120710000D01*
%TO.C,D2*%
X171274000Y-148965000D02*
X171274000Y-151650000D01*
X173194000Y-148965000D02*
X171274000Y-148965000D01*
X173194000Y-151650000D02*
X173194000Y-148965000D01*
%TO.C,J1*%
X136230000Y-84380000D02*
X136230000Y-83000000D01*
X137610000Y-84380000D02*
X136230000Y-84380000D01*
X138880000Y-81620000D02*
X156770000Y-81620000D01*
X138880000Y-84380000D02*
X138880000Y-81620000D01*
X138880000Y-84380000D02*
X156770000Y-84380000D01*
X156770000Y-84380000D02*
X156770000Y-81620000D01*
%TO.C,C1*%
X158015000Y-140561252D02*
X158015000Y-140038748D01*
X159485000Y-140561252D02*
X159485000Y-140038748D01*
%TO.C,C6*%
X148265000Y-97811252D02*
X148265000Y-97288748D01*
X149735000Y-97811252D02*
X149735000Y-97288748D01*
%TO.C,D9*%
X174940000Y-124397000D02*
X174940000Y-127082000D01*
X174940000Y-127082000D02*
X176860000Y-127082000D01*
X176860000Y-127082000D02*
X176860000Y-124397000D01*
%TO.C,J3*%
X167046000Y-113225000D02*
X167046000Y-104275000D01*
X170126000Y-104155000D02*
X171026000Y-104155000D01*
X170126000Y-113345000D02*
X171026000Y-113345000D01*
X173726000Y-104155000D02*
X176456000Y-104155000D01*
X173726000Y-113345000D02*
X176456000Y-113345000D01*
X176456000Y-113345000D02*
X176456000Y-104155000D01*
%TO.C,R4*%
X142610436Y-138765000D02*
X143064564Y-138765000D01*
X142610436Y-140235000D02*
X143064564Y-140235000D01*
%TO.C,J5*%
X166560000Y-116186000D02*
X166560000Y-118946000D01*
X174290000Y-116186000D02*
X166560000Y-116186000D01*
X174290000Y-116186000D02*
X174290000Y-118946000D01*
X174290000Y-118946000D02*
X166560000Y-118946000D01*
X175560000Y-116186000D02*
X176940000Y-116186000D01*
X176940000Y-116186000D02*
X176940000Y-117566000D01*
%TO.C,C4*%
X155738748Y-128765000D02*
X156261252Y-128765000D01*
X155738748Y-130235000D02*
X156261252Y-130235000D01*
%TO.C,U2*%
X155362500Y-138640000D02*
X154562500Y-138640000D01*
X155362500Y-138640000D02*
X156162500Y-138640000D01*
X155362500Y-141760000D02*
X154562500Y-141760000D01*
X155362500Y-141760000D02*
X156162500Y-141760000D01*
X156902500Y-142040000D02*
X156422500Y-142040000D01*
X156662500Y-141710000D01*
X156902500Y-142040000D01*
G36*
X156902500Y-142040000D02*
G01*
X156422500Y-142040000D01*
X156662500Y-141710000D01*
X156902500Y-142040000D01*
G37*
%TO.C,SW6*%
X136765000Y-90790000D02*
X136765000Y-97210000D01*
X136765000Y-97210000D02*
X137200000Y-97210000D01*
X137200000Y-90790000D02*
X136765000Y-90790000D01*
X138800000Y-97210000D02*
X141200000Y-97210000D01*
X141200000Y-90790000D02*
X138800000Y-90790000D01*
X142800000Y-97210000D02*
X143235000Y-97210000D01*
X143235000Y-90790000D02*
X142930000Y-90790000D01*
X143235000Y-97210000D02*
X143235000Y-90790000D01*
%TO.C,M1*%
X159120000Y-105040000D02*
X160500000Y-105040000D01*
X159120000Y-106420000D02*
X159120000Y-105040000D01*
X159120000Y-107690000D02*
X159120000Y-112880000D01*
X159120000Y-107690000D02*
X161880000Y-107690000D01*
X159120000Y-112880000D02*
X161880000Y-112880000D01*
X161880000Y-107690000D02*
X161880000Y-112880000D01*
%TO.C,D4*%
X171274000Y-142985000D02*
X171274000Y-145670000D01*
X173194000Y-142985000D02*
X171274000Y-142985000D01*
X173194000Y-145670000D02*
X173194000Y-142985000D01*
%TO.C,R2*%
X160515000Y-140564564D02*
X160515000Y-140110436D01*
X161985000Y-140564564D02*
X161985000Y-140110436D01*
%TO.C,R1*%
X145255000Y-92277064D02*
X145255000Y-91822936D01*
X146725000Y-92277064D02*
X146725000Y-91822936D01*
%TO.C,D12*%
X167606000Y-120065000D02*
X167606000Y-122750000D01*
X169526000Y-120065000D02*
X167606000Y-120065000D01*
X169526000Y-122750000D02*
X169526000Y-120065000D01*
D12*
%TO.C,mouse-bite-2mm-slot*%
X163750000Y-85750000D02*
G75*
G02*
X165750000Y-85750000I1000000J0D01*
G01*
X165750000Y-81750000D02*
G75*
G02*
X163750000Y-81750000I-1000000J0D01*
G01*
D11*
%TO.C,R5*%
X147110436Y-138765000D02*
X147564564Y-138765000D01*
X147110436Y-140235000D02*
X147564564Y-140235000D01*
%TO.C,J2*%
X159120000Y-90310000D02*
X159120000Y-82580000D01*
X161880000Y-82580000D02*
X159120000Y-82580000D01*
X161880000Y-90310000D02*
X159120000Y-90310000D01*
X161880000Y-90310000D02*
X161880000Y-82580000D01*
X161880000Y-91580000D02*
X161880000Y-92960000D01*
X161880000Y-92960000D02*
X160500000Y-92960000D01*
%TO.C,D6*%
X167608000Y-139339000D02*
X167608000Y-142024000D01*
X169528000Y-139339000D02*
X167608000Y-139339000D01*
X169528000Y-142024000D02*
X169528000Y-139339000D01*
%TO.C,SW5*%
X150265000Y-86790000D02*
X150265000Y-93210000D01*
X150265000Y-93210000D02*
X150570000Y-93210000D01*
X150700000Y-86790000D02*
X150265000Y-86790000D01*
X152300000Y-93210000D02*
X154700000Y-93210000D01*
X154700000Y-86790000D02*
X152300000Y-86790000D01*
X156300000Y-93210000D02*
X156735000Y-93210000D01*
X156735000Y-86790000D02*
X156300000Y-86790000D01*
X156735000Y-93210000D02*
X156735000Y-86790000D01*
%TO.C,D3*%
X167607000Y-149650000D02*
X167607000Y-152335000D01*
X167607000Y-152335000D02*
X169527000Y-152335000D01*
X169527000Y-152335000D02*
X169527000Y-149650000D01*
%TO.C,C8*%
X147755000Y-91788748D02*
X147755000Y-92311252D01*
X149225000Y-91788748D02*
X149225000Y-92311252D01*
%TO.C,U3*%
X154952500Y-132140000D02*
X154952500Y-132615000D01*
X154952500Y-135360000D02*
X154952500Y-134885000D01*
X155427500Y-132140000D02*
X154952500Y-132140000D01*
X155427500Y-135360000D02*
X154952500Y-135360000D01*
X157697500Y-132140000D02*
X158172500Y-132140000D01*
X157697500Y-135360000D02*
X157872500Y-135360000D01*
X158172500Y-132140000D02*
X158172500Y-132615000D01*
X158172500Y-134885000D02*
X158172500Y-135120000D01*
X158412500Y-135690000D02*
X157932500Y-135690000D01*
X158172500Y-135360000D01*
X158412500Y-135690000D01*
G36*
X158412500Y-135690000D02*
G01*
X157932500Y-135690000D01*
X158172500Y-135360000D01*
X158412500Y-135690000D01*
G37*
%TO.C,C2*%
X151265000Y-140561252D02*
X151265000Y-140038748D01*
X152735000Y-140561252D02*
X152735000Y-140038748D01*
D12*
%TO.C,mouse-bite-2mm-slot*%
X163750000Y-152250000D02*
G75*
G02*
X165750000Y-152250000I1000000J0D01*
G01*
X165750000Y-148250000D02*
G75*
G02*
X163750000Y-148250000I-1000000J0D01*
G01*
D11*
%TO.C,J14*%
X132280000Y-137420000D02*
X133660000Y-137420000D01*
X132280000Y-138800000D02*
X132280000Y-137420000D01*
X132280000Y-140070000D02*
X132280000Y-152880000D01*
X132280000Y-140070000D02*
X135040000Y-140070000D01*
X132280000Y-152880000D02*
X135040000Y-152880000D01*
X135040000Y-140070000D02*
X135040000Y-152880000D01*
%TO.C,R16*%
X168611436Y-99965000D02*
X169065564Y-99965000D01*
X168611436Y-101435000D02*
X169065564Y-101435000D01*
%TO.C,D8*%
X174940000Y-130377000D02*
X174940000Y-133062000D01*
X174940000Y-133062000D02*
X176860000Y-133062000D01*
X176860000Y-133062000D02*
X176860000Y-130377000D01*
%TO.C,D7*%
X171274000Y-139338000D02*
X171274000Y-142023000D01*
X173194000Y-139338000D02*
X171274000Y-139338000D01*
X173194000Y-142023000D02*
X173194000Y-139338000D01*
%TO.C,J12*%
X166371000Y-81290000D02*
X167751000Y-81290000D01*
X166371000Y-82670000D02*
X166371000Y-81290000D01*
X166371000Y-83940000D02*
X166371000Y-91670000D01*
X166371000Y-83940000D02*
X169131000Y-83940000D01*
X166371000Y-91670000D02*
X169131000Y-91670000D01*
X169131000Y-83940000D02*
X169131000Y-91670000D01*
%TO.C,R3*%
X160137500Y-133582936D02*
X160137500Y-134037064D01*
X161607500Y-133582936D02*
X161607500Y-134037064D01*
%TO.C,J16*%
X141370000Y-142500000D02*
X142750000Y-142500000D01*
X141370000Y-143880000D02*
X141370000Y-142500000D01*
X141370000Y-145150000D02*
X141370000Y-152880000D01*
X141370000Y-145150000D02*
X144130000Y-145150000D01*
X141370000Y-152880000D02*
X144130000Y-152880000D01*
X144130000Y-145150000D02*
X144130000Y-152880000D01*
%TD*%
M02*
