%TF.GenerationSoftware,KiCad,Pcbnew,9.0.4*%
%TF.CreationDate,2025-12-16T10:37:17-05:00*%
%TF.ProjectId,TARS,54415253-2e6b-4696-9361-645f70636258,rev?*%
%TF.SameCoordinates,Original*%
%TF.FileFunction,Soldermask,Bot*%
%TF.FilePolarity,Negative*%
%FSLAX46Y46*%
G04 Gerber Fmt 4.6, Leading zero omitted, Abs format (unit mm)*
G04 Created by KiCad (PCBNEW 9.0.4) date 2025-12-16 10:37:17*
%MOMM*%
%LPD*%
G01*
G04 APERTURE LIST*
G04 Aperture macros list*
%AMRoundRect*
0 Rectangle with rounded corners*
0 $1 Rounding radius*
0 $2 $3 $4 $5 $6 $7 $8 $9 X,Y pos of 4 corners*
0 Add a 4 corners polygon primitive as box body*
4,1,4,$2,$3,$4,$5,$6,$7,$8,$9,$2,$3,0*
0 Add four circle primitives for the rounded corners*
1,1,$1+$1,$2,$3*
1,1,$1+$1,$4,$5*
1,1,$1+$1,$6,$7*
1,1,$1+$1,$8,$9*
0 Add four rect primitives between the rounded corners*
20,1,$1+$1,$2,$3,$4,$5,0*
20,1,$1+$1,$4,$5,$6,$7,0*
20,1,$1+$1,$6,$7,$8,$9,0*
20,1,$1+$1,$8,$9,$2,$3,0*%
G04 Aperture macros list end*
%ADD10C,1.000000*%
%ADD11R,1.700000X1.700000*%
%ADD12C,1.700000*%
%ADD13C,0.700000*%
%ADD14O,2.400000X0.900000*%
%ADD15O,1.700000X0.900000*%
%ADD16RoundRect,0.150000X0.475000X-0.350000X0.475000X0.350000X-0.475000X0.350000X-0.475000X-0.350000X0*%
%ADD17RoundRect,0.150000X0.350000X0.475000X-0.350000X0.475000X-0.350000X-0.475000X0.350000X-0.475000X0*%
G04 APERTURE END LIST*
D10*
%TO.C,*%
X164950000Y-84425000D03*
%TD*%
%TO.C,*%
X164950000Y-120925000D03*
%TD*%
D11*
%TO.C,J11*%
X160500000Y-121000000D03*
D12*
X160500000Y-118460000D03*
X160500000Y-115920000D03*
%TD*%
D11*
%TO.C,J15*%
X138250000Y-138800000D03*
D12*
X138250000Y-141340000D03*
X138250000Y-143880000D03*
X138250000Y-146420000D03*
X138250000Y-148960000D03*
X138250000Y-151500000D03*
%TD*%
D11*
%TO.C,J17*%
X147250000Y-143880000D03*
D12*
X147250000Y-146420000D03*
X147250000Y-148960000D03*
X147250000Y-151500000D03*
%TD*%
D10*
%TO.C,*%
X164950000Y-107250000D03*
%TD*%
%TO.C,*%
X164950000Y-152775000D03*
%TD*%
%TO.C,*%
X164950000Y-87650000D03*
%TD*%
%TO.C,*%
X164950000Y-86575000D03*
%TD*%
%TO.C,*%
X164950000Y-148475000D03*
%TD*%
%TO.C,*%
X164950000Y-105100000D03*
%TD*%
%TO.C,*%
X164950000Y-109400000D03*
%TD*%
%TO.C,*%
X164950000Y-106175000D03*
%TD*%
%TO.C,*%
X164950000Y-107250000D03*
%TD*%
%TO.C,*%
X164950000Y-117700000D03*
%TD*%
%TO.C,*%
X164950000Y-85500000D03*
%TD*%
D11*
%TO.C,LS1*%
X160500000Y-125725000D03*
D12*
X160500000Y-128265000D03*
%TD*%
D11*
%TO.C,M2*%
X160500000Y-96500000D03*
D12*
X160500000Y-99040000D03*
X160500000Y-101580000D03*
%TD*%
D10*
%TO.C,*%
X164950000Y-119850000D03*
%TD*%
%TO.C,*%
X164950000Y-147400000D03*
%TD*%
%TO.C,*%
X164950000Y-151700000D03*
%TD*%
%TO.C,*%
X164950000Y-120925000D03*
%TD*%
%TO.C,*%
X164950000Y-149550000D03*
%TD*%
%TO.C,*%
X164950000Y-88725000D03*
%TD*%
%TO.C,*%
X164950000Y-118775000D03*
%TD*%
D11*
%TO.C,J13*%
X161800000Y-145010000D03*
D12*
X159260000Y-145010000D03*
X156720000Y-145010000D03*
X154180000Y-145010000D03*
%TD*%
D10*
%TO.C,*%
X164950000Y-152775000D03*
%TD*%
%TO.C,*%
X164950000Y-110475000D03*
%TD*%
%TO.C,*%
X164950000Y-108325000D03*
%TD*%
D11*
%TO.C,J1*%
X137610000Y-83000000D03*
D12*
X140150000Y-83000000D03*
X142690000Y-83000000D03*
X145230000Y-83000000D03*
X147770000Y-83000000D03*
X150310000Y-83000000D03*
X152850000Y-83000000D03*
X155390000Y-83000000D03*
%TD*%
D10*
%TO.C,*%
X164950000Y-124150000D03*
%TD*%
%TO.C,*%
X164950000Y-83350000D03*
%TD*%
%TO.C,*%
X164950000Y-119850000D03*
%TD*%
%TO.C,*%
X164950000Y-106175000D03*
%TD*%
D13*
%TO.C,J3*%
X168126000Y-111199000D03*
X168126000Y-110349000D03*
X168126000Y-109499000D03*
X168126000Y-108649000D03*
X168126000Y-107799000D03*
X168126000Y-106949000D03*
X168126000Y-106099000D03*
X168126000Y-105249000D03*
X169476000Y-105249000D03*
X169476000Y-106099000D03*
X169476000Y-106949000D03*
X169476000Y-107799000D03*
X169476000Y-108649000D03*
X169476000Y-109499000D03*
X169476000Y-110349000D03*
X169476000Y-111199000D03*
D14*
X169106000Y-112549000D03*
D15*
X172486000Y-112549000D03*
D14*
X169106000Y-103899000D03*
D15*
X172486000Y-103899000D03*
%TD*%
D10*
%TO.C,*%
X164950000Y-150625000D03*
%TD*%
%TO.C,*%
X164950000Y-146325000D03*
%TD*%
%TO.C,*%
X164950000Y-89800000D03*
%TD*%
D11*
%TO.C,J5*%
X175960000Y-117040000D03*
D12*
X173420000Y-117040000D03*
X170880000Y-117040000D03*
X168340000Y-117040000D03*
%TD*%
D10*
%TO.C,*%
X164950000Y-123075000D03*
%TD*%
%TO.C,*%
X164950000Y-148475000D03*
%TD*%
%TO.C,*%
X164950000Y-147400000D03*
%TD*%
%TO.C,*%
X164950000Y-149550000D03*
%TD*%
%TO.C,*%
X164950000Y-118775000D03*
%TD*%
D11*
%TO.C,M1*%
X160500000Y-106420000D03*
D12*
X160500000Y-108960000D03*
X160500000Y-111500000D03*
%TD*%
D10*
%TO.C,*%
X164950000Y-109400000D03*
%TD*%
%TO.C,*%
X164950000Y-110475000D03*
%TD*%
%TO.C,*%
X164950000Y-108325000D03*
%TD*%
D11*
%TO.C,J2*%
X160500000Y-91580000D03*
D12*
X160500000Y-89040000D03*
X160500000Y-86500000D03*
X160500000Y-83960000D03*
%TD*%
D10*
%TO.C,*%
X164950000Y-146325000D03*
%TD*%
%TO.C,*%
X164950000Y-123075000D03*
%TD*%
%TO.C,*%
X164950000Y-117700000D03*
%TD*%
%TO.C,*%
X164950000Y-122000000D03*
%TD*%
%TO.C,*%
X164950000Y-150625000D03*
%TD*%
%TO.C,*%
X164950000Y-151700000D03*
%TD*%
%TO.C,*%
X164950000Y-122000000D03*
%TD*%
D11*
%TO.C,J14*%
X133660000Y-138800000D03*
D12*
X133660000Y-141340000D03*
X133660000Y-143880000D03*
X133660000Y-146420000D03*
X133660000Y-148960000D03*
X133660000Y-151500000D03*
%TD*%
D10*
%TO.C,*%
X164950000Y-124150000D03*
%TD*%
%TO.C,*%
X164950000Y-111550000D03*
%TD*%
%TO.C,*%
X164950000Y-105100000D03*
%TD*%
D11*
%TO.C,J12*%
X168151000Y-82144000D03*
D12*
X168151000Y-84684000D03*
X168151000Y-87224000D03*
X168151000Y-89764000D03*
%TD*%
D10*
%TO.C,*%
X164950000Y-111550000D03*
%TD*%
D11*
%TO.C,J16*%
X142750000Y-143880000D03*
D12*
X142750000Y-146420000D03*
X142750000Y-148960000D03*
X142750000Y-151500000D03*
%TD*%
D16*
%TO.C,SW1*%
X140450000Y-128150000D03*
X140450000Y-130350000D03*
D17*
X143425000Y-134125000D03*
X145325000Y-134125000D03*
X147225000Y-134125000D03*
D16*
X150200000Y-130350000D03*
X150200000Y-128150000D03*
D17*
X147225000Y-124375000D03*
X145325000Y-124375000D03*
X143425000Y-124375000D03*
%TD*%
M02*
