%TF.GenerationSoftware,KiCad,Pcbnew,9.0.4*%
%TF.CreationDate,2025-12-17T09:45:10-05:00*%
%TF.ProjectId,TARS,54415253-2e6b-4696-9361-645f70636258,rev?*%
%TF.SameCoordinates,Original*%
%TF.FileFunction,Soldermask,Bot*%
%TF.FilePolarity,Negative*%
%FSLAX46Y46*%
G04 Gerber Fmt 4.6, Leading zero omitted, Abs format (unit mm)*
G04 Created by KiCad (PCBNEW 9.0.4) date 2025-12-17 09:45:10*
%MOMM*%
%LPD*%
G01*
G04 APERTURE LIST*
G04 Aperture macros list*
%AMRoundRect*
0 Rectangle with rounded corners*
0 $1 Rounding radius*
0 $2 $3 $4 $5 $6 $7 $8 $9 X,Y pos of 4 corners*
0 Add a 4 corners polygon primitive as box body*
4,1,4,$2,$3,$4,$5,$6,$7,$8,$9,$2,$3,0*
0 Add four circle primitives for the rounded corners*
1,1,$1+$1,$2,$3*
1,1,$1+$1,$4,$5*
1,1,$1+$1,$6,$7*
1,1,$1+$1,$8,$9*
0 Add four rect primitives between the rounded corners*
20,1,$1+$1,$2,$3,$4,$5,0*
20,1,$1+$1,$4,$5,$6,$7,0*
20,1,$1+$1,$6,$7,$8,$9,0*
20,1,$1+$1,$8,$9,$2,$3,0*%
G04 Aperture macros list end*
%ADD10RoundRect,0.150000X0.088388X-0.583363X0.583363X-0.088388X-0.088388X0.583363X-0.583363X0.088388X0*%
%ADD11RoundRect,0.150000X-0.583363X-0.088388X-0.088388X-0.583363X0.583363X0.088388X0.088388X0.583363X0*%
%ADD12C,0.500000*%
%ADD13R,1.700000X1.700000*%
%ADD14C,1.700000*%
%ADD15C,0.700000*%
%ADD16O,2.400000X0.900000*%
%ADD17O,1.700000X0.900000*%
G04 APERTURE END LIST*
D10*
%TO.C,SW1*%
X151540648Y-130559074D03*
X150197145Y-131902577D03*
X148853643Y-133246080D03*
D11*
X144080672Y-132680394D03*
X142525037Y-131124759D03*
D10*
X141959351Y-126351788D03*
X143302854Y-125008286D03*
X144646357Y-123664783D03*
D11*
X149419328Y-124230468D03*
X150974963Y-125786103D03*
%TD*%
D12*
%TO.C,mouse-bite-2mm-slot*%
X164000000Y-106250000D03*
X165500000Y-106250000D03*
X164000000Y-105500000D03*
X165500000Y-105500000D03*
X164000000Y-104750000D03*
X165500000Y-104750000D03*
%TD*%
D13*
%TO.C,J11*%
X160500000Y-121000000D03*
D14*
X160500000Y-118460000D03*
X160500000Y-115920000D03*
%TD*%
D13*
%TO.C,J15*%
X138250000Y-138800000D03*
D14*
X138250000Y-141340000D03*
X138250000Y-143880000D03*
X138250000Y-146420000D03*
X138250000Y-148960000D03*
X138250000Y-151500000D03*
%TD*%
D13*
%TO.C,J17*%
X147250000Y-143880000D03*
D14*
X147250000Y-146420000D03*
X147250000Y-148960000D03*
X147250000Y-151500000D03*
%TD*%
D12*
%TO.C,mouse-bite-2mm-slot*%
X164000000Y-122750000D03*
X165500000Y-122750000D03*
X164000000Y-122000000D03*
X165500000Y-122000000D03*
X164000000Y-121250000D03*
X165500000Y-121250000D03*
%TD*%
D13*
%TO.C,LS1*%
X160500000Y-125725000D03*
D14*
X160500000Y-128265000D03*
%TD*%
D13*
%TO.C,M2*%
X160500000Y-96500000D03*
D14*
X160500000Y-99040000D03*
X160500000Y-101580000D03*
%TD*%
D13*
%TO.C,J13*%
X161800000Y-145010000D03*
D14*
X159260000Y-145010000D03*
X156720000Y-145010000D03*
X154180000Y-145010000D03*
%TD*%
D13*
%TO.C,J1*%
X137610000Y-83000000D03*
D14*
X140150000Y-83000000D03*
X142690000Y-83000000D03*
X145230000Y-83000000D03*
X147770000Y-83000000D03*
X150310000Y-83000000D03*
X152850000Y-83000000D03*
X155390000Y-83000000D03*
%TD*%
D15*
%TO.C,J3*%
X167726000Y-111725000D03*
X167726000Y-110875000D03*
X167726000Y-110025000D03*
X167726000Y-109175000D03*
X167726000Y-108325000D03*
X167726000Y-107475000D03*
X167726000Y-106625000D03*
X167726000Y-105775000D03*
X169076000Y-105775000D03*
X169076000Y-106625000D03*
X169076000Y-107475000D03*
X169076000Y-108325000D03*
X169076000Y-109175000D03*
X169076000Y-110025000D03*
X169076000Y-110875000D03*
X169076000Y-111725000D03*
D16*
X168706000Y-113075000D03*
D17*
X172086000Y-113075000D03*
D16*
X168706000Y-104425000D03*
D17*
X172086000Y-104425000D03*
%TD*%
D13*
%TO.C,J5*%
X175560000Y-117566000D03*
D14*
X173020000Y-117566000D03*
X170480000Y-117566000D03*
X167940000Y-117566000D03*
%TD*%
D13*
%TO.C,M1*%
X160500000Y-106420000D03*
D14*
X160500000Y-108960000D03*
X160500000Y-111500000D03*
%TD*%
D12*
%TO.C,mouse-bite-2mm-slot*%
X164000000Y-84500000D03*
X165500000Y-84500000D03*
X164000000Y-83750000D03*
X165500000Y-83750000D03*
X164000000Y-83000000D03*
X165500000Y-83000000D03*
%TD*%
D13*
%TO.C,J2*%
X160500000Y-91580000D03*
D14*
X160500000Y-89040000D03*
X160500000Y-86500000D03*
X160500000Y-83960000D03*
%TD*%
D12*
%TO.C,mouse-bite-2mm-slot*%
X164000000Y-151000000D03*
X165500000Y-151000000D03*
X164000000Y-150250000D03*
X165500000Y-150250000D03*
X164000000Y-149500000D03*
X165500000Y-149500000D03*
%TD*%
D13*
%TO.C,J14*%
X133660000Y-138800000D03*
D14*
X133660000Y-141340000D03*
X133660000Y-143880000D03*
X133660000Y-146420000D03*
X133660000Y-148960000D03*
X133660000Y-151500000D03*
%TD*%
D13*
%TO.C,J12*%
X167751000Y-82670000D03*
D14*
X167751000Y-85210000D03*
X167751000Y-87750000D03*
X167751000Y-90290000D03*
%TD*%
D13*
%TO.C,J16*%
X142750000Y-143880000D03*
D14*
X142750000Y-146420000D03*
X142750000Y-148960000D03*
X142750000Y-151500000D03*
%TD*%
M02*
