%TF.GenerationSoftware,KiCad,Pcbnew,9.0.4*%
%TF.CreationDate,2025-12-16T11:42:33-05:00*%
%TF.ProjectId,TARS,54415253-2e6b-4696-9361-645f70636258,rev?*%
%TF.SameCoordinates,Original*%
%TF.FileFunction,Legend,Bot*%
%TF.FilePolarity,Positive*%
%FSLAX46Y46*%
G04 Gerber Fmt 4.6, Leading zero omitted, Abs format (unit mm)*
G04 Created by KiCad (PCBNEW 9.0.4) date 2025-12-16 11:42:33*
%MOMM*%
%LPD*%
G01*
G04 APERTURE LIST*
%ADD10C,0.150000*%
%ADD11C,0.120000*%
G04 APERTURE END LIST*
D10*
X136666667Y-128592800D02*
X136809524Y-128545180D01*
X136809524Y-128545180D02*
X137047619Y-128545180D01*
X137047619Y-128545180D02*
X137142857Y-128592800D01*
X137142857Y-128592800D02*
X137190476Y-128640419D01*
X137190476Y-128640419D02*
X137238095Y-128735657D01*
X137238095Y-128735657D02*
X137238095Y-128830895D01*
X137238095Y-128830895D02*
X137190476Y-128926133D01*
X137190476Y-128926133D02*
X137142857Y-128973752D01*
X137142857Y-128973752D02*
X137047619Y-129021371D01*
X137047619Y-129021371D02*
X136857143Y-129068990D01*
X136857143Y-129068990D02*
X136761905Y-129116609D01*
X136761905Y-129116609D02*
X136714286Y-129164228D01*
X136714286Y-129164228D02*
X136666667Y-129259466D01*
X136666667Y-129259466D02*
X136666667Y-129354704D01*
X136666667Y-129354704D02*
X136714286Y-129449942D01*
X136714286Y-129449942D02*
X136761905Y-129497561D01*
X136761905Y-129497561D02*
X136857143Y-129545180D01*
X136857143Y-129545180D02*
X137095238Y-129545180D01*
X137095238Y-129545180D02*
X137238095Y-129497561D01*
X137571429Y-129545180D02*
X137809524Y-128545180D01*
X137809524Y-128545180D02*
X138000000Y-129259466D01*
X138000000Y-129259466D02*
X138190476Y-128545180D01*
X138190476Y-128545180D02*
X138428572Y-129545180D01*
X139333333Y-128545180D02*
X138761905Y-128545180D01*
X139047619Y-128545180D02*
X139047619Y-129545180D01*
X139047619Y-129545180D02*
X138952381Y-129402323D01*
X138952381Y-129402323D02*
X138857143Y-129307085D01*
X138857143Y-129307085D02*
X138761905Y-129259466D01*
D11*
%TO.C,SW1*%
X140500000Y-128162500D02*
X142000000Y-128162500D01*
X140525000Y-130337500D02*
X142025000Y-130337500D01*
X142450000Y-128037500D02*
X143125000Y-127612500D01*
X142475000Y-130462500D02*
X143150000Y-130887500D01*
X143425000Y-127962500D02*
X143425000Y-124387500D01*
X143450000Y-130537500D02*
X143450000Y-134112500D01*
X145300000Y-130112500D02*
X144550000Y-128300000D01*
X145350000Y-127937500D02*
X145350000Y-124362500D01*
X145375000Y-130512500D02*
X145375000Y-134087500D01*
X147250000Y-130525000D02*
X147250000Y-134100000D01*
X147275000Y-127950000D02*
X147275000Y-124375000D01*
X148225000Y-130450000D02*
X147550000Y-130875000D01*
X148250000Y-128025000D02*
X147575000Y-127600000D01*
X150175000Y-130325000D02*
X148675000Y-130325000D01*
X150200000Y-128150000D02*
X148700000Y-128150000D01*
X150200000Y-124375000D02*
X140450000Y-124375000D01*
X140450000Y-134125000D01*
X150200000Y-134125000D01*
X150200000Y-124375000D01*
X142450000Y-128162500D02*
G75*
G02*
X142050000Y-128162500I-200000J0D01*
G01*
X142050000Y-128162500D02*
G75*
G02*
X142450000Y-128162500I200000J0D01*
G01*
X142475000Y-130337500D02*
G75*
G02*
X142075000Y-130337500I-200000J0D01*
G01*
X142075000Y-130337500D02*
G75*
G02*
X142475000Y-130337500I200000J0D01*
G01*
X143625000Y-128162500D02*
G75*
G02*
X143225000Y-128162500I-200000J0D01*
G01*
X143225000Y-128162500D02*
G75*
G02*
X143625000Y-128162500I200000J0D01*
G01*
X143650000Y-130337500D02*
G75*
G02*
X143250000Y-130337500I-200000J0D01*
G01*
X143250000Y-130337500D02*
G75*
G02*
X143650000Y-130337500I200000J0D01*
G01*
X145550000Y-128137500D02*
G75*
G02*
X145150000Y-128137500I-200000J0D01*
G01*
X145150000Y-128137500D02*
G75*
G02*
X145550000Y-128137500I200000J0D01*
G01*
X145575000Y-130312500D02*
G75*
G02*
X145175000Y-130312500I-200000J0D01*
G01*
X145175000Y-130312500D02*
G75*
G02*
X145575000Y-130312500I200000J0D01*
G01*
X147450000Y-130325000D02*
G75*
G02*
X147050000Y-130325000I-200000J0D01*
G01*
X147050000Y-130325000D02*
G75*
G02*
X147450000Y-130325000I200000J0D01*
G01*
X147475000Y-128150000D02*
G75*
G02*
X147075000Y-128150000I-200000J0D01*
G01*
X147075000Y-128150000D02*
G75*
G02*
X147475000Y-128150000I200000J0D01*
G01*
X148625000Y-130325000D02*
G75*
G02*
X148225000Y-130325000I-200000J0D01*
G01*
X148225000Y-130325000D02*
G75*
G02*
X148625000Y-130325000I200000J0D01*
G01*
X148650000Y-128150000D02*
G75*
G02*
X148250000Y-128150000I-200000J0D01*
G01*
X148250000Y-128150000D02*
G75*
G02*
X148650000Y-128150000I200000J0D01*
G01*
%TD*%
M02*
