M48
; DRILL file {KiCad 9.0.4} date 2025-12-16T10:37:19-0500
; FORMAT={-:-/ absolute / metric / decimal}
; #@! TF.CreationDate,2025-12-16T10:37:19-05:00
; #@! TF.GenerationSoftware,Kicad,Pcbnew,9.0.4
; #@! TF.FileFunction,Plated,1,2,PTH
FMAT,2
METRIC
; #@! TA.AperFunction,Plated,PTH,ComponentDrill
T1C0.200
; #@! TA.AperFunction,Plated,PTH,ViaDrill
T2C0.300
; #@! TA.AperFunction,Plated,PTH,ComponentDrill
T3C0.400
; #@! TA.AperFunction,Plated,PTH,ComponentDrill
T4C0.500
; #@! TA.AperFunction,Plated,PTH,ComponentDrill
T5C0.600
; #@! TA.AperFunction,Plated,PTH,ComponentDrill
T6C1.000
%
G90
G05
T1
X144.06Y-110.895
X144.06Y-112.295
X144.76Y-110.195
X144.76Y-111.595
X144.76Y-112.995
X145.46Y-110.895
X145.46Y-112.295
X146.16Y-110.195
X146.16Y-111.595
X146.16Y-112.995
X146.86Y-110.895
X146.86Y-112.295
T2
X131.0Y-135.25
X133.75Y-136.5
X137.74Y-101.345
X138.0Y-94.0
X138.5Y-104.5
X138.75Y-103.0
X138.75Y-122.0
X139.5Y-122.5
X140.25Y-116.25
X141.25Y-112.0
X141.25Y-121.75
X142.25Y-112.0
X142.25Y-114.5
X142.25Y-121.5
X142.5Y-122.5
X143.117Y-113.855
X143.425Y-124.375
X143.75Y-121.75
X144.25Y-92.5
X144.25Y-117.25
X144.41Y-101.222
X144.5Y-122.5
X145.325Y-124.375
X145.36Y-101.345
X146.63Y-101.345
X146.75Y-117.25
X147.225Y-124.375
X147.9Y-101.345
X149.25Y-93.25
X149.25Y-118.75
X149.75Y-112.0
X150.2Y-130.35
X150.44Y-118.845
X150.75Y-110.5
X151.75Y-111.25
X152.0Y-117.5
X152.75Y-105.0
X152.75Y-116.75
X153.0Y-120.75
X153.75Y-132.75
X153.75Y-136.0
X154.0Y-113.0
X154.0Y-114.75
X154.25Y-120.75
X154.25Y-132.0
X155.5Y-90.0
X155.75Y-124.0
X156.5Y-120.5
X156.95Y-127.75
X157.0Y-123.25
X157.5Y-110.0
X159.25Y-135.25
X162.5Y-121.5
X162.75Y-143.0
X162.75Y-147.25
X170.9Y-137.54
X170.9Y-140.54
X171.826Y-102.174
X171.826Y-105.174
T3
X168.126Y-105.249
X168.126Y-106.099
X168.126Y-106.949
X168.126Y-107.799
X168.126Y-108.649
X168.126Y-109.499
X168.126Y-110.349
X168.126Y-111.199
X169.476Y-105.249
X169.476Y-106.099
X169.476Y-106.949
X169.476Y-107.799
X169.476Y-108.649
X169.476Y-109.499
X169.476Y-110.349
X169.476Y-111.199
T4
X164.95Y-83.35
X164.95Y-84.425
X164.95Y-85.5
X164.95Y-86.575
X164.95Y-87.65
X164.95Y-88.725
X164.95Y-89.8
X164.95Y-105.1
X164.95Y-105.1
X164.95Y-106.175
X164.95Y-106.175
X164.95Y-107.25
X164.95Y-107.25
X164.95Y-108.325
X164.95Y-108.325
X164.95Y-109.4
X164.95Y-109.4
X164.95Y-110.475
X164.95Y-110.475
X164.95Y-111.55
X164.95Y-111.55
X164.95Y-117.7
X164.95Y-117.7
X164.95Y-118.775
X164.95Y-118.775
X164.95Y-119.85
X164.95Y-119.85
X164.95Y-120.925
X164.95Y-120.925
X164.95Y-122.0
X164.95Y-122.0
X164.95Y-123.075
X164.95Y-123.075
X164.95Y-124.15
X164.95Y-124.15
X164.95Y-146.325
X164.95Y-146.325
X164.95Y-147.4
X164.95Y-147.4
X164.95Y-148.475
X164.95Y-148.475
X164.95Y-149.55
X164.95Y-149.55
X164.95Y-150.625
X164.95Y-150.625
X164.95Y-151.7
X164.95Y-151.7
X164.95Y-152.775
X164.95Y-152.775
T6
X133.66Y-138.8
X133.66Y-141.34
X133.66Y-143.88
X133.66Y-146.42
X133.66Y-148.96
X133.66Y-151.5
X137.61Y-83.0
X138.25Y-138.8
X138.25Y-141.34
X138.25Y-143.88
X138.25Y-146.42
X138.25Y-148.96
X138.25Y-151.5
X140.15Y-83.0
X142.69Y-83.0
X142.75Y-143.88
X142.75Y-146.42
X142.75Y-148.96
X142.75Y-151.5
X145.23Y-83.0
X147.25Y-143.88
X147.25Y-146.42
X147.25Y-148.96
X147.25Y-151.5
X147.77Y-83.0
X150.31Y-83.0
X152.85Y-83.0
X154.18Y-145.01
X155.39Y-83.0
X156.72Y-145.01
X159.26Y-145.01
X160.5Y-83.96
X160.5Y-86.5
X160.5Y-89.04
X160.5Y-91.58
X160.5Y-96.5
X160.5Y-99.04
X160.5Y-101.58
X160.5Y-106.42
X160.5Y-108.96
X160.5Y-111.5
X160.5Y-115.92
X160.5Y-118.46
X160.5Y-121.0
X160.5Y-125.725
X160.5Y-128.265
X161.8Y-145.01
X168.151Y-82.144
X168.151Y-84.684
X168.151Y-87.224
X168.151Y-89.764
X168.34Y-117.04
X170.88Y-117.04
X173.42Y-117.04
X175.96Y-117.04
T5
X168.356Y-103.899G85X169.856Y-103.899
G05
X168.356Y-112.549G85X169.856Y-112.549
G05
X172.086Y-103.899G85X172.886Y-103.899
G05
X172.086Y-112.549G85X172.886Y-112.549
G05
M30
