%TF.GenerationSoftware,KiCad,Pcbnew,9.0.4*%
%TF.CreationDate,2025-12-16T11:42:33-05:00*%
%TF.ProjectId,TARS,54415253-2e6b-4696-9361-645f70636258,rev?*%
%TF.SameCoordinates,Original*%
%TF.FileFunction,Soldermask,Top*%
%TF.FilePolarity,Negative*%
%FSLAX46Y46*%
G04 Gerber Fmt 4.6, Leading zero omitted, Abs format (unit mm)*
G04 Created by KiCad (PCBNEW 9.0.4) date 2025-12-16 11:42:33*
%MOMM*%
%LPD*%
G01*
G04 APERTURE LIST*
G04 Aperture macros list*
%AMRoundRect*
0 Rectangle with rounded corners*
0 $1 Rounding radius*
0 $2 $3 $4 $5 $6 $7 $8 $9 X,Y pos of 4 corners*
0 Add a 4 corners polygon primitive as box body*
4,1,4,$2,$3,$4,$5,$6,$7,$8,$9,$2,$3,0*
0 Add four circle primitives for the rounded corners*
1,1,$1+$1,$2,$3*
1,1,$1+$1,$4,$5*
1,1,$1+$1,$6,$7*
1,1,$1+$1,$8,$9*
0 Add four rect primitives between the rounded corners*
20,1,$1+$1,$2,$3,$4,$5,0*
20,1,$1+$1,$4,$5,$6,$7,0*
20,1,$1+$1,$6,$7,$8,$9,0*
20,1,$1+$1,$8,$9,$2,$3,0*%
G04 Aperture macros list end*
%ADD10RoundRect,0.243750X0.456250X-0.243750X0.456250X0.243750X-0.456250X0.243750X-0.456250X-0.243750X0*%
%ADD11RoundRect,0.243750X-0.456250X0.243750X-0.456250X-0.243750X0.456250X-0.243750X0.456250X0.243750X0*%
%ADD12C,0.500000*%
%ADD13R,1.700000X1.700000*%
%ADD14C,1.700000*%
%ADD15RoundRect,0.250000X0.475000X-0.250000X0.475000X0.250000X-0.475000X0.250000X-0.475000X-0.250000X0*%
%ADD16RoundRect,0.250000X-0.262500X-0.450000X0.262500X-0.450000X0.262500X0.450000X-0.262500X0.450000X0*%
%ADD17R,0.900000X1.500000*%
%ADD18R,1.500000X0.900000*%
%ADD19C,0.600000*%
%ADD20R,3.900000X3.900000*%
%ADD21RoundRect,0.250000X-0.250000X-0.475000X0.250000X-0.475000X0.250000X0.475000X-0.250000X0.475000X0*%
%ADD22C,0.700000*%
%ADD23O,2.400000X0.900000*%
%ADD24O,1.700000X0.900000*%
%ADD25RoundRect,0.150000X0.512500X0.150000X-0.512500X0.150000X-0.512500X-0.150000X0.512500X-0.150000X0*%
%ADD26RoundRect,0.250000X0.250000X-1.150000X0.250000X1.150000X-0.250000X1.150000X-0.250000X-1.150000X0*%
%ADD27RoundRect,0.250000X0.450000X-0.262500X0.450000X0.262500X-0.450000X0.262500X-0.450000X-0.262500X0*%
%ADD28RoundRect,0.250000X-0.250000X1.150000X-0.250000X-1.150000X0.250000X-1.150000X0.250000X1.150000X0*%
%ADD29RoundRect,0.250000X-0.475000X0.250000X-0.475000X-0.250000X0.475000X-0.250000X0.475000X0.250000X0*%
%ADD30RoundRect,0.062500X0.350000X0.062500X-0.350000X0.062500X-0.350000X-0.062500X0.350000X-0.062500X0*%
%ADD31RoundRect,0.062500X0.062500X0.350000X-0.062500X0.350000X-0.062500X-0.350000X0.062500X-0.350000X0*%
%ADD32R,1.230000X1.230000*%
%ADD33RoundRect,0.250000X-0.450000X0.262500X-0.450000X-0.262500X0.450000X-0.262500X0.450000X0.262500X0*%
G04 APERTURE END LIST*
D10*
%TO.C,D1*%
X175920000Y-155253500D03*
X175920000Y-153378500D03*
%TD*%
D11*
%TO.C,D10*%
X172233000Y-124479500D03*
X172233000Y-126354500D03*
%TD*%
D12*
%TO.C,mouse-bite-2mm-slot*%
X164000000Y-106250000D03*
X165500000Y-106250000D03*
X164000000Y-105500000D03*
X165500000Y-105500000D03*
X164000000Y-104750000D03*
X165500000Y-104750000D03*
%TD*%
D13*
%TO.C,J11*%
X160500000Y-121000000D03*
D14*
X160500000Y-118460000D03*
X160500000Y-115920000D03*
%TD*%
D13*
%TO.C,J15*%
X138250000Y-138800000D03*
D14*
X138250000Y-141340000D03*
X138250000Y-143880000D03*
X138250000Y-146420000D03*
X138250000Y-148960000D03*
X138250000Y-151500000D03*
%TD*%
D13*
%TO.C,J17*%
X147250000Y-143880000D03*
D14*
X147250000Y-146420000D03*
X147250000Y-148960000D03*
X147250000Y-151500000D03*
%TD*%
D15*
%TO.C,C7*%
X152010000Y-98500000D03*
X152010000Y-96600000D03*
%TD*%
D16*
%TO.C,R15*%
X167926000Y-97750000D03*
X169751000Y-97750000D03*
%TD*%
D17*
%TO.C,U1*%
X137740000Y-118845000D03*
X139010000Y-118845000D03*
X140280000Y-118845000D03*
X141550000Y-118845000D03*
X142820000Y-118845000D03*
X144090000Y-118845000D03*
X145360000Y-118845000D03*
X146630000Y-118845000D03*
X147900000Y-118845000D03*
X149170000Y-118845000D03*
X150440000Y-118845000D03*
X151710000Y-118845000D03*
X152980000Y-118845000D03*
X154250000Y-118845000D03*
D18*
X155500000Y-117080000D03*
X155500000Y-115810000D03*
X155500000Y-114540000D03*
X155500000Y-113270000D03*
X155500000Y-112000000D03*
X155500000Y-110730000D03*
X155500000Y-109460000D03*
X155500000Y-108190000D03*
X155500000Y-106920000D03*
X155500000Y-105650000D03*
X155500000Y-104380000D03*
X155500000Y-103110000D03*
D17*
X154250000Y-101345000D03*
X152980000Y-101345000D03*
X151710000Y-101345000D03*
X150440000Y-101345000D03*
X149170000Y-101345000D03*
X147900000Y-101345000D03*
X146630000Y-101345000D03*
X145360000Y-101345000D03*
X144090000Y-101345000D03*
X142820000Y-101345000D03*
X141550000Y-101345000D03*
X140280000Y-101345000D03*
X139010000Y-101345000D03*
X137740000Y-101345000D03*
D19*
X144760000Y-112995000D03*
X146160000Y-112995000D03*
X144060000Y-112295000D03*
X145460000Y-112295000D03*
X146860000Y-112295000D03*
X144760000Y-111595000D03*
D20*
X145460000Y-111595000D03*
D19*
X146160000Y-111595000D03*
X144060000Y-110895000D03*
X145460000Y-110895000D03*
X146860000Y-110895000D03*
X144760000Y-110195000D03*
X146160000Y-110195000D03*
%TD*%
D12*
%TO.C,mouse-bite-2mm-slot*%
X164000000Y-122750000D03*
X165500000Y-122750000D03*
X164000000Y-122000000D03*
X165500000Y-122000000D03*
X164000000Y-121250000D03*
X165500000Y-121250000D03*
%TD*%
D21*
%TO.C,C3*%
X155050000Y-126000000D03*
X156950000Y-126000000D03*
%TD*%
D13*
%TO.C,LS1*%
X160500000Y-125725000D03*
D14*
X160500000Y-128265000D03*
%TD*%
D15*
%TO.C,C5*%
X145990000Y-98500000D03*
X145990000Y-96600000D03*
%TD*%
D13*
%TO.C,M2*%
X160500000Y-96500000D03*
D14*
X160500000Y-99040000D03*
X160500000Y-101580000D03*
%TD*%
D11*
%TO.C,D5*%
X175900000Y-140086500D03*
X175900000Y-141961500D03*
%TD*%
D13*
%TO.C,J13*%
X161800000Y-145010000D03*
D14*
X159260000Y-145010000D03*
X156720000Y-145010000D03*
X154180000Y-145010000D03*
%TD*%
D10*
%TO.C,D11*%
X172233000Y-122647500D03*
X172233000Y-120772500D03*
%TD*%
D11*
%TO.C,D2*%
X172234000Y-149712500D03*
X172234000Y-151587500D03*
%TD*%
D13*
%TO.C,J1*%
X137610000Y-83000000D03*
D14*
X140150000Y-83000000D03*
X142690000Y-83000000D03*
X145230000Y-83000000D03*
X147770000Y-83000000D03*
X150310000Y-83000000D03*
X152850000Y-83000000D03*
X155390000Y-83000000D03*
%TD*%
D15*
%TO.C,C1*%
X158750000Y-141250000D03*
X158750000Y-139350000D03*
%TD*%
%TO.C,C6*%
X149000000Y-98500000D03*
X149000000Y-96600000D03*
%TD*%
D10*
%TO.C,D9*%
X175900000Y-126334500D03*
X175900000Y-124459500D03*
%TD*%
D22*
%TO.C,J3*%
X167726000Y-111725000D03*
X167726000Y-110875000D03*
X167726000Y-110025000D03*
X167726000Y-109175000D03*
X167726000Y-108325000D03*
X167726000Y-107475000D03*
X167726000Y-106625000D03*
X167726000Y-105775000D03*
X169076000Y-105775000D03*
X169076000Y-106625000D03*
X169076000Y-107475000D03*
X169076000Y-108325000D03*
X169076000Y-109175000D03*
X169076000Y-110025000D03*
X169076000Y-110875000D03*
X169076000Y-111725000D03*
D23*
X168706000Y-113075000D03*
D24*
X172086000Y-113075000D03*
D23*
X168706000Y-104425000D03*
D24*
X172086000Y-104425000D03*
%TD*%
D16*
%TO.C,R4*%
X141925000Y-139500000D03*
X143750000Y-139500000D03*
%TD*%
D13*
%TO.C,J5*%
X175560000Y-117566000D03*
D14*
X173020000Y-117566000D03*
X170480000Y-117566000D03*
X167940000Y-117566000D03*
%TD*%
D21*
%TO.C,C4*%
X155050000Y-129500000D03*
X156950000Y-129500000D03*
%TD*%
D25*
%TO.C,U2*%
X156500000Y-141150000D03*
X156500000Y-140200000D03*
X156500000Y-139250000D03*
X154225000Y-139250000D03*
X154225000Y-141150000D03*
%TD*%
D26*
%TO.C,SW6*%
X138000000Y-96900000D03*
X138000000Y-91100000D03*
X142000000Y-96900000D03*
X142000000Y-91100000D03*
%TD*%
D13*
%TO.C,M1*%
X160500000Y-106420000D03*
D14*
X160500000Y-108960000D03*
X160500000Y-111500000D03*
%TD*%
D11*
%TO.C,D4*%
X172234000Y-143732500D03*
X172234000Y-145607500D03*
%TD*%
D27*
%TO.C,R2*%
X161250000Y-141250000D03*
X161250000Y-139425000D03*
%TD*%
%TO.C,R1*%
X145990000Y-92962500D03*
X145990000Y-91137500D03*
%TD*%
D11*
%TO.C,D12*%
X168566000Y-120812500D03*
X168566000Y-122687500D03*
%TD*%
D12*
%TO.C,mouse-bite-2mm-slot*%
X164000000Y-84500000D03*
X165500000Y-84500000D03*
X164000000Y-83750000D03*
X165500000Y-83750000D03*
X164000000Y-83000000D03*
X165500000Y-83000000D03*
%TD*%
D16*
%TO.C,R5*%
X146425000Y-139500000D03*
X148250000Y-139500000D03*
%TD*%
D13*
%TO.C,J2*%
X160500000Y-91580000D03*
D14*
X160500000Y-89040000D03*
X160500000Y-86500000D03*
X160500000Y-83960000D03*
%TD*%
D11*
%TO.C,D6*%
X168568000Y-140086500D03*
X168568000Y-141961500D03*
%TD*%
D28*
%TO.C,SW5*%
X155500000Y-87100000D03*
X155500000Y-92900000D03*
X151500000Y-87100000D03*
X151500000Y-92900000D03*
%TD*%
D10*
%TO.C,D3*%
X168567000Y-151587500D03*
X168567000Y-149712500D03*
%TD*%
D29*
%TO.C,C8*%
X148490000Y-91100000D03*
X148490000Y-93000000D03*
%TD*%
D30*
%TO.C,U3*%
X158000000Y-134500000D03*
X158000000Y-134000000D03*
X158000000Y-133500000D03*
X158000000Y-133000000D03*
D31*
X157312500Y-132312500D03*
X156812500Y-132312500D03*
X156312500Y-132312500D03*
X155812500Y-132312500D03*
D30*
X155125000Y-133000000D03*
X155125000Y-133500000D03*
X155125000Y-134000000D03*
X155125000Y-134500000D03*
D31*
X155812500Y-135187500D03*
X156312500Y-135187500D03*
X156812500Y-135187500D03*
X157312500Y-135187500D03*
D32*
X156562500Y-133750000D03*
%TD*%
D15*
%TO.C,C2*%
X152000000Y-141250000D03*
X152000000Y-139350000D03*
%TD*%
D12*
%TO.C,mouse-bite-2mm-slot*%
X164000000Y-151000000D03*
X165500000Y-151000000D03*
X164000000Y-150250000D03*
X165500000Y-150250000D03*
X164000000Y-149500000D03*
X165500000Y-149500000D03*
%TD*%
D13*
%TO.C,J14*%
X133660000Y-138800000D03*
D14*
X133660000Y-141340000D03*
X133660000Y-143880000D03*
X133660000Y-146420000D03*
X133660000Y-148960000D03*
X133660000Y-151500000D03*
%TD*%
D16*
%TO.C,R16*%
X167926000Y-100700000D03*
X169751000Y-100700000D03*
%TD*%
D10*
%TO.C,D8*%
X175900000Y-132314500D03*
X175900000Y-130439500D03*
%TD*%
D11*
%TO.C,D7*%
X172234000Y-140085500D03*
X172234000Y-141960500D03*
%TD*%
D13*
%TO.C,J12*%
X167751000Y-82670000D03*
D14*
X167751000Y-85210000D03*
X167751000Y-87750000D03*
X167751000Y-90290000D03*
%TD*%
D33*
%TO.C,R3*%
X160872500Y-132897500D03*
X160872500Y-134722500D03*
%TD*%
D13*
%TO.C,J16*%
X142750000Y-143880000D03*
D14*
X142750000Y-146420000D03*
X142750000Y-148960000D03*
X142750000Y-151500000D03*
%TD*%
M02*
