%TF.GenerationSoftware,KiCad,Pcbnew,9.0.4*%
%TF.CreationDate,2025-12-17T09:45:10-05:00*%
%TF.ProjectId,TARS,54415253-2e6b-4696-9361-645f70636258,rev?*%
%TF.SameCoordinates,Original*%
%TF.FileFunction,Legend,Bot*%
%TF.FilePolarity,Positive*%
%FSLAX46Y46*%
G04 Gerber Fmt 4.6, Leading zero omitted, Abs format (unit mm)*
G04 Created by KiCad (PCBNEW 9.0.4) date 2025-12-17 09:45:10*
%MOMM*%
%LPD*%
G01*
G04 APERTURE LIST*
%ADD10C,0.150000*%
%ADD11C,0.120000*%
G04 APERTURE END LIST*
D10*
X153337076Y-122797776D02*
X153269733Y-122932463D01*
X153269733Y-122932463D02*
X153101374Y-123100821D01*
X153101374Y-123100821D02*
X153000359Y-123134493D01*
X153000359Y-123134493D02*
X152933015Y-123134493D01*
X152933015Y-123134493D02*
X152832000Y-123100821D01*
X152832000Y-123100821D02*
X152764656Y-123033478D01*
X152764656Y-123033478D02*
X152730985Y-122932463D01*
X152730985Y-122932463D02*
X152730985Y-122865119D01*
X152730985Y-122865119D02*
X152764656Y-122764104D01*
X152764656Y-122764104D02*
X152865672Y-122595745D01*
X152865672Y-122595745D02*
X152899343Y-122494730D01*
X152899343Y-122494730D02*
X152899343Y-122427386D01*
X152899343Y-122427386D02*
X152865672Y-122326371D01*
X152865672Y-122326371D02*
X152798328Y-122259028D01*
X152798328Y-122259028D02*
X152697313Y-122225356D01*
X152697313Y-122225356D02*
X152629969Y-122225356D01*
X152629969Y-122225356D02*
X152528954Y-122259028D01*
X152528954Y-122259028D02*
X152360595Y-122427386D01*
X152360595Y-122427386D02*
X152293252Y-122562073D01*
X152023878Y-122764104D02*
X152562626Y-123639570D01*
X152562626Y-123639570D02*
X151922862Y-123269180D01*
X151922862Y-123269180D02*
X152293252Y-123908944D01*
X152293252Y-123908944D02*
X151417786Y-123370196D01*
X151485130Y-124717065D02*
X151889191Y-124313004D01*
X151687160Y-124515035D02*
X150980054Y-123807928D01*
X150980054Y-123807928D02*
X151148412Y-123841600D01*
X151148412Y-123841600D02*
X151283099Y-123841600D01*
X151283099Y-123841600D02*
X151384115Y-123807928D01*
D11*
%TO.C,SW1*%
X145518110Y-131442957D02*
G75*
G02*
X145118108Y-131442957I-200001J0D01*
G01*
X145118108Y-131442957D02*
G75*
G02*
X145518110Y-131442957I200001J0D01*
G01*
X143997829Y-129887322D02*
G75*
G02*
X143597829Y-129887322I-200000J0D01*
G01*
X143597829Y-129887322D02*
G75*
G02*
X143997829Y-129887322I200000J0D01*
G01*
X146348958Y-130612107D02*
G75*
G02*
X145948960Y-130612107I-199999J0D01*
G01*
X145948960Y-130612107D02*
G75*
G02*
X146348958Y-130612107I199999J0D01*
G01*
X144828680Y-129056472D02*
G75*
G02*
X144428680Y-129056472I-200000J0D01*
G01*
X144428680Y-129056472D02*
G75*
G02*
X144828680Y-129056472I200000J0D01*
G01*
X146163343Y-127739485D02*
G75*
G02*
X145763345Y-127739485I-199999J0D01*
G01*
X145763345Y-127739485D02*
G75*
G02*
X146163343Y-127739485I199999J0D01*
G01*
X147718978Y-129259765D02*
G75*
G02*
X147318980Y-129259765I-199999J0D01*
G01*
X147318980Y-129259765D02*
G75*
G02*
X147718978Y-129259765I199999J0D01*
G01*
X147506846Y-126360627D02*
G75*
G02*
X147106848Y-126360627I-199999J0D01*
G01*
X147106848Y-126360627D02*
G75*
G02*
X147506846Y-126360627I199999J0D01*
G01*
X149062482Y-127880907D02*
G75*
G02*
X148662480Y-127880907I-200001J0D01*
G01*
X148662480Y-127880907D02*
G75*
G02*
X149062482Y-127880907I200001J0D01*
G01*
X148337697Y-125529777D02*
G75*
G02*
X147937697Y-125529777I-200000J0D01*
G01*
X147937697Y-125529777D02*
G75*
G02*
X148337697Y-125529777I200000J0D01*
G01*
X149893331Y-127050056D02*
G75*
G02*
X149493333Y-127050056I-199999J0D01*
G01*
X149493333Y-127050056D02*
G75*
G02*
X149893331Y-127050056I199999J0D01*
G01*
X153644291Y-128455431D02*
X146750000Y-135349722D01*
X139855709Y-128455431D01*
X146750000Y-121561140D01*
X153644291Y-128455431D01*
X144080672Y-132680394D02*
X145141332Y-131619734D01*
X142560392Y-131124759D02*
X143621052Y-130064099D01*
X145547918Y-131389924D02*
X146325736Y-131213148D01*
X143850862Y-129657513D02*
X144027639Y-128879695D01*
X146290381Y-130753528D02*
X148818287Y-133281435D01*
X144487258Y-128915050D02*
X141959351Y-126387144D01*
X145821922Y-127598064D02*
X143294016Y-125070157D01*
X147660400Y-129401186D02*
X150188307Y-131929093D01*
X146157798Y-127827874D02*
X147969759Y-128579175D01*
X147165425Y-126219206D02*
X144637518Y-123691299D01*
X149003903Y-128022328D02*
X151531810Y-130550235D01*
X147907887Y-125582810D02*
X147130070Y-125759586D01*
X149640299Y-127279866D02*
X149463522Y-128057684D01*
X149375134Y-124292340D02*
X148314474Y-125353000D01*
X150930769Y-125812619D02*
X149870109Y-126873280D01*
%TD*%
M02*
