%TF.GenerationSoftware,KiCad,Pcbnew,9.0.4*%
%TF.CreationDate,2025-12-16T10:37:17-05:00*%
%TF.ProjectId,TARS,54415253-2e6b-4696-9361-645f70636258,rev?*%
%TF.SameCoordinates,Original*%
%TF.FileFunction,Profile,NP*%
%FSLAX46Y46*%
G04 Gerber Fmt 4.6, Leading zero omitted, Abs format (unit mm)*
G04 Created by KiCad (PCBNEW 9.0.4) date 2025-12-16 10:37:17*
%MOMM*%
%LPD*%
G01*
G04 APERTURE LIST*
%TA.AperFunction,Profile*%
%ADD10C,0.050000*%
%TD*%
G04 APERTURE END LIST*
D10*
X166150000Y-144400000D02*
G75*
G02*
X163750000Y-144400000I-1200000J0D01*
G01*
X166150000Y-81425000D02*
X166150000Y-80224000D01*
X129750000Y-80750000D02*
X129750000Y-155750000D01*
X166150000Y-144400000D02*
X166150000Y-126075000D01*
X166150000Y-114790000D02*
X178150000Y-114790000D01*
X166150000Y-103175000D02*
G75*
G02*
X163750000Y-103175000I-1200000J0D01*
G01*
X166150000Y-91725000D02*
X166150000Y-103175000D01*
X166150000Y-114224000D02*
X174151000Y-114224000D01*
X163750000Y-154700000D02*
X163750000Y-155750000D01*
X163750000Y-115775000D02*
X163750000Y-113475000D01*
X178150000Y-114790000D02*
X178150000Y-155790000D01*
X166150000Y-81425000D02*
G75*
G02*
X163750000Y-81425000I-1200000J0D01*
G01*
X174151000Y-80224000D02*
X174151000Y-114224000D01*
X166150000Y-113475000D02*
X166150000Y-114224000D01*
X174151000Y-80224000D02*
X166151000Y-80224000D01*
X163750000Y-103175000D02*
X163750000Y-91725000D01*
X163750000Y-80750000D02*
X129750000Y-80750000D01*
X178150000Y-155790000D02*
X166150000Y-155790000D01*
X163750000Y-113475000D02*
G75*
G02*
X166150000Y-113475000I1200000J0D01*
G01*
X163750000Y-154700000D02*
G75*
G02*
X166150000Y-154700000I1200000J0D01*
G01*
X166150000Y-115775000D02*
X166150000Y-114790000D01*
X163750000Y-144400000D02*
X163750000Y-126075000D01*
X163750000Y-126075000D02*
G75*
G02*
X166150000Y-126075000I1200000J0D01*
G01*
X166150000Y-155790000D02*
X166150000Y-154700000D01*
X129750000Y-155750000D02*
X163750000Y-155750000D01*
X166150000Y-115775000D02*
G75*
G02*
X163750000Y-115775000I-1200000J0D01*
G01*
X163750000Y-91725000D02*
G75*
G02*
X166150000Y-91725000I1200000J0D01*
G01*
X163750000Y-81425000D02*
X163750000Y-80750000D01*
M02*
