M48
; DRILL file {KiCad 9.0.4} date 2025-12-16T11:42:36-0500
; FORMAT={-:-/ absolute / metric / decimal}
; #@! TF.CreationDate,2025-12-16T11:42:36-05:00
; #@! TF.GenerationSoftware,Kicad,Pcbnew,9.0.4
; #@! TF.FileFunction,Plated,1,2,PTH
FMAT,2
METRIC
; #@! TA.AperFunction,Plated,PTH,ComponentDrill
T1C0.200
; #@! TA.AperFunction,Plated,PTH,ViaDrill
T2C0.300
; #@! TA.AperFunction,Plated,PTH,ComponentDrill
T3C0.400
; #@! TA.AperFunction,Plated,PTH,ComponentDrill
T4C0.600
; #@! TA.AperFunction,Plated,PTH,ComponentDrill
T5C1.000
%
G90
G05
T1
X144.06Y-110.895
X144.06Y-112.295
X144.76Y-110.195
X144.76Y-111.595
X144.76Y-112.995
X145.46Y-110.895
X145.46Y-112.295
X146.16Y-110.195
X146.16Y-111.595
X146.16Y-112.995
X146.86Y-110.895
X146.86Y-112.295
T2
X131.0Y-135.25
X133.75Y-136.5
X137.74Y-101.345
X138.0Y-94.0
X138.5Y-104.5
X138.75Y-103.0
X138.75Y-122.0
X139.5Y-122.5
X140.25Y-116.25
X141.25Y-112.0
X141.25Y-121.75
X142.25Y-112.0
X142.25Y-114.5
X142.25Y-121.5
X142.5Y-122.5
X143.117Y-113.855
X143.425Y-124.375
X143.75Y-121.75
X144.25Y-92.5
X144.25Y-117.25
X144.41Y-101.222
X144.5Y-122.5
X145.325Y-124.375
X145.36Y-101.345
X146.63Y-101.345
X146.75Y-117.25
X147.225Y-124.375
X147.9Y-101.345
X149.25Y-93.25
X149.25Y-118.75
X149.75Y-112.0
X150.2Y-130.35
X150.44Y-118.845
X150.75Y-110.5
X151.75Y-111.25
X152.0Y-117.5
X152.75Y-105.0
X152.75Y-116.75
X153.0Y-120.75
X153.75Y-132.75
X153.75Y-136.0
X154.0Y-113.0
X154.0Y-114.75
X154.25Y-120.75
X154.25Y-132.0
X155.5Y-90.0
X155.75Y-124.0
X156.5Y-120.5
X156.95Y-127.75
X157.0Y-123.25
X157.5Y-110.0
X158.25Y-131.75
X159.25Y-135.25
X160.75Y-131.5
X162.5Y-121.5
X162.75Y-143.0
X162.75Y-147.25
X170.5Y-138.066
X170.5Y-141.066
X171.426Y-102.7
X171.426Y-105.7
T3
X167.726Y-105.775
X167.726Y-106.625
X167.726Y-107.475
X167.726Y-108.325
X167.726Y-109.175
X167.726Y-110.025
X167.726Y-110.875
X167.726Y-111.725
X169.076Y-105.775
X169.076Y-106.625
X169.076Y-107.475
X169.076Y-108.325
X169.076Y-109.175
X169.076Y-110.025
X169.076Y-110.875
X169.076Y-111.725
T5
X133.66Y-138.8
X133.66Y-141.34
X133.66Y-143.88
X133.66Y-146.42
X133.66Y-148.96
X133.66Y-151.5
X137.61Y-83.0
X138.25Y-138.8
X138.25Y-141.34
X138.25Y-143.88
X138.25Y-146.42
X138.25Y-148.96
X138.25Y-151.5
X140.15Y-83.0
X142.69Y-83.0
X142.75Y-143.88
X142.75Y-146.42
X142.75Y-148.96
X142.75Y-151.5
X145.23Y-83.0
X147.25Y-143.88
X147.25Y-146.42
X147.25Y-148.96
X147.25Y-151.5
X147.77Y-83.0
X150.31Y-83.0
X152.85Y-83.0
X154.18Y-145.01
X155.39Y-83.0
X156.72Y-145.01
X159.26Y-145.01
X160.5Y-83.96
X160.5Y-86.5
X160.5Y-89.04
X160.5Y-91.58
X160.5Y-96.5
X160.5Y-99.04
X160.5Y-101.58
X160.5Y-106.42
X160.5Y-108.96
X160.5Y-111.5
X160.5Y-115.92
X160.5Y-118.46
X160.5Y-121.0
X160.5Y-125.725
X160.5Y-128.265
X161.8Y-145.01
X167.751Y-82.67
X167.751Y-85.21
X167.751Y-87.75
X167.751Y-90.29
X167.94Y-117.566
X170.48Y-117.566
X173.02Y-117.566
X175.56Y-117.566
T4
X167.956Y-104.425G85X169.456Y-104.425
G05
X167.956Y-113.075G85X169.456Y-113.075
G05
X171.686Y-104.425G85X172.486Y-104.425
G05
X171.686Y-113.075G85X172.486Y-113.075
G05
M30
