M48
; DRILL file {KiCad 9.0.4} date 2025-12-16T11:42:36-0500
; FORMAT={-:-/ absolute / metric / decimal}
; #@! TF.CreationDate,2025-12-16T11:42:36-05:00
; #@! TF.GenerationSoftware,Kicad,Pcbnew,9.0.4
; #@! TF.FileFunction,NonPlated,1,2,NPTH
FMAT,2
METRIC
; #@! TA.AperFunction,NonPlated,NPTH,ComponentDrill
T1C0.500
%
G90
G05
T1
X164.0Y-83.0
X164.0Y-83.75
X164.0Y-84.5
X164.0Y-104.75
X164.0Y-105.5
X164.0Y-106.25
X164.0Y-121.25
X164.0Y-122.0
X164.0Y-122.75
X164.0Y-149.5
X164.0Y-150.25
X164.0Y-151.0
X165.5Y-83.0
X165.5Y-83.75
X165.5Y-84.5
X165.5Y-104.75
X165.5Y-105.5
X165.5Y-106.25
X165.5Y-121.25
X165.5Y-122.0
X165.5Y-122.75
X165.5Y-149.5
X165.5Y-150.25
X165.5Y-151.0
M30
