%TF.GenerationSoftware,KiCad,Pcbnew,9.0.4*%
%TF.CreationDate,2025-12-17T09:45:10-05:00*%
%TF.ProjectId,TARS,54415253-2e6b-4696-9361-645f70636258,rev?*%
%TF.SameCoordinates,Original*%
%TF.FileFunction,Profile,NP*%
%FSLAX46Y46*%
G04 Gerber Fmt 4.6, Leading zero omitted, Abs format (unit mm)*
G04 Created by KiCad (PCBNEW 9.0.4) date 2025-12-17 09:45:10*
%MOMM*%
%LPD*%
G01*
G04 APERTURE LIST*
%TA.AperFunction,Profile*%
%ADD10C,0.050000*%
%TD*%
G04 APERTURE END LIST*
D10*
X163750000Y-144400000D02*
X163750000Y-126075000D01*
X129750000Y-80750000D02*
X129750000Y-155750000D01*
X163750000Y-80750000D02*
X163750000Y-81750000D01*
X163750000Y-91750000D02*
X163750000Y-85750000D01*
X165750000Y-144926000D02*
X165750000Y-148250000D01*
X165750000Y-144926000D02*
X165750000Y-126601000D01*
X163750000Y-85750000D02*
G75*
G02*
X165750000Y-85750000I1000000J0D01*
G01*
X165750000Y-103500000D02*
G75*
G02*
X163750000Y-103500000I-1000000J0D01*
G01*
X165750000Y-115316000D02*
X177750000Y-115316000D01*
X165750000Y-114750000D02*
X173751000Y-114750000D01*
X163750000Y-154700000D02*
X163750000Y-155750000D01*
X163750000Y-115775000D02*
X163750000Y-113475000D01*
X165750000Y-120000000D02*
G75*
G02*
X163750000Y-120000000I-1000000J0D01*
G01*
X177750000Y-115316000D02*
X177750000Y-156316000D01*
X163750000Y-103500000D02*
X163750000Y-91750000D01*
X165750000Y-81750000D02*
X165750000Y-80750000D01*
X163750000Y-115775000D02*
X163750000Y-120000000D01*
X173751000Y-80750000D02*
X173751000Y-114750000D01*
X165750000Y-92251000D02*
X165750000Y-103500000D01*
X163750000Y-126075000D02*
X163750000Y-124000000D01*
X165750000Y-92251000D02*
X165750000Y-85750000D01*
X165750000Y-114001000D02*
X165750000Y-114750000D01*
X163750000Y-154700000D02*
X163750000Y-152250000D01*
X165750000Y-155226000D02*
X165750000Y-152250000D01*
X173751000Y-80750000D02*
X165751000Y-80750000D01*
X165750000Y-126601000D02*
X165750000Y-124000000D01*
X163750000Y-152250000D02*
G75*
G02*
X165750000Y-152250000I1000000J0D01*
G01*
X165750000Y-120000000D02*
X165750000Y-116301000D01*
X163750000Y-80750000D02*
X129750000Y-80750000D01*
X165750000Y-81750000D02*
G75*
G02*
X163750000Y-81750000I-1000000J0D01*
G01*
X163750000Y-144400000D02*
X163750000Y-148250000D01*
X165750000Y-114001000D02*
X165750000Y-107500000D01*
X163750000Y-124000000D02*
G75*
G02*
X165750000Y-124000000I1000000J0D01*
G01*
X177750000Y-156316000D02*
X165750000Y-156316000D01*
X165750000Y-116301000D02*
X165750000Y-115316000D01*
X163750000Y-113475000D02*
X163750000Y-107500000D01*
X163750000Y-107500000D02*
G75*
G02*
X165750000Y-107500000I1000000J0D01*
G01*
X165750000Y-156316000D02*
X165750000Y-155226000D01*
X129750000Y-155750000D02*
X163750000Y-155750000D01*
X165750000Y-148250000D02*
G75*
G02*
X163750000Y-148250000I-1000000J0D01*
G01*
M02*
