%TF.GenerationSoftware,KiCad,Pcbnew,9.0.4*%
%TF.CreationDate,2025-12-16T11:42:33-05:00*%
%TF.ProjectId,TARS,54415253-2e6b-4696-9361-645f70636258,rev?*%
%TF.SameCoordinates,Original*%
%TF.FileFunction,Paste,Top*%
%TF.FilePolarity,Positive*%
%FSLAX46Y46*%
G04 Gerber Fmt 4.6, Leading zero omitted, Abs format (unit mm)*
G04 Created by KiCad (PCBNEW 9.0.4) date 2025-12-16 11:42:33*
%MOMM*%
%LPD*%
G01*
G04 APERTURE LIST*
G04 Aperture macros list*
%AMRoundRect*
0 Rectangle with rounded corners*
0 $1 Rounding radius*
0 $2 $3 $4 $5 $6 $7 $8 $9 X,Y pos of 4 corners*
0 Add a 4 corners polygon primitive as box body*
4,1,4,$2,$3,$4,$5,$6,$7,$8,$9,$2,$3,0*
0 Add four circle primitives for the rounded corners*
1,1,$1+$1,$2,$3*
1,1,$1+$1,$4,$5*
1,1,$1+$1,$6,$7*
1,1,$1+$1,$8,$9*
0 Add four rect primitives between the rounded corners*
20,1,$1+$1,$2,$3,$4,$5,0*
20,1,$1+$1,$4,$5,$6,$7,0*
20,1,$1+$1,$6,$7,$8,$9,0*
20,1,$1+$1,$8,$9,$2,$3,0*%
G04 Aperture macros list end*
%ADD10RoundRect,0.243750X0.456250X-0.243750X0.456250X0.243750X-0.456250X0.243750X-0.456250X-0.243750X0*%
%ADD11RoundRect,0.243750X-0.456250X0.243750X-0.456250X-0.243750X0.456250X-0.243750X0.456250X0.243750X0*%
%ADD12RoundRect,0.250000X0.475000X-0.250000X0.475000X0.250000X-0.475000X0.250000X-0.475000X-0.250000X0*%
%ADD13RoundRect,0.250000X-0.262500X-0.450000X0.262500X-0.450000X0.262500X0.450000X-0.262500X0.450000X0*%
%ADD14R,0.900000X0.900000*%
%ADD15R,0.900000X1.500000*%
%ADD16R,1.500000X0.900000*%
%ADD17RoundRect,0.250000X-0.250000X-0.475000X0.250000X-0.475000X0.250000X0.475000X-0.250000X0.475000X0*%
%ADD18RoundRect,0.150000X0.512500X0.150000X-0.512500X0.150000X-0.512500X-0.150000X0.512500X-0.150000X0*%
%ADD19RoundRect,0.250000X0.250000X-1.150000X0.250000X1.150000X-0.250000X1.150000X-0.250000X-1.150000X0*%
%ADD20RoundRect,0.250000X0.450000X-0.262500X0.450000X0.262500X-0.450000X0.262500X-0.450000X-0.262500X0*%
%ADD21RoundRect,0.250000X-0.250000X1.150000X-0.250000X-1.150000X0.250000X-1.150000X0.250000X1.150000X0*%
%ADD22RoundRect,0.250000X-0.475000X0.250000X-0.475000X-0.250000X0.475000X-0.250000X0.475000X0.250000X0*%
%ADD23RoundRect,0.125000X0.125000X0.125000X-0.125000X0.125000X-0.125000X-0.125000X0.125000X-0.125000X0*%
%ADD24RoundRect,0.062500X0.350000X0.062500X-0.350000X0.062500X-0.350000X-0.062500X0.350000X-0.062500X0*%
%ADD25RoundRect,0.062500X0.062500X0.350000X-0.062500X0.350000X-0.062500X-0.350000X0.062500X-0.350000X0*%
%ADD26RoundRect,0.250000X-0.450000X0.262500X-0.450000X-0.262500X0.450000X-0.262500X0.450000X0.262500X0*%
G04 APERTURE END LIST*
D10*
%TO.C,D1*%
X175920000Y-155253500D03*
X175920000Y-153378500D03*
%TD*%
D11*
%TO.C,D10*%
X172233000Y-124479500D03*
X172233000Y-126354500D03*
%TD*%
D12*
%TO.C,C7*%
X152010000Y-98500000D03*
X152010000Y-96600000D03*
%TD*%
D13*
%TO.C,R15*%
X167926000Y-97750000D03*
X169751000Y-97750000D03*
%TD*%
D14*
%TO.C,U1*%
X144060000Y-112995000D03*
X145460000Y-112995000D03*
X146860000Y-112995000D03*
X144060000Y-111595000D03*
X145460000Y-111595000D03*
X146860000Y-111595000D03*
X144060000Y-110195000D03*
X145460000Y-110195000D03*
X146860000Y-110195000D03*
D15*
X137740000Y-118845000D03*
X139010000Y-118845000D03*
X140280000Y-118845000D03*
X141550000Y-118845000D03*
X142820000Y-118845000D03*
X144090000Y-118845000D03*
X145360000Y-118845000D03*
X146630000Y-118845000D03*
X147900000Y-118845000D03*
X149170000Y-118845000D03*
X150440000Y-118845000D03*
X151710000Y-118845000D03*
X152980000Y-118845000D03*
X154250000Y-118845000D03*
D16*
X155500000Y-117080000D03*
X155500000Y-115810000D03*
X155500000Y-114540000D03*
X155500000Y-113270000D03*
X155500000Y-112000000D03*
X155500000Y-110730000D03*
X155500000Y-109460000D03*
X155500000Y-108190000D03*
X155500000Y-106920000D03*
X155500000Y-105650000D03*
X155500000Y-104380000D03*
X155500000Y-103110000D03*
D15*
X154250000Y-101345000D03*
X152980000Y-101345000D03*
X151710000Y-101345000D03*
X150440000Y-101345000D03*
X149170000Y-101345000D03*
X147900000Y-101345000D03*
X146630000Y-101345000D03*
X145360000Y-101345000D03*
X144090000Y-101345000D03*
X142820000Y-101345000D03*
X141550000Y-101345000D03*
X140280000Y-101345000D03*
X139010000Y-101345000D03*
X137740000Y-101345000D03*
%TD*%
D17*
%TO.C,C3*%
X155050000Y-126000000D03*
X156950000Y-126000000D03*
%TD*%
D12*
%TO.C,C5*%
X145990000Y-98500000D03*
X145990000Y-96600000D03*
%TD*%
D11*
%TO.C,D5*%
X175900000Y-140086500D03*
X175900000Y-141961500D03*
%TD*%
D10*
%TO.C,D11*%
X172233000Y-122647500D03*
X172233000Y-120772500D03*
%TD*%
D11*
%TO.C,D2*%
X172234000Y-149712500D03*
X172234000Y-151587500D03*
%TD*%
D12*
%TO.C,C1*%
X158750000Y-141250000D03*
X158750000Y-139350000D03*
%TD*%
%TO.C,C6*%
X149000000Y-98500000D03*
X149000000Y-96600000D03*
%TD*%
D10*
%TO.C,D9*%
X175900000Y-126334500D03*
X175900000Y-124459500D03*
%TD*%
D13*
%TO.C,R4*%
X141925000Y-139500000D03*
X143750000Y-139500000D03*
%TD*%
D17*
%TO.C,C4*%
X155050000Y-129500000D03*
X156950000Y-129500000D03*
%TD*%
D18*
%TO.C,U2*%
X156500000Y-141150000D03*
X156500000Y-140200000D03*
X156500000Y-139250000D03*
X154225000Y-139250000D03*
X154225000Y-141150000D03*
%TD*%
D19*
%TO.C,SW6*%
X138000000Y-96900000D03*
X138000000Y-91100000D03*
X142000000Y-96900000D03*
X142000000Y-91100000D03*
%TD*%
D11*
%TO.C,D4*%
X172234000Y-143732500D03*
X172234000Y-145607500D03*
%TD*%
D20*
%TO.C,R2*%
X161250000Y-141250000D03*
X161250000Y-139425000D03*
%TD*%
%TO.C,R1*%
X145990000Y-92962500D03*
X145990000Y-91137500D03*
%TD*%
D11*
%TO.C,D12*%
X168566000Y-120812500D03*
X168566000Y-122687500D03*
%TD*%
D13*
%TO.C,R5*%
X146425000Y-139500000D03*
X148250000Y-139500000D03*
%TD*%
D11*
%TO.C,D6*%
X168568000Y-140086500D03*
X168568000Y-141961500D03*
%TD*%
D21*
%TO.C,SW5*%
X155500000Y-87100000D03*
X155500000Y-92900000D03*
X151500000Y-87100000D03*
X151500000Y-92900000D03*
%TD*%
D10*
%TO.C,D3*%
X168567000Y-151587500D03*
X168567000Y-149712500D03*
%TD*%
D22*
%TO.C,C8*%
X148490000Y-91100000D03*
X148490000Y-93000000D03*
%TD*%
D23*
%TO.C,U3*%
X156872500Y-134060000D03*
X156872500Y-133440000D03*
X156252500Y-134060000D03*
X156252500Y-133440000D03*
D24*
X158000000Y-134500000D03*
X158000000Y-134000000D03*
X158000000Y-133500000D03*
X158000000Y-133000000D03*
D25*
X157312500Y-132312500D03*
X156812500Y-132312500D03*
X156312500Y-132312500D03*
X155812500Y-132312500D03*
D24*
X155125000Y-133000000D03*
X155125000Y-133500000D03*
X155125000Y-134000000D03*
X155125000Y-134500000D03*
D25*
X155812500Y-135187500D03*
X156312500Y-135187500D03*
X156812500Y-135187500D03*
X157312500Y-135187500D03*
%TD*%
D12*
%TO.C,C2*%
X152000000Y-141250000D03*
X152000000Y-139350000D03*
%TD*%
D13*
%TO.C,R16*%
X167926000Y-100700000D03*
X169751000Y-100700000D03*
%TD*%
D10*
%TO.C,D8*%
X175900000Y-132314500D03*
X175900000Y-130439500D03*
%TD*%
D11*
%TO.C,D7*%
X172234000Y-140085500D03*
X172234000Y-141960500D03*
%TD*%
D26*
%TO.C,R3*%
X160872500Y-132897500D03*
X160872500Y-134722500D03*
%TD*%
M02*
